%TF.GenerationSoftware,KiCad,Pcbnew,4.0.7-e2-6376~58~ubuntu16.04.1*%
%TF.CreationDate,2018-07-07T10:36:50-07:00*%
%TF.ProjectId,dcload,64636C6F61642E6B696361645F706362,rev?*%
%TF.FileFunction,Legend,Bot*%
%FSLAX46Y46*%
G04 Gerber Fmt 4.6, Leading zero omitted, Abs format (unit mm)*
G04 Created by KiCad (PCBNEW 4.0.7-e2-6376~58~ubuntu16.04.1) date Sat Jul  7 10:36:50 2018*
%MOMM*%
%LPD*%
G01*
G04 APERTURE LIST*
%ADD10C,0.100000*%
%ADD11C,0.300000*%
%ADD12C,0.150000*%
G04 APERTURE END LIST*
D10*
D11*
X190964286Y-53628571D02*
X190964286Y-54700000D01*
X191035714Y-54914286D01*
X191178571Y-55057143D01*
X191392857Y-55128571D01*
X191535714Y-55128571D01*
X189607143Y-54128571D02*
X189607143Y-55128571D01*
X190250000Y-54128571D02*
X190250000Y-54914286D01*
X190178572Y-55057143D01*
X190035714Y-55128571D01*
X189821429Y-55128571D01*
X189678572Y-55057143D01*
X189607143Y-54985714D01*
X188678571Y-55128571D02*
X188821429Y-55057143D01*
X188892857Y-54914286D01*
X188892857Y-53628571D01*
X188250000Y-54128571D02*
X187892857Y-55128571D01*
X187535715Y-54128571D02*
X187892857Y-55128571D01*
X188035715Y-55485714D01*
X188107143Y-55557143D01*
X188250000Y-55628571D01*
X185964286Y-53628571D02*
X184964286Y-53628571D01*
X185607143Y-55128571D01*
X184321430Y-55057143D02*
X184321430Y-55128571D01*
X184392858Y-55271429D01*
X184464287Y-55342857D01*
X182607144Y-53771429D02*
X182535715Y-53700000D01*
X182392858Y-53628571D01*
X182035715Y-53628571D01*
X181892858Y-53700000D01*
X181821429Y-53771429D01*
X181750001Y-53914286D01*
X181750001Y-54057143D01*
X181821429Y-54271429D01*
X182678572Y-55128571D01*
X181750001Y-55128571D01*
X180821430Y-53628571D02*
X180678573Y-53628571D01*
X180535716Y-53700000D01*
X180464287Y-53771429D01*
X180392858Y-53914286D01*
X180321430Y-54200000D01*
X180321430Y-54557143D01*
X180392858Y-54842857D01*
X180464287Y-54985714D01*
X180535716Y-55057143D01*
X180678573Y-55128571D01*
X180821430Y-55128571D01*
X180964287Y-55057143D01*
X181035716Y-54985714D01*
X181107144Y-54842857D01*
X181178573Y-54557143D01*
X181178573Y-54200000D01*
X181107144Y-53914286D01*
X181035716Y-53771429D01*
X180964287Y-53700000D01*
X180821430Y-53628571D01*
X178892859Y-55128571D02*
X179750002Y-55128571D01*
X179321430Y-55128571D02*
X179321430Y-53628571D01*
X179464287Y-53842857D01*
X179607145Y-53985714D01*
X179750002Y-54057143D01*
X178035716Y-54271429D02*
X178178574Y-54200000D01*
X178250002Y-54128571D01*
X178321431Y-53985714D01*
X178321431Y-53914286D01*
X178250002Y-53771429D01*
X178178574Y-53700000D01*
X178035716Y-53628571D01*
X177750002Y-53628571D01*
X177607145Y-53700000D01*
X177535716Y-53771429D01*
X177464288Y-53914286D01*
X177464288Y-53985714D01*
X177535716Y-54128571D01*
X177607145Y-54200000D01*
X177750002Y-54271429D01*
X178035716Y-54271429D01*
X178178574Y-54342857D01*
X178250002Y-54414286D01*
X178321431Y-54557143D01*
X178321431Y-54842857D01*
X178250002Y-54985714D01*
X178178574Y-55057143D01*
X178035716Y-55128571D01*
X177750002Y-55128571D01*
X177607145Y-55057143D01*
X177535716Y-54985714D01*
X177464288Y-54842857D01*
X177464288Y-54557143D01*
X177535716Y-54414286D01*
X177607145Y-54342857D01*
X177750002Y-54271429D01*
X191607143Y-56178571D02*
X191107143Y-57678571D01*
X190607143Y-56178571D01*
X190178572Y-56321429D02*
X190107143Y-56250000D01*
X189964286Y-56178571D01*
X189607143Y-56178571D01*
X189464286Y-56250000D01*
X189392857Y-56321429D01*
X189321429Y-56464286D01*
X189321429Y-56607143D01*
X189392857Y-56821429D01*
X190250000Y-57678571D01*
X189321429Y-57678571D01*
X191392857Y-60228571D02*
X191392857Y-58728571D01*
X190821429Y-58728571D01*
X190678571Y-58800000D01*
X190607143Y-58871429D01*
X190535714Y-59014286D01*
X190535714Y-59228571D01*
X190607143Y-59371429D01*
X190678571Y-59442857D01*
X190821429Y-59514286D01*
X191392857Y-59514286D01*
X189892857Y-60228571D02*
X189892857Y-58728571D01*
X189250000Y-60228571D02*
X189250000Y-59442857D01*
X189321429Y-59300000D01*
X189464286Y-59228571D01*
X189678571Y-59228571D01*
X189821429Y-59300000D01*
X189892857Y-59371429D01*
X187964286Y-60157143D02*
X188107143Y-60228571D01*
X188392857Y-60228571D01*
X188535714Y-60157143D01*
X188607143Y-60014286D01*
X188607143Y-59442857D01*
X188535714Y-59300000D01*
X188392857Y-59228571D01*
X188107143Y-59228571D01*
X187964286Y-59300000D01*
X187892857Y-59442857D01*
X187892857Y-59585714D01*
X188607143Y-59728571D01*
X187035714Y-60228571D02*
X187178572Y-60157143D01*
X187250000Y-60014286D01*
X187250000Y-58728571D01*
X186464286Y-59228571D02*
X186464286Y-60728571D01*
X186464286Y-59300000D02*
X186321429Y-59228571D01*
X186035715Y-59228571D01*
X185892858Y-59300000D01*
X185821429Y-59371429D01*
X185750000Y-59514286D01*
X185750000Y-59942857D01*
X185821429Y-60085714D01*
X185892858Y-60157143D01*
X186035715Y-60228571D01*
X186321429Y-60228571D01*
X186464286Y-60157143D01*
X185178572Y-60157143D02*
X185035715Y-60228571D01*
X184750000Y-60228571D01*
X184607143Y-60157143D01*
X184535715Y-60014286D01*
X184535715Y-59942857D01*
X184607143Y-59800000D01*
X184750000Y-59728571D01*
X184964286Y-59728571D01*
X185107143Y-59657143D01*
X185178572Y-59514286D01*
X185178572Y-59442857D01*
X185107143Y-59300000D01*
X184964286Y-59228571D01*
X184750000Y-59228571D01*
X184607143Y-59300000D01*
X182892857Y-58728571D02*
X182535714Y-60228571D01*
X182250000Y-59157143D01*
X181964286Y-60228571D01*
X181607143Y-58728571D01*
X181035714Y-60228571D02*
X181035714Y-59228571D01*
X181035714Y-58728571D02*
X181107143Y-58800000D01*
X181035714Y-58871429D01*
X180964286Y-58800000D01*
X181035714Y-58728571D01*
X181035714Y-58871429D01*
X180107142Y-60228571D02*
X180250000Y-60157143D01*
X180321428Y-60014286D01*
X180321428Y-58728571D01*
X179321428Y-60228571D02*
X179464286Y-60157143D01*
X179535714Y-60014286D01*
X179535714Y-58728571D01*
X178750000Y-60228571D02*
X178750000Y-59228571D01*
X178750000Y-58728571D02*
X178821429Y-58800000D01*
X178750000Y-58871429D01*
X178678572Y-58800000D01*
X178750000Y-58728571D01*
X178750000Y-58871429D01*
X177392857Y-60228571D02*
X177392857Y-59442857D01*
X177464286Y-59300000D01*
X177607143Y-59228571D01*
X177892857Y-59228571D01*
X178035714Y-59300000D01*
X177392857Y-60157143D02*
X177535714Y-60228571D01*
X177892857Y-60228571D01*
X178035714Y-60157143D01*
X178107143Y-60014286D01*
X178107143Y-59871429D01*
X178035714Y-59728571D01*
X177892857Y-59657143D01*
X177535714Y-59657143D01*
X177392857Y-59585714D01*
X176678571Y-60228571D02*
X176678571Y-59228571D01*
X176678571Y-59371429D02*
X176607143Y-59300000D01*
X176464285Y-59228571D01*
X176250000Y-59228571D01*
X176107143Y-59300000D01*
X176035714Y-59442857D01*
X176035714Y-60228571D01*
X176035714Y-59442857D02*
X175964285Y-59300000D01*
X175821428Y-59228571D01*
X175607143Y-59228571D01*
X175464285Y-59300000D01*
X175392857Y-59442857D01*
X175392857Y-60228571D01*
X174750000Y-60157143D02*
X174607143Y-60228571D01*
X174321428Y-60228571D01*
X174178571Y-60157143D01*
X174107143Y-60014286D01*
X174107143Y-59942857D01*
X174178571Y-59800000D01*
X174321428Y-59728571D01*
X174535714Y-59728571D01*
X174678571Y-59657143D01*
X174750000Y-59514286D01*
X174750000Y-59442857D01*
X174678571Y-59300000D01*
X174535714Y-59228571D01*
X174321428Y-59228571D01*
X174178571Y-59300000D01*
D12*
X95715000Y-100600000D02*
X84285000Y-100600000D01*
X84285000Y-100600000D02*
X84285000Y-87900000D01*
X84285000Y-87900000D02*
X95715000Y-87900000D01*
X95715000Y-87900000D02*
X95715000Y-100600000D01*
X251600000Y-38500000D02*
X239900000Y-38500000D01*
X239900000Y-38500000D02*
X239900000Y-24750000D01*
X239900000Y-24750000D02*
X251600000Y-24750000D01*
X251600000Y-24750000D02*
X251600000Y-38500000D01*
X238750000Y-85000000D02*
X252750000Y-85000000D01*
X252750000Y-85000000D02*
X252750000Y-103500000D01*
X252750000Y-103500000D02*
X238750000Y-103500000D01*
X238750000Y-103500000D02*
X238750000Y-85000000D01*
X33150000Y-18750000D02*
X131350000Y-18750000D01*
X131350000Y-18750000D02*
X131350000Y-78750000D01*
X131350000Y-78750000D02*
X33150000Y-78750000D01*
X33150000Y-78750000D02*
X33150000Y-18750000D01*
X141450000Y-92750000D02*
X141450000Y-19750000D01*
X141450000Y-19750000D02*
X226550000Y-19750000D01*
X226550000Y-19750000D02*
X226550000Y-92750000D01*
X226550000Y-92750000D02*
X141450000Y-92750000D01*
X247250000Y-63000000D02*
G75*
G03X247250000Y-63000000I-1500000J0D01*
G01*
M02*
