%TF.GenerationSoftware,KiCad,Pcbnew,4.0.7-e2-6376~58~ubuntu16.04.1*%
%TF.CreationDate,2018-07-07T10:36:50-07:00*%
%TF.ProjectId,dcload,64636C6F61642E6B696361645F706362,rev?*%
%TF.FileFunction,Profile,NP*%
%FSLAX46Y46*%
G04 Gerber Fmt 4.6, Leading zero omitted, Abs format (unit mm)*
G04 Created by KiCad (PCBNEW 4.0.7-e2-6376~58~ubuntu16.04.1) date Sat Jul  7 10:36:50 2018*
%MOMM*%
%LPD*%
G01*
G04 APERTURE LIST*
%ADD10C,0.100000*%
%ADD11C,0.150000*%
G04 APERTURE END LIST*
D10*
D11*
X264910000Y-22140000D02*
G75*
G03X259370000Y-16600000I-5540000J0D01*
G01*
X259370000Y-109740000D02*
G75*
G03X264910000Y-104200000I0J5540000D01*
G01*
X15100000Y-104200000D02*
G75*
G03X20640000Y-109740000I5540000J0D01*
G01*
X20640000Y-16600000D02*
G75*
G03X15100000Y-22140000I0J-5540000D01*
G01*
X15100000Y-104200000D02*
X15100000Y-22140000D01*
X259370000Y-109740000D02*
X20640000Y-109740000D01*
X264910000Y-22140000D02*
X264910000Y-104200000D01*
X20640000Y-16600000D02*
X259370000Y-16600000D01*
X33350000Y-28650000D02*
X131150000Y-28650000D01*
X131150000Y-28650000D02*
X131150000Y-68850000D01*
X131150000Y-68850000D02*
X33350000Y-68850000D01*
X33350000Y-68850000D02*
X33350000Y-28650000D01*
X31685000Y-91140000D02*
X31685000Y-97360000D01*
X31689497Y-97367997D02*
G75*
G03X31685000Y-91140000I5535503J3117997D01*
G01*
X50739497Y-97367997D02*
G75*
G03X50735000Y-91140000I5535503J3117997D01*
G01*
X50735000Y-91140000D02*
X50735000Y-97360000D01*
X104935000Y-91140000D02*
X104935000Y-97360000D01*
X104939497Y-97367997D02*
G75*
G03X104935000Y-91140000I5535503J3117997D01*
G01*
X123989497Y-97367997D02*
G75*
G03X123985000Y-91140000I5535503J3117997D01*
G01*
X123985000Y-91140000D02*
X123985000Y-97360000D01*
X144950000Y-21250000D02*
X170450000Y-21250000D01*
X170450000Y-21250000D02*
X170450000Y-24750000D01*
X170450000Y-24750000D02*
X144950000Y-24750000D01*
X144950000Y-24750000D02*
X144950000Y-21250000D01*
X241709791Y-65684792D02*
G75*
G03X241700000Y-60330000I4040209J2684792D01*
G01*
X241700000Y-60330000D02*
X241700000Y-65670000D01*
M02*
