%TF.GenerationSoftware,KiCad,Pcbnew,4.0.7-e2-6376~58~ubuntu16.04.1*%
%TF.CreationDate,2018-07-14T16:33:13-07:00*%
%TF.ProjectId,dcload,64636C6F61642E6B696361645F706362,rev?*%
%TF.FileFunction,Legend,Bot*%
%FSLAX46Y46*%
G04 Gerber Fmt 4.6, Leading zero omitted, Abs format (unit mm)*
G04 Created by KiCad (PCBNEW 4.0.7-e2-6376~58~ubuntu16.04.1) date Sat Jul 14 16:33:13 2018*
%MOMM*%
%LPD*%
G01*
G04 APERTURE LIST*
%ADD10C,0.100000*%
%ADD11C,0.300000*%
%ADD12C,0.150000*%
G04 APERTURE END LIST*
D10*
D11*
X184214284Y-53628571D02*
X184214284Y-54700000D01*
X184285712Y-54914286D01*
X184428569Y-55057143D01*
X184642855Y-55128571D01*
X184785712Y-55128571D01*
X182857141Y-54128571D02*
X182857141Y-55128571D01*
X183499998Y-54128571D02*
X183499998Y-54914286D01*
X183428570Y-55057143D01*
X183285712Y-55128571D01*
X183071427Y-55128571D01*
X182928570Y-55057143D01*
X182857141Y-54985714D01*
X181928569Y-55128571D02*
X182071427Y-55057143D01*
X182142855Y-54914286D01*
X182142855Y-53628571D01*
X181499998Y-54128571D02*
X181142855Y-55128571D01*
X180785713Y-54128571D02*
X181142855Y-55128571D01*
X181285713Y-55485714D01*
X181357141Y-55557143D01*
X181499998Y-55628571D01*
X178285713Y-55128571D02*
X179142856Y-55128571D01*
X178714284Y-55128571D02*
X178714284Y-53628571D01*
X178857141Y-53842857D01*
X178999999Y-53985714D01*
X179142856Y-54057143D01*
X176999999Y-54128571D02*
X176999999Y-55128571D01*
X177357142Y-53557143D02*
X177714285Y-54628571D01*
X176785713Y-54628571D01*
X176142857Y-55057143D02*
X176142857Y-55128571D01*
X176214285Y-55271429D01*
X176285714Y-55342857D01*
X174428571Y-53771429D02*
X174357142Y-53700000D01*
X174214285Y-53628571D01*
X173857142Y-53628571D01*
X173714285Y-53700000D01*
X173642856Y-53771429D01*
X173571428Y-53914286D01*
X173571428Y-54057143D01*
X173642856Y-54271429D01*
X174499999Y-55128571D01*
X173571428Y-55128571D01*
X172642857Y-53628571D02*
X172500000Y-53628571D01*
X172357143Y-53700000D01*
X172285714Y-53771429D01*
X172214285Y-53914286D01*
X172142857Y-54200000D01*
X172142857Y-54557143D01*
X172214285Y-54842857D01*
X172285714Y-54985714D01*
X172357143Y-55057143D01*
X172500000Y-55128571D01*
X172642857Y-55128571D01*
X172785714Y-55057143D01*
X172857143Y-54985714D01*
X172928571Y-54842857D01*
X173000000Y-54557143D01*
X173000000Y-54200000D01*
X172928571Y-53914286D01*
X172857143Y-53771429D01*
X172785714Y-53700000D01*
X172642857Y-53628571D01*
X170714286Y-55128571D02*
X171571429Y-55128571D01*
X171142857Y-55128571D02*
X171142857Y-53628571D01*
X171285714Y-53842857D01*
X171428572Y-53985714D01*
X171571429Y-54057143D01*
X169857143Y-54271429D02*
X170000001Y-54200000D01*
X170071429Y-54128571D01*
X170142858Y-53985714D01*
X170142858Y-53914286D01*
X170071429Y-53771429D01*
X170000001Y-53700000D01*
X169857143Y-53628571D01*
X169571429Y-53628571D01*
X169428572Y-53700000D01*
X169357143Y-53771429D01*
X169285715Y-53914286D01*
X169285715Y-53985714D01*
X169357143Y-54128571D01*
X169428572Y-54200000D01*
X169571429Y-54271429D01*
X169857143Y-54271429D01*
X170000001Y-54342857D01*
X170071429Y-54414286D01*
X170142858Y-54557143D01*
X170142858Y-54842857D01*
X170071429Y-54985714D01*
X170000001Y-55057143D01*
X169857143Y-55128571D01*
X169571429Y-55128571D01*
X169428572Y-55057143D01*
X169357143Y-54985714D01*
X169285715Y-54842857D01*
X169285715Y-54557143D01*
X169357143Y-54414286D01*
X169428572Y-54342857D01*
X169571429Y-54271429D01*
X178214285Y-56178571D02*
X177714285Y-57678571D01*
X177214285Y-56178571D01*
X176857142Y-56178571D02*
X175928571Y-56178571D01*
X176428571Y-56750000D01*
X176214285Y-56750000D01*
X176071428Y-56821429D01*
X175999999Y-56892857D01*
X175928571Y-57035714D01*
X175928571Y-57392857D01*
X175999999Y-57535714D01*
X176071428Y-57607143D01*
X176214285Y-57678571D01*
X176642857Y-57678571D01*
X176785714Y-57607143D01*
X176857142Y-57535714D01*
X185607143Y-60228571D02*
X185607143Y-58728571D01*
X185035715Y-58728571D01*
X184892857Y-58800000D01*
X184821429Y-58871429D01*
X184750000Y-59014286D01*
X184750000Y-59228571D01*
X184821429Y-59371429D01*
X184892857Y-59442857D01*
X185035715Y-59514286D01*
X185607143Y-59514286D01*
X184107143Y-60228571D02*
X184107143Y-58728571D01*
X183464286Y-60228571D02*
X183464286Y-59442857D01*
X183535715Y-59300000D01*
X183678572Y-59228571D01*
X183892857Y-59228571D01*
X184035715Y-59300000D01*
X184107143Y-59371429D01*
X182178572Y-60157143D02*
X182321429Y-60228571D01*
X182607143Y-60228571D01*
X182750000Y-60157143D01*
X182821429Y-60014286D01*
X182821429Y-59442857D01*
X182750000Y-59300000D01*
X182607143Y-59228571D01*
X182321429Y-59228571D01*
X182178572Y-59300000D01*
X182107143Y-59442857D01*
X182107143Y-59585714D01*
X182821429Y-59728571D01*
X181250000Y-60228571D02*
X181392858Y-60157143D01*
X181464286Y-60014286D01*
X181464286Y-58728571D01*
X180678572Y-59228571D02*
X180678572Y-60728571D01*
X180678572Y-59300000D02*
X180535715Y-59228571D01*
X180250001Y-59228571D01*
X180107144Y-59300000D01*
X180035715Y-59371429D01*
X179964286Y-59514286D01*
X179964286Y-59942857D01*
X180035715Y-60085714D01*
X180107144Y-60157143D01*
X180250001Y-60228571D01*
X180535715Y-60228571D01*
X180678572Y-60157143D01*
X179392858Y-60157143D02*
X179250001Y-60228571D01*
X178964286Y-60228571D01*
X178821429Y-60157143D01*
X178750001Y-60014286D01*
X178750001Y-59942857D01*
X178821429Y-59800000D01*
X178964286Y-59728571D01*
X179178572Y-59728571D01*
X179321429Y-59657143D01*
X179392858Y-59514286D01*
X179392858Y-59442857D01*
X179321429Y-59300000D01*
X179178572Y-59228571D01*
X178964286Y-59228571D01*
X178821429Y-59300000D01*
X177107143Y-58728571D02*
X176750000Y-60228571D01*
X176464286Y-59157143D01*
X176178572Y-60228571D01*
X175821429Y-58728571D01*
X175250000Y-60228571D02*
X175250000Y-59228571D01*
X175250000Y-58728571D02*
X175321429Y-58800000D01*
X175250000Y-58871429D01*
X175178572Y-58800000D01*
X175250000Y-58728571D01*
X175250000Y-58871429D01*
X174321428Y-60228571D02*
X174464286Y-60157143D01*
X174535714Y-60014286D01*
X174535714Y-58728571D01*
X173535714Y-60228571D02*
X173678572Y-60157143D01*
X173750000Y-60014286D01*
X173750000Y-58728571D01*
X172964286Y-60228571D02*
X172964286Y-59228571D01*
X172964286Y-58728571D02*
X173035715Y-58800000D01*
X172964286Y-58871429D01*
X172892858Y-58800000D01*
X172964286Y-58728571D01*
X172964286Y-58871429D01*
X171607143Y-60228571D02*
X171607143Y-59442857D01*
X171678572Y-59300000D01*
X171821429Y-59228571D01*
X172107143Y-59228571D01*
X172250000Y-59300000D01*
X171607143Y-60157143D02*
X171750000Y-60228571D01*
X172107143Y-60228571D01*
X172250000Y-60157143D01*
X172321429Y-60014286D01*
X172321429Y-59871429D01*
X172250000Y-59728571D01*
X172107143Y-59657143D01*
X171750000Y-59657143D01*
X171607143Y-59585714D01*
X170892857Y-60228571D02*
X170892857Y-59228571D01*
X170892857Y-59371429D02*
X170821429Y-59300000D01*
X170678571Y-59228571D01*
X170464286Y-59228571D01*
X170321429Y-59300000D01*
X170250000Y-59442857D01*
X170250000Y-60228571D01*
X170250000Y-59442857D02*
X170178571Y-59300000D01*
X170035714Y-59228571D01*
X169821429Y-59228571D01*
X169678571Y-59300000D01*
X169607143Y-59442857D01*
X169607143Y-60228571D01*
X168964286Y-60157143D02*
X168821429Y-60228571D01*
X168535714Y-60228571D01*
X168392857Y-60157143D01*
X168321429Y-60014286D01*
X168321429Y-59942857D01*
X168392857Y-59800000D01*
X168535714Y-59728571D01*
X168750000Y-59728571D01*
X168892857Y-59657143D01*
X168964286Y-59514286D01*
X168964286Y-59442857D01*
X168892857Y-59300000D01*
X168750000Y-59228571D01*
X168535714Y-59228571D01*
X168392857Y-59300000D01*
D12*
X90715000Y-100600000D02*
X79285000Y-100600000D01*
X79285000Y-100600000D02*
X79285000Y-87900000D01*
X79285000Y-87900000D02*
X90715000Y-87900000D01*
X90715000Y-87900000D02*
X90715000Y-100600000D01*
X248062500Y-38500000D02*
X236362500Y-38500000D01*
X236362500Y-38500000D02*
X236362500Y-24750000D01*
X236362500Y-24750000D02*
X248062500Y-24750000D01*
X248062500Y-24750000D02*
X248062500Y-38500000D01*
X238750000Y-86075000D02*
X252750000Y-86075000D01*
X252750000Y-86075000D02*
X252750000Y-104575000D01*
X252750000Y-104575000D02*
X238750000Y-104575000D01*
X238750000Y-104575000D02*
X238750000Y-86075000D01*
X30150000Y-18750000D02*
X128350000Y-18750000D01*
X128350000Y-18750000D02*
X128350000Y-78750000D01*
X128350000Y-78750000D02*
X30150000Y-78750000D01*
X30150000Y-78750000D02*
X30150000Y-18750000D01*
X134450000Y-92750000D02*
X134450000Y-19750000D01*
X134450000Y-19750000D02*
X219550000Y-19750000D01*
X219550000Y-19750000D02*
X219550000Y-92750000D01*
X219550000Y-92750000D02*
X134450000Y-92750000D01*
X229250000Y-95325000D02*
G75*
G03X229250000Y-95325000I-1500000J0D01*
G01*
X249150000Y-75975000D02*
X250400000Y-75975000D01*
X224400000Y-75975000D02*
X244400000Y-75975000D01*
X224400000Y-47975000D02*
X250400000Y-47975000D01*
X250400000Y-47975000D02*
X250400000Y-78975000D01*
X250400000Y-78975000D02*
X224400000Y-78975000D01*
X224400000Y-78975000D02*
X224400000Y-47975000D01*
M02*
