%TF.GenerationSoftware,KiCad,Pcbnew,4.0.7-e2-6376~58~ubuntu16.04.1*%
%TF.CreationDate,2018-07-14T16:43:45-07:00*%
%TF.ProjectId,dcload,64636C6F61642E6B696361645F706362,rev?*%
%TF.FileFunction,Copper,L2,Bot,Signal*%
%FSLAX46Y46*%
G04 Gerber Fmt 4.6, Leading zero omitted, Abs format (unit mm)*
G04 Created by KiCad (PCBNEW 4.0.7-e2-6376~58~ubuntu16.04.1) date Sat Jul 14 16:43:45 2018*
%MOMM*%
%LPD*%
G01*
G04 APERTURE LIST*
%ADD10C,0.100000*%
%ADD11C,0.254000*%
G04 APERTURE END LIST*
D10*
D11*
G36*
X260307487Y-17405325D02*
X261113175Y-17648577D01*
X261809578Y-17996779D01*
X262040996Y-18119826D01*
X262770984Y-18715189D01*
X263371428Y-19441002D01*
X263819460Y-20269619D01*
X264098013Y-21169478D01*
X264199995Y-22139770D01*
X264200000Y-22141332D01*
X264200000Y-104165281D01*
X264104675Y-105137487D01*
X263884807Y-105865721D01*
X263780530Y-106136843D01*
X263390174Y-106870996D01*
X262794811Y-107600984D01*
X262068994Y-108201431D01*
X261240381Y-108649460D01*
X260340522Y-108928013D01*
X259370230Y-109029995D01*
X259368668Y-109030000D01*
X20674719Y-109030000D01*
X19702513Y-108934675D01*
X18800728Y-108662409D01*
X17969004Y-108220174D01*
X17239016Y-107624811D01*
X16638569Y-106898994D01*
X16190540Y-106070381D01*
X15911987Y-105170522D01*
X15810005Y-104200230D01*
X15810000Y-104198668D01*
X15810000Y-91140000D01*
X30975000Y-91140000D01*
X30975000Y-97360000D01*
X30988522Y-97497906D01*
X31028572Y-97630560D01*
X31093626Y-97752908D01*
X31094474Y-97753947D01*
X31098407Y-97761332D01*
X31103956Y-97769547D01*
X31736532Y-98691970D01*
X31775743Y-98738632D01*
X31813856Y-98786219D01*
X31820828Y-98793267D01*
X32698992Y-99668635D01*
X32748790Y-99709406D01*
X32798000Y-99750858D01*
X32806208Y-99756417D01*
X33837675Y-100444544D01*
X33894416Y-100474852D01*
X33950768Y-100505971D01*
X33959899Y-100509830D01*
X35105379Y-100984505D01*
X35166924Y-101003213D01*
X35228249Y-101022795D01*
X35237956Y-101024806D01*
X36453819Y-101267950D01*
X36517793Y-101274345D01*
X36581787Y-101281646D01*
X36591700Y-101281734D01*
X37831633Y-101284085D01*
X37895654Y-101277930D01*
X37959824Y-101272664D01*
X37969565Y-101270824D01*
X39186341Y-101032292D01*
X39247927Y-101013825D01*
X39309871Y-100996190D01*
X39319070Y-100992494D01*
X40466341Y-100522166D01*
X40523210Y-100492066D01*
X40580507Y-100462756D01*
X40588812Y-100457344D01*
X41622880Y-99773133D01*
X41672823Y-99732558D01*
X41723333Y-99692680D01*
X41730428Y-99685758D01*
X42611905Y-98813726D01*
X42653006Y-98764234D01*
X42694818Y-98715294D01*
X42700434Y-98707125D01*
X43395745Y-97680488D01*
X43426449Y-97623958D01*
X43457960Y-97567827D01*
X43461882Y-97558723D01*
X43944543Y-96416584D01*
X43963679Y-96355178D01*
X43983690Y-96293984D01*
X43985770Y-96284292D01*
X44237395Y-95070157D01*
X44244241Y-95006194D01*
X44251984Y-94942288D01*
X44252141Y-94932376D01*
X44263148Y-93692489D01*
X44257438Y-93628402D01*
X44252622Y-93564221D01*
X44250851Y-93554468D01*
X44020820Y-92336056D01*
X44002772Y-92274302D01*
X43985581Y-92212276D01*
X43981949Y-92203052D01*
X43554791Y-91140000D01*
X50025000Y-91140000D01*
X50025000Y-97360000D01*
X50038522Y-97497906D01*
X50078572Y-97630560D01*
X50143626Y-97752908D01*
X50144474Y-97753947D01*
X50148407Y-97761332D01*
X50153956Y-97769547D01*
X50786532Y-98691970D01*
X50825743Y-98738632D01*
X50863856Y-98786219D01*
X50870828Y-98793267D01*
X51748992Y-99668635D01*
X51798790Y-99709406D01*
X51848000Y-99750858D01*
X51856208Y-99756417D01*
X52887675Y-100444544D01*
X52944416Y-100474852D01*
X53000768Y-100505971D01*
X53009899Y-100509830D01*
X54155379Y-100984505D01*
X54216924Y-101003213D01*
X54278249Y-101022795D01*
X54287956Y-101024806D01*
X55503819Y-101267950D01*
X55567793Y-101274345D01*
X55631787Y-101281646D01*
X55641700Y-101281734D01*
X56881633Y-101284085D01*
X56945654Y-101277930D01*
X57009824Y-101272664D01*
X57019565Y-101270824D01*
X58236341Y-101032292D01*
X58297927Y-101013825D01*
X58359871Y-100996190D01*
X58369070Y-100992494D01*
X59516341Y-100522166D01*
X59573210Y-100492066D01*
X59630507Y-100462756D01*
X59638812Y-100457344D01*
X59717801Y-100405079D01*
X83166997Y-100405079D01*
X83173293Y-100453913D01*
X83172601Y-100503451D01*
X83196391Y-100633070D01*
X83212964Y-100761622D01*
X83228410Y-100807528D01*
X83237209Y-100855472D01*
X83286025Y-100978767D01*
X83327605Y-101102346D01*
X83355951Y-101155379D01*
X83368962Y-101188240D01*
X83395653Y-101229656D01*
X83445313Y-101322565D01*
X83459297Y-101328412D01*
X83562839Y-101489079D01*
X83811458Y-101746532D01*
X84022692Y-101893343D01*
X84027435Y-101904687D01*
X84067968Y-101924811D01*
X84105348Y-101950791D01*
X84229861Y-102005189D01*
X84349426Y-102064552D01*
X84392339Y-102076174D01*
X84433315Y-102094076D01*
X84566837Y-102123433D01*
X84696419Y-102158527D01*
X84739974Y-102161499D01*
X84782867Y-102170930D01*
X84920372Y-102173810D01*
X85055079Y-102183003D01*
X85097591Y-102177522D01*
X85140690Y-102178425D01*
X85276952Y-102154398D01*
X85411622Y-102137036D01*
X85451487Y-102123623D01*
X85493153Y-102116276D01*
X85622940Y-102065935D01*
X85752346Y-102022395D01*
X85797715Y-101998145D01*
X85826833Y-101986851D01*
X85869479Y-101959787D01*
X85972565Y-101904687D01*
X85978439Y-101890638D01*
X86129018Y-101795078D01*
X86388200Y-101548262D01*
X86544368Y-101326880D01*
X86554687Y-101322565D01*
X86571975Y-101287745D01*
X86594506Y-101255805D01*
X86652468Y-101125619D01*
X86714552Y-101000574D01*
X86724506Y-100963820D01*
X86740077Y-100928847D01*
X86771838Y-100789051D01*
X86808527Y-100653581D01*
X86811065Y-100616396D01*
X86819370Y-100579840D01*
X86820865Y-100472789D01*
X86833003Y-100294921D01*
X86824292Y-100227353D01*
X86825078Y-100171050D01*
X86802019Y-100054595D01*
X86787036Y-99938378D01*
X86767526Y-99880392D01*
X86755561Y-99819965D01*
X86710010Y-99709451D01*
X86672395Y-99597654D01*
X86635416Y-99528470D01*
X86619176Y-99489069D01*
X86594522Y-99451962D01*
X86554687Y-99377435D01*
X86541282Y-99371830D01*
X86421116Y-99190966D01*
X86168927Y-98937010D01*
X85977952Y-98808195D01*
X85972565Y-98795313D01*
X85920612Y-98769519D01*
X85872214Y-98736874D01*
X85759040Y-98689300D01*
X85650574Y-98635448D01*
X85595353Y-98620493D01*
X85542278Y-98598182D01*
X85421213Y-98573331D01*
X85303581Y-98541473D01*
X85247304Y-98537632D01*
X85191687Y-98526216D01*
X85067283Y-98525347D01*
X84944921Y-98516997D01*
X84889766Y-98524108D01*
X84833795Y-98523717D01*
X84710780Y-98547183D01*
X84588378Y-98562964D01*
X84536430Y-98580442D01*
X84482234Y-98590781D01*
X84365358Y-98638002D01*
X84247654Y-98677605D01*
X84186706Y-98710182D01*
X84150394Y-98724853D01*
X84110872Y-98750716D01*
X84027435Y-98795313D01*
X84021677Y-98809083D01*
X83850915Y-98920827D01*
X83595205Y-99171237D01*
X83457511Y-99372334D01*
X83445313Y-99377435D01*
X83422350Y-99423686D01*
X83393003Y-99466546D01*
X83342069Y-99585384D01*
X83285448Y-99699426D01*
X83272159Y-99748494D01*
X83252010Y-99795505D01*
X83224955Y-99922790D01*
X83191473Y-100046419D01*
X83188066Y-100096340D01*
X83177599Y-100145585D01*
X83175770Y-100276518D01*
X83166997Y-100405079D01*
X59717801Y-100405079D01*
X60672880Y-99773133D01*
X60722823Y-99732558D01*
X60773333Y-99692680D01*
X60780428Y-99685758D01*
X61661905Y-98813726D01*
X61703006Y-98764234D01*
X61744818Y-98715294D01*
X61750434Y-98707125D01*
X62445745Y-97680488D01*
X62476449Y-97623958D01*
X62507960Y-97567827D01*
X62511882Y-97558723D01*
X62994543Y-96416584D01*
X63013679Y-96355178D01*
X63033690Y-96293984D01*
X63035770Y-96284292D01*
X63287395Y-95070157D01*
X63294241Y-95006194D01*
X63301984Y-94942288D01*
X63302141Y-94932376D01*
X63308405Y-94226682D01*
X81171635Y-94226682D01*
X81187406Y-94397466D01*
X81184992Y-94570355D01*
X81221984Y-94771911D01*
X81240647Y-94974007D01*
X81288962Y-95136843D01*
X81319872Y-95305260D01*
X81395932Y-95497365D01*
X81454129Y-95693508D01*
X81532508Y-95842319D01*
X81594927Y-95999970D01*
X81707766Y-96175062D01*
X81803877Y-96357537D01*
X81829787Y-96396314D01*
X81868781Y-96424908D01*
X81999681Y-96628024D01*
X82518715Y-97165500D01*
X82820933Y-97375546D01*
X82853686Y-97420213D01*
X82997169Y-97498034D01*
X83132261Y-97591925D01*
X83327765Y-97677339D01*
X83513405Y-97778024D01*
X83667736Y-97825868D01*
X83816949Y-97891058D01*
X84026961Y-97937232D01*
X84230253Y-98000255D01*
X84389306Y-98016899D01*
X84546698Y-98051504D01*
X84763367Y-98056043D01*
X84976682Y-98078365D01*
X85134274Y-98063812D01*
X85293714Y-98067152D01*
X85508800Y-98029226D01*
X85724007Y-98009353D01*
X85874145Y-97964806D01*
X86029542Y-97937405D01*
X86234738Y-97857815D01*
X86443508Y-97795871D01*
X86580599Y-97723664D01*
X86726155Y-97667207D01*
X86913415Y-97548368D01*
X87107537Y-97446123D01*
X87146314Y-97420213D01*
X87173261Y-97383465D01*
X87357020Y-97266848D01*
X87898106Y-96751578D01*
X88125683Y-96428967D01*
X88170213Y-96396314D01*
X88241714Y-96264484D01*
X88328805Y-96141024D01*
X88421071Y-95933791D01*
X88528024Y-95736595D01*
X88571942Y-95594929D01*
X88632710Y-95458442D01*
X88683340Y-95235594D01*
X88750255Y-95019747D01*
X88765519Y-94873883D01*
X88798247Y-94729830D01*
X88800965Y-94535154D01*
X88828365Y-94273318D01*
X88807740Y-94049968D01*
X88810163Y-93876410D01*
X88775587Y-93701788D01*
X88759353Y-93525993D01*
X88703517Y-93337807D01*
X88665035Y-93143461D01*
X88596558Y-92977324D01*
X88545871Y-92806492D01*
X88455165Y-92634279D01*
X88380307Y-92452659D01*
X88279932Y-92301582D01*
X88196123Y-92142463D01*
X88170213Y-92103686D01*
X88127775Y-92072567D01*
X87966825Y-91830317D01*
X87440336Y-91300140D01*
X87202918Y-91140000D01*
X97225000Y-91140000D01*
X97225000Y-97360000D01*
X97238522Y-97497906D01*
X97278572Y-97630560D01*
X97343626Y-97752908D01*
X97344474Y-97753947D01*
X97348407Y-97761332D01*
X97353956Y-97769547D01*
X97986532Y-98691970D01*
X98025743Y-98738632D01*
X98063856Y-98786219D01*
X98070828Y-98793267D01*
X98948992Y-99668635D01*
X98998790Y-99709406D01*
X99048000Y-99750858D01*
X99056208Y-99756417D01*
X100087675Y-100444544D01*
X100144416Y-100474852D01*
X100200768Y-100505971D01*
X100209899Y-100509830D01*
X101355379Y-100984505D01*
X101416924Y-101003213D01*
X101478249Y-101022795D01*
X101487956Y-101024806D01*
X102703819Y-101267950D01*
X102767793Y-101274345D01*
X102831787Y-101281646D01*
X102841700Y-101281734D01*
X104081633Y-101284085D01*
X104145654Y-101277930D01*
X104209824Y-101272664D01*
X104219565Y-101270824D01*
X105436341Y-101032292D01*
X105497927Y-101013825D01*
X105559871Y-100996190D01*
X105569070Y-100992494D01*
X106716341Y-100522166D01*
X106773210Y-100492066D01*
X106830507Y-100462756D01*
X106838812Y-100457344D01*
X107872880Y-99773133D01*
X107922823Y-99732558D01*
X107973333Y-99692680D01*
X107980428Y-99685758D01*
X108861905Y-98813726D01*
X108903006Y-98764234D01*
X108944818Y-98715294D01*
X108950434Y-98707125D01*
X109645745Y-97680488D01*
X109676449Y-97623958D01*
X109707960Y-97567827D01*
X109711882Y-97558723D01*
X110194543Y-96416584D01*
X110213679Y-96355178D01*
X110233690Y-96293984D01*
X110235770Y-96284292D01*
X110487395Y-95070157D01*
X110494241Y-95006194D01*
X110501984Y-94942288D01*
X110502141Y-94932376D01*
X110513148Y-93692489D01*
X110507438Y-93628402D01*
X110502622Y-93564221D01*
X110500851Y-93554468D01*
X110270820Y-92336056D01*
X110252772Y-92274302D01*
X110235581Y-92212276D01*
X110231949Y-92203052D01*
X109804791Y-91140000D01*
X116275000Y-91140000D01*
X116275000Y-97360000D01*
X116288522Y-97497906D01*
X116328572Y-97630560D01*
X116393626Y-97752908D01*
X116394474Y-97753947D01*
X116398407Y-97761332D01*
X116403956Y-97769547D01*
X117036532Y-98691970D01*
X117075743Y-98738632D01*
X117113856Y-98786219D01*
X117120828Y-98793267D01*
X117998992Y-99668635D01*
X118048790Y-99709406D01*
X118098000Y-99750858D01*
X118106208Y-99756417D01*
X119137675Y-100444544D01*
X119194416Y-100474852D01*
X119250768Y-100505971D01*
X119259899Y-100509830D01*
X120405379Y-100984505D01*
X120466924Y-101003213D01*
X120528249Y-101022795D01*
X120537956Y-101024806D01*
X121753819Y-101267950D01*
X121817793Y-101274345D01*
X121881787Y-101281646D01*
X121891700Y-101281734D01*
X123131633Y-101284085D01*
X123195654Y-101277930D01*
X123259824Y-101272664D01*
X123269565Y-101270824D01*
X124486341Y-101032292D01*
X124547927Y-101013825D01*
X124609871Y-100996190D01*
X124619070Y-100992494D01*
X125766341Y-100522166D01*
X125823210Y-100492066D01*
X125880507Y-100462756D01*
X125888812Y-100457344D01*
X126922880Y-99773133D01*
X126972823Y-99732558D01*
X127023333Y-99692680D01*
X127030428Y-99685758D01*
X127911905Y-98813726D01*
X127953006Y-98764234D01*
X127994818Y-98715294D01*
X128000434Y-98707125D01*
X128695745Y-97680488D01*
X128726449Y-97623958D01*
X128757960Y-97567827D01*
X128761882Y-97558723D01*
X129244543Y-96416584D01*
X129263679Y-96355178D01*
X129283690Y-96293984D01*
X129285770Y-96284292D01*
X129537395Y-95070157D01*
X129544241Y-95006194D01*
X129551984Y-94942288D01*
X129552141Y-94932376D01*
X129563148Y-93692489D01*
X129557438Y-93628402D01*
X129552622Y-93564221D01*
X129550851Y-93554468D01*
X129381036Y-92655000D01*
X222990000Y-92655000D01*
X222990000Y-97995000D01*
X223003522Y-98132906D01*
X223043572Y-98265560D01*
X223108626Y-98387908D01*
X223114515Y-98395129D01*
X223119137Y-98403783D01*
X223124695Y-98411991D01*
X223211020Y-98537572D01*
X223233790Y-98564608D01*
X223253859Y-98593694D01*
X223260311Y-98601220D01*
X223881483Y-99315677D01*
X223928235Y-99359881D01*
X223974380Y-99404748D01*
X223982165Y-99410872D01*
X223982170Y-99410877D01*
X223982175Y-99410880D01*
X224730285Y-99991074D01*
X224784728Y-100025352D01*
X224838713Y-100060404D01*
X224847546Y-100064904D01*
X225694107Y-100488742D01*
X225754181Y-100511796D01*
X225813936Y-100535691D01*
X225823475Y-100538389D01*
X226736237Y-100789724D01*
X226799594Y-100800662D01*
X226862903Y-100812505D01*
X226872784Y-100813299D01*
X227816982Y-100882558D01*
X227881280Y-100880981D01*
X227945661Y-100880301D01*
X227955508Y-100879161D01*
X228895174Y-100763705D01*
X228957976Y-100749661D01*
X229020964Y-100736497D01*
X229030402Y-100733466D01*
X229929748Y-100437693D01*
X229988619Y-100411722D01*
X230047857Y-100386571D01*
X230056527Y-100381764D01*
X230881295Y-99916941D01*
X230933995Y-99880033D01*
X230987226Y-99843851D01*
X230994797Y-99837452D01*
X231713573Y-99221282D01*
X231758091Y-99174851D01*
X231803289Y-99129010D01*
X231809473Y-99121262D01*
X232394879Y-98377217D01*
X232429545Y-98323001D01*
X232464964Y-98269275D01*
X232469525Y-98260474D01*
X232899263Y-97416893D01*
X232922730Y-97356999D01*
X232947048Y-97297394D01*
X232949813Y-97287874D01*
X233207514Y-96376889D01*
X233218898Y-96313588D01*
X233231178Y-96250385D01*
X233232041Y-96240510D01*
X233307890Y-95296820D01*
X233306761Y-95232468D01*
X233306589Y-95184282D01*
X238933622Y-95184282D01*
X238961077Y-95537682D01*
X238956081Y-95895501D01*
X239012947Y-96205342D01*
X239037144Y-96516795D01*
X239132222Y-96855221D01*
X239196281Y-97204249D01*
X239313348Y-97499926D01*
X239398637Y-97803508D01*
X239556581Y-98114262D01*
X239686110Y-98441416D01*
X239860001Y-98711243D01*
X240004210Y-98994973D01*
X240160568Y-99228980D01*
X240239579Y-99300231D01*
X240406911Y-99559880D01*
X241331229Y-100517039D01*
X241750332Y-100808323D01*
X241846020Y-100914432D01*
X242142309Y-101080754D01*
X242423856Y-101276434D01*
X242726231Y-101408538D01*
X243011478Y-101568662D01*
X243331728Y-101673074D01*
X243643175Y-101809142D01*
X243968376Y-101880642D01*
X244282176Y-101982951D01*
X244613721Y-102022530D01*
X244942742Y-102094870D01*
X245278633Y-102101906D01*
X245609282Y-102141378D01*
X245939242Y-102115744D01*
X246273057Y-102122736D01*
X246606868Y-102063876D01*
X246941795Y-102037856D01*
X247257579Y-101949139D01*
X247583450Y-101891679D01*
X247902264Y-101768019D01*
X248228508Y-101676363D01*
X248518298Y-101529075D01*
X248824006Y-101410498D01*
X249115256Y-101225665D01*
X249419973Y-101070790D01*
X249653980Y-100914432D01*
X249718606Y-100842767D01*
X249947475Y-100697523D01*
X250911064Y-99779911D01*
X251230244Y-99327445D01*
X251339432Y-99228980D01*
X251494228Y-98953223D01*
X251678069Y-98692612D01*
X251822028Y-98369274D01*
X251993662Y-98063522D01*
X252090777Y-97765652D01*
X252219275Y-97477041D01*
X252298351Y-97128986D01*
X252407951Y-96792824D01*
X252444739Y-96484656D01*
X252514069Y-96179501D01*
X252518427Y-95867391D01*
X252566378Y-95465718D01*
X252530487Y-95003736D01*
X252535291Y-94659696D01*
X252483398Y-94397616D01*
X252462856Y-94133205D01*
X252355094Y-93749633D01*
X252276842Y-93354430D01*
X252173892Y-93104655D01*
X252101363Y-92846492D01*
X251922166Y-92493921D01*
X251769787Y-92124223D01*
X251618627Y-91896709D01*
X251495790Y-91655027D01*
X251339432Y-91421020D01*
X251247498Y-91338114D01*
X251033440Y-91015932D01*
X250095848Y-90071772D01*
X249741826Y-89832981D01*
X249653980Y-89735568D01*
X249316752Y-89546265D01*
X248992725Y-89327706D01*
X248732659Y-89218384D01*
X248488522Y-89081338D01*
X248123621Y-88962368D01*
X247766087Y-88812075D01*
X247486813Y-88754748D01*
X247217824Y-88667049D01*
X246839636Y-88621902D01*
X246462657Y-88544519D01*
X246174570Y-88542508D01*
X245890718Y-88508622D01*
X245513922Y-88537895D01*
X245132082Y-88535229D01*
X244846148Y-88589774D01*
X244558205Y-88612144D01*
X244197183Y-88713571D01*
X243825044Y-88784560D01*
X243552380Y-88894723D01*
X243271492Y-88973637D01*
X242939803Y-89142221D01*
X242591326Y-89283015D01*
X242342749Y-89445679D01*
X242080027Y-89579210D01*
X241846020Y-89735568D01*
X241768661Y-89821352D01*
X241477922Y-90011606D01*
X240527239Y-90942583D01*
X240262725Y-91328895D01*
X240160568Y-91421020D01*
X239982747Y-91737793D01*
X239775490Y-92040485D01*
X239654928Y-92321776D01*
X239506338Y-92586478D01*
X239394642Y-92929071D01*
X239251308Y-93263493D01*
X239187057Y-93565769D01*
X239092049Y-93857176D01*
X239049684Y-94212061D01*
X238974659Y-94565024D01*
X238970302Y-94877018D01*
X238933622Y-95184282D01*
X233306589Y-95184282D01*
X233306531Y-95168128D01*
X233305460Y-95158273D01*
X233196567Y-94217823D01*
X233182965Y-94154939D01*
X233170238Y-94091847D01*
X233167273Y-94082387D01*
X232877786Y-93180998D01*
X232852235Y-93121968D01*
X232827490Y-93062535D01*
X232822743Y-93053832D01*
X232363689Y-92225839D01*
X232327161Y-92172897D01*
X232291341Y-92119400D01*
X232284994Y-92111784D01*
X231673858Y-91388725D01*
X231627734Y-91343880D01*
X231582214Y-91298367D01*
X231574510Y-91292129D01*
X230834570Y-90701543D01*
X230780573Y-90666483D01*
X230727120Y-90630706D01*
X230718351Y-90626083D01*
X229877790Y-90190466D01*
X229818046Y-90166576D01*
X229758627Y-90141848D01*
X229749130Y-90139018D01*
X229749124Y-90139016D01*
X228839963Y-89874963D01*
X228776731Y-89863135D01*
X228713628Y-89850417D01*
X228703758Y-89849485D01*
X227760621Y-89767050D01*
X227696295Y-89767729D01*
X227631923Y-89767509D01*
X227622061Y-89768512D01*
X226680874Y-89870837D01*
X226617892Y-89884000D01*
X226554717Y-89896286D01*
X226545237Y-89899185D01*
X225641849Y-90182372D01*
X225582606Y-90207525D01*
X225523037Y-90231840D01*
X225514301Y-90236525D01*
X224683123Y-90689787D01*
X224629906Y-90725960D01*
X224576182Y-90761391D01*
X224568522Y-90767684D01*
X223841214Y-91373758D01*
X223796064Y-91419550D01*
X223750218Y-91464768D01*
X223743926Y-91472429D01*
X223148189Y-92208228D01*
X223132497Y-92232030D01*
X223114169Y-92253873D01*
X223094447Y-92289748D01*
X223071920Y-92323918D01*
X223061150Y-92350315D01*
X223047414Y-92375301D01*
X223035037Y-92414318D01*
X223019574Y-92452218D01*
X223014136Y-92480205D01*
X223005515Y-92507383D01*
X223000952Y-92548067D01*
X222993146Y-92588242D01*
X222993248Y-92616747D01*
X222990069Y-92645087D01*
X222990000Y-92655000D01*
X129381036Y-92655000D01*
X129320820Y-92336056D01*
X129302772Y-92274302D01*
X129285581Y-92212276D01*
X129281949Y-92203052D01*
X128819641Y-91052525D01*
X128789933Y-90995436D01*
X128761030Y-90937947D01*
X128755676Y-90929604D01*
X128078701Y-89890785D01*
X128038484Y-89840571D01*
X127998951Y-89789773D01*
X127992078Y-89782630D01*
X127126223Y-88895087D01*
X127077005Y-88853629D01*
X127028372Y-88811489D01*
X127020248Y-88805820D01*
X127020243Y-88805816D01*
X127020238Y-88805813D01*
X125998485Y-88103354D01*
X125942163Y-88072252D01*
X125886260Y-88040354D01*
X125877183Y-88036368D01*
X124738442Y-87545746D01*
X124677157Y-87526178D01*
X124616118Y-87505744D01*
X124606440Y-87503597D01*
X123394092Y-87243501D01*
X123330207Y-87236213D01*
X123266328Y-87228020D01*
X123256417Y-87227794D01*
X122016637Y-87208131D01*
X121952519Y-87213393D01*
X121888300Y-87217761D01*
X121878534Y-87219464D01*
X120658547Y-87440983D01*
X120596654Y-87458604D01*
X120534524Y-87475358D01*
X120525275Y-87478925D01*
X119371547Y-87933190D01*
X119314266Y-87962492D01*
X119256564Y-87990999D01*
X119248184Y-87996295D01*
X118204663Y-88666002D01*
X118154164Y-88705871D01*
X118103098Y-88745043D01*
X118095906Y-88751866D01*
X117202339Y-89611505D01*
X117160542Y-89660428D01*
X117118060Y-89708770D01*
X117112330Y-89716860D01*
X116402753Y-90733689D01*
X116401205Y-90736447D01*
X116399169Y-90738873D01*
X116367281Y-90796878D01*
X116334923Y-90854519D01*
X116333940Y-90857526D01*
X116332414Y-90860301D01*
X116312402Y-90923386D01*
X116291853Y-90986224D01*
X116291472Y-90989365D01*
X116290515Y-90992383D01*
X116283140Y-91058131D01*
X116275185Y-91123785D01*
X116275422Y-91126941D01*
X116275069Y-91130087D01*
X116275000Y-91140000D01*
X109804791Y-91140000D01*
X109769641Y-91052525D01*
X109739933Y-90995436D01*
X109711030Y-90937947D01*
X109705676Y-90929604D01*
X109028701Y-89890785D01*
X108988484Y-89840571D01*
X108948951Y-89789773D01*
X108942078Y-89782630D01*
X108076223Y-88895087D01*
X108027005Y-88853629D01*
X107978372Y-88811489D01*
X107970248Y-88805820D01*
X107970243Y-88805816D01*
X107970238Y-88805813D01*
X106948485Y-88103354D01*
X106892163Y-88072252D01*
X106836260Y-88040354D01*
X106827183Y-88036368D01*
X105688442Y-87545746D01*
X105627157Y-87526178D01*
X105566118Y-87505744D01*
X105556440Y-87503597D01*
X104344092Y-87243501D01*
X104280207Y-87236213D01*
X104216328Y-87228020D01*
X104206417Y-87227794D01*
X102966637Y-87208131D01*
X102902519Y-87213393D01*
X102838300Y-87217761D01*
X102828534Y-87219464D01*
X101608547Y-87440983D01*
X101546654Y-87458604D01*
X101484524Y-87475358D01*
X101475275Y-87478925D01*
X100321547Y-87933190D01*
X100264266Y-87962492D01*
X100206564Y-87990999D01*
X100198184Y-87996295D01*
X99154663Y-88666002D01*
X99104164Y-88705871D01*
X99053098Y-88745043D01*
X99045906Y-88751866D01*
X98152339Y-89611505D01*
X98110542Y-89660428D01*
X98068060Y-89708770D01*
X98062330Y-89716860D01*
X97352753Y-90733689D01*
X97351205Y-90736447D01*
X97349169Y-90738873D01*
X97317281Y-90796878D01*
X97284923Y-90854519D01*
X97283940Y-90857526D01*
X97282414Y-90860301D01*
X97262402Y-90923386D01*
X97241853Y-90986224D01*
X97241472Y-90989365D01*
X97240515Y-90992383D01*
X97233140Y-91058131D01*
X97225185Y-91123785D01*
X97225422Y-91126941D01*
X97225069Y-91130087D01*
X97225000Y-91140000D01*
X87202918Y-91140000D01*
X87178282Y-91123383D01*
X87146314Y-91079787D01*
X86979573Y-90989352D01*
X86820896Y-90882323D01*
X86649042Y-90810082D01*
X86486595Y-90721976D01*
X86306989Y-90666296D01*
X86132099Y-90592779D01*
X85947843Y-90554957D01*
X85769747Y-90499745D01*
X85584366Y-90480346D01*
X85400180Y-90442538D01*
X85210407Y-90441213D01*
X85023318Y-90421635D01*
X84839366Y-90438622D01*
X84653019Y-90437321D01*
X84464945Y-90473198D01*
X84275993Y-90490647D01*
X84100474Y-90542725D01*
X83919074Y-90577329D01*
X83739989Y-90649684D01*
X83556492Y-90704129D01*
X83395974Y-90788675D01*
X83226301Y-90857227D01*
X83063267Y-90963914D01*
X82892463Y-91053877D01*
X82853686Y-91079787D01*
X82823697Y-91120684D01*
X82601088Y-91266355D01*
X82067249Y-91789129D01*
X81874133Y-92071168D01*
X81829787Y-92103686D01*
X81745656Y-92258803D01*
X81645117Y-92405637D01*
X81566375Y-92589355D01*
X81471976Y-92763405D01*
X81420212Y-92930378D01*
X81350771Y-93092397D01*
X81308864Y-93289552D01*
X81249745Y-93480253D01*
X81231723Y-93652475D01*
X81195424Y-93823248D01*
X81192586Y-94026468D01*
X81171635Y-94226682D01*
X63308405Y-94226682D01*
X63313148Y-93692489D01*
X63307438Y-93628402D01*
X63302622Y-93564221D01*
X63300851Y-93554468D01*
X63070820Y-92336056D01*
X63052772Y-92274302D01*
X63035581Y-92212276D01*
X63031949Y-92203052D01*
X62569641Y-91052525D01*
X62539933Y-90995436D01*
X62511030Y-90937947D01*
X62505676Y-90929604D01*
X61828701Y-89890785D01*
X61788484Y-89840571D01*
X61748951Y-89789773D01*
X61742078Y-89782630D01*
X60876223Y-88895087D01*
X60827005Y-88853629D01*
X60778372Y-88811489D01*
X60770248Y-88805820D01*
X60770243Y-88805816D01*
X60770238Y-88805813D01*
X59748485Y-88103354D01*
X59692163Y-88072252D01*
X59636260Y-88040354D01*
X59627183Y-88036368D01*
X58488442Y-87545746D01*
X58427157Y-87526178D01*
X58366118Y-87505744D01*
X58356440Y-87503597D01*
X57144092Y-87243501D01*
X57080207Y-87236213D01*
X57016328Y-87228020D01*
X57006417Y-87227794D01*
X55766637Y-87208131D01*
X55702519Y-87213393D01*
X55638300Y-87217761D01*
X55628534Y-87219464D01*
X54408547Y-87440983D01*
X54346654Y-87458604D01*
X54284524Y-87475358D01*
X54275275Y-87478925D01*
X53121547Y-87933190D01*
X53064266Y-87962492D01*
X53006564Y-87990999D01*
X52998184Y-87996295D01*
X51954663Y-88666002D01*
X51904164Y-88705871D01*
X51853098Y-88745043D01*
X51845906Y-88751866D01*
X50952339Y-89611505D01*
X50910542Y-89660428D01*
X50868060Y-89708770D01*
X50862330Y-89716860D01*
X50152753Y-90733689D01*
X50151205Y-90736447D01*
X50149169Y-90738873D01*
X50117281Y-90796878D01*
X50084923Y-90854519D01*
X50083940Y-90857526D01*
X50082414Y-90860301D01*
X50062402Y-90923386D01*
X50041853Y-90986224D01*
X50041472Y-90989365D01*
X50040515Y-90992383D01*
X50033140Y-91058131D01*
X50025185Y-91123785D01*
X50025422Y-91126941D01*
X50025069Y-91130087D01*
X50025000Y-91140000D01*
X43554791Y-91140000D01*
X43519641Y-91052525D01*
X43489933Y-90995436D01*
X43461030Y-90937947D01*
X43455676Y-90929604D01*
X42778701Y-89890785D01*
X42738484Y-89840571D01*
X42698951Y-89789773D01*
X42692078Y-89782630D01*
X41826223Y-88895087D01*
X41777005Y-88853629D01*
X41728372Y-88811489D01*
X41720248Y-88805820D01*
X41720243Y-88805816D01*
X41720238Y-88805813D01*
X40698485Y-88103354D01*
X40642163Y-88072252D01*
X40586260Y-88040354D01*
X40577183Y-88036368D01*
X39438442Y-87545746D01*
X39377157Y-87526178D01*
X39316118Y-87505744D01*
X39306440Y-87503597D01*
X38094092Y-87243501D01*
X38030207Y-87236213D01*
X37966328Y-87228020D01*
X37956417Y-87227794D01*
X36716637Y-87208131D01*
X36652519Y-87213393D01*
X36588300Y-87217761D01*
X36578534Y-87219464D01*
X35358547Y-87440983D01*
X35296654Y-87458604D01*
X35234524Y-87475358D01*
X35225275Y-87478925D01*
X34071547Y-87933190D01*
X34014266Y-87962492D01*
X33956564Y-87990999D01*
X33948184Y-87996295D01*
X32904663Y-88666002D01*
X32854164Y-88705871D01*
X32803098Y-88745043D01*
X32795906Y-88751866D01*
X31902339Y-89611505D01*
X31860542Y-89660428D01*
X31818060Y-89708770D01*
X31812330Y-89716860D01*
X31102753Y-90733689D01*
X31101205Y-90736447D01*
X31099169Y-90738873D01*
X31067281Y-90796878D01*
X31034923Y-90854519D01*
X31033940Y-90857526D01*
X31032414Y-90860301D01*
X31012402Y-90923386D01*
X30991853Y-90986224D01*
X30991472Y-90989365D01*
X30990515Y-90992383D01*
X30983140Y-91058131D01*
X30975185Y-91123785D01*
X30975422Y-91126941D01*
X30975069Y-91130087D01*
X30975000Y-91140000D01*
X15810000Y-91140000D01*
X15810000Y-79072416D01*
X19927931Y-79072416D01*
X19937980Y-79164264D01*
X19936681Y-79257309D01*
X19965106Y-79412185D01*
X19982028Y-79566847D01*
X20009474Y-79653925D01*
X20026070Y-79744352D01*
X20084444Y-79891787D01*
X20131544Y-80041224D01*
X20178084Y-80128294D01*
X20208358Y-80204757D01*
X20270472Y-80301140D01*
X20340272Y-80431725D01*
X20362983Y-80444687D01*
X20476600Y-80620987D01*
X20820579Y-80977188D01*
X21065563Y-81147457D01*
X21078275Y-81169728D01*
X21155354Y-81209863D01*
X21227194Y-81259793D01*
X21376620Y-81325076D01*
X21519435Y-81399439D01*
X21601808Y-81423457D01*
X21680957Y-81458037D01*
X21841316Y-81493294D01*
X21996931Y-81538669D01*
X22081307Y-81546060D01*
X22164583Y-81564369D01*
X22329866Y-81567831D01*
X22492416Y-81582069D01*
X22575517Y-81572977D01*
X22659653Y-81574739D01*
X22823560Y-81545838D01*
X22986847Y-81527972D01*
X23065535Y-81503171D01*
X23147308Y-81488752D01*
X23303516Y-81428163D01*
X23461224Y-81378456D01*
X23539400Y-81336670D01*
X23608974Y-81309684D01*
X23710889Y-81245007D01*
X23851725Y-81169728D01*
X23864342Y-81147622D01*
X24027067Y-81044354D01*
X24385661Y-80702870D01*
X24568308Y-80443951D01*
X24589728Y-80431725D01*
X24625796Y-80362456D01*
X24671097Y-80298238D01*
X24741080Y-80141054D01*
X24819439Y-79990565D01*
X24840993Y-79916646D01*
X24872504Y-79845870D01*
X24910874Y-79676985D01*
X24958669Y-79513069D01*
X24965291Y-79437467D01*
X24982210Y-79362998D01*
X24984182Y-79221797D01*
X24997266Y-79072416D01*
X255007931Y-79072416D01*
X255017980Y-79164264D01*
X255016681Y-79257309D01*
X255045106Y-79412185D01*
X255062028Y-79566847D01*
X255089474Y-79653925D01*
X255106070Y-79744352D01*
X255164444Y-79891787D01*
X255211544Y-80041224D01*
X255258084Y-80128294D01*
X255288358Y-80204757D01*
X255350472Y-80301140D01*
X255420272Y-80431725D01*
X255442983Y-80444687D01*
X255556600Y-80620987D01*
X255900579Y-80977188D01*
X256145563Y-81147457D01*
X256158275Y-81169728D01*
X256235354Y-81209863D01*
X256307194Y-81259793D01*
X256456620Y-81325076D01*
X256599435Y-81399439D01*
X256681808Y-81423457D01*
X256760957Y-81458037D01*
X256921316Y-81493294D01*
X257076931Y-81538669D01*
X257161307Y-81546060D01*
X257244583Y-81564369D01*
X257409866Y-81567831D01*
X257572416Y-81582069D01*
X257655517Y-81572977D01*
X257739653Y-81574739D01*
X257903560Y-81545838D01*
X258066847Y-81527972D01*
X258145535Y-81503171D01*
X258227308Y-81488752D01*
X258383516Y-81428163D01*
X258541224Y-81378456D01*
X258619400Y-81336670D01*
X258688974Y-81309684D01*
X258790889Y-81245007D01*
X258931725Y-81169728D01*
X258944342Y-81147622D01*
X259107067Y-81044354D01*
X259465661Y-80702870D01*
X259648308Y-80443951D01*
X259669728Y-80431725D01*
X259705796Y-80362456D01*
X259751097Y-80298238D01*
X259821080Y-80141054D01*
X259899439Y-79990565D01*
X259920993Y-79916646D01*
X259952504Y-79845870D01*
X259990874Y-79676985D01*
X260038669Y-79513069D01*
X260045291Y-79437467D01*
X260062210Y-79362998D01*
X260064182Y-79221797D01*
X260082069Y-79017584D01*
X260068735Y-78895717D01*
X260070108Y-78797411D01*
X260043000Y-78660508D01*
X260027972Y-78523153D01*
X259995240Y-78419303D01*
X259973927Y-78311664D01*
X259920324Y-78181613D01*
X259878456Y-78048776D01*
X259822170Y-77943474D01*
X259785230Y-77853849D01*
X259729141Y-77769429D01*
X259669728Y-77658275D01*
X259646471Y-77645001D01*
X259511202Y-77441405D01*
X259162283Y-77090041D01*
X258944955Y-76943451D01*
X258931725Y-76920272D01*
X258839042Y-76872012D01*
X258751762Y-76813141D01*
X258617964Y-76756897D01*
X258490565Y-76690561D01*
X258391305Y-76661618D01*
X258295275Y-76621251D01*
X258152000Y-76591841D01*
X258013069Y-76551331D01*
X257911168Y-76542405D01*
X257810211Y-76521682D01*
X257662828Y-76520653D01*
X257517584Y-76507931D01*
X257416995Y-76518937D01*
X257315045Y-76518225D01*
X257169173Y-76546052D01*
X257023153Y-76562028D01*
X256927686Y-76592118D01*
X256828638Y-76611012D01*
X256689921Y-76667057D01*
X256548776Y-76711544D01*
X256452677Y-76762910D01*
X256369517Y-76796509D01*
X256278990Y-76855748D01*
X256158275Y-76920272D01*
X256145093Y-76943368D01*
X255955170Y-77067650D01*
X255601379Y-77414108D01*
X255443126Y-77645231D01*
X255420272Y-77658275D01*
X255376073Y-77743160D01*
X255321620Y-77822686D01*
X255260917Y-77964316D01*
X255190561Y-78099435D01*
X255164079Y-78190255D01*
X255126548Y-78277822D01*
X255094277Y-78429646D01*
X255051331Y-78576931D01*
X255043173Y-78670074D01*
X255023595Y-78762179D01*
X255021412Y-78918507D01*
X255007931Y-79072416D01*
X24997266Y-79072416D01*
X25002069Y-79017584D01*
X24988735Y-78895717D01*
X24990108Y-78797411D01*
X24963000Y-78660508D01*
X24947972Y-78523153D01*
X24915240Y-78419303D01*
X24893927Y-78311664D01*
X24840324Y-78181613D01*
X24798456Y-78048776D01*
X24742170Y-77943474D01*
X24705230Y-77853849D01*
X24649141Y-77769429D01*
X24589728Y-77658275D01*
X24566471Y-77645001D01*
X24431202Y-77441405D01*
X24082283Y-77090041D01*
X23864955Y-76943451D01*
X23851725Y-76920272D01*
X23759042Y-76872012D01*
X23671762Y-76813141D01*
X23537964Y-76756897D01*
X23410565Y-76690561D01*
X23311305Y-76661618D01*
X23215275Y-76621251D01*
X23072000Y-76591841D01*
X22933069Y-76551331D01*
X22831168Y-76542405D01*
X22730211Y-76521682D01*
X22582828Y-76520653D01*
X22437584Y-76507931D01*
X22336995Y-76518937D01*
X22235045Y-76518225D01*
X22089173Y-76546052D01*
X21943153Y-76562028D01*
X21847686Y-76592118D01*
X21748638Y-76611012D01*
X21609921Y-76667057D01*
X21468776Y-76711544D01*
X21372677Y-76762910D01*
X21289517Y-76796509D01*
X21198990Y-76855748D01*
X21078275Y-76920272D01*
X21065093Y-76943368D01*
X20875170Y-77067650D01*
X20521379Y-77414108D01*
X20363126Y-77645231D01*
X20340272Y-77658275D01*
X20296073Y-77743160D01*
X20241620Y-77822686D01*
X20180917Y-77964316D01*
X20110561Y-78099435D01*
X20084079Y-78190255D01*
X20046548Y-78277822D01*
X20014277Y-78429646D01*
X19971331Y-78576931D01*
X19963173Y-78670074D01*
X19943595Y-78762179D01*
X19941412Y-78918507D01*
X19927931Y-79072416D01*
X15810000Y-79072416D01*
X15810000Y-76282946D01*
X30353687Y-76282946D01*
X30363043Y-76366189D01*
X30361865Y-76450537D01*
X30389359Y-76600339D01*
X30406158Y-76749811D01*
X30431261Y-76828646D01*
X30446298Y-76910576D01*
X30502755Y-77053170D01*
X30548703Y-77197468D01*
X30591838Y-77278168D01*
X30618478Y-77345453D01*
X30673135Y-77430265D01*
X30739234Y-77553927D01*
X30760199Y-77565362D01*
X30871847Y-77738606D01*
X31196755Y-78075057D01*
X31435156Y-78240750D01*
X31446073Y-78260766D01*
X31515872Y-78296850D01*
X31580825Y-78341993D01*
X31725259Y-78405095D01*
X31863409Y-78476513D01*
X31937904Y-78497997D01*
X32009428Y-78529245D01*
X32164411Y-78563320D01*
X32314815Y-78606696D01*
X32391030Y-78613146D01*
X32466240Y-78629682D01*
X32625960Y-78633028D01*
X32782946Y-78646313D01*
X32857923Y-78637886D01*
X32933860Y-78639477D01*
X33092224Y-78611553D01*
X33249811Y-78593842D01*
X33320717Y-78571264D01*
X33394477Y-78558258D01*
X33545395Y-78499721D01*
X33697468Y-78451297D01*
X33769493Y-78412799D01*
X33830546Y-78389118D01*
X33919972Y-78332366D01*
X34053927Y-78260766D01*
X34065113Y-78240256D01*
X34225457Y-78138499D01*
X34564169Y-77815949D01*
X34741649Y-77564354D01*
X34760766Y-77553927D01*
X34793029Y-77491518D01*
X34833779Y-77433751D01*
X34901350Y-77281985D01*
X34976513Y-77136591D01*
X34995691Y-77070091D01*
X35024019Y-77006466D01*
X35061064Y-76843412D01*
X35106696Y-76685185D01*
X35112444Y-76617264D01*
X35127643Y-76550366D01*
X35129527Y-76415399D01*
X35140736Y-76282946D01*
X123353687Y-76282946D01*
X123363043Y-76366189D01*
X123361865Y-76450537D01*
X123389359Y-76600339D01*
X123406158Y-76749811D01*
X123431261Y-76828646D01*
X123446298Y-76910576D01*
X123502755Y-77053170D01*
X123548703Y-77197468D01*
X123591838Y-77278168D01*
X123618478Y-77345453D01*
X123673135Y-77430265D01*
X123739234Y-77553927D01*
X123760199Y-77565362D01*
X123871847Y-77738606D01*
X124196755Y-78075057D01*
X124435156Y-78240750D01*
X124446073Y-78260766D01*
X124515872Y-78296850D01*
X124580825Y-78341993D01*
X124725259Y-78405095D01*
X124863409Y-78476513D01*
X124937904Y-78497997D01*
X125009428Y-78529245D01*
X125164411Y-78563320D01*
X125314815Y-78606696D01*
X125391030Y-78613146D01*
X125466240Y-78629682D01*
X125625960Y-78633028D01*
X125782946Y-78646313D01*
X125857923Y-78637886D01*
X125933860Y-78639477D01*
X126092224Y-78611553D01*
X126249811Y-78593842D01*
X126320717Y-78571264D01*
X126394477Y-78558258D01*
X126545395Y-78499721D01*
X126697468Y-78451297D01*
X126769493Y-78412799D01*
X126830546Y-78389118D01*
X126919972Y-78332366D01*
X127053927Y-78260766D01*
X127065113Y-78240256D01*
X127225457Y-78138499D01*
X127564169Y-77815949D01*
X127741649Y-77564354D01*
X127760766Y-77553927D01*
X127793029Y-77491518D01*
X127833779Y-77433751D01*
X127901350Y-77281985D01*
X127976513Y-77136591D01*
X127995691Y-77070091D01*
X128024019Y-77006466D01*
X128061064Y-76843412D01*
X128106696Y-76685185D01*
X128112444Y-76617264D01*
X128127643Y-76550366D01*
X128129527Y-76415399D01*
X128146313Y-76217054D01*
X128133846Y-76106124D01*
X128135102Y-76016139D01*
X128108807Y-75883338D01*
X128093842Y-75750189D01*
X128063698Y-75655523D01*
X128044254Y-75557324D01*
X127992263Y-75431185D01*
X127951297Y-75302532D01*
X127898604Y-75203950D01*
X127866019Y-75124893D01*
X127816546Y-75050429D01*
X127760766Y-74946073D01*
X127739508Y-74934478D01*
X127607185Y-74735316D01*
X127277612Y-74403434D01*
X127065423Y-74260311D01*
X127053927Y-74239234D01*
X126969362Y-74195517D01*
X126889852Y-74141887D01*
X126760180Y-74087378D01*
X126636591Y-74023487D01*
X126546124Y-73997397D01*
X126458676Y-73960637D01*
X126319842Y-73932138D01*
X126185185Y-73893304D01*
X126092406Y-73885452D01*
X126000507Y-73866588D01*
X125857719Y-73865591D01*
X125717054Y-73853687D01*
X125625555Y-73863971D01*
X125532795Y-73863323D01*
X125391507Y-73890275D01*
X125250189Y-73906158D01*
X125163435Y-73933783D01*
X125073357Y-73950966D01*
X124939019Y-74005242D01*
X124802532Y-74048703D01*
X124712991Y-74096564D01*
X124639693Y-74126178D01*
X124559905Y-74178390D01*
X124446073Y-74239234D01*
X124434500Y-74260452D01*
X124248319Y-74382285D01*
X123914144Y-74709534D01*
X123759900Y-74934801D01*
X123739234Y-74946073D01*
X123699332Y-75023259D01*
X123649896Y-75095458D01*
X123591147Y-75232528D01*
X123523487Y-75363409D01*
X123499700Y-75445891D01*
X123465640Y-75525358D01*
X123434412Y-75672274D01*
X123393304Y-75814815D01*
X123386153Y-75899316D01*
X123368395Y-75982860D01*
X123366283Y-76134104D01*
X123353687Y-76282946D01*
X35140736Y-76282946D01*
X35146313Y-76217054D01*
X35133846Y-76106124D01*
X35135102Y-76016139D01*
X35108807Y-75883338D01*
X35093842Y-75750189D01*
X35063698Y-75655523D01*
X35044254Y-75557324D01*
X34992263Y-75431185D01*
X34951297Y-75302532D01*
X34898604Y-75203950D01*
X34866019Y-75124893D01*
X34816546Y-75050429D01*
X34760766Y-74946073D01*
X34739508Y-74934478D01*
X34607185Y-74735316D01*
X34277612Y-74403434D01*
X34065423Y-74260311D01*
X34053927Y-74239234D01*
X33969362Y-74195517D01*
X33889852Y-74141887D01*
X33760180Y-74087378D01*
X33636591Y-74023487D01*
X33546124Y-73997397D01*
X33458676Y-73960637D01*
X33319842Y-73932138D01*
X33185185Y-73893304D01*
X33092406Y-73885452D01*
X33000507Y-73866588D01*
X32857719Y-73865591D01*
X32717054Y-73853687D01*
X32625555Y-73863971D01*
X32532795Y-73863323D01*
X32391507Y-73890275D01*
X32250189Y-73906158D01*
X32163435Y-73933783D01*
X32073357Y-73950966D01*
X31939019Y-74005242D01*
X31802532Y-74048703D01*
X31712991Y-74096564D01*
X31639693Y-74126178D01*
X31559905Y-74178390D01*
X31446073Y-74239234D01*
X31434500Y-74260452D01*
X31248319Y-74382285D01*
X30914144Y-74709534D01*
X30759900Y-74934801D01*
X30739234Y-74946073D01*
X30699332Y-75023259D01*
X30649896Y-75095458D01*
X30591147Y-75232528D01*
X30523487Y-75363409D01*
X30499700Y-75445891D01*
X30465640Y-75525358D01*
X30434412Y-75672274D01*
X30393304Y-75814815D01*
X30386153Y-75899316D01*
X30368395Y-75982860D01*
X30366283Y-76134104D01*
X30353687Y-76282946D01*
X15810000Y-76282946D01*
X15810000Y-47322416D01*
X19927931Y-47322416D01*
X19937980Y-47414264D01*
X19936681Y-47507309D01*
X19965106Y-47662185D01*
X19982028Y-47816847D01*
X20009474Y-47903925D01*
X20026070Y-47994352D01*
X20084444Y-48141787D01*
X20131544Y-48291224D01*
X20178084Y-48378294D01*
X20208358Y-48454757D01*
X20270472Y-48551140D01*
X20340272Y-48681725D01*
X20362983Y-48694687D01*
X20476600Y-48870987D01*
X20820579Y-49227188D01*
X21065563Y-49397457D01*
X21078275Y-49419728D01*
X21155354Y-49459863D01*
X21227194Y-49509793D01*
X21376620Y-49575076D01*
X21519435Y-49649439D01*
X21601808Y-49673457D01*
X21680957Y-49708037D01*
X21841316Y-49743294D01*
X21996931Y-49788669D01*
X22081307Y-49796060D01*
X22164583Y-49814369D01*
X22329866Y-49817831D01*
X22492416Y-49832069D01*
X22575517Y-49822977D01*
X22659653Y-49824739D01*
X22823560Y-49795838D01*
X22986847Y-49777972D01*
X23065535Y-49753171D01*
X23147308Y-49738752D01*
X23303516Y-49678163D01*
X23461224Y-49628456D01*
X23539400Y-49586670D01*
X23608974Y-49559684D01*
X23710889Y-49495007D01*
X23851725Y-49419728D01*
X23864342Y-49397622D01*
X24027067Y-49294354D01*
X24385661Y-48952870D01*
X24568308Y-48693951D01*
X24589728Y-48681725D01*
X24625796Y-48612456D01*
X24671097Y-48548238D01*
X24741080Y-48391054D01*
X24819439Y-48240565D01*
X24840993Y-48166646D01*
X24872504Y-48095870D01*
X24910874Y-47926985D01*
X24958669Y-47763069D01*
X24965291Y-47687467D01*
X24982210Y-47612998D01*
X24984182Y-47471797D01*
X25002069Y-47267584D01*
X24988735Y-47145717D01*
X24990108Y-47047411D01*
X24963000Y-46910508D01*
X24947972Y-46773153D01*
X24915240Y-46669303D01*
X24893927Y-46561664D01*
X24840324Y-46431613D01*
X24798456Y-46298776D01*
X24742170Y-46193474D01*
X24705230Y-46103849D01*
X24649141Y-46019429D01*
X24589728Y-45908275D01*
X24566471Y-45895001D01*
X24431202Y-45691405D01*
X24082283Y-45340041D01*
X23864955Y-45193451D01*
X23851725Y-45170272D01*
X23759042Y-45122012D01*
X23671762Y-45063141D01*
X23537964Y-45006897D01*
X23410565Y-44940561D01*
X23311305Y-44911618D01*
X23215275Y-44871251D01*
X23072000Y-44841841D01*
X22933069Y-44801331D01*
X22831168Y-44792405D01*
X22730211Y-44771682D01*
X22582828Y-44770653D01*
X22437584Y-44757931D01*
X22336995Y-44768937D01*
X22235045Y-44768225D01*
X22089173Y-44796052D01*
X21943153Y-44812028D01*
X21847686Y-44842118D01*
X21748638Y-44861012D01*
X21609921Y-44917057D01*
X21468776Y-44961544D01*
X21372677Y-45012910D01*
X21289517Y-45046509D01*
X21198990Y-45105748D01*
X21078275Y-45170272D01*
X21065093Y-45193368D01*
X20875170Y-45317650D01*
X20521379Y-45664108D01*
X20363126Y-45895231D01*
X20340272Y-45908275D01*
X20296073Y-45993160D01*
X20241620Y-46072686D01*
X20180917Y-46214316D01*
X20110561Y-46349435D01*
X20084079Y-46440255D01*
X20046548Y-46527822D01*
X20014277Y-46679646D01*
X19971331Y-46826931D01*
X19963173Y-46920074D01*
X19943595Y-47012179D01*
X19941412Y-47168507D01*
X19927931Y-47322416D01*
X15810000Y-47322416D01*
X15810000Y-28650000D01*
X29640000Y-28650000D01*
X29640000Y-68850000D01*
X29646517Y-68916460D01*
X29652576Y-68983041D01*
X29653279Y-68985431D01*
X29653522Y-68987906D01*
X29672821Y-69051827D01*
X29691699Y-69115971D01*
X29692853Y-69118178D01*
X29693572Y-69120560D01*
X29724919Y-69179514D01*
X29755897Y-69238770D01*
X29757458Y-69240712D01*
X29758626Y-69242908D01*
X29800808Y-69294628D01*
X29842724Y-69346761D01*
X29844634Y-69348364D01*
X29846205Y-69350290D01*
X29897633Y-69392836D01*
X29948873Y-69435831D01*
X29951056Y-69437031D01*
X29952973Y-69438617D01*
X30011738Y-69470391D01*
X30070301Y-69502586D01*
X30072673Y-69503339D01*
X30074864Y-69504523D01*
X30138663Y-69524272D01*
X30202383Y-69544485D01*
X30204860Y-69544763D01*
X30207235Y-69545498D01*
X30273649Y-69552479D01*
X30340087Y-69559931D01*
X30344865Y-69559964D01*
X30345043Y-69559983D01*
X30345222Y-69559967D01*
X30350000Y-69560000D01*
X128150000Y-69560000D01*
X128216460Y-69553483D01*
X128283041Y-69547424D01*
X128285431Y-69546721D01*
X128287906Y-69546478D01*
X128351827Y-69527179D01*
X128415971Y-69508301D01*
X128418178Y-69507147D01*
X128420560Y-69506428D01*
X128479514Y-69475081D01*
X128538770Y-69444103D01*
X128540712Y-69442542D01*
X128542908Y-69441374D01*
X128594628Y-69399192D01*
X128646761Y-69357276D01*
X128648364Y-69355366D01*
X128650290Y-69353795D01*
X128692836Y-69302367D01*
X128735831Y-69251127D01*
X128737031Y-69248944D01*
X128738617Y-69247027D01*
X128770391Y-69188262D01*
X128802586Y-69129699D01*
X128803339Y-69127327D01*
X128804523Y-69125136D01*
X128824272Y-69061337D01*
X128844485Y-68997617D01*
X128844763Y-68995140D01*
X128845498Y-68992765D01*
X128852479Y-68926351D01*
X128859931Y-68859913D01*
X128859964Y-68855135D01*
X128859983Y-68854957D01*
X128859967Y-68854778D01*
X128860000Y-68850000D01*
X128860000Y-63103478D01*
X224709302Y-63103478D01*
X224758467Y-63815839D01*
X224748392Y-64537385D01*
X224844352Y-65060227D01*
X224880670Y-65586449D01*
X225066436Y-66270270D01*
X225195692Y-66974529D01*
X225393427Y-67473951D01*
X225533149Y-67988279D01*
X225846324Y-68617837D01*
X226107850Y-69278377D01*
X226401839Y-69734558D01*
X226641664Y-70216666D01*
X227054476Y-70834483D01*
X227217829Y-71000728D01*
X227450122Y-71361176D01*
X229171382Y-73143593D01*
X229787145Y-73571560D01*
X230040517Y-73820524D01*
X230636462Y-74161851D01*
X231206068Y-74557737D01*
X231718699Y-74781700D01*
X232200239Y-75057501D01*
X232846141Y-75274267D01*
X233476679Y-75549742D01*
X234028491Y-75671066D01*
X234559785Y-75849369D01*
X235230144Y-75935266D01*
X235896727Y-76081824D01*
X236467160Y-76093773D01*
X237028478Y-76165698D01*
X237697269Y-76119540D01*
X238374035Y-76133716D01*
X238941410Y-76033673D01*
X239511449Y-75994330D01*
X240153106Y-75820018D01*
X240814242Y-75703442D01*
X241318260Y-75507946D01*
X244503687Y-75507946D01*
X244513043Y-75591189D01*
X244511865Y-75675537D01*
X244539359Y-75825339D01*
X244556158Y-75974811D01*
X244581261Y-76053646D01*
X244596298Y-76135576D01*
X244652755Y-76278170D01*
X244698703Y-76422468D01*
X244741838Y-76503168D01*
X244768478Y-76570453D01*
X244823135Y-76655265D01*
X244889234Y-76778927D01*
X244910199Y-76790362D01*
X245021847Y-76963606D01*
X245346755Y-77300057D01*
X245585156Y-77465750D01*
X245596073Y-77485766D01*
X245665872Y-77521850D01*
X245730825Y-77566993D01*
X245875259Y-77630095D01*
X246013409Y-77701513D01*
X246087904Y-77722997D01*
X246159428Y-77754245D01*
X246314411Y-77788320D01*
X246464815Y-77831696D01*
X246541030Y-77838146D01*
X246616240Y-77854682D01*
X246775960Y-77858028D01*
X246932946Y-77871313D01*
X247007923Y-77862886D01*
X247083860Y-77864477D01*
X247242224Y-77836553D01*
X247399811Y-77818842D01*
X247470717Y-77796264D01*
X247544477Y-77783258D01*
X247695395Y-77724721D01*
X247847468Y-77676297D01*
X247919493Y-77637799D01*
X247980546Y-77614118D01*
X248069972Y-77557366D01*
X248203927Y-77485766D01*
X248215113Y-77465256D01*
X248375457Y-77363499D01*
X248714169Y-77040949D01*
X248891649Y-76789354D01*
X248910766Y-76778927D01*
X248943029Y-76716518D01*
X248983779Y-76658751D01*
X249051350Y-76506985D01*
X249126513Y-76361591D01*
X249145691Y-76295091D01*
X249174019Y-76231466D01*
X249211064Y-76068412D01*
X249256696Y-75910185D01*
X249262444Y-75842264D01*
X249277643Y-75775366D01*
X249279527Y-75640399D01*
X249296313Y-75442054D01*
X249283846Y-75331124D01*
X249285102Y-75241139D01*
X249258807Y-75108338D01*
X249243842Y-74975189D01*
X249213698Y-74880523D01*
X249194254Y-74782324D01*
X249142263Y-74656185D01*
X249101297Y-74527532D01*
X249048604Y-74428950D01*
X249016019Y-74349893D01*
X248966546Y-74275429D01*
X248910766Y-74171073D01*
X248889508Y-74159478D01*
X248757185Y-73960316D01*
X248427612Y-73628434D01*
X248215423Y-73485311D01*
X248203927Y-73464234D01*
X248119362Y-73420517D01*
X248039852Y-73366887D01*
X247910180Y-73312378D01*
X247786591Y-73248487D01*
X247696124Y-73222397D01*
X247608676Y-73185637D01*
X247469842Y-73157138D01*
X247335185Y-73118304D01*
X247242406Y-73110452D01*
X247150507Y-73091588D01*
X247007719Y-73090591D01*
X246867054Y-73078687D01*
X246775555Y-73088971D01*
X246682795Y-73088323D01*
X246541507Y-73115275D01*
X246400189Y-73131158D01*
X246313435Y-73158783D01*
X246223357Y-73175966D01*
X246089019Y-73230242D01*
X245952532Y-73273703D01*
X245862991Y-73321564D01*
X245789693Y-73351178D01*
X245709905Y-73403390D01*
X245596073Y-73464234D01*
X245584500Y-73485452D01*
X245398319Y-73607285D01*
X245064144Y-73934534D01*
X244909900Y-74159801D01*
X244889234Y-74171073D01*
X244849332Y-74248259D01*
X244799896Y-74320458D01*
X244741147Y-74457528D01*
X244673487Y-74588409D01*
X244649700Y-74670891D01*
X244615640Y-74750358D01*
X244584412Y-74897274D01*
X244543304Y-75039815D01*
X244536153Y-75124316D01*
X244518395Y-75207860D01*
X244516283Y-75359104D01*
X244503687Y-75507946D01*
X241318260Y-75507946D01*
X241356577Y-75493084D01*
X241913279Y-75341851D01*
X242503706Y-75048142D01*
X243124402Y-74807390D01*
X243620250Y-74492715D01*
X244141666Y-74233336D01*
X244759483Y-73820524D01*
X244905431Y-73677114D01*
X245216521Y-73479691D01*
X247010911Y-71770916D01*
X247483082Y-71101571D01*
X247745524Y-70834483D01*
X248065115Y-70276488D01*
X248439225Y-69746153D01*
X248684890Y-69194380D01*
X248982501Y-68674761D01*
X249185348Y-68070333D01*
X249447058Y-67482523D01*
X249582107Y-66888102D01*
X249774369Y-66315215D01*
X249854705Y-65688257D01*
X249996022Y-65066248D01*
X250003558Y-64526583D01*
X250090698Y-63846522D01*
X250026119Y-62910830D01*
X250035541Y-62236074D01*
X249949590Y-61801988D01*
X249919330Y-61363551D01*
X249710745Y-60595734D01*
X249554258Y-59805413D01*
X249383506Y-59391138D01*
X249266851Y-58961721D01*
X248914895Y-58254204D01*
X248610022Y-57514526D01*
X248358980Y-57136677D01*
X248158336Y-56733334D01*
X247745524Y-56115517D01*
X247544803Y-55911242D01*
X247238800Y-55450671D01*
X245492821Y-53692460D01*
X244981301Y-53347436D01*
X244759483Y-53129476D01*
X244087892Y-52744824D01*
X243438589Y-52306863D01*
X243005000Y-52124599D01*
X242599761Y-51892499D01*
X241871190Y-51647989D01*
X241154349Y-51346657D01*
X240688160Y-51250962D01*
X240240215Y-51100631D01*
X239483335Y-51003647D01*
X238727107Y-50848416D01*
X238245647Y-50845055D01*
X237771522Y-50784302D01*
X237015690Y-50836468D01*
X236249317Y-50831117D01*
X235770903Y-50922379D01*
X235288551Y-50955670D01*
X234562671Y-51152862D01*
X233815355Y-51295420D01*
X233358618Y-51479954D01*
X232886721Y-51608149D01*
X232218126Y-51940743D01*
X231517931Y-52223640D01*
X231101082Y-52496418D01*
X230658334Y-52716664D01*
X230040517Y-53129476D01*
X229854801Y-53311961D01*
X229444553Y-53580420D01*
X227674196Y-55314082D01*
X227288561Y-55877288D01*
X227054476Y-56115517D01*
X226691459Y-56749333D01*
X226274292Y-57358590D01*
X226071463Y-57831827D01*
X225817499Y-58275239D01*
X225586843Y-58962530D01*
X225298163Y-59636071D01*
X225189957Y-60145139D01*
X225025631Y-60634785D01*
X224934184Y-61348454D01*
X224782988Y-62059775D01*
X224775644Y-62585734D01*
X224709302Y-63103478D01*
X128860000Y-63103478D01*
X128860000Y-51507946D01*
X225503687Y-51507946D01*
X225513043Y-51591189D01*
X225511865Y-51675537D01*
X225539359Y-51825339D01*
X225556158Y-51974811D01*
X225581261Y-52053646D01*
X225596298Y-52135576D01*
X225652755Y-52278170D01*
X225698703Y-52422468D01*
X225741838Y-52503168D01*
X225768478Y-52570453D01*
X225823135Y-52655265D01*
X225889234Y-52778927D01*
X225910199Y-52790362D01*
X226021847Y-52963606D01*
X226346755Y-53300057D01*
X226585156Y-53465750D01*
X226596073Y-53485766D01*
X226665872Y-53521850D01*
X226730825Y-53566993D01*
X226875259Y-53630095D01*
X227013409Y-53701513D01*
X227087904Y-53722997D01*
X227159428Y-53754245D01*
X227314411Y-53788320D01*
X227464815Y-53831696D01*
X227541030Y-53838146D01*
X227616240Y-53854682D01*
X227775960Y-53858028D01*
X227932946Y-53871313D01*
X228007923Y-53862886D01*
X228083860Y-53864477D01*
X228242224Y-53836553D01*
X228399811Y-53818842D01*
X228470717Y-53796264D01*
X228544477Y-53783258D01*
X228695395Y-53724721D01*
X228847468Y-53676297D01*
X228919493Y-53637799D01*
X228980546Y-53614118D01*
X229069972Y-53557366D01*
X229203927Y-53485766D01*
X229215113Y-53465256D01*
X229375457Y-53363499D01*
X229714169Y-53040949D01*
X229891649Y-52789354D01*
X229910766Y-52778927D01*
X229943029Y-52716518D01*
X229983779Y-52658751D01*
X230051350Y-52506985D01*
X230126513Y-52361591D01*
X230145691Y-52295091D01*
X230174019Y-52231466D01*
X230211064Y-52068412D01*
X230256696Y-51910185D01*
X230262444Y-51842264D01*
X230277643Y-51775366D01*
X230279527Y-51640399D01*
X230296313Y-51442054D01*
X230283846Y-51331124D01*
X230285102Y-51241139D01*
X230258807Y-51108338D01*
X230243842Y-50975189D01*
X230213698Y-50880523D01*
X230194254Y-50782324D01*
X230142263Y-50656185D01*
X230101297Y-50527532D01*
X230048604Y-50428950D01*
X230016019Y-50349893D01*
X229966546Y-50275429D01*
X229910766Y-50171073D01*
X229889508Y-50159478D01*
X229757185Y-49960316D01*
X229427612Y-49628434D01*
X229215423Y-49485311D01*
X229203927Y-49464234D01*
X229119362Y-49420517D01*
X229039852Y-49366887D01*
X228910180Y-49312378D01*
X228786591Y-49248487D01*
X228696124Y-49222397D01*
X228608676Y-49185637D01*
X228469842Y-49157138D01*
X228335185Y-49118304D01*
X228242406Y-49110452D01*
X228150507Y-49091588D01*
X228007719Y-49090591D01*
X227867054Y-49078687D01*
X227775555Y-49088971D01*
X227682795Y-49088323D01*
X227541507Y-49115275D01*
X227400189Y-49131158D01*
X227313435Y-49158783D01*
X227223357Y-49175966D01*
X227089019Y-49230242D01*
X226952532Y-49273703D01*
X226862991Y-49321564D01*
X226789693Y-49351178D01*
X226709905Y-49403390D01*
X226596073Y-49464234D01*
X226584500Y-49485452D01*
X226398319Y-49607285D01*
X226064144Y-49934534D01*
X225909900Y-50159801D01*
X225889234Y-50171073D01*
X225849332Y-50248259D01*
X225799896Y-50320458D01*
X225741147Y-50457528D01*
X225673487Y-50588409D01*
X225649700Y-50670891D01*
X225615640Y-50750358D01*
X225584412Y-50897274D01*
X225543304Y-51039815D01*
X225536153Y-51124316D01*
X225518395Y-51207860D01*
X225516283Y-51359104D01*
X225503687Y-51507946D01*
X128860000Y-51507946D01*
X128860000Y-47322416D01*
X255007931Y-47322416D01*
X255017980Y-47414264D01*
X255016681Y-47507309D01*
X255045106Y-47662185D01*
X255062028Y-47816847D01*
X255089474Y-47903925D01*
X255106070Y-47994352D01*
X255164444Y-48141787D01*
X255211544Y-48291224D01*
X255258084Y-48378294D01*
X255288358Y-48454757D01*
X255350472Y-48551140D01*
X255420272Y-48681725D01*
X255442983Y-48694687D01*
X255556600Y-48870987D01*
X255900579Y-49227188D01*
X256145563Y-49397457D01*
X256158275Y-49419728D01*
X256235354Y-49459863D01*
X256307194Y-49509793D01*
X256456620Y-49575076D01*
X256599435Y-49649439D01*
X256681808Y-49673457D01*
X256760957Y-49708037D01*
X256921316Y-49743294D01*
X257076931Y-49788669D01*
X257161307Y-49796060D01*
X257244583Y-49814369D01*
X257409866Y-49817831D01*
X257572416Y-49832069D01*
X257655517Y-49822977D01*
X257739653Y-49824739D01*
X257903560Y-49795838D01*
X258066847Y-49777972D01*
X258145535Y-49753171D01*
X258227308Y-49738752D01*
X258383516Y-49678163D01*
X258541224Y-49628456D01*
X258619400Y-49586670D01*
X258688974Y-49559684D01*
X258790889Y-49495007D01*
X258931725Y-49419728D01*
X258944342Y-49397622D01*
X259107067Y-49294354D01*
X259465661Y-48952870D01*
X259648308Y-48693951D01*
X259669728Y-48681725D01*
X259705796Y-48612456D01*
X259751097Y-48548238D01*
X259821080Y-48391054D01*
X259899439Y-48240565D01*
X259920993Y-48166646D01*
X259952504Y-48095870D01*
X259990874Y-47926985D01*
X260038669Y-47763069D01*
X260045291Y-47687467D01*
X260062210Y-47612998D01*
X260064182Y-47471797D01*
X260082069Y-47267584D01*
X260068735Y-47145717D01*
X260070108Y-47047411D01*
X260043000Y-46910508D01*
X260027972Y-46773153D01*
X259995240Y-46669303D01*
X259973927Y-46561664D01*
X259920324Y-46431613D01*
X259878456Y-46298776D01*
X259822170Y-46193474D01*
X259785230Y-46103849D01*
X259729141Y-46019429D01*
X259669728Y-45908275D01*
X259646471Y-45895001D01*
X259511202Y-45691405D01*
X259162283Y-45340041D01*
X258944955Y-45193451D01*
X258931725Y-45170272D01*
X258839042Y-45122012D01*
X258751762Y-45063141D01*
X258617964Y-45006897D01*
X258490565Y-44940561D01*
X258391305Y-44911618D01*
X258295275Y-44871251D01*
X258152000Y-44841841D01*
X258013069Y-44801331D01*
X257911168Y-44792405D01*
X257810211Y-44771682D01*
X257662828Y-44770653D01*
X257517584Y-44757931D01*
X257416995Y-44768937D01*
X257315045Y-44768225D01*
X257169173Y-44796052D01*
X257023153Y-44812028D01*
X256927686Y-44842118D01*
X256828638Y-44861012D01*
X256689921Y-44917057D01*
X256548776Y-44961544D01*
X256452677Y-45012910D01*
X256369517Y-45046509D01*
X256278990Y-45105748D01*
X256158275Y-45170272D01*
X256145093Y-45193368D01*
X255955170Y-45317650D01*
X255601379Y-45664108D01*
X255443126Y-45895231D01*
X255420272Y-45908275D01*
X255376073Y-45993160D01*
X255321620Y-46072686D01*
X255260917Y-46214316D01*
X255190561Y-46349435D01*
X255164079Y-46440255D01*
X255126548Y-46527822D01*
X255094277Y-46679646D01*
X255051331Y-46826931D01*
X255043173Y-46920074D01*
X255023595Y-47012179D01*
X255021412Y-47168507D01*
X255007931Y-47322416D01*
X128860000Y-47322416D01*
X128860000Y-31953986D01*
X237806524Y-31953986D01*
X237824650Y-32160057D01*
X237821736Y-32368703D01*
X237862572Y-32591200D01*
X237882207Y-32814434D01*
X237939652Y-33011179D01*
X237976972Y-33214518D01*
X238060962Y-33426652D01*
X238124301Y-33643583D01*
X238218144Y-33823650D01*
X238293538Y-34014073D01*
X238418179Y-34207477D01*
X238523501Y-34409570D01*
X238574628Y-34486088D01*
X238621117Y-34522375D01*
X238759377Y-34736912D01*
X239356743Y-35355503D01*
X239683005Y-35582261D01*
X239726412Y-35637872D01*
X239899483Y-35732717D01*
X240062884Y-35846284D01*
X240279044Y-35940722D01*
X240483895Y-36052983D01*
X240670329Y-36111670D01*
X240850904Y-36190561D01*
X241083190Y-36241633D01*
X241307807Y-36312339D01*
X241500203Y-36333319D01*
X241690786Y-36375222D01*
X241930511Y-36380243D01*
X241960515Y-36383515D01*
X241946741Y-36386143D01*
X241830825Y-36402039D01*
X241790647Y-36415919D01*
X241748638Y-36423933D01*
X241637639Y-36468779D01*
X241526412Y-36507205D01*
X241476502Y-36533883D01*
X241451346Y-36544046D01*
X241423964Y-36561964D01*
X241352456Y-36600186D01*
X241348387Y-36611421D01*
X241183046Y-36719617D01*
X240953957Y-36943957D01*
X240822085Y-37136552D01*
X240812686Y-37139956D01*
X240795341Y-37175610D01*
X240772806Y-37208522D01*
X240724487Y-37321258D01*
X240671796Y-37429571D01*
X240661920Y-37467239D01*
X240646493Y-37503233D01*
X240620837Y-37623935D01*
X240590116Y-37741108D01*
X240587822Y-37779259D01*
X240579828Y-37816866D01*
X240578095Y-37941001D01*
X240570782Y-38062595D01*
X240575878Y-38099754D01*
X240575351Y-38137475D01*
X240597896Y-38260312D01*
X240614539Y-38381675D01*
X240626553Y-38416450D01*
X240633233Y-38452848D01*
X240679485Y-38569668D01*
X240719705Y-38686088D01*
X240742361Y-38728475D01*
X240751268Y-38750971D01*
X240769542Y-38779327D01*
X240812686Y-38860044D01*
X240824263Y-38864237D01*
X240924961Y-39020491D01*
X241147697Y-39251140D01*
X241349376Y-39391310D01*
X241352456Y-39399814D01*
X241382968Y-39414657D01*
X241410990Y-39434133D01*
X241528845Y-39485622D01*
X241642071Y-39540704D01*
X241674207Y-39549129D01*
X241704813Y-39562501D01*
X241831165Y-39590281D01*
X241953608Y-39622384D01*
X241986049Y-39624335D01*
X242017973Y-39631354D01*
X242148079Y-39634079D01*
X242275095Y-39641718D01*
X242306585Y-39637400D01*
X242338543Y-39638069D01*
X242467439Y-39615341D01*
X242594175Y-39597961D01*
X242623542Y-39587815D01*
X242654311Y-39582390D01*
X242777050Y-39534783D01*
X242898588Y-39492795D01*
X242933732Y-39474010D01*
X242953252Y-39466439D01*
X242981845Y-39448294D01*
X243072544Y-39399814D01*
X243076814Y-39388024D01*
X243223977Y-39294632D01*
X243456176Y-39073512D01*
X243604855Y-38862745D01*
X243612314Y-38860044D01*
X243624652Y-38834682D01*
X243641003Y-38811503D01*
X243695786Y-38688459D01*
X243753204Y-38570429D01*
X243760177Y-38543833D01*
X243771419Y-38518583D01*
X243801428Y-38386496D01*
X243834884Y-38258892D01*
X243836491Y-38232165D01*
X243842456Y-38205911D01*
X243843782Y-38110931D01*
X243854218Y-37937405D01*
X243846946Y-37884376D01*
X243847570Y-37839680D01*
X243825601Y-37728729D01*
X243810461Y-37618325D01*
X243794718Y-37572754D01*
X243785291Y-37525146D01*
X243741908Y-37419891D01*
X243705295Y-37313912D01*
X243674410Y-37256129D01*
X243663104Y-37228700D01*
X243645940Y-37202866D01*
X243612314Y-37139956D01*
X243601553Y-37136059D01*
X243485665Y-36961632D01*
X243259731Y-36734115D01*
X243076220Y-36610336D01*
X243072544Y-36600186D01*
X243031751Y-36580341D01*
X242993908Y-36554816D01*
X242886277Y-36509572D01*
X242782929Y-36459296D01*
X242739734Y-36447971D01*
X242698322Y-36430563D01*
X242583225Y-36406937D01*
X242529248Y-36392785D01*
X242550541Y-36393231D01*
X242788581Y-36351258D01*
X243026934Y-36330293D01*
X243209061Y-36277116D01*
X243397419Y-36243903D01*
X243624582Y-36155792D01*
X243856083Y-36088199D01*
X244022644Y-36001395D01*
X244199164Y-35932927D01*
X244406522Y-35801334D01*
X244622070Y-35688999D01*
X244698588Y-35637872D01*
X244732445Y-35594496D01*
X244925238Y-35472146D01*
X245547984Y-34879113D01*
X245794430Y-34529753D01*
X245850372Y-34486088D01*
X245937894Y-34326381D01*
X246043683Y-34176415D01*
X246145937Y-33946749D01*
X246265483Y-33728605D01*
X246319591Y-33556716D01*
X246393454Y-33390818D01*
X246449584Y-33143759D01*
X246524839Y-32904693D01*
X246544167Y-32727454D01*
X246583973Y-32552245D01*
X246587013Y-32334540D01*
X246618476Y-32046014D01*
X246594800Y-31776841D01*
X246597688Y-31570029D01*
X246559762Y-31378490D01*
X246542793Y-31185566D01*
X246476827Y-30959640D01*
X246430657Y-30726463D01*
X246355513Y-30544149D01*
X246300699Y-30356417D01*
X246192805Y-30149390D01*
X246102959Y-29931406D01*
X245992763Y-29765548D01*
X245901499Y-29590430D01*
X245850372Y-29513912D01*
X245798865Y-29473709D01*
X245627074Y-29215142D01*
X245021128Y-28604951D01*
X244740239Y-28415489D01*
X244698588Y-28362128D01*
X244498835Y-28252661D01*
X244308203Y-28124078D01*
X244119300Y-28044670D01*
X243941105Y-27947017D01*
X243725652Y-27879195D01*
X243515454Y-27790836D01*
X243312817Y-27749241D01*
X243117193Y-27687661D01*
X242894541Y-27663381D01*
X242673075Y-27617921D01*
X242464289Y-27616463D01*
X242258514Y-27594024D01*
X242037294Y-27613482D01*
X241813153Y-27611917D01*
X241606154Y-27651404D01*
X241398066Y-27669707D01*
X241186723Y-27731415D01*
X240968442Y-27773054D01*
X240771258Y-27852722D01*
X240568917Y-27911801D01*
X240375355Y-28012677D01*
X240171117Y-28095195D01*
X239991551Y-28212700D01*
X239802930Y-28311001D01*
X239726412Y-28362128D01*
X239688002Y-28411336D01*
X239451548Y-28566068D01*
X238837142Y-29167738D01*
X238629368Y-29471185D01*
X238574628Y-29513912D01*
X238472465Y-29700336D01*
X238351303Y-29877289D01*
X238264481Y-30079859D01*
X238159517Y-30271395D01*
X238096259Y-30472350D01*
X238012535Y-30667693D01*
X237966308Y-30885173D01*
X237900161Y-31095307D01*
X237877530Y-31302844D01*
X237833743Y-31508844D01*
X237830612Y-31733096D01*
X237806524Y-31953986D01*
X128860000Y-31953986D01*
X128860000Y-28650000D01*
X128853483Y-28583540D01*
X128847424Y-28516959D01*
X128846721Y-28514569D01*
X128846478Y-28512094D01*
X128827179Y-28448173D01*
X128808301Y-28384029D01*
X128807147Y-28381822D01*
X128806428Y-28379440D01*
X128775081Y-28320486D01*
X128744103Y-28261230D01*
X128742542Y-28259288D01*
X128741374Y-28257092D01*
X128699192Y-28205372D01*
X128657276Y-28153239D01*
X128655366Y-28151636D01*
X128653795Y-28149710D01*
X128602367Y-28107164D01*
X128551127Y-28064169D01*
X128548944Y-28062969D01*
X128547027Y-28061383D01*
X128488262Y-28029609D01*
X128429699Y-27997414D01*
X128427327Y-27996661D01*
X128425136Y-27995477D01*
X128361337Y-27975728D01*
X128297617Y-27955515D01*
X128295140Y-27955237D01*
X128292765Y-27954502D01*
X128226351Y-27947521D01*
X128159913Y-27940069D01*
X128155135Y-27940036D01*
X128154957Y-27940017D01*
X128154778Y-27940033D01*
X128150000Y-27940000D01*
X30350000Y-27940000D01*
X30283540Y-27946517D01*
X30216959Y-27952576D01*
X30214569Y-27953279D01*
X30212094Y-27953522D01*
X30148173Y-27972821D01*
X30084029Y-27991699D01*
X30081822Y-27992853D01*
X30079440Y-27993572D01*
X30020486Y-28024919D01*
X29961230Y-28055897D01*
X29959288Y-28057458D01*
X29957092Y-28058626D01*
X29905372Y-28100808D01*
X29853239Y-28142724D01*
X29851636Y-28144634D01*
X29849710Y-28146205D01*
X29807164Y-28197633D01*
X29764169Y-28248873D01*
X29762969Y-28251056D01*
X29761383Y-28252973D01*
X29729609Y-28311738D01*
X29697414Y-28370301D01*
X29696661Y-28372673D01*
X29695477Y-28374864D01*
X29675728Y-28438663D01*
X29655515Y-28502383D01*
X29655237Y-28504860D01*
X29654502Y-28507235D01*
X29647521Y-28573649D01*
X29640069Y-28640087D01*
X29640036Y-28644865D01*
X29640017Y-28645043D01*
X29640033Y-28645222D01*
X29640000Y-28650000D01*
X15810000Y-28650000D01*
X15810000Y-22174720D01*
X15897438Y-21282946D01*
X30353687Y-21282946D01*
X30363043Y-21366189D01*
X30361865Y-21450537D01*
X30389359Y-21600339D01*
X30406158Y-21749811D01*
X30431261Y-21828646D01*
X30446298Y-21910576D01*
X30502755Y-22053170D01*
X30548703Y-22197468D01*
X30591838Y-22278168D01*
X30618478Y-22345453D01*
X30673135Y-22430265D01*
X30739234Y-22553927D01*
X30760199Y-22565362D01*
X30871847Y-22738606D01*
X31196755Y-23075057D01*
X31435156Y-23240750D01*
X31446073Y-23260766D01*
X31515872Y-23296850D01*
X31580825Y-23341993D01*
X31725259Y-23405095D01*
X31863409Y-23476513D01*
X31937904Y-23497997D01*
X32009428Y-23529245D01*
X32164411Y-23563320D01*
X32314815Y-23606696D01*
X32391030Y-23613146D01*
X32466240Y-23629682D01*
X32625960Y-23633028D01*
X32782946Y-23646313D01*
X32857923Y-23637886D01*
X32933860Y-23639477D01*
X33092224Y-23611553D01*
X33249811Y-23593842D01*
X33320717Y-23571264D01*
X33394477Y-23558258D01*
X33545395Y-23499721D01*
X33697468Y-23451297D01*
X33769493Y-23412799D01*
X33830546Y-23389118D01*
X33919972Y-23332366D01*
X34053927Y-23260766D01*
X34065113Y-23240256D01*
X34225457Y-23138499D01*
X34564169Y-22815949D01*
X34741649Y-22564354D01*
X34760766Y-22553927D01*
X34793029Y-22491518D01*
X34833779Y-22433751D01*
X34901350Y-22281985D01*
X34976513Y-22136591D01*
X34995691Y-22070091D01*
X35024019Y-22006466D01*
X35061064Y-21843412D01*
X35106696Y-21685185D01*
X35112444Y-21617264D01*
X35127643Y-21550366D01*
X35129527Y-21415399D01*
X35140736Y-21282946D01*
X123353687Y-21282946D01*
X123363043Y-21366189D01*
X123361865Y-21450537D01*
X123389359Y-21600339D01*
X123406158Y-21749811D01*
X123431261Y-21828646D01*
X123446298Y-21910576D01*
X123502755Y-22053170D01*
X123548703Y-22197468D01*
X123591838Y-22278168D01*
X123618478Y-22345453D01*
X123673135Y-22430265D01*
X123739234Y-22553927D01*
X123760199Y-22565362D01*
X123871847Y-22738606D01*
X124196755Y-23075057D01*
X124435156Y-23240750D01*
X124446073Y-23260766D01*
X124515872Y-23296850D01*
X124580825Y-23341993D01*
X124725259Y-23405095D01*
X124863409Y-23476513D01*
X124937904Y-23497997D01*
X125009428Y-23529245D01*
X125164411Y-23563320D01*
X125314815Y-23606696D01*
X125391030Y-23613146D01*
X125466240Y-23629682D01*
X125625960Y-23633028D01*
X125782946Y-23646313D01*
X125857923Y-23637886D01*
X125933860Y-23639477D01*
X126092224Y-23611553D01*
X126249811Y-23593842D01*
X126320717Y-23571264D01*
X126394477Y-23558258D01*
X126545395Y-23499721D01*
X126697468Y-23451297D01*
X126769493Y-23412799D01*
X126830546Y-23389118D01*
X126919972Y-23332366D01*
X127053927Y-23260766D01*
X127065113Y-23240256D01*
X127225457Y-23138499D01*
X127564169Y-22815949D01*
X127741649Y-22564354D01*
X127760766Y-22553927D01*
X127793029Y-22491518D01*
X127833779Y-22433751D01*
X127901350Y-22281985D01*
X127976513Y-22136591D01*
X127995691Y-22070091D01*
X128024019Y-22006466D01*
X128061064Y-21843412D01*
X128106696Y-21685185D01*
X128112444Y-21617264D01*
X128127643Y-21550366D01*
X128129527Y-21415399D01*
X128143524Y-21250000D01*
X137240000Y-21250000D01*
X137240000Y-24750000D01*
X137246517Y-24816460D01*
X137252576Y-24883041D01*
X137253279Y-24885431D01*
X137253522Y-24887906D01*
X137272821Y-24951827D01*
X137291699Y-25015971D01*
X137292853Y-25018178D01*
X137293572Y-25020560D01*
X137324919Y-25079514D01*
X137355897Y-25138770D01*
X137357458Y-25140712D01*
X137358626Y-25142908D01*
X137400808Y-25194628D01*
X137442724Y-25246761D01*
X137444634Y-25248364D01*
X137446205Y-25250290D01*
X137497633Y-25292836D01*
X137548873Y-25335831D01*
X137551056Y-25337031D01*
X137552973Y-25338617D01*
X137611738Y-25370391D01*
X137670301Y-25402586D01*
X137672673Y-25403339D01*
X137674864Y-25404523D01*
X137738663Y-25424272D01*
X137802383Y-25444485D01*
X137804860Y-25444763D01*
X137807235Y-25445498D01*
X137873649Y-25452479D01*
X137940087Y-25459931D01*
X137944865Y-25459964D01*
X137945043Y-25459983D01*
X137945222Y-25459967D01*
X137950000Y-25460000D01*
X163450000Y-25460000D01*
X163516460Y-25453483D01*
X163583041Y-25447424D01*
X163585431Y-25446721D01*
X163587906Y-25446478D01*
X163651827Y-25427179D01*
X163715971Y-25408301D01*
X163718178Y-25407147D01*
X163720560Y-25406428D01*
X163779514Y-25375081D01*
X163838770Y-25344103D01*
X163840712Y-25342542D01*
X163842908Y-25341374D01*
X163894628Y-25299192D01*
X163946761Y-25257276D01*
X163948364Y-25255366D01*
X163950290Y-25253795D01*
X163992836Y-25202367D01*
X164035831Y-25151127D01*
X164037031Y-25148944D01*
X164038617Y-25147027D01*
X164070391Y-25088262D01*
X164102586Y-25029699D01*
X164103339Y-25027327D01*
X164104523Y-25025136D01*
X164124272Y-24961337D01*
X164144485Y-24897617D01*
X164144763Y-24895140D01*
X164145498Y-24892765D01*
X164152479Y-24826351D01*
X164159931Y-24759913D01*
X164159964Y-24755135D01*
X164159983Y-24754957D01*
X164159967Y-24754778D01*
X164160000Y-24750000D01*
X164160000Y-21250000D01*
X164153483Y-21183540D01*
X164147424Y-21116959D01*
X164146721Y-21114569D01*
X164146478Y-21112094D01*
X164127179Y-21048173D01*
X164108301Y-20984029D01*
X164107147Y-20981822D01*
X164106428Y-20979440D01*
X164075081Y-20920486D01*
X164044103Y-20861230D01*
X164042542Y-20859288D01*
X164041374Y-20857092D01*
X163999192Y-20805372D01*
X163957276Y-20753239D01*
X163955366Y-20751636D01*
X163953795Y-20749710D01*
X163902311Y-20707118D01*
X163851127Y-20664169D01*
X163848944Y-20662969D01*
X163847027Y-20661383D01*
X163788262Y-20629609D01*
X163729699Y-20597414D01*
X163727327Y-20596661D01*
X163725136Y-20595477D01*
X163661337Y-20575728D01*
X163597617Y-20555515D01*
X163595140Y-20555237D01*
X163592765Y-20554502D01*
X163526351Y-20547521D01*
X163459913Y-20540069D01*
X163455135Y-20540036D01*
X163454957Y-20540017D01*
X163454778Y-20540033D01*
X163450000Y-20540000D01*
X137950000Y-20540000D01*
X137883540Y-20546517D01*
X137816959Y-20552576D01*
X137814569Y-20553279D01*
X137812094Y-20553522D01*
X137748173Y-20572821D01*
X137684029Y-20591699D01*
X137681822Y-20592853D01*
X137679440Y-20593572D01*
X137620486Y-20624919D01*
X137561230Y-20655897D01*
X137559288Y-20657458D01*
X137557092Y-20658626D01*
X137505372Y-20700808D01*
X137453239Y-20742724D01*
X137451636Y-20744634D01*
X137449710Y-20746205D01*
X137407164Y-20797633D01*
X137364169Y-20848873D01*
X137362969Y-20851056D01*
X137361383Y-20852973D01*
X137329609Y-20911738D01*
X137297414Y-20970301D01*
X137296661Y-20972673D01*
X137295477Y-20974864D01*
X137275728Y-21038663D01*
X137255515Y-21102383D01*
X137255237Y-21104860D01*
X137254502Y-21107235D01*
X137247521Y-21173649D01*
X137240069Y-21240087D01*
X137240036Y-21244865D01*
X137240017Y-21245043D01*
X137240033Y-21245222D01*
X137240000Y-21250000D01*
X128143524Y-21250000D01*
X128146313Y-21217054D01*
X128133846Y-21106124D01*
X128135102Y-21016139D01*
X128108807Y-20883338D01*
X128093842Y-20750189D01*
X128063698Y-20655523D01*
X128044254Y-20557324D01*
X127992263Y-20431185D01*
X127951297Y-20302532D01*
X127898604Y-20203950D01*
X127866019Y-20124893D01*
X127816546Y-20050429D01*
X127760766Y-19946073D01*
X127739508Y-19934478D01*
X127607185Y-19735316D01*
X127277612Y-19403434D01*
X127065423Y-19260311D01*
X127053927Y-19239234D01*
X126969362Y-19195517D01*
X126889852Y-19141887D01*
X126760180Y-19087378D01*
X126636591Y-19023487D01*
X126546124Y-18997397D01*
X126458676Y-18960637D01*
X126319842Y-18932138D01*
X126185185Y-18893304D01*
X126092406Y-18885452D01*
X126000507Y-18866588D01*
X125857719Y-18865591D01*
X125717054Y-18853687D01*
X125625555Y-18863971D01*
X125532795Y-18863323D01*
X125391507Y-18890275D01*
X125250189Y-18906158D01*
X125163435Y-18933783D01*
X125073357Y-18950966D01*
X124939019Y-19005242D01*
X124802532Y-19048703D01*
X124712991Y-19096564D01*
X124639693Y-19126178D01*
X124559905Y-19178390D01*
X124446073Y-19239234D01*
X124434500Y-19260452D01*
X124248319Y-19382285D01*
X123914144Y-19709534D01*
X123759900Y-19934801D01*
X123739234Y-19946073D01*
X123699332Y-20023259D01*
X123649896Y-20095458D01*
X123591147Y-20232528D01*
X123523487Y-20363409D01*
X123499700Y-20445891D01*
X123465640Y-20525358D01*
X123434412Y-20672274D01*
X123393304Y-20814815D01*
X123386153Y-20899316D01*
X123368395Y-20982860D01*
X123366283Y-21134104D01*
X123353687Y-21282946D01*
X35140736Y-21282946D01*
X35146313Y-21217054D01*
X35133846Y-21106124D01*
X35135102Y-21016139D01*
X35108807Y-20883338D01*
X35093842Y-20750189D01*
X35063698Y-20655523D01*
X35044254Y-20557324D01*
X34992263Y-20431185D01*
X34951297Y-20302532D01*
X34898604Y-20203950D01*
X34866019Y-20124893D01*
X34816546Y-20050429D01*
X34760766Y-19946073D01*
X34739508Y-19934478D01*
X34607185Y-19735316D01*
X34277612Y-19403434D01*
X34065423Y-19260311D01*
X34053927Y-19239234D01*
X33969362Y-19195517D01*
X33889852Y-19141887D01*
X33760180Y-19087378D01*
X33636591Y-19023487D01*
X33546124Y-18997397D01*
X33458676Y-18960637D01*
X33319842Y-18932138D01*
X33185185Y-18893304D01*
X33092406Y-18885452D01*
X33000507Y-18866588D01*
X32857719Y-18865591D01*
X32717054Y-18853687D01*
X32625555Y-18863971D01*
X32532795Y-18863323D01*
X32391507Y-18890275D01*
X32250189Y-18906158D01*
X32163435Y-18933783D01*
X32073357Y-18950966D01*
X31939019Y-19005242D01*
X31802532Y-19048703D01*
X31712991Y-19096564D01*
X31639693Y-19126178D01*
X31559905Y-19178390D01*
X31446073Y-19239234D01*
X31434500Y-19260452D01*
X31248319Y-19382285D01*
X30914144Y-19709534D01*
X30759900Y-19934801D01*
X30739234Y-19946073D01*
X30699332Y-20023259D01*
X30649896Y-20095458D01*
X30591147Y-20232528D01*
X30523487Y-20363409D01*
X30499700Y-20445891D01*
X30465640Y-20525358D01*
X30434412Y-20672274D01*
X30393304Y-20814815D01*
X30386153Y-20899316D01*
X30368395Y-20982860D01*
X30366283Y-21134104D01*
X30353687Y-21282946D01*
X15897438Y-21282946D01*
X15905325Y-21202513D01*
X16177591Y-20300728D01*
X16619826Y-19469004D01*
X17215189Y-18739016D01*
X17941002Y-18138572D01*
X18769619Y-17690540D01*
X19669478Y-17411987D01*
X20639770Y-17310005D01*
X20641332Y-17310000D01*
X259335280Y-17310000D01*
X260307487Y-17405325D01*
X260307487Y-17405325D01*
G37*
X260307487Y-17405325D02*
X261113175Y-17648577D01*
X261809578Y-17996779D01*
X262040996Y-18119826D01*
X262770984Y-18715189D01*
X263371428Y-19441002D01*
X263819460Y-20269619D01*
X264098013Y-21169478D01*
X264199995Y-22139770D01*
X264200000Y-22141332D01*
X264200000Y-104165281D01*
X264104675Y-105137487D01*
X263884807Y-105865721D01*
X263780530Y-106136843D01*
X263390174Y-106870996D01*
X262794811Y-107600984D01*
X262068994Y-108201431D01*
X261240381Y-108649460D01*
X260340522Y-108928013D01*
X259370230Y-109029995D01*
X259368668Y-109030000D01*
X20674719Y-109030000D01*
X19702513Y-108934675D01*
X18800728Y-108662409D01*
X17969004Y-108220174D01*
X17239016Y-107624811D01*
X16638569Y-106898994D01*
X16190540Y-106070381D01*
X15911987Y-105170522D01*
X15810005Y-104200230D01*
X15810000Y-104198668D01*
X15810000Y-91140000D01*
X30975000Y-91140000D01*
X30975000Y-97360000D01*
X30988522Y-97497906D01*
X31028572Y-97630560D01*
X31093626Y-97752908D01*
X31094474Y-97753947D01*
X31098407Y-97761332D01*
X31103956Y-97769547D01*
X31736532Y-98691970D01*
X31775743Y-98738632D01*
X31813856Y-98786219D01*
X31820828Y-98793267D01*
X32698992Y-99668635D01*
X32748790Y-99709406D01*
X32798000Y-99750858D01*
X32806208Y-99756417D01*
X33837675Y-100444544D01*
X33894416Y-100474852D01*
X33950768Y-100505971D01*
X33959899Y-100509830D01*
X35105379Y-100984505D01*
X35166924Y-101003213D01*
X35228249Y-101022795D01*
X35237956Y-101024806D01*
X36453819Y-101267950D01*
X36517793Y-101274345D01*
X36581787Y-101281646D01*
X36591700Y-101281734D01*
X37831633Y-101284085D01*
X37895654Y-101277930D01*
X37959824Y-101272664D01*
X37969565Y-101270824D01*
X39186341Y-101032292D01*
X39247927Y-101013825D01*
X39309871Y-100996190D01*
X39319070Y-100992494D01*
X40466341Y-100522166D01*
X40523210Y-100492066D01*
X40580507Y-100462756D01*
X40588812Y-100457344D01*
X41622880Y-99773133D01*
X41672823Y-99732558D01*
X41723333Y-99692680D01*
X41730428Y-99685758D01*
X42611905Y-98813726D01*
X42653006Y-98764234D01*
X42694818Y-98715294D01*
X42700434Y-98707125D01*
X43395745Y-97680488D01*
X43426449Y-97623958D01*
X43457960Y-97567827D01*
X43461882Y-97558723D01*
X43944543Y-96416584D01*
X43963679Y-96355178D01*
X43983690Y-96293984D01*
X43985770Y-96284292D01*
X44237395Y-95070157D01*
X44244241Y-95006194D01*
X44251984Y-94942288D01*
X44252141Y-94932376D01*
X44263148Y-93692489D01*
X44257438Y-93628402D01*
X44252622Y-93564221D01*
X44250851Y-93554468D01*
X44020820Y-92336056D01*
X44002772Y-92274302D01*
X43985581Y-92212276D01*
X43981949Y-92203052D01*
X43554791Y-91140000D01*
X50025000Y-91140000D01*
X50025000Y-97360000D01*
X50038522Y-97497906D01*
X50078572Y-97630560D01*
X50143626Y-97752908D01*
X50144474Y-97753947D01*
X50148407Y-97761332D01*
X50153956Y-97769547D01*
X50786532Y-98691970D01*
X50825743Y-98738632D01*
X50863856Y-98786219D01*
X50870828Y-98793267D01*
X51748992Y-99668635D01*
X51798790Y-99709406D01*
X51848000Y-99750858D01*
X51856208Y-99756417D01*
X52887675Y-100444544D01*
X52944416Y-100474852D01*
X53000768Y-100505971D01*
X53009899Y-100509830D01*
X54155379Y-100984505D01*
X54216924Y-101003213D01*
X54278249Y-101022795D01*
X54287956Y-101024806D01*
X55503819Y-101267950D01*
X55567793Y-101274345D01*
X55631787Y-101281646D01*
X55641700Y-101281734D01*
X56881633Y-101284085D01*
X56945654Y-101277930D01*
X57009824Y-101272664D01*
X57019565Y-101270824D01*
X58236341Y-101032292D01*
X58297927Y-101013825D01*
X58359871Y-100996190D01*
X58369070Y-100992494D01*
X59516341Y-100522166D01*
X59573210Y-100492066D01*
X59630507Y-100462756D01*
X59638812Y-100457344D01*
X59717801Y-100405079D01*
X83166997Y-100405079D01*
X83173293Y-100453913D01*
X83172601Y-100503451D01*
X83196391Y-100633070D01*
X83212964Y-100761622D01*
X83228410Y-100807528D01*
X83237209Y-100855472D01*
X83286025Y-100978767D01*
X83327605Y-101102346D01*
X83355951Y-101155379D01*
X83368962Y-101188240D01*
X83395653Y-101229656D01*
X83445313Y-101322565D01*
X83459297Y-101328412D01*
X83562839Y-101489079D01*
X83811458Y-101746532D01*
X84022692Y-101893343D01*
X84027435Y-101904687D01*
X84067968Y-101924811D01*
X84105348Y-101950791D01*
X84229861Y-102005189D01*
X84349426Y-102064552D01*
X84392339Y-102076174D01*
X84433315Y-102094076D01*
X84566837Y-102123433D01*
X84696419Y-102158527D01*
X84739974Y-102161499D01*
X84782867Y-102170930D01*
X84920372Y-102173810D01*
X85055079Y-102183003D01*
X85097591Y-102177522D01*
X85140690Y-102178425D01*
X85276952Y-102154398D01*
X85411622Y-102137036D01*
X85451487Y-102123623D01*
X85493153Y-102116276D01*
X85622940Y-102065935D01*
X85752346Y-102022395D01*
X85797715Y-101998145D01*
X85826833Y-101986851D01*
X85869479Y-101959787D01*
X85972565Y-101904687D01*
X85978439Y-101890638D01*
X86129018Y-101795078D01*
X86388200Y-101548262D01*
X86544368Y-101326880D01*
X86554687Y-101322565D01*
X86571975Y-101287745D01*
X86594506Y-101255805D01*
X86652468Y-101125619D01*
X86714552Y-101000574D01*
X86724506Y-100963820D01*
X86740077Y-100928847D01*
X86771838Y-100789051D01*
X86808527Y-100653581D01*
X86811065Y-100616396D01*
X86819370Y-100579840D01*
X86820865Y-100472789D01*
X86833003Y-100294921D01*
X86824292Y-100227353D01*
X86825078Y-100171050D01*
X86802019Y-100054595D01*
X86787036Y-99938378D01*
X86767526Y-99880392D01*
X86755561Y-99819965D01*
X86710010Y-99709451D01*
X86672395Y-99597654D01*
X86635416Y-99528470D01*
X86619176Y-99489069D01*
X86594522Y-99451962D01*
X86554687Y-99377435D01*
X86541282Y-99371830D01*
X86421116Y-99190966D01*
X86168927Y-98937010D01*
X85977952Y-98808195D01*
X85972565Y-98795313D01*
X85920612Y-98769519D01*
X85872214Y-98736874D01*
X85759040Y-98689300D01*
X85650574Y-98635448D01*
X85595353Y-98620493D01*
X85542278Y-98598182D01*
X85421213Y-98573331D01*
X85303581Y-98541473D01*
X85247304Y-98537632D01*
X85191687Y-98526216D01*
X85067283Y-98525347D01*
X84944921Y-98516997D01*
X84889766Y-98524108D01*
X84833795Y-98523717D01*
X84710780Y-98547183D01*
X84588378Y-98562964D01*
X84536430Y-98580442D01*
X84482234Y-98590781D01*
X84365358Y-98638002D01*
X84247654Y-98677605D01*
X84186706Y-98710182D01*
X84150394Y-98724853D01*
X84110872Y-98750716D01*
X84027435Y-98795313D01*
X84021677Y-98809083D01*
X83850915Y-98920827D01*
X83595205Y-99171237D01*
X83457511Y-99372334D01*
X83445313Y-99377435D01*
X83422350Y-99423686D01*
X83393003Y-99466546D01*
X83342069Y-99585384D01*
X83285448Y-99699426D01*
X83272159Y-99748494D01*
X83252010Y-99795505D01*
X83224955Y-99922790D01*
X83191473Y-100046419D01*
X83188066Y-100096340D01*
X83177599Y-100145585D01*
X83175770Y-100276518D01*
X83166997Y-100405079D01*
X59717801Y-100405079D01*
X60672880Y-99773133D01*
X60722823Y-99732558D01*
X60773333Y-99692680D01*
X60780428Y-99685758D01*
X61661905Y-98813726D01*
X61703006Y-98764234D01*
X61744818Y-98715294D01*
X61750434Y-98707125D01*
X62445745Y-97680488D01*
X62476449Y-97623958D01*
X62507960Y-97567827D01*
X62511882Y-97558723D01*
X62994543Y-96416584D01*
X63013679Y-96355178D01*
X63033690Y-96293984D01*
X63035770Y-96284292D01*
X63287395Y-95070157D01*
X63294241Y-95006194D01*
X63301984Y-94942288D01*
X63302141Y-94932376D01*
X63308405Y-94226682D01*
X81171635Y-94226682D01*
X81187406Y-94397466D01*
X81184992Y-94570355D01*
X81221984Y-94771911D01*
X81240647Y-94974007D01*
X81288962Y-95136843D01*
X81319872Y-95305260D01*
X81395932Y-95497365D01*
X81454129Y-95693508D01*
X81532508Y-95842319D01*
X81594927Y-95999970D01*
X81707766Y-96175062D01*
X81803877Y-96357537D01*
X81829787Y-96396314D01*
X81868781Y-96424908D01*
X81999681Y-96628024D01*
X82518715Y-97165500D01*
X82820933Y-97375546D01*
X82853686Y-97420213D01*
X82997169Y-97498034D01*
X83132261Y-97591925D01*
X83327765Y-97677339D01*
X83513405Y-97778024D01*
X83667736Y-97825868D01*
X83816949Y-97891058D01*
X84026961Y-97937232D01*
X84230253Y-98000255D01*
X84389306Y-98016899D01*
X84546698Y-98051504D01*
X84763367Y-98056043D01*
X84976682Y-98078365D01*
X85134274Y-98063812D01*
X85293714Y-98067152D01*
X85508800Y-98029226D01*
X85724007Y-98009353D01*
X85874145Y-97964806D01*
X86029542Y-97937405D01*
X86234738Y-97857815D01*
X86443508Y-97795871D01*
X86580599Y-97723664D01*
X86726155Y-97667207D01*
X86913415Y-97548368D01*
X87107537Y-97446123D01*
X87146314Y-97420213D01*
X87173261Y-97383465D01*
X87357020Y-97266848D01*
X87898106Y-96751578D01*
X88125683Y-96428967D01*
X88170213Y-96396314D01*
X88241714Y-96264484D01*
X88328805Y-96141024D01*
X88421071Y-95933791D01*
X88528024Y-95736595D01*
X88571942Y-95594929D01*
X88632710Y-95458442D01*
X88683340Y-95235594D01*
X88750255Y-95019747D01*
X88765519Y-94873883D01*
X88798247Y-94729830D01*
X88800965Y-94535154D01*
X88828365Y-94273318D01*
X88807740Y-94049968D01*
X88810163Y-93876410D01*
X88775587Y-93701788D01*
X88759353Y-93525993D01*
X88703517Y-93337807D01*
X88665035Y-93143461D01*
X88596558Y-92977324D01*
X88545871Y-92806492D01*
X88455165Y-92634279D01*
X88380307Y-92452659D01*
X88279932Y-92301582D01*
X88196123Y-92142463D01*
X88170213Y-92103686D01*
X88127775Y-92072567D01*
X87966825Y-91830317D01*
X87440336Y-91300140D01*
X87202918Y-91140000D01*
X97225000Y-91140000D01*
X97225000Y-97360000D01*
X97238522Y-97497906D01*
X97278572Y-97630560D01*
X97343626Y-97752908D01*
X97344474Y-97753947D01*
X97348407Y-97761332D01*
X97353956Y-97769547D01*
X97986532Y-98691970D01*
X98025743Y-98738632D01*
X98063856Y-98786219D01*
X98070828Y-98793267D01*
X98948992Y-99668635D01*
X98998790Y-99709406D01*
X99048000Y-99750858D01*
X99056208Y-99756417D01*
X100087675Y-100444544D01*
X100144416Y-100474852D01*
X100200768Y-100505971D01*
X100209899Y-100509830D01*
X101355379Y-100984505D01*
X101416924Y-101003213D01*
X101478249Y-101022795D01*
X101487956Y-101024806D01*
X102703819Y-101267950D01*
X102767793Y-101274345D01*
X102831787Y-101281646D01*
X102841700Y-101281734D01*
X104081633Y-101284085D01*
X104145654Y-101277930D01*
X104209824Y-101272664D01*
X104219565Y-101270824D01*
X105436341Y-101032292D01*
X105497927Y-101013825D01*
X105559871Y-100996190D01*
X105569070Y-100992494D01*
X106716341Y-100522166D01*
X106773210Y-100492066D01*
X106830507Y-100462756D01*
X106838812Y-100457344D01*
X107872880Y-99773133D01*
X107922823Y-99732558D01*
X107973333Y-99692680D01*
X107980428Y-99685758D01*
X108861905Y-98813726D01*
X108903006Y-98764234D01*
X108944818Y-98715294D01*
X108950434Y-98707125D01*
X109645745Y-97680488D01*
X109676449Y-97623958D01*
X109707960Y-97567827D01*
X109711882Y-97558723D01*
X110194543Y-96416584D01*
X110213679Y-96355178D01*
X110233690Y-96293984D01*
X110235770Y-96284292D01*
X110487395Y-95070157D01*
X110494241Y-95006194D01*
X110501984Y-94942288D01*
X110502141Y-94932376D01*
X110513148Y-93692489D01*
X110507438Y-93628402D01*
X110502622Y-93564221D01*
X110500851Y-93554468D01*
X110270820Y-92336056D01*
X110252772Y-92274302D01*
X110235581Y-92212276D01*
X110231949Y-92203052D01*
X109804791Y-91140000D01*
X116275000Y-91140000D01*
X116275000Y-97360000D01*
X116288522Y-97497906D01*
X116328572Y-97630560D01*
X116393626Y-97752908D01*
X116394474Y-97753947D01*
X116398407Y-97761332D01*
X116403956Y-97769547D01*
X117036532Y-98691970D01*
X117075743Y-98738632D01*
X117113856Y-98786219D01*
X117120828Y-98793267D01*
X117998992Y-99668635D01*
X118048790Y-99709406D01*
X118098000Y-99750858D01*
X118106208Y-99756417D01*
X119137675Y-100444544D01*
X119194416Y-100474852D01*
X119250768Y-100505971D01*
X119259899Y-100509830D01*
X120405379Y-100984505D01*
X120466924Y-101003213D01*
X120528249Y-101022795D01*
X120537956Y-101024806D01*
X121753819Y-101267950D01*
X121817793Y-101274345D01*
X121881787Y-101281646D01*
X121891700Y-101281734D01*
X123131633Y-101284085D01*
X123195654Y-101277930D01*
X123259824Y-101272664D01*
X123269565Y-101270824D01*
X124486341Y-101032292D01*
X124547927Y-101013825D01*
X124609871Y-100996190D01*
X124619070Y-100992494D01*
X125766341Y-100522166D01*
X125823210Y-100492066D01*
X125880507Y-100462756D01*
X125888812Y-100457344D01*
X126922880Y-99773133D01*
X126972823Y-99732558D01*
X127023333Y-99692680D01*
X127030428Y-99685758D01*
X127911905Y-98813726D01*
X127953006Y-98764234D01*
X127994818Y-98715294D01*
X128000434Y-98707125D01*
X128695745Y-97680488D01*
X128726449Y-97623958D01*
X128757960Y-97567827D01*
X128761882Y-97558723D01*
X129244543Y-96416584D01*
X129263679Y-96355178D01*
X129283690Y-96293984D01*
X129285770Y-96284292D01*
X129537395Y-95070157D01*
X129544241Y-95006194D01*
X129551984Y-94942288D01*
X129552141Y-94932376D01*
X129563148Y-93692489D01*
X129557438Y-93628402D01*
X129552622Y-93564221D01*
X129550851Y-93554468D01*
X129381036Y-92655000D01*
X222990000Y-92655000D01*
X222990000Y-97995000D01*
X223003522Y-98132906D01*
X223043572Y-98265560D01*
X223108626Y-98387908D01*
X223114515Y-98395129D01*
X223119137Y-98403783D01*
X223124695Y-98411991D01*
X223211020Y-98537572D01*
X223233790Y-98564608D01*
X223253859Y-98593694D01*
X223260311Y-98601220D01*
X223881483Y-99315677D01*
X223928235Y-99359881D01*
X223974380Y-99404748D01*
X223982165Y-99410872D01*
X223982170Y-99410877D01*
X223982175Y-99410880D01*
X224730285Y-99991074D01*
X224784728Y-100025352D01*
X224838713Y-100060404D01*
X224847546Y-100064904D01*
X225694107Y-100488742D01*
X225754181Y-100511796D01*
X225813936Y-100535691D01*
X225823475Y-100538389D01*
X226736237Y-100789724D01*
X226799594Y-100800662D01*
X226862903Y-100812505D01*
X226872784Y-100813299D01*
X227816982Y-100882558D01*
X227881280Y-100880981D01*
X227945661Y-100880301D01*
X227955508Y-100879161D01*
X228895174Y-100763705D01*
X228957976Y-100749661D01*
X229020964Y-100736497D01*
X229030402Y-100733466D01*
X229929748Y-100437693D01*
X229988619Y-100411722D01*
X230047857Y-100386571D01*
X230056527Y-100381764D01*
X230881295Y-99916941D01*
X230933995Y-99880033D01*
X230987226Y-99843851D01*
X230994797Y-99837452D01*
X231713573Y-99221282D01*
X231758091Y-99174851D01*
X231803289Y-99129010D01*
X231809473Y-99121262D01*
X232394879Y-98377217D01*
X232429545Y-98323001D01*
X232464964Y-98269275D01*
X232469525Y-98260474D01*
X232899263Y-97416893D01*
X232922730Y-97356999D01*
X232947048Y-97297394D01*
X232949813Y-97287874D01*
X233207514Y-96376889D01*
X233218898Y-96313588D01*
X233231178Y-96250385D01*
X233232041Y-96240510D01*
X233307890Y-95296820D01*
X233306761Y-95232468D01*
X233306589Y-95184282D01*
X238933622Y-95184282D01*
X238961077Y-95537682D01*
X238956081Y-95895501D01*
X239012947Y-96205342D01*
X239037144Y-96516795D01*
X239132222Y-96855221D01*
X239196281Y-97204249D01*
X239313348Y-97499926D01*
X239398637Y-97803508D01*
X239556581Y-98114262D01*
X239686110Y-98441416D01*
X239860001Y-98711243D01*
X240004210Y-98994973D01*
X240160568Y-99228980D01*
X240239579Y-99300231D01*
X240406911Y-99559880D01*
X241331229Y-100517039D01*
X241750332Y-100808323D01*
X241846020Y-100914432D01*
X242142309Y-101080754D01*
X242423856Y-101276434D01*
X242726231Y-101408538D01*
X243011478Y-101568662D01*
X243331728Y-101673074D01*
X243643175Y-101809142D01*
X243968376Y-101880642D01*
X244282176Y-101982951D01*
X244613721Y-102022530D01*
X244942742Y-102094870D01*
X245278633Y-102101906D01*
X245609282Y-102141378D01*
X245939242Y-102115744D01*
X246273057Y-102122736D01*
X246606868Y-102063876D01*
X246941795Y-102037856D01*
X247257579Y-101949139D01*
X247583450Y-101891679D01*
X247902264Y-101768019D01*
X248228508Y-101676363D01*
X248518298Y-101529075D01*
X248824006Y-101410498D01*
X249115256Y-101225665D01*
X249419973Y-101070790D01*
X249653980Y-100914432D01*
X249718606Y-100842767D01*
X249947475Y-100697523D01*
X250911064Y-99779911D01*
X251230244Y-99327445D01*
X251339432Y-99228980D01*
X251494228Y-98953223D01*
X251678069Y-98692612D01*
X251822028Y-98369274D01*
X251993662Y-98063522D01*
X252090777Y-97765652D01*
X252219275Y-97477041D01*
X252298351Y-97128986D01*
X252407951Y-96792824D01*
X252444739Y-96484656D01*
X252514069Y-96179501D01*
X252518427Y-95867391D01*
X252566378Y-95465718D01*
X252530487Y-95003736D01*
X252535291Y-94659696D01*
X252483398Y-94397616D01*
X252462856Y-94133205D01*
X252355094Y-93749633D01*
X252276842Y-93354430D01*
X252173892Y-93104655D01*
X252101363Y-92846492D01*
X251922166Y-92493921D01*
X251769787Y-92124223D01*
X251618627Y-91896709D01*
X251495790Y-91655027D01*
X251339432Y-91421020D01*
X251247498Y-91338114D01*
X251033440Y-91015932D01*
X250095848Y-90071772D01*
X249741826Y-89832981D01*
X249653980Y-89735568D01*
X249316752Y-89546265D01*
X248992725Y-89327706D01*
X248732659Y-89218384D01*
X248488522Y-89081338D01*
X248123621Y-88962368D01*
X247766087Y-88812075D01*
X247486813Y-88754748D01*
X247217824Y-88667049D01*
X246839636Y-88621902D01*
X246462657Y-88544519D01*
X246174570Y-88542508D01*
X245890718Y-88508622D01*
X245513922Y-88537895D01*
X245132082Y-88535229D01*
X244846148Y-88589774D01*
X244558205Y-88612144D01*
X244197183Y-88713571D01*
X243825044Y-88784560D01*
X243552380Y-88894723D01*
X243271492Y-88973637D01*
X242939803Y-89142221D01*
X242591326Y-89283015D01*
X242342749Y-89445679D01*
X242080027Y-89579210D01*
X241846020Y-89735568D01*
X241768661Y-89821352D01*
X241477922Y-90011606D01*
X240527239Y-90942583D01*
X240262725Y-91328895D01*
X240160568Y-91421020D01*
X239982747Y-91737793D01*
X239775490Y-92040485D01*
X239654928Y-92321776D01*
X239506338Y-92586478D01*
X239394642Y-92929071D01*
X239251308Y-93263493D01*
X239187057Y-93565769D01*
X239092049Y-93857176D01*
X239049684Y-94212061D01*
X238974659Y-94565024D01*
X238970302Y-94877018D01*
X238933622Y-95184282D01*
X233306589Y-95184282D01*
X233306531Y-95168128D01*
X233305460Y-95158273D01*
X233196567Y-94217823D01*
X233182965Y-94154939D01*
X233170238Y-94091847D01*
X233167273Y-94082387D01*
X232877786Y-93180998D01*
X232852235Y-93121968D01*
X232827490Y-93062535D01*
X232822743Y-93053832D01*
X232363689Y-92225839D01*
X232327161Y-92172897D01*
X232291341Y-92119400D01*
X232284994Y-92111784D01*
X231673858Y-91388725D01*
X231627734Y-91343880D01*
X231582214Y-91298367D01*
X231574510Y-91292129D01*
X230834570Y-90701543D01*
X230780573Y-90666483D01*
X230727120Y-90630706D01*
X230718351Y-90626083D01*
X229877790Y-90190466D01*
X229818046Y-90166576D01*
X229758627Y-90141848D01*
X229749130Y-90139018D01*
X229749124Y-90139016D01*
X228839963Y-89874963D01*
X228776731Y-89863135D01*
X228713628Y-89850417D01*
X228703758Y-89849485D01*
X227760621Y-89767050D01*
X227696295Y-89767729D01*
X227631923Y-89767509D01*
X227622061Y-89768512D01*
X226680874Y-89870837D01*
X226617892Y-89884000D01*
X226554717Y-89896286D01*
X226545237Y-89899185D01*
X225641849Y-90182372D01*
X225582606Y-90207525D01*
X225523037Y-90231840D01*
X225514301Y-90236525D01*
X224683123Y-90689787D01*
X224629906Y-90725960D01*
X224576182Y-90761391D01*
X224568522Y-90767684D01*
X223841214Y-91373758D01*
X223796064Y-91419550D01*
X223750218Y-91464768D01*
X223743926Y-91472429D01*
X223148189Y-92208228D01*
X223132497Y-92232030D01*
X223114169Y-92253873D01*
X223094447Y-92289748D01*
X223071920Y-92323918D01*
X223061150Y-92350315D01*
X223047414Y-92375301D01*
X223035037Y-92414318D01*
X223019574Y-92452218D01*
X223014136Y-92480205D01*
X223005515Y-92507383D01*
X223000952Y-92548067D01*
X222993146Y-92588242D01*
X222993248Y-92616747D01*
X222990069Y-92645087D01*
X222990000Y-92655000D01*
X129381036Y-92655000D01*
X129320820Y-92336056D01*
X129302772Y-92274302D01*
X129285581Y-92212276D01*
X129281949Y-92203052D01*
X128819641Y-91052525D01*
X128789933Y-90995436D01*
X128761030Y-90937947D01*
X128755676Y-90929604D01*
X128078701Y-89890785D01*
X128038484Y-89840571D01*
X127998951Y-89789773D01*
X127992078Y-89782630D01*
X127126223Y-88895087D01*
X127077005Y-88853629D01*
X127028372Y-88811489D01*
X127020248Y-88805820D01*
X127020243Y-88805816D01*
X127020238Y-88805813D01*
X125998485Y-88103354D01*
X125942163Y-88072252D01*
X125886260Y-88040354D01*
X125877183Y-88036368D01*
X124738442Y-87545746D01*
X124677157Y-87526178D01*
X124616118Y-87505744D01*
X124606440Y-87503597D01*
X123394092Y-87243501D01*
X123330207Y-87236213D01*
X123266328Y-87228020D01*
X123256417Y-87227794D01*
X122016637Y-87208131D01*
X121952519Y-87213393D01*
X121888300Y-87217761D01*
X121878534Y-87219464D01*
X120658547Y-87440983D01*
X120596654Y-87458604D01*
X120534524Y-87475358D01*
X120525275Y-87478925D01*
X119371547Y-87933190D01*
X119314266Y-87962492D01*
X119256564Y-87990999D01*
X119248184Y-87996295D01*
X118204663Y-88666002D01*
X118154164Y-88705871D01*
X118103098Y-88745043D01*
X118095906Y-88751866D01*
X117202339Y-89611505D01*
X117160542Y-89660428D01*
X117118060Y-89708770D01*
X117112330Y-89716860D01*
X116402753Y-90733689D01*
X116401205Y-90736447D01*
X116399169Y-90738873D01*
X116367281Y-90796878D01*
X116334923Y-90854519D01*
X116333940Y-90857526D01*
X116332414Y-90860301D01*
X116312402Y-90923386D01*
X116291853Y-90986224D01*
X116291472Y-90989365D01*
X116290515Y-90992383D01*
X116283140Y-91058131D01*
X116275185Y-91123785D01*
X116275422Y-91126941D01*
X116275069Y-91130087D01*
X116275000Y-91140000D01*
X109804791Y-91140000D01*
X109769641Y-91052525D01*
X109739933Y-90995436D01*
X109711030Y-90937947D01*
X109705676Y-90929604D01*
X109028701Y-89890785D01*
X108988484Y-89840571D01*
X108948951Y-89789773D01*
X108942078Y-89782630D01*
X108076223Y-88895087D01*
X108027005Y-88853629D01*
X107978372Y-88811489D01*
X107970248Y-88805820D01*
X107970243Y-88805816D01*
X107970238Y-88805813D01*
X106948485Y-88103354D01*
X106892163Y-88072252D01*
X106836260Y-88040354D01*
X106827183Y-88036368D01*
X105688442Y-87545746D01*
X105627157Y-87526178D01*
X105566118Y-87505744D01*
X105556440Y-87503597D01*
X104344092Y-87243501D01*
X104280207Y-87236213D01*
X104216328Y-87228020D01*
X104206417Y-87227794D01*
X102966637Y-87208131D01*
X102902519Y-87213393D01*
X102838300Y-87217761D01*
X102828534Y-87219464D01*
X101608547Y-87440983D01*
X101546654Y-87458604D01*
X101484524Y-87475358D01*
X101475275Y-87478925D01*
X100321547Y-87933190D01*
X100264266Y-87962492D01*
X100206564Y-87990999D01*
X100198184Y-87996295D01*
X99154663Y-88666002D01*
X99104164Y-88705871D01*
X99053098Y-88745043D01*
X99045906Y-88751866D01*
X98152339Y-89611505D01*
X98110542Y-89660428D01*
X98068060Y-89708770D01*
X98062330Y-89716860D01*
X97352753Y-90733689D01*
X97351205Y-90736447D01*
X97349169Y-90738873D01*
X97317281Y-90796878D01*
X97284923Y-90854519D01*
X97283940Y-90857526D01*
X97282414Y-90860301D01*
X97262402Y-90923386D01*
X97241853Y-90986224D01*
X97241472Y-90989365D01*
X97240515Y-90992383D01*
X97233140Y-91058131D01*
X97225185Y-91123785D01*
X97225422Y-91126941D01*
X97225069Y-91130087D01*
X97225000Y-91140000D01*
X87202918Y-91140000D01*
X87178282Y-91123383D01*
X87146314Y-91079787D01*
X86979573Y-90989352D01*
X86820896Y-90882323D01*
X86649042Y-90810082D01*
X86486595Y-90721976D01*
X86306989Y-90666296D01*
X86132099Y-90592779D01*
X85947843Y-90554957D01*
X85769747Y-90499745D01*
X85584366Y-90480346D01*
X85400180Y-90442538D01*
X85210407Y-90441213D01*
X85023318Y-90421635D01*
X84839366Y-90438622D01*
X84653019Y-90437321D01*
X84464945Y-90473198D01*
X84275993Y-90490647D01*
X84100474Y-90542725D01*
X83919074Y-90577329D01*
X83739989Y-90649684D01*
X83556492Y-90704129D01*
X83395974Y-90788675D01*
X83226301Y-90857227D01*
X83063267Y-90963914D01*
X82892463Y-91053877D01*
X82853686Y-91079787D01*
X82823697Y-91120684D01*
X82601088Y-91266355D01*
X82067249Y-91789129D01*
X81874133Y-92071168D01*
X81829787Y-92103686D01*
X81745656Y-92258803D01*
X81645117Y-92405637D01*
X81566375Y-92589355D01*
X81471976Y-92763405D01*
X81420212Y-92930378D01*
X81350771Y-93092397D01*
X81308864Y-93289552D01*
X81249745Y-93480253D01*
X81231723Y-93652475D01*
X81195424Y-93823248D01*
X81192586Y-94026468D01*
X81171635Y-94226682D01*
X63308405Y-94226682D01*
X63313148Y-93692489D01*
X63307438Y-93628402D01*
X63302622Y-93564221D01*
X63300851Y-93554468D01*
X63070820Y-92336056D01*
X63052772Y-92274302D01*
X63035581Y-92212276D01*
X63031949Y-92203052D01*
X62569641Y-91052525D01*
X62539933Y-90995436D01*
X62511030Y-90937947D01*
X62505676Y-90929604D01*
X61828701Y-89890785D01*
X61788484Y-89840571D01*
X61748951Y-89789773D01*
X61742078Y-89782630D01*
X60876223Y-88895087D01*
X60827005Y-88853629D01*
X60778372Y-88811489D01*
X60770248Y-88805820D01*
X60770243Y-88805816D01*
X60770238Y-88805813D01*
X59748485Y-88103354D01*
X59692163Y-88072252D01*
X59636260Y-88040354D01*
X59627183Y-88036368D01*
X58488442Y-87545746D01*
X58427157Y-87526178D01*
X58366118Y-87505744D01*
X58356440Y-87503597D01*
X57144092Y-87243501D01*
X57080207Y-87236213D01*
X57016328Y-87228020D01*
X57006417Y-87227794D01*
X55766637Y-87208131D01*
X55702519Y-87213393D01*
X55638300Y-87217761D01*
X55628534Y-87219464D01*
X54408547Y-87440983D01*
X54346654Y-87458604D01*
X54284524Y-87475358D01*
X54275275Y-87478925D01*
X53121547Y-87933190D01*
X53064266Y-87962492D01*
X53006564Y-87990999D01*
X52998184Y-87996295D01*
X51954663Y-88666002D01*
X51904164Y-88705871D01*
X51853098Y-88745043D01*
X51845906Y-88751866D01*
X50952339Y-89611505D01*
X50910542Y-89660428D01*
X50868060Y-89708770D01*
X50862330Y-89716860D01*
X50152753Y-90733689D01*
X50151205Y-90736447D01*
X50149169Y-90738873D01*
X50117281Y-90796878D01*
X50084923Y-90854519D01*
X50083940Y-90857526D01*
X50082414Y-90860301D01*
X50062402Y-90923386D01*
X50041853Y-90986224D01*
X50041472Y-90989365D01*
X50040515Y-90992383D01*
X50033140Y-91058131D01*
X50025185Y-91123785D01*
X50025422Y-91126941D01*
X50025069Y-91130087D01*
X50025000Y-91140000D01*
X43554791Y-91140000D01*
X43519641Y-91052525D01*
X43489933Y-90995436D01*
X43461030Y-90937947D01*
X43455676Y-90929604D01*
X42778701Y-89890785D01*
X42738484Y-89840571D01*
X42698951Y-89789773D01*
X42692078Y-89782630D01*
X41826223Y-88895087D01*
X41777005Y-88853629D01*
X41728372Y-88811489D01*
X41720248Y-88805820D01*
X41720243Y-88805816D01*
X41720238Y-88805813D01*
X40698485Y-88103354D01*
X40642163Y-88072252D01*
X40586260Y-88040354D01*
X40577183Y-88036368D01*
X39438442Y-87545746D01*
X39377157Y-87526178D01*
X39316118Y-87505744D01*
X39306440Y-87503597D01*
X38094092Y-87243501D01*
X38030207Y-87236213D01*
X37966328Y-87228020D01*
X37956417Y-87227794D01*
X36716637Y-87208131D01*
X36652519Y-87213393D01*
X36588300Y-87217761D01*
X36578534Y-87219464D01*
X35358547Y-87440983D01*
X35296654Y-87458604D01*
X35234524Y-87475358D01*
X35225275Y-87478925D01*
X34071547Y-87933190D01*
X34014266Y-87962492D01*
X33956564Y-87990999D01*
X33948184Y-87996295D01*
X32904663Y-88666002D01*
X32854164Y-88705871D01*
X32803098Y-88745043D01*
X32795906Y-88751866D01*
X31902339Y-89611505D01*
X31860542Y-89660428D01*
X31818060Y-89708770D01*
X31812330Y-89716860D01*
X31102753Y-90733689D01*
X31101205Y-90736447D01*
X31099169Y-90738873D01*
X31067281Y-90796878D01*
X31034923Y-90854519D01*
X31033940Y-90857526D01*
X31032414Y-90860301D01*
X31012402Y-90923386D01*
X30991853Y-90986224D01*
X30991472Y-90989365D01*
X30990515Y-90992383D01*
X30983140Y-91058131D01*
X30975185Y-91123785D01*
X30975422Y-91126941D01*
X30975069Y-91130087D01*
X30975000Y-91140000D01*
X15810000Y-91140000D01*
X15810000Y-79072416D01*
X19927931Y-79072416D01*
X19937980Y-79164264D01*
X19936681Y-79257309D01*
X19965106Y-79412185D01*
X19982028Y-79566847D01*
X20009474Y-79653925D01*
X20026070Y-79744352D01*
X20084444Y-79891787D01*
X20131544Y-80041224D01*
X20178084Y-80128294D01*
X20208358Y-80204757D01*
X20270472Y-80301140D01*
X20340272Y-80431725D01*
X20362983Y-80444687D01*
X20476600Y-80620987D01*
X20820579Y-80977188D01*
X21065563Y-81147457D01*
X21078275Y-81169728D01*
X21155354Y-81209863D01*
X21227194Y-81259793D01*
X21376620Y-81325076D01*
X21519435Y-81399439D01*
X21601808Y-81423457D01*
X21680957Y-81458037D01*
X21841316Y-81493294D01*
X21996931Y-81538669D01*
X22081307Y-81546060D01*
X22164583Y-81564369D01*
X22329866Y-81567831D01*
X22492416Y-81582069D01*
X22575517Y-81572977D01*
X22659653Y-81574739D01*
X22823560Y-81545838D01*
X22986847Y-81527972D01*
X23065535Y-81503171D01*
X23147308Y-81488752D01*
X23303516Y-81428163D01*
X23461224Y-81378456D01*
X23539400Y-81336670D01*
X23608974Y-81309684D01*
X23710889Y-81245007D01*
X23851725Y-81169728D01*
X23864342Y-81147622D01*
X24027067Y-81044354D01*
X24385661Y-80702870D01*
X24568308Y-80443951D01*
X24589728Y-80431725D01*
X24625796Y-80362456D01*
X24671097Y-80298238D01*
X24741080Y-80141054D01*
X24819439Y-79990565D01*
X24840993Y-79916646D01*
X24872504Y-79845870D01*
X24910874Y-79676985D01*
X24958669Y-79513069D01*
X24965291Y-79437467D01*
X24982210Y-79362998D01*
X24984182Y-79221797D01*
X24997266Y-79072416D01*
X255007931Y-79072416D01*
X255017980Y-79164264D01*
X255016681Y-79257309D01*
X255045106Y-79412185D01*
X255062028Y-79566847D01*
X255089474Y-79653925D01*
X255106070Y-79744352D01*
X255164444Y-79891787D01*
X255211544Y-80041224D01*
X255258084Y-80128294D01*
X255288358Y-80204757D01*
X255350472Y-80301140D01*
X255420272Y-80431725D01*
X255442983Y-80444687D01*
X255556600Y-80620987D01*
X255900579Y-80977188D01*
X256145563Y-81147457D01*
X256158275Y-81169728D01*
X256235354Y-81209863D01*
X256307194Y-81259793D01*
X256456620Y-81325076D01*
X256599435Y-81399439D01*
X256681808Y-81423457D01*
X256760957Y-81458037D01*
X256921316Y-81493294D01*
X257076931Y-81538669D01*
X257161307Y-81546060D01*
X257244583Y-81564369D01*
X257409866Y-81567831D01*
X257572416Y-81582069D01*
X257655517Y-81572977D01*
X257739653Y-81574739D01*
X257903560Y-81545838D01*
X258066847Y-81527972D01*
X258145535Y-81503171D01*
X258227308Y-81488752D01*
X258383516Y-81428163D01*
X258541224Y-81378456D01*
X258619400Y-81336670D01*
X258688974Y-81309684D01*
X258790889Y-81245007D01*
X258931725Y-81169728D01*
X258944342Y-81147622D01*
X259107067Y-81044354D01*
X259465661Y-80702870D01*
X259648308Y-80443951D01*
X259669728Y-80431725D01*
X259705796Y-80362456D01*
X259751097Y-80298238D01*
X259821080Y-80141054D01*
X259899439Y-79990565D01*
X259920993Y-79916646D01*
X259952504Y-79845870D01*
X259990874Y-79676985D01*
X260038669Y-79513069D01*
X260045291Y-79437467D01*
X260062210Y-79362998D01*
X260064182Y-79221797D01*
X260082069Y-79017584D01*
X260068735Y-78895717D01*
X260070108Y-78797411D01*
X260043000Y-78660508D01*
X260027972Y-78523153D01*
X259995240Y-78419303D01*
X259973927Y-78311664D01*
X259920324Y-78181613D01*
X259878456Y-78048776D01*
X259822170Y-77943474D01*
X259785230Y-77853849D01*
X259729141Y-77769429D01*
X259669728Y-77658275D01*
X259646471Y-77645001D01*
X259511202Y-77441405D01*
X259162283Y-77090041D01*
X258944955Y-76943451D01*
X258931725Y-76920272D01*
X258839042Y-76872012D01*
X258751762Y-76813141D01*
X258617964Y-76756897D01*
X258490565Y-76690561D01*
X258391305Y-76661618D01*
X258295275Y-76621251D01*
X258152000Y-76591841D01*
X258013069Y-76551331D01*
X257911168Y-76542405D01*
X257810211Y-76521682D01*
X257662828Y-76520653D01*
X257517584Y-76507931D01*
X257416995Y-76518937D01*
X257315045Y-76518225D01*
X257169173Y-76546052D01*
X257023153Y-76562028D01*
X256927686Y-76592118D01*
X256828638Y-76611012D01*
X256689921Y-76667057D01*
X256548776Y-76711544D01*
X256452677Y-76762910D01*
X256369517Y-76796509D01*
X256278990Y-76855748D01*
X256158275Y-76920272D01*
X256145093Y-76943368D01*
X255955170Y-77067650D01*
X255601379Y-77414108D01*
X255443126Y-77645231D01*
X255420272Y-77658275D01*
X255376073Y-77743160D01*
X255321620Y-77822686D01*
X255260917Y-77964316D01*
X255190561Y-78099435D01*
X255164079Y-78190255D01*
X255126548Y-78277822D01*
X255094277Y-78429646D01*
X255051331Y-78576931D01*
X255043173Y-78670074D01*
X255023595Y-78762179D01*
X255021412Y-78918507D01*
X255007931Y-79072416D01*
X24997266Y-79072416D01*
X25002069Y-79017584D01*
X24988735Y-78895717D01*
X24990108Y-78797411D01*
X24963000Y-78660508D01*
X24947972Y-78523153D01*
X24915240Y-78419303D01*
X24893927Y-78311664D01*
X24840324Y-78181613D01*
X24798456Y-78048776D01*
X24742170Y-77943474D01*
X24705230Y-77853849D01*
X24649141Y-77769429D01*
X24589728Y-77658275D01*
X24566471Y-77645001D01*
X24431202Y-77441405D01*
X24082283Y-77090041D01*
X23864955Y-76943451D01*
X23851725Y-76920272D01*
X23759042Y-76872012D01*
X23671762Y-76813141D01*
X23537964Y-76756897D01*
X23410565Y-76690561D01*
X23311305Y-76661618D01*
X23215275Y-76621251D01*
X23072000Y-76591841D01*
X22933069Y-76551331D01*
X22831168Y-76542405D01*
X22730211Y-76521682D01*
X22582828Y-76520653D01*
X22437584Y-76507931D01*
X22336995Y-76518937D01*
X22235045Y-76518225D01*
X22089173Y-76546052D01*
X21943153Y-76562028D01*
X21847686Y-76592118D01*
X21748638Y-76611012D01*
X21609921Y-76667057D01*
X21468776Y-76711544D01*
X21372677Y-76762910D01*
X21289517Y-76796509D01*
X21198990Y-76855748D01*
X21078275Y-76920272D01*
X21065093Y-76943368D01*
X20875170Y-77067650D01*
X20521379Y-77414108D01*
X20363126Y-77645231D01*
X20340272Y-77658275D01*
X20296073Y-77743160D01*
X20241620Y-77822686D01*
X20180917Y-77964316D01*
X20110561Y-78099435D01*
X20084079Y-78190255D01*
X20046548Y-78277822D01*
X20014277Y-78429646D01*
X19971331Y-78576931D01*
X19963173Y-78670074D01*
X19943595Y-78762179D01*
X19941412Y-78918507D01*
X19927931Y-79072416D01*
X15810000Y-79072416D01*
X15810000Y-76282946D01*
X30353687Y-76282946D01*
X30363043Y-76366189D01*
X30361865Y-76450537D01*
X30389359Y-76600339D01*
X30406158Y-76749811D01*
X30431261Y-76828646D01*
X30446298Y-76910576D01*
X30502755Y-77053170D01*
X30548703Y-77197468D01*
X30591838Y-77278168D01*
X30618478Y-77345453D01*
X30673135Y-77430265D01*
X30739234Y-77553927D01*
X30760199Y-77565362D01*
X30871847Y-77738606D01*
X31196755Y-78075057D01*
X31435156Y-78240750D01*
X31446073Y-78260766D01*
X31515872Y-78296850D01*
X31580825Y-78341993D01*
X31725259Y-78405095D01*
X31863409Y-78476513D01*
X31937904Y-78497997D01*
X32009428Y-78529245D01*
X32164411Y-78563320D01*
X32314815Y-78606696D01*
X32391030Y-78613146D01*
X32466240Y-78629682D01*
X32625960Y-78633028D01*
X32782946Y-78646313D01*
X32857923Y-78637886D01*
X32933860Y-78639477D01*
X33092224Y-78611553D01*
X33249811Y-78593842D01*
X33320717Y-78571264D01*
X33394477Y-78558258D01*
X33545395Y-78499721D01*
X33697468Y-78451297D01*
X33769493Y-78412799D01*
X33830546Y-78389118D01*
X33919972Y-78332366D01*
X34053927Y-78260766D01*
X34065113Y-78240256D01*
X34225457Y-78138499D01*
X34564169Y-77815949D01*
X34741649Y-77564354D01*
X34760766Y-77553927D01*
X34793029Y-77491518D01*
X34833779Y-77433751D01*
X34901350Y-77281985D01*
X34976513Y-77136591D01*
X34995691Y-77070091D01*
X35024019Y-77006466D01*
X35061064Y-76843412D01*
X35106696Y-76685185D01*
X35112444Y-76617264D01*
X35127643Y-76550366D01*
X35129527Y-76415399D01*
X35140736Y-76282946D01*
X123353687Y-76282946D01*
X123363043Y-76366189D01*
X123361865Y-76450537D01*
X123389359Y-76600339D01*
X123406158Y-76749811D01*
X123431261Y-76828646D01*
X123446298Y-76910576D01*
X123502755Y-77053170D01*
X123548703Y-77197468D01*
X123591838Y-77278168D01*
X123618478Y-77345453D01*
X123673135Y-77430265D01*
X123739234Y-77553927D01*
X123760199Y-77565362D01*
X123871847Y-77738606D01*
X124196755Y-78075057D01*
X124435156Y-78240750D01*
X124446073Y-78260766D01*
X124515872Y-78296850D01*
X124580825Y-78341993D01*
X124725259Y-78405095D01*
X124863409Y-78476513D01*
X124937904Y-78497997D01*
X125009428Y-78529245D01*
X125164411Y-78563320D01*
X125314815Y-78606696D01*
X125391030Y-78613146D01*
X125466240Y-78629682D01*
X125625960Y-78633028D01*
X125782946Y-78646313D01*
X125857923Y-78637886D01*
X125933860Y-78639477D01*
X126092224Y-78611553D01*
X126249811Y-78593842D01*
X126320717Y-78571264D01*
X126394477Y-78558258D01*
X126545395Y-78499721D01*
X126697468Y-78451297D01*
X126769493Y-78412799D01*
X126830546Y-78389118D01*
X126919972Y-78332366D01*
X127053927Y-78260766D01*
X127065113Y-78240256D01*
X127225457Y-78138499D01*
X127564169Y-77815949D01*
X127741649Y-77564354D01*
X127760766Y-77553927D01*
X127793029Y-77491518D01*
X127833779Y-77433751D01*
X127901350Y-77281985D01*
X127976513Y-77136591D01*
X127995691Y-77070091D01*
X128024019Y-77006466D01*
X128061064Y-76843412D01*
X128106696Y-76685185D01*
X128112444Y-76617264D01*
X128127643Y-76550366D01*
X128129527Y-76415399D01*
X128146313Y-76217054D01*
X128133846Y-76106124D01*
X128135102Y-76016139D01*
X128108807Y-75883338D01*
X128093842Y-75750189D01*
X128063698Y-75655523D01*
X128044254Y-75557324D01*
X127992263Y-75431185D01*
X127951297Y-75302532D01*
X127898604Y-75203950D01*
X127866019Y-75124893D01*
X127816546Y-75050429D01*
X127760766Y-74946073D01*
X127739508Y-74934478D01*
X127607185Y-74735316D01*
X127277612Y-74403434D01*
X127065423Y-74260311D01*
X127053927Y-74239234D01*
X126969362Y-74195517D01*
X126889852Y-74141887D01*
X126760180Y-74087378D01*
X126636591Y-74023487D01*
X126546124Y-73997397D01*
X126458676Y-73960637D01*
X126319842Y-73932138D01*
X126185185Y-73893304D01*
X126092406Y-73885452D01*
X126000507Y-73866588D01*
X125857719Y-73865591D01*
X125717054Y-73853687D01*
X125625555Y-73863971D01*
X125532795Y-73863323D01*
X125391507Y-73890275D01*
X125250189Y-73906158D01*
X125163435Y-73933783D01*
X125073357Y-73950966D01*
X124939019Y-74005242D01*
X124802532Y-74048703D01*
X124712991Y-74096564D01*
X124639693Y-74126178D01*
X124559905Y-74178390D01*
X124446073Y-74239234D01*
X124434500Y-74260452D01*
X124248319Y-74382285D01*
X123914144Y-74709534D01*
X123759900Y-74934801D01*
X123739234Y-74946073D01*
X123699332Y-75023259D01*
X123649896Y-75095458D01*
X123591147Y-75232528D01*
X123523487Y-75363409D01*
X123499700Y-75445891D01*
X123465640Y-75525358D01*
X123434412Y-75672274D01*
X123393304Y-75814815D01*
X123386153Y-75899316D01*
X123368395Y-75982860D01*
X123366283Y-76134104D01*
X123353687Y-76282946D01*
X35140736Y-76282946D01*
X35146313Y-76217054D01*
X35133846Y-76106124D01*
X35135102Y-76016139D01*
X35108807Y-75883338D01*
X35093842Y-75750189D01*
X35063698Y-75655523D01*
X35044254Y-75557324D01*
X34992263Y-75431185D01*
X34951297Y-75302532D01*
X34898604Y-75203950D01*
X34866019Y-75124893D01*
X34816546Y-75050429D01*
X34760766Y-74946073D01*
X34739508Y-74934478D01*
X34607185Y-74735316D01*
X34277612Y-74403434D01*
X34065423Y-74260311D01*
X34053927Y-74239234D01*
X33969362Y-74195517D01*
X33889852Y-74141887D01*
X33760180Y-74087378D01*
X33636591Y-74023487D01*
X33546124Y-73997397D01*
X33458676Y-73960637D01*
X33319842Y-73932138D01*
X33185185Y-73893304D01*
X33092406Y-73885452D01*
X33000507Y-73866588D01*
X32857719Y-73865591D01*
X32717054Y-73853687D01*
X32625555Y-73863971D01*
X32532795Y-73863323D01*
X32391507Y-73890275D01*
X32250189Y-73906158D01*
X32163435Y-73933783D01*
X32073357Y-73950966D01*
X31939019Y-74005242D01*
X31802532Y-74048703D01*
X31712991Y-74096564D01*
X31639693Y-74126178D01*
X31559905Y-74178390D01*
X31446073Y-74239234D01*
X31434500Y-74260452D01*
X31248319Y-74382285D01*
X30914144Y-74709534D01*
X30759900Y-74934801D01*
X30739234Y-74946073D01*
X30699332Y-75023259D01*
X30649896Y-75095458D01*
X30591147Y-75232528D01*
X30523487Y-75363409D01*
X30499700Y-75445891D01*
X30465640Y-75525358D01*
X30434412Y-75672274D01*
X30393304Y-75814815D01*
X30386153Y-75899316D01*
X30368395Y-75982860D01*
X30366283Y-76134104D01*
X30353687Y-76282946D01*
X15810000Y-76282946D01*
X15810000Y-47322416D01*
X19927931Y-47322416D01*
X19937980Y-47414264D01*
X19936681Y-47507309D01*
X19965106Y-47662185D01*
X19982028Y-47816847D01*
X20009474Y-47903925D01*
X20026070Y-47994352D01*
X20084444Y-48141787D01*
X20131544Y-48291224D01*
X20178084Y-48378294D01*
X20208358Y-48454757D01*
X20270472Y-48551140D01*
X20340272Y-48681725D01*
X20362983Y-48694687D01*
X20476600Y-48870987D01*
X20820579Y-49227188D01*
X21065563Y-49397457D01*
X21078275Y-49419728D01*
X21155354Y-49459863D01*
X21227194Y-49509793D01*
X21376620Y-49575076D01*
X21519435Y-49649439D01*
X21601808Y-49673457D01*
X21680957Y-49708037D01*
X21841316Y-49743294D01*
X21996931Y-49788669D01*
X22081307Y-49796060D01*
X22164583Y-49814369D01*
X22329866Y-49817831D01*
X22492416Y-49832069D01*
X22575517Y-49822977D01*
X22659653Y-49824739D01*
X22823560Y-49795838D01*
X22986847Y-49777972D01*
X23065535Y-49753171D01*
X23147308Y-49738752D01*
X23303516Y-49678163D01*
X23461224Y-49628456D01*
X23539400Y-49586670D01*
X23608974Y-49559684D01*
X23710889Y-49495007D01*
X23851725Y-49419728D01*
X23864342Y-49397622D01*
X24027067Y-49294354D01*
X24385661Y-48952870D01*
X24568308Y-48693951D01*
X24589728Y-48681725D01*
X24625796Y-48612456D01*
X24671097Y-48548238D01*
X24741080Y-48391054D01*
X24819439Y-48240565D01*
X24840993Y-48166646D01*
X24872504Y-48095870D01*
X24910874Y-47926985D01*
X24958669Y-47763069D01*
X24965291Y-47687467D01*
X24982210Y-47612998D01*
X24984182Y-47471797D01*
X25002069Y-47267584D01*
X24988735Y-47145717D01*
X24990108Y-47047411D01*
X24963000Y-46910508D01*
X24947972Y-46773153D01*
X24915240Y-46669303D01*
X24893927Y-46561664D01*
X24840324Y-46431613D01*
X24798456Y-46298776D01*
X24742170Y-46193474D01*
X24705230Y-46103849D01*
X24649141Y-46019429D01*
X24589728Y-45908275D01*
X24566471Y-45895001D01*
X24431202Y-45691405D01*
X24082283Y-45340041D01*
X23864955Y-45193451D01*
X23851725Y-45170272D01*
X23759042Y-45122012D01*
X23671762Y-45063141D01*
X23537964Y-45006897D01*
X23410565Y-44940561D01*
X23311305Y-44911618D01*
X23215275Y-44871251D01*
X23072000Y-44841841D01*
X22933069Y-44801331D01*
X22831168Y-44792405D01*
X22730211Y-44771682D01*
X22582828Y-44770653D01*
X22437584Y-44757931D01*
X22336995Y-44768937D01*
X22235045Y-44768225D01*
X22089173Y-44796052D01*
X21943153Y-44812028D01*
X21847686Y-44842118D01*
X21748638Y-44861012D01*
X21609921Y-44917057D01*
X21468776Y-44961544D01*
X21372677Y-45012910D01*
X21289517Y-45046509D01*
X21198990Y-45105748D01*
X21078275Y-45170272D01*
X21065093Y-45193368D01*
X20875170Y-45317650D01*
X20521379Y-45664108D01*
X20363126Y-45895231D01*
X20340272Y-45908275D01*
X20296073Y-45993160D01*
X20241620Y-46072686D01*
X20180917Y-46214316D01*
X20110561Y-46349435D01*
X20084079Y-46440255D01*
X20046548Y-46527822D01*
X20014277Y-46679646D01*
X19971331Y-46826931D01*
X19963173Y-46920074D01*
X19943595Y-47012179D01*
X19941412Y-47168507D01*
X19927931Y-47322416D01*
X15810000Y-47322416D01*
X15810000Y-28650000D01*
X29640000Y-28650000D01*
X29640000Y-68850000D01*
X29646517Y-68916460D01*
X29652576Y-68983041D01*
X29653279Y-68985431D01*
X29653522Y-68987906D01*
X29672821Y-69051827D01*
X29691699Y-69115971D01*
X29692853Y-69118178D01*
X29693572Y-69120560D01*
X29724919Y-69179514D01*
X29755897Y-69238770D01*
X29757458Y-69240712D01*
X29758626Y-69242908D01*
X29800808Y-69294628D01*
X29842724Y-69346761D01*
X29844634Y-69348364D01*
X29846205Y-69350290D01*
X29897633Y-69392836D01*
X29948873Y-69435831D01*
X29951056Y-69437031D01*
X29952973Y-69438617D01*
X30011738Y-69470391D01*
X30070301Y-69502586D01*
X30072673Y-69503339D01*
X30074864Y-69504523D01*
X30138663Y-69524272D01*
X30202383Y-69544485D01*
X30204860Y-69544763D01*
X30207235Y-69545498D01*
X30273649Y-69552479D01*
X30340087Y-69559931D01*
X30344865Y-69559964D01*
X30345043Y-69559983D01*
X30345222Y-69559967D01*
X30350000Y-69560000D01*
X128150000Y-69560000D01*
X128216460Y-69553483D01*
X128283041Y-69547424D01*
X128285431Y-69546721D01*
X128287906Y-69546478D01*
X128351827Y-69527179D01*
X128415971Y-69508301D01*
X128418178Y-69507147D01*
X128420560Y-69506428D01*
X128479514Y-69475081D01*
X128538770Y-69444103D01*
X128540712Y-69442542D01*
X128542908Y-69441374D01*
X128594628Y-69399192D01*
X128646761Y-69357276D01*
X128648364Y-69355366D01*
X128650290Y-69353795D01*
X128692836Y-69302367D01*
X128735831Y-69251127D01*
X128737031Y-69248944D01*
X128738617Y-69247027D01*
X128770391Y-69188262D01*
X128802586Y-69129699D01*
X128803339Y-69127327D01*
X128804523Y-69125136D01*
X128824272Y-69061337D01*
X128844485Y-68997617D01*
X128844763Y-68995140D01*
X128845498Y-68992765D01*
X128852479Y-68926351D01*
X128859931Y-68859913D01*
X128859964Y-68855135D01*
X128859983Y-68854957D01*
X128859967Y-68854778D01*
X128860000Y-68850000D01*
X128860000Y-63103478D01*
X224709302Y-63103478D01*
X224758467Y-63815839D01*
X224748392Y-64537385D01*
X224844352Y-65060227D01*
X224880670Y-65586449D01*
X225066436Y-66270270D01*
X225195692Y-66974529D01*
X225393427Y-67473951D01*
X225533149Y-67988279D01*
X225846324Y-68617837D01*
X226107850Y-69278377D01*
X226401839Y-69734558D01*
X226641664Y-70216666D01*
X227054476Y-70834483D01*
X227217829Y-71000728D01*
X227450122Y-71361176D01*
X229171382Y-73143593D01*
X229787145Y-73571560D01*
X230040517Y-73820524D01*
X230636462Y-74161851D01*
X231206068Y-74557737D01*
X231718699Y-74781700D01*
X232200239Y-75057501D01*
X232846141Y-75274267D01*
X233476679Y-75549742D01*
X234028491Y-75671066D01*
X234559785Y-75849369D01*
X235230144Y-75935266D01*
X235896727Y-76081824D01*
X236467160Y-76093773D01*
X237028478Y-76165698D01*
X237697269Y-76119540D01*
X238374035Y-76133716D01*
X238941410Y-76033673D01*
X239511449Y-75994330D01*
X240153106Y-75820018D01*
X240814242Y-75703442D01*
X241318260Y-75507946D01*
X244503687Y-75507946D01*
X244513043Y-75591189D01*
X244511865Y-75675537D01*
X244539359Y-75825339D01*
X244556158Y-75974811D01*
X244581261Y-76053646D01*
X244596298Y-76135576D01*
X244652755Y-76278170D01*
X244698703Y-76422468D01*
X244741838Y-76503168D01*
X244768478Y-76570453D01*
X244823135Y-76655265D01*
X244889234Y-76778927D01*
X244910199Y-76790362D01*
X245021847Y-76963606D01*
X245346755Y-77300057D01*
X245585156Y-77465750D01*
X245596073Y-77485766D01*
X245665872Y-77521850D01*
X245730825Y-77566993D01*
X245875259Y-77630095D01*
X246013409Y-77701513D01*
X246087904Y-77722997D01*
X246159428Y-77754245D01*
X246314411Y-77788320D01*
X246464815Y-77831696D01*
X246541030Y-77838146D01*
X246616240Y-77854682D01*
X246775960Y-77858028D01*
X246932946Y-77871313D01*
X247007923Y-77862886D01*
X247083860Y-77864477D01*
X247242224Y-77836553D01*
X247399811Y-77818842D01*
X247470717Y-77796264D01*
X247544477Y-77783258D01*
X247695395Y-77724721D01*
X247847468Y-77676297D01*
X247919493Y-77637799D01*
X247980546Y-77614118D01*
X248069972Y-77557366D01*
X248203927Y-77485766D01*
X248215113Y-77465256D01*
X248375457Y-77363499D01*
X248714169Y-77040949D01*
X248891649Y-76789354D01*
X248910766Y-76778927D01*
X248943029Y-76716518D01*
X248983779Y-76658751D01*
X249051350Y-76506985D01*
X249126513Y-76361591D01*
X249145691Y-76295091D01*
X249174019Y-76231466D01*
X249211064Y-76068412D01*
X249256696Y-75910185D01*
X249262444Y-75842264D01*
X249277643Y-75775366D01*
X249279527Y-75640399D01*
X249296313Y-75442054D01*
X249283846Y-75331124D01*
X249285102Y-75241139D01*
X249258807Y-75108338D01*
X249243842Y-74975189D01*
X249213698Y-74880523D01*
X249194254Y-74782324D01*
X249142263Y-74656185D01*
X249101297Y-74527532D01*
X249048604Y-74428950D01*
X249016019Y-74349893D01*
X248966546Y-74275429D01*
X248910766Y-74171073D01*
X248889508Y-74159478D01*
X248757185Y-73960316D01*
X248427612Y-73628434D01*
X248215423Y-73485311D01*
X248203927Y-73464234D01*
X248119362Y-73420517D01*
X248039852Y-73366887D01*
X247910180Y-73312378D01*
X247786591Y-73248487D01*
X247696124Y-73222397D01*
X247608676Y-73185637D01*
X247469842Y-73157138D01*
X247335185Y-73118304D01*
X247242406Y-73110452D01*
X247150507Y-73091588D01*
X247007719Y-73090591D01*
X246867054Y-73078687D01*
X246775555Y-73088971D01*
X246682795Y-73088323D01*
X246541507Y-73115275D01*
X246400189Y-73131158D01*
X246313435Y-73158783D01*
X246223357Y-73175966D01*
X246089019Y-73230242D01*
X245952532Y-73273703D01*
X245862991Y-73321564D01*
X245789693Y-73351178D01*
X245709905Y-73403390D01*
X245596073Y-73464234D01*
X245584500Y-73485452D01*
X245398319Y-73607285D01*
X245064144Y-73934534D01*
X244909900Y-74159801D01*
X244889234Y-74171073D01*
X244849332Y-74248259D01*
X244799896Y-74320458D01*
X244741147Y-74457528D01*
X244673487Y-74588409D01*
X244649700Y-74670891D01*
X244615640Y-74750358D01*
X244584412Y-74897274D01*
X244543304Y-75039815D01*
X244536153Y-75124316D01*
X244518395Y-75207860D01*
X244516283Y-75359104D01*
X244503687Y-75507946D01*
X241318260Y-75507946D01*
X241356577Y-75493084D01*
X241913279Y-75341851D01*
X242503706Y-75048142D01*
X243124402Y-74807390D01*
X243620250Y-74492715D01*
X244141666Y-74233336D01*
X244759483Y-73820524D01*
X244905431Y-73677114D01*
X245216521Y-73479691D01*
X247010911Y-71770916D01*
X247483082Y-71101571D01*
X247745524Y-70834483D01*
X248065115Y-70276488D01*
X248439225Y-69746153D01*
X248684890Y-69194380D01*
X248982501Y-68674761D01*
X249185348Y-68070333D01*
X249447058Y-67482523D01*
X249582107Y-66888102D01*
X249774369Y-66315215D01*
X249854705Y-65688257D01*
X249996022Y-65066248D01*
X250003558Y-64526583D01*
X250090698Y-63846522D01*
X250026119Y-62910830D01*
X250035541Y-62236074D01*
X249949590Y-61801988D01*
X249919330Y-61363551D01*
X249710745Y-60595734D01*
X249554258Y-59805413D01*
X249383506Y-59391138D01*
X249266851Y-58961721D01*
X248914895Y-58254204D01*
X248610022Y-57514526D01*
X248358980Y-57136677D01*
X248158336Y-56733334D01*
X247745524Y-56115517D01*
X247544803Y-55911242D01*
X247238800Y-55450671D01*
X245492821Y-53692460D01*
X244981301Y-53347436D01*
X244759483Y-53129476D01*
X244087892Y-52744824D01*
X243438589Y-52306863D01*
X243005000Y-52124599D01*
X242599761Y-51892499D01*
X241871190Y-51647989D01*
X241154349Y-51346657D01*
X240688160Y-51250962D01*
X240240215Y-51100631D01*
X239483335Y-51003647D01*
X238727107Y-50848416D01*
X238245647Y-50845055D01*
X237771522Y-50784302D01*
X237015690Y-50836468D01*
X236249317Y-50831117D01*
X235770903Y-50922379D01*
X235288551Y-50955670D01*
X234562671Y-51152862D01*
X233815355Y-51295420D01*
X233358618Y-51479954D01*
X232886721Y-51608149D01*
X232218126Y-51940743D01*
X231517931Y-52223640D01*
X231101082Y-52496418D01*
X230658334Y-52716664D01*
X230040517Y-53129476D01*
X229854801Y-53311961D01*
X229444553Y-53580420D01*
X227674196Y-55314082D01*
X227288561Y-55877288D01*
X227054476Y-56115517D01*
X226691459Y-56749333D01*
X226274292Y-57358590D01*
X226071463Y-57831827D01*
X225817499Y-58275239D01*
X225586843Y-58962530D01*
X225298163Y-59636071D01*
X225189957Y-60145139D01*
X225025631Y-60634785D01*
X224934184Y-61348454D01*
X224782988Y-62059775D01*
X224775644Y-62585734D01*
X224709302Y-63103478D01*
X128860000Y-63103478D01*
X128860000Y-51507946D01*
X225503687Y-51507946D01*
X225513043Y-51591189D01*
X225511865Y-51675537D01*
X225539359Y-51825339D01*
X225556158Y-51974811D01*
X225581261Y-52053646D01*
X225596298Y-52135576D01*
X225652755Y-52278170D01*
X225698703Y-52422468D01*
X225741838Y-52503168D01*
X225768478Y-52570453D01*
X225823135Y-52655265D01*
X225889234Y-52778927D01*
X225910199Y-52790362D01*
X226021847Y-52963606D01*
X226346755Y-53300057D01*
X226585156Y-53465750D01*
X226596073Y-53485766D01*
X226665872Y-53521850D01*
X226730825Y-53566993D01*
X226875259Y-53630095D01*
X227013409Y-53701513D01*
X227087904Y-53722997D01*
X227159428Y-53754245D01*
X227314411Y-53788320D01*
X227464815Y-53831696D01*
X227541030Y-53838146D01*
X227616240Y-53854682D01*
X227775960Y-53858028D01*
X227932946Y-53871313D01*
X228007923Y-53862886D01*
X228083860Y-53864477D01*
X228242224Y-53836553D01*
X228399811Y-53818842D01*
X228470717Y-53796264D01*
X228544477Y-53783258D01*
X228695395Y-53724721D01*
X228847468Y-53676297D01*
X228919493Y-53637799D01*
X228980546Y-53614118D01*
X229069972Y-53557366D01*
X229203927Y-53485766D01*
X229215113Y-53465256D01*
X229375457Y-53363499D01*
X229714169Y-53040949D01*
X229891649Y-52789354D01*
X229910766Y-52778927D01*
X229943029Y-52716518D01*
X229983779Y-52658751D01*
X230051350Y-52506985D01*
X230126513Y-52361591D01*
X230145691Y-52295091D01*
X230174019Y-52231466D01*
X230211064Y-52068412D01*
X230256696Y-51910185D01*
X230262444Y-51842264D01*
X230277643Y-51775366D01*
X230279527Y-51640399D01*
X230296313Y-51442054D01*
X230283846Y-51331124D01*
X230285102Y-51241139D01*
X230258807Y-51108338D01*
X230243842Y-50975189D01*
X230213698Y-50880523D01*
X230194254Y-50782324D01*
X230142263Y-50656185D01*
X230101297Y-50527532D01*
X230048604Y-50428950D01*
X230016019Y-50349893D01*
X229966546Y-50275429D01*
X229910766Y-50171073D01*
X229889508Y-50159478D01*
X229757185Y-49960316D01*
X229427612Y-49628434D01*
X229215423Y-49485311D01*
X229203927Y-49464234D01*
X229119362Y-49420517D01*
X229039852Y-49366887D01*
X228910180Y-49312378D01*
X228786591Y-49248487D01*
X228696124Y-49222397D01*
X228608676Y-49185637D01*
X228469842Y-49157138D01*
X228335185Y-49118304D01*
X228242406Y-49110452D01*
X228150507Y-49091588D01*
X228007719Y-49090591D01*
X227867054Y-49078687D01*
X227775555Y-49088971D01*
X227682795Y-49088323D01*
X227541507Y-49115275D01*
X227400189Y-49131158D01*
X227313435Y-49158783D01*
X227223357Y-49175966D01*
X227089019Y-49230242D01*
X226952532Y-49273703D01*
X226862991Y-49321564D01*
X226789693Y-49351178D01*
X226709905Y-49403390D01*
X226596073Y-49464234D01*
X226584500Y-49485452D01*
X226398319Y-49607285D01*
X226064144Y-49934534D01*
X225909900Y-50159801D01*
X225889234Y-50171073D01*
X225849332Y-50248259D01*
X225799896Y-50320458D01*
X225741147Y-50457528D01*
X225673487Y-50588409D01*
X225649700Y-50670891D01*
X225615640Y-50750358D01*
X225584412Y-50897274D01*
X225543304Y-51039815D01*
X225536153Y-51124316D01*
X225518395Y-51207860D01*
X225516283Y-51359104D01*
X225503687Y-51507946D01*
X128860000Y-51507946D01*
X128860000Y-47322416D01*
X255007931Y-47322416D01*
X255017980Y-47414264D01*
X255016681Y-47507309D01*
X255045106Y-47662185D01*
X255062028Y-47816847D01*
X255089474Y-47903925D01*
X255106070Y-47994352D01*
X255164444Y-48141787D01*
X255211544Y-48291224D01*
X255258084Y-48378294D01*
X255288358Y-48454757D01*
X255350472Y-48551140D01*
X255420272Y-48681725D01*
X255442983Y-48694687D01*
X255556600Y-48870987D01*
X255900579Y-49227188D01*
X256145563Y-49397457D01*
X256158275Y-49419728D01*
X256235354Y-49459863D01*
X256307194Y-49509793D01*
X256456620Y-49575076D01*
X256599435Y-49649439D01*
X256681808Y-49673457D01*
X256760957Y-49708037D01*
X256921316Y-49743294D01*
X257076931Y-49788669D01*
X257161307Y-49796060D01*
X257244583Y-49814369D01*
X257409866Y-49817831D01*
X257572416Y-49832069D01*
X257655517Y-49822977D01*
X257739653Y-49824739D01*
X257903560Y-49795838D01*
X258066847Y-49777972D01*
X258145535Y-49753171D01*
X258227308Y-49738752D01*
X258383516Y-49678163D01*
X258541224Y-49628456D01*
X258619400Y-49586670D01*
X258688974Y-49559684D01*
X258790889Y-49495007D01*
X258931725Y-49419728D01*
X258944342Y-49397622D01*
X259107067Y-49294354D01*
X259465661Y-48952870D01*
X259648308Y-48693951D01*
X259669728Y-48681725D01*
X259705796Y-48612456D01*
X259751097Y-48548238D01*
X259821080Y-48391054D01*
X259899439Y-48240565D01*
X259920993Y-48166646D01*
X259952504Y-48095870D01*
X259990874Y-47926985D01*
X260038669Y-47763069D01*
X260045291Y-47687467D01*
X260062210Y-47612998D01*
X260064182Y-47471797D01*
X260082069Y-47267584D01*
X260068735Y-47145717D01*
X260070108Y-47047411D01*
X260043000Y-46910508D01*
X260027972Y-46773153D01*
X259995240Y-46669303D01*
X259973927Y-46561664D01*
X259920324Y-46431613D01*
X259878456Y-46298776D01*
X259822170Y-46193474D01*
X259785230Y-46103849D01*
X259729141Y-46019429D01*
X259669728Y-45908275D01*
X259646471Y-45895001D01*
X259511202Y-45691405D01*
X259162283Y-45340041D01*
X258944955Y-45193451D01*
X258931725Y-45170272D01*
X258839042Y-45122012D01*
X258751762Y-45063141D01*
X258617964Y-45006897D01*
X258490565Y-44940561D01*
X258391305Y-44911618D01*
X258295275Y-44871251D01*
X258152000Y-44841841D01*
X258013069Y-44801331D01*
X257911168Y-44792405D01*
X257810211Y-44771682D01*
X257662828Y-44770653D01*
X257517584Y-44757931D01*
X257416995Y-44768937D01*
X257315045Y-44768225D01*
X257169173Y-44796052D01*
X257023153Y-44812028D01*
X256927686Y-44842118D01*
X256828638Y-44861012D01*
X256689921Y-44917057D01*
X256548776Y-44961544D01*
X256452677Y-45012910D01*
X256369517Y-45046509D01*
X256278990Y-45105748D01*
X256158275Y-45170272D01*
X256145093Y-45193368D01*
X255955170Y-45317650D01*
X255601379Y-45664108D01*
X255443126Y-45895231D01*
X255420272Y-45908275D01*
X255376073Y-45993160D01*
X255321620Y-46072686D01*
X255260917Y-46214316D01*
X255190561Y-46349435D01*
X255164079Y-46440255D01*
X255126548Y-46527822D01*
X255094277Y-46679646D01*
X255051331Y-46826931D01*
X255043173Y-46920074D01*
X255023595Y-47012179D01*
X255021412Y-47168507D01*
X255007931Y-47322416D01*
X128860000Y-47322416D01*
X128860000Y-31953986D01*
X237806524Y-31953986D01*
X237824650Y-32160057D01*
X237821736Y-32368703D01*
X237862572Y-32591200D01*
X237882207Y-32814434D01*
X237939652Y-33011179D01*
X237976972Y-33214518D01*
X238060962Y-33426652D01*
X238124301Y-33643583D01*
X238218144Y-33823650D01*
X238293538Y-34014073D01*
X238418179Y-34207477D01*
X238523501Y-34409570D01*
X238574628Y-34486088D01*
X238621117Y-34522375D01*
X238759377Y-34736912D01*
X239356743Y-35355503D01*
X239683005Y-35582261D01*
X239726412Y-35637872D01*
X239899483Y-35732717D01*
X240062884Y-35846284D01*
X240279044Y-35940722D01*
X240483895Y-36052983D01*
X240670329Y-36111670D01*
X240850904Y-36190561D01*
X241083190Y-36241633D01*
X241307807Y-36312339D01*
X241500203Y-36333319D01*
X241690786Y-36375222D01*
X241930511Y-36380243D01*
X241960515Y-36383515D01*
X241946741Y-36386143D01*
X241830825Y-36402039D01*
X241790647Y-36415919D01*
X241748638Y-36423933D01*
X241637639Y-36468779D01*
X241526412Y-36507205D01*
X241476502Y-36533883D01*
X241451346Y-36544046D01*
X241423964Y-36561964D01*
X241352456Y-36600186D01*
X241348387Y-36611421D01*
X241183046Y-36719617D01*
X240953957Y-36943957D01*
X240822085Y-37136552D01*
X240812686Y-37139956D01*
X240795341Y-37175610D01*
X240772806Y-37208522D01*
X240724487Y-37321258D01*
X240671796Y-37429571D01*
X240661920Y-37467239D01*
X240646493Y-37503233D01*
X240620837Y-37623935D01*
X240590116Y-37741108D01*
X240587822Y-37779259D01*
X240579828Y-37816866D01*
X240578095Y-37941001D01*
X240570782Y-38062595D01*
X240575878Y-38099754D01*
X240575351Y-38137475D01*
X240597896Y-38260312D01*
X240614539Y-38381675D01*
X240626553Y-38416450D01*
X240633233Y-38452848D01*
X240679485Y-38569668D01*
X240719705Y-38686088D01*
X240742361Y-38728475D01*
X240751268Y-38750971D01*
X240769542Y-38779327D01*
X240812686Y-38860044D01*
X240824263Y-38864237D01*
X240924961Y-39020491D01*
X241147697Y-39251140D01*
X241349376Y-39391310D01*
X241352456Y-39399814D01*
X241382968Y-39414657D01*
X241410990Y-39434133D01*
X241528845Y-39485622D01*
X241642071Y-39540704D01*
X241674207Y-39549129D01*
X241704813Y-39562501D01*
X241831165Y-39590281D01*
X241953608Y-39622384D01*
X241986049Y-39624335D01*
X242017973Y-39631354D01*
X242148079Y-39634079D01*
X242275095Y-39641718D01*
X242306585Y-39637400D01*
X242338543Y-39638069D01*
X242467439Y-39615341D01*
X242594175Y-39597961D01*
X242623542Y-39587815D01*
X242654311Y-39582390D01*
X242777050Y-39534783D01*
X242898588Y-39492795D01*
X242933732Y-39474010D01*
X242953252Y-39466439D01*
X242981845Y-39448294D01*
X243072544Y-39399814D01*
X243076814Y-39388024D01*
X243223977Y-39294632D01*
X243456176Y-39073512D01*
X243604855Y-38862745D01*
X243612314Y-38860044D01*
X243624652Y-38834682D01*
X243641003Y-38811503D01*
X243695786Y-38688459D01*
X243753204Y-38570429D01*
X243760177Y-38543833D01*
X243771419Y-38518583D01*
X243801428Y-38386496D01*
X243834884Y-38258892D01*
X243836491Y-38232165D01*
X243842456Y-38205911D01*
X243843782Y-38110931D01*
X243854218Y-37937405D01*
X243846946Y-37884376D01*
X243847570Y-37839680D01*
X243825601Y-37728729D01*
X243810461Y-37618325D01*
X243794718Y-37572754D01*
X243785291Y-37525146D01*
X243741908Y-37419891D01*
X243705295Y-37313912D01*
X243674410Y-37256129D01*
X243663104Y-37228700D01*
X243645940Y-37202866D01*
X243612314Y-37139956D01*
X243601553Y-37136059D01*
X243485665Y-36961632D01*
X243259731Y-36734115D01*
X243076220Y-36610336D01*
X243072544Y-36600186D01*
X243031751Y-36580341D01*
X242993908Y-36554816D01*
X242886277Y-36509572D01*
X242782929Y-36459296D01*
X242739734Y-36447971D01*
X242698322Y-36430563D01*
X242583225Y-36406937D01*
X242529248Y-36392785D01*
X242550541Y-36393231D01*
X242788581Y-36351258D01*
X243026934Y-36330293D01*
X243209061Y-36277116D01*
X243397419Y-36243903D01*
X243624582Y-36155792D01*
X243856083Y-36088199D01*
X244022644Y-36001395D01*
X244199164Y-35932927D01*
X244406522Y-35801334D01*
X244622070Y-35688999D01*
X244698588Y-35637872D01*
X244732445Y-35594496D01*
X244925238Y-35472146D01*
X245547984Y-34879113D01*
X245794430Y-34529753D01*
X245850372Y-34486088D01*
X245937894Y-34326381D01*
X246043683Y-34176415D01*
X246145937Y-33946749D01*
X246265483Y-33728605D01*
X246319591Y-33556716D01*
X246393454Y-33390818D01*
X246449584Y-33143759D01*
X246524839Y-32904693D01*
X246544167Y-32727454D01*
X246583973Y-32552245D01*
X246587013Y-32334540D01*
X246618476Y-32046014D01*
X246594800Y-31776841D01*
X246597688Y-31570029D01*
X246559762Y-31378490D01*
X246542793Y-31185566D01*
X246476827Y-30959640D01*
X246430657Y-30726463D01*
X246355513Y-30544149D01*
X246300699Y-30356417D01*
X246192805Y-30149390D01*
X246102959Y-29931406D01*
X245992763Y-29765548D01*
X245901499Y-29590430D01*
X245850372Y-29513912D01*
X245798865Y-29473709D01*
X245627074Y-29215142D01*
X245021128Y-28604951D01*
X244740239Y-28415489D01*
X244698588Y-28362128D01*
X244498835Y-28252661D01*
X244308203Y-28124078D01*
X244119300Y-28044670D01*
X243941105Y-27947017D01*
X243725652Y-27879195D01*
X243515454Y-27790836D01*
X243312817Y-27749241D01*
X243117193Y-27687661D01*
X242894541Y-27663381D01*
X242673075Y-27617921D01*
X242464289Y-27616463D01*
X242258514Y-27594024D01*
X242037294Y-27613482D01*
X241813153Y-27611917D01*
X241606154Y-27651404D01*
X241398066Y-27669707D01*
X241186723Y-27731415D01*
X240968442Y-27773054D01*
X240771258Y-27852722D01*
X240568917Y-27911801D01*
X240375355Y-28012677D01*
X240171117Y-28095195D01*
X239991551Y-28212700D01*
X239802930Y-28311001D01*
X239726412Y-28362128D01*
X239688002Y-28411336D01*
X239451548Y-28566068D01*
X238837142Y-29167738D01*
X238629368Y-29471185D01*
X238574628Y-29513912D01*
X238472465Y-29700336D01*
X238351303Y-29877289D01*
X238264481Y-30079859D01*
X238159517Y-30271395D01*
X238096259Y-30472350D01*
X238012535Y-30667693D01*
X237966308Y-30885173D01*
X237900161Y-31095307D01*
X237877530Y-31302844D01*
X237833743Y-31508844D01*
X237830612Y-31733096D01*
X237806524Y-31953986D01*
X128860000Y-31953986D01*
X128860000Y-28650000D01*
X128853483Y-28583540D01*
X128847424Y-28516959D01*
X128846721Y-28514569D01*
X128846478Y-28512094D01*
X128827179Y-28448173D01*
X128808301Y-28384029D01*
X128807147Y-28381822D01*
X128806428Y-28379440D01*
X128775081Y-28320486D01*
X128744103Y-28261230D01*
X128742542Y-28259288D01*
X128741374Y-28257092D01*
X128699192Y-28205372D01*
X128657276Y-28153239D01*
X128655366Y-28151636D01*
X128653795Y-28149710D01*
X128602367Y-28107164D01*
X128551127Y-28064169D01*
X128548944Y-28062969D01*
X128547027Y-28061383D01*
X128488262Y-28029609D01*
X128429699Y-27997414D01*
X128427327Y-27996661D01*
X128425136Y-27995477D01*
X128361337Y-27975728D01*
X128297617Y-27955515D01*
X128295140Y-27955237D01*
X128292765Y-27954502D01*
X128226351Y-27947521D01*
X128159913Y-27940069D01*
X128155135Y-27940036D01*
X128154957Y-27940017D01*
X128154778Y-27940033D01*
X128150000Y-27940000D01*
X30350000Y-27940000D01*
X30283540Y-27946517D01*
X30216959Y-27952576D01*
X30214569Y-27953279D01*
X30212094Y-27953522D01*
X30148173Y-27972821D01*
X30084029Y-27991699D01*
X30081822Y-27992853D01*
X30079440Y-27993572D01*
X30020486Y-28024919D01*
X29961230Y-28055897D01*
X29959288Y-28057458D01*
X29957092Y-28058626D01*
X29905372Y-28100808D01*
X29853239Y-28142724D01*
X29851636Y-28144634D01*
X29849710Y-28146205D01*
X29807164Y-28197633D01*
X29764169Y-28248873D01*
X29762969Y-28251056D01*
X29761383Y-28252973D01*
X29729609Y-28311738D01*
X29697414Y-28370301D01*
X29696661Y-28372673D01*
X29695477Y-28374864D01*
X29675728Y-28438663D01*
X29655515Y-28502383D01*
X29655237Y-28504860D01*
X29654502Y-28507235D01*
X29647521Y-28573649D01*
X29640069Y-28640087D01*
X29640036Y-28644865D01*
X29640017Y-28645043D01*
X29640033Y-28645222D01*
X29640000Y-28650000D01*
X15810000Y-28650000D01*
X15810000Y-22174720D01*
X15897438Y-21282946D01*
X30353687Y-21282946D01*
X30363043Y-21366189D01*
X30361865Y-21450537D01*
X30389359Y-21600339D01*
X30406158Y-21749811D01*
X30431261Y-21828646D01*
X30446298Y-21910576D01*
X30502755Y-22053170D01*
X30548703Y-22197468D01*
X30591838Y-22278168D01*
X30618478Y-22345453D01*
X30673135Y-22430265D01*
X30739234Y-22553927D01*
X30760199Y-22565362D01*
X30871847Y-22738606D01*
X31196755Y-23075057D01*
X31435156Y-23240750D01*
X31446073Y-23260766D01*
X31515872Y-23296850D01*
X31580825Y-23341993D01*
X31725259Y-23405095D01*
X31863409Y-23476513D01*
X31937904Y-23497997D01*
X32009428Y-23529245D01*
X32164411Y-23563320D01*
X32314815Y-23606696D01*
X32391030Y-23613146D01*
X32466240Y-23629682D01*
X32625960Y-23633028D01*
X32782946Y-23646313D01*
X32857923Y-23637886D01*
X32933860Y-23639477D01*
X33092224Y-23611553D01*
X33249811Y-23593842D01*
X33320717Y-23571264D01*
X33394477Y-23558258D01*
X33545395Y-23499721D01*
X33697468Y-23451297D01*
X33769493Y-23412799D01*
X33830546Y-23389118D01*
X33919972Y-23332366D01*
X34053927Y-23260766D01*
X34065113Y-23240256D01*
X34225457Y-23138499D01*
X34564169Y-22815949D01*
X34741649Y-22564354D01*
X34760766Y-22553927D01*
X34793029Y-22491518D01*
X34833779Y-22433751D01*
X34901350Y-22281985D01*
X34976513Y-22136591D01*
X34995691Y-22070091D01*
X35024019Y-22006466D01*
X35061064Y-21843412D01*
X35106696Y-21685185D01*
X35112444Y-21617264D01*
X35127643Y-21550366D01*
X35129527Y-21415399D01*
X35140736Y-21282946D01*
X123353687Y-21282946D01*
X123363043Y-21366189D01*
X123361865Y-21450537D01*
X123389359Y-21600339D01*
X123406158Y-21749811D01*
X123431261Y-21828646D01*
X123446298Y-21910576D01*
X123502755Y-22053170D01*
X123548703Y-22197468D01*
X123591838Y-22278168D01*
X123618478Y-22345453D01*
X123673135Y-22430265D01*
X123739234Y-22553927D01*
X123760199Y-22565362D01*
X123871847Y-22738606D01*
X124196755Y-23075057D01*
X124435156Y-23240750D01*
X124446073Y-23260766D01*
X124515872Y-23296850D01*
X124580825Y-23341993D01*
X124725259Y-23405095D01*
X124863409Y-23476513D01*
X124937904Y-23497997D01*
X125009428Y-23529245D01*
X125164411Y-23563320D01*
X125314815Y-23606696D01*
X125391030Y-23613146D01*
X125466240Y-23629682D01*
X125625960Y-23633028D01*
X125782946Y-23646313D01*
X125857923Y-23637886D01*
X125933860Y-23639477D01*
X126092224Y-23611553D01*
X126249811Y-23593842D01*
X126320717Y-23571264D01*
X126394477Y-23558258D01*
X126545395Y-23499721D01*
X126697468Y-23451297D01*
X126769493Y-23412799D01*
X126830546Y-23389118D01*
X126919972Y-23332366D01*
X127053927Y-23260766D01*
X127065113Y-23240256D01*
X127225457Y-23138499D01*
X127564169Y-22815949D01*
X127741649Y-22564354D01*
X127760766Y-22553927D01*
X127793029Y-22491518D01*
X127833779Y-22433751D01*
X127901350Y-22281985D01*
X127976513Y-22136591D01*
X127995691Y-22070091D01*
X128024019Y-22006466D01*
X128061064Y-21843412D01*
X128106696Y-21685185D01*
X128112444Y-21617264D01*
X128127643Y-21550366D01*
X128129527Y-21415399D01*
X128143524Y-21250000D01*
X137240000Y-21250000D01*
X137240000Y-24750000D01*
X137246517Y-24816460D01*
X137252576Y-24883041D01*
X137253279Y-24885431D01*
X137253522Y-24887906D01*
X137272821Y-24951827D01*
X137291699Y-25015971D01*
X137292853Y-25018178D01*
X137293572Y-25020560D01*
X137324919Y-25079514D01*
X137355897Y-25138770D01*
X137357458Y-25140712D01*
X137358626Y-25142908D01*
X137400808Y-25194628D01*
X137442724Y-25246761D01*
X137444634Y-25248364D01*
X137446205Y-25250290D01*
X137497633Y-25292836D01*
X137548873Y-25335831D01*
X137551056Y-25337031D01*
X137552973Y-25338617D01*
X137611738Y-25370391D01*
X137670301Y-25402586D01*
X137672673Y-25403339D01*
X137674864Y-25404523D01*
X137738663Y-25424272D01*
X137802383Y-25444485D01*
X137804860Y-25444763D01*
X137807235Y-25445498D01*
X137873649Y-25452479D01*
X137940087Y-25459931D01*
X137944865Y-25459964D01*
X137945043Y-25459983D01*
X137945222Y-25459967D01*
X137950000Y-25460000D01*
X163450000Y-25460000D01*
X163516460Y-25453483D01*
X163583041Y-25447424D01*
X163585431Y-25446721D01*
X163587906Y-25446478D01*
X163651827Y-25427179D01*
X163715971Y-25408301D01*
X163718178Y-25407147D01*
X163720560Y-25406428D01*
X163779514Y-25375081D01*
X163838770Y-25344103D01*
X163840712Y-25342542D01*
X163842908Y-25341374D01*
X163894628Y-25299192D01*
X163946761Y-25257276D01*
X163948364Y-25255366D01*
X163950290Y-25253795D01*
X163992836Y-25202367D01*
X164035831Y-25151127D01*
X164037031Y-25148944D01*
X164038617Y-25147027D01*
X164070391Y-25088262D01*
X164102586Y-25029699D01*
X164103339Y-25027327D01*
X164104523Y-25025136D01*
X164124272Y-24961337D01*
X164144485Y-24897617D01*
X164144763Y-24895140D01*
X164145498Y-24892765D01*
X164152479Y-24826351D01*
X164159931Y-24759913D01*
X164159964Y-24755135D01*
X164159983Y-24754957D01*
X164159967Y-24754778D01*
X164160000Y-24750000D01*
X164160000Y-21250000D01*
X164153483Y-21183540D01*
X164147424Y-21116959D01*
X164146721Y-21114569D01*
X164146478Y-21112094D01*
X164127179Y-21048173D01*
X164108301Y-20984029D01*
X164107147Y-20981822D01*
X164106428Y-20979440D01*
X164075081Y-20920486D01*
X164044103Y-20861230D01*
X164042542Y-20859288D01*
X164041374Y-20857092D01*
X163999192Y-20805372D01*
X163957276Y-20753239D01*
X163955366Y-20751636D01*
X163953795Y-20749710D01*
X163902311Y-20707118D01*
X163851127Y-20664169D01*
X163848944Y-20662969D01*
X163847027Y-20661383D01*
X163788262Y-20629609D01*
X163729699Y-20597414D01*
X163727327Y-20596661D01*
X163725136Y-20595477D01*
X163661337Y-20575728D01*
X163597617Y-20555515D01*
X163595140Y-20555237D01*
X163592765Y-20554502D01*
X163526351Y-20547521D01*
X163459913Y-20540069D01*
X163455135Y-20540036D01*
X163454957Y-20540017D01*
X163454778Y-20540033D01*
X163450000Y-20540000D01*
X137950000Y-20540000D01*
X137883540Y-20546517D01*
X137816959Y-20552576D01*
X137814569Y-20553279D01*
X137812094Y-20553522D01*
X137748173Y-20572821D01*
X137684029Y-20591699D01*
X137681822Y-20592853D01*
X137679440Y-20593572D01*
X137620486Y-20624919D01*
X137561230Y-20655897D01*
X137559288Y-20657458D01*
X137557092Y-20658626D01*
X137505372Y-20700808D01*
X137453239Y-20742724D01*
X137451636Y-20744634D01*
X137449710Y-20746205D01*
X137407164Y-20797633D01*
X137364169Y-20848873D01*
X137362969Y-20851056D01*
X137361383Y-20852973D01*
X137329609Y-20911738D01*
X137297414Y-20970301D01*
X137296661Y-20972673D01*
X137295477Y-20974864D01*
X137275728Y-21038663D01*
X137255515Y-21102383D01*
X137255237Y-21104860D01*
X137254502Y-21107235D01*
X137247521Y-21173649D01*
X137240069Y-21240087D01*
X137240036Y-21244865D01*
X137240017Y-21245043D01*
X137240033Y-21245222D01*
X137240000Y-21250000D01*
X128143524Y-21250000D01*
X128146313Y-21217054D01*
X128133846Y-21106124D01*
X128135102Y-21016139D01*
X128108807Y-20883338D01*
X128093842Y-20750189D01*
X128063698Y-20655523D01*
X128044254Y-20557324D01*
X127992263Y-20431185D01*
X127951297Y-20302532D01*
X127898604Y-20203950D01*
X127866019Y-20124893D01*
X127816546Y-20050429D01*
X127760766Y-19946073D01*
X127739508Y-19934478D01*
X127607185Y-19735316D01*
X127277612Y-19403434D01*
X127065423Y-19260311D01*
X127053927Y-19239234D01*
X126969362Y-19195517D01*
X126889852Y-19141887D01*
X126760180Y-19087378D01*
X126636591Y-19023487D01*
X126546124Y-18997397D01*
X126458676Y-18960637D01*
X126319842Y-18932138D01*
X126185185Y-18893304D01*
X126092406Y-18885452D01*
X126000507Y-18866588D01*
X125857719Y-18865591D01*
X125717054Y-18853687D01*
X125625555Y-18863971D01*
X125532795Y-18863323D01*
X125391507Y-18890275D01*
X125250189Y-18906158D01*
X125163435Y-18933783D01*
X125073357Y-18950966D01*
X124939019Y-19005242D01*
X124802532Y-19048703D01*
X124712991Y-19096564D01*
X124639693Y-19126178D01*
X124559905Y-19178390D01*
X124446073Y-19239234D01*
X124434500Y-19260452D01*
X124248319Y-19382285D01*
X123914144Y-19709534D01*
X123759900Y-19934801D01*
X123739234Y-19946073D01*
X123699332Y-20023259D01*
X123649896Y-20095458D01*
X123591147Y-20232528D01*
X123523487Y-20363409D01*
X123499700Y-20445891D01*
X123465640Y-20525358D01*
X123434412Y-20672274D01*
X123393304Y-20814815D01*
X123386153Y-20899316D01*
X123368395Y-20982860D01*
X123366283Y-21134104D01*
X123353687Y-21282946D01*
X35140736Y-21282946D01*
X35146313Y-21217054D01*
X35133846Y-21106124D01*
X35135102Y-21016139D01*
X35108807Y-20883338D01*
X35093842Y-20750189D01*
X35063698Y-20655523D01*
X35044254Y-20557324D01*
X34992263Y-20431185D01*
X34951297Y-20302532D01*
X34898604Y-20203950D01*
X34866019Y-20124893D01*
X34816546Y-20050429D01*
X34760766Y-19946073D01*
X34739508Y-19934478D01*
X34607185Y-19735316D01*
X34277612Y-19403434D01*
X34065423Y-19260311D01*
X34053927Y-19239234D01*
X33969362Y-19195517D01*
X33889852Y-19141887D01*
X33760180Y-19087378D01*
X33636591Y-19023487D01*
X33546124Y-18997397D01*
X33458676Y-18960637D01*
X33319842Y-18932138D01*
X33185185Y-18893304D01*
X33092406Y-18885452D01*
X33000507Y-18866588D01*
X32857719Y-18865591D01*
X32717054Y-18853687D01*
X32625555Y-18863971D01*
X32532795Y-18863323D01*
X32391507Y-18890275D01*
X32250189Y-18906158D01*
X32163435Y-18933783D01*
X32073357Y-18950966D01*
X31939019Y-19005242D01*
X31802532Y-19048703D01*
X31712991Y-19096564D01*
X31639693Y-19126178D01*
X31559905Y-19178390D01*
X31446073Y-19239234D01*
X31434500Y-19260452D01*
X31248319Y-19382285D01*
X30914144Y-19709534D01*
X30759900Y-19934801D01*
X30739234Y-19946073D01*
X30699332Y-20023259D01*
X30649896Y-20095458D01*
X30591147Y-20232528D01*
X30523487Y-20363409D01*
X30499700Y-20445891D01*
X30465640Y-20525358D01*
X30434412Y-20672274D01*
X30393304Y-20814815D01*
X30386153Y-20899316D01*
X30368395Y-20982860D01*
X30366283Y-21134104D01*
X30353687Y-21282946D01*
X15897438Y-21282946D01*
X15905325Y-21202513D01*
X16177591Y-20300728D01*
X16619826Y-19469004D01*
X17215189Y-18739016D01*
X17941002Y-18138572D01*
X18769619Y-17690540D01*
X19669478Y-17411987D01*
X20639770Y-17310005D01*
X20641332Y-17310000D01*
X259335280Y-17310000D01*
X260307487Y-17405325D01*
G36*
X37864291Y-88646512D02*
X38940507Y-88877402D01*
X39951377Y-89312932D01*
X40858403Y-89936515D01*
X41627031Y-90724395D01*
X42227988Y-91646562D01*
X42638385Y-92667901D01*
X42842586Y-93749497D01*
X42832815Y-94850155D01*
X42609443Y-95927958D01*
X42180980Y-96941845D01*
X41563746Y-97853200D01*
X40781250Y-98627312D01*
X39863296Y-99234694D01*
X38844850Y-99652209D01*
X37764712Y-99863955D01*
X36664004Y-99861868D01*
X35584678Y-99646028D01*
X34567819Y-99224652D01*
X33652178Y-98613796D01*
X32870187Y-97834295D01*
X32395000Y-97141376D01*
X32395000Y-91363240D01*
X32936984Y-90586573D01*
X33730215Y-89823461D01*
X34656553Y-89228959D01*
X35680728Y-88825702D01*
X36763727Y-88629057D01*
X37864291Y-88646512D01*
X37864291Y-88646512D01*
G37*
X37864291Y-88646512D02*
X38940507Y-88877402D01*
X39951377Y-89312932D01*
X40858403Y-89936515D01*
X41627031Y-90724395D01*
X42227988Y-91646562D01*
X42638385Y-92667901D01*
X42842586Y-93749497D01*
X42832815Y-94850155D01*
X42609443Y-95927958D01*
X42180980Y-96941845D01*
X41563746Y-97853200D01*
X40781250Y-98627312D01*
X39863296Y-99234694D01*
X38844850Y-99652209D01*
X37764712Y-99863955D01*
X36664004Y-99861868D01*
X35584678Y-99646028D01*
X34567819Y-99224652D01*
X33652178Y-98613796D01*
X32870187Y-97834295D01*
X32395000Y-97141376D01*
X32395000Y-91363240D01*
X32936984Y-90586573D01*
X33730215Y-89823461D01*
X34656553Y-89228959D01*
X35680728Y-88825702D01*
X36763727Y-88629057D01*
X37864291Y-88646512D01*
G36*
X56914291Y-88646512D02*
X57990507Y-88877402D01*
X59001377Y-89312932D01*
X59908403Y-89936515D01*
X60677031Y-90724395D01*
X61277988Y-91646562D01*
X61688385Y-92667901D01*
X61892586Y-93749497D01*
X61882815Y-94850155D01*
X61659443Y-95927958D01*
X61230980Y-96941845D01*
X60613746Y-97853200D01*
X59831250Y-98627312D01*
X58913296Y-99234694D01*
X57894850Y-99652209D01*
X56814712Y-99863955D01*
X55714004Y-99861868D01*
X54634678Y-99646028D01*
X53617819Y-99224652D01*
X52702178Y-98613796D01*
X51920187Y-97834295D01*
X51445000Y-97141376D01*
X51445000Y-91363240D01*
X51986984Y-90586573D01*
X52780215Y-89823461D01*
X53706553Y-89228959D01*
X54730728Y-88825702D01*
X55813727Y-88629057D01*
X56914291Y-88646512D01*
X56914291Y-88646512D01*
G37*
X56914291Y-88646512D02*
X57990507Y-88877402D01*
X59001377Y-89312932D01*
X59908403Y-89936515D01*
X60677031Y-90724395D01*
X61277988Y-91646562D01*
X61688385Y-92667901D01*
X61892586Y-93749497D01*
X61882815Y-94850155D01*
X61659443Y-95927958D01*
X61230980Y-96941845D01*
X60613746Y-97853200D01*
X59831250Y-98627312D01*
X58913296Y-99234694D01*
X57894850Y-99652209D01*
X56814712Y-99863955D01*
X55714004Y-99861868D01*
X54634678Y-99646028D01*
X53617819Y-99224652D01*
X52702178Y-98613796D01*
X51920187Y-97834295D01*
X51445000Y-97141376D01*
X51445000Y-91363240D01*
X51986984Y-90586573D01*
X52780215Y-89823461D01*
X53706553Y-89228959D01*
X54730728Y-88825702D01*
X55813727Y-88629057D01*
X56914291Y-88646512D01*
G36*
X123164291Y-88646512D02*
X124240507Y-88877402D01*
X125251377Y-89312932D01*
X126158403Y-89936515D01*
X126927031Y-90724395D01*
X127527988Y-91646562D01*
X127938385Y-92667901D01*
X128142586Y-93749497D01*
X128132815Y-94850155D01*
X127909443Y-95927958D01*
X127480980Y-96941845D01*
X126863746Y-97853200D01*
X126081250Y-98627312D01*
X125163296Y-99234694D01*
X124144850Y-99652209D01*
X123064712Y-99863955D01*
X121964004Y-99861868D01*
X120884678Y-99646028D01*
X119867819Y-99224652D01*
X118952178Y-98613796D01*
X118170187Y-97834295D01*
X117695000Y-97141376D01*
X117695000Y-91363240D01*
X118236984Y-90586573D01*
X119030215Y-89823461D01*
X119956553Y-89228959D01*
X120980728Y-88825702D01*
X122063727Y-88629057D01*
X123164291Y-88646512D01*
X123164291Y-88646512D01*
G37*
X123164291Y-88646512D02*
X124240507Y-88877402D01*
X125251377Y-89312932D01*
X126158403Y-89936515D01*
X126927031Y-90724395D01*
X127527988Y-91646562D01*
X127938385Y-92667901D01*
X128142586Y-93749497D01*
X128132815Y-94850155D01*
X127909443Y-95927958D01*
X127480980Y-96941845D01*
X126863746Y-97853200D01*
X126081250Y-98627312D01*
X125163296Y-99234694D01*
X124144850Y-99652209D01*
X123064712Y-99863955D01*
X121964004Y-99861868D01*
X120884678Y-99646028D01*
X119867819Y-99224652D01*
X118952178Y-98613796D01*
X118170187Y-97834295D01*
X117695000Y-97141376D01*
X117695000Y-91363240D01*
X118236984Y-90586573D01*
X119030215Y-89823461D01*
X119956553Y-89228959D01*
X120980728Y-88825702D01*
X122063727Y-88629057D01*
X123164291Y-88646512D01*
G36*
X104114291Y-88646512D02*
X105190507Y-88877402D01*
X106201377Y-89312932D01*
X107108403Y-89936515D01*
X107877031Y-90724395D01*
X108477988Y-91646562D01*
X108888385Y-92667901D01*
X109092586Y-93749497D01*
X109082815Y-94850155D01*
X108859443Y-95927958D01*
X108430980Y-96941845D01*
X107813746Y-97853200D01*
X107031250Y-98627312D01*
X106113296Y-99234694D01*
X105094850Y-99652209D01*
X104014712Y-99863955D01*
X102914004Y-99861868D01*
X101834678Y-99646028D01*
X100817819Y-99224652D01*
X99902178Y-98613796D01*
X99120187Y-97834295D01*
X98645000Y-97141376D01*
X98645000Y-91363240D01*
X99186984Y-90586573D01*
X99980215Y-89823461D01*
X100906553Y-89228959D01*
X101930728Y-88825702D01*
X103013727Y-88629057D01*
X104114291Y-88646512D01*
X104114291Y-88646512D01*
G37*
X104114291Y-88646512D02*
X105190507Y-88877402D01*
X106201377Y-89312932D01*
X107108403Y-89936515D01*
X107877031Y-90724395D01*
X108477988Y-91646562D01*
X108888385Y-92667901D01*
X109092586Y-93749497D01*
X109082815Y-94850155D01*
X108859443Y-95927958D01*
X108430980Y-96941845D01*
X107813746Y-97853200D01*
X107031250Y-98627312D01*
X106113296Y-99234694D01*
X105094850Y-99652209D01*
X104014712Y-99863955D01*
X102914004Y-99861868D01*
X101834678Y-99646028D01*
X100817819Y-99224652D01*
X99902178Y-98613796D01*
X99120187Y-97834295D01*
X98645000Y-97141376D01*
X98645000Y-91363240D01*
X99186984Y-90586573D01*
X99980215Y-89823461D01*
X100906553Y-89228959D01*
X101930728Y-88825702D01*
X103013727Y-88629057D01*
X104114291Y-88646512D01*
G36*
X228510761Y-91258029D02*
X229286219Y-91483250D01*
X230003161Y-91854802D01*
X230634282Y-92358532D01*
X231155544Y-92975258D01*
X231547084Y-93681478D01*
X231793998Y-94450306D01*
X231886877Y-95252446D01*
X231822182Y-96057353D01*
X231602380Y-96834364D01*
X231235844Y-97553879D01*
X230736529Y-98188503D01*
X230123461Y-98714055D01*
X229419989Y-99110518D01*
X228652902Y-99362794D01*
X227851433Y-99461269D01*
X227046091Y-99402195D01*
X226267571Y-99187825D01*
X225545506Y-98826317D01*
X224907416Y-98331449D01*
X224410000Y-97759333D01*
X224410000Y-92906391D01*
X224803742Y-92420077D01*
X225424088Y-91903137D01*
X226133030Y-91516534D01*
X226903557Y-91274995D01*
X227706332Y-91187718D01*
X228510761Y-91258029D01*
X228510761Y-91258029D01*
G37*
X228510761Y-91258029D02*
X229286219Y-91483250D01*
X230003161Y-91854802D01*
X230634282Y-92358532D01*
X231155544Y-92975258D01*
X231547084Y-93681478D01*
X231793998Y-94450306D01*
X231886877Y-95252446D01*
X231822182Y-96057353D01*
X231602380Y-96834364D01*
X231235844Y-97553879D01*
X230736529Y-98188503D01*
X230123461Y-98714055D01*
X229419989Y-99110518D01*
X228652902Y-99362794D01*
X227851433Y-99461269D01*
X227046091Y-99402195D01*
X226267571Y-99187825D01*
X225545506Y-98826317D01*
X224907416Y-98331449D01*
X224410000Y-97759333D01*
X224410000Y-92906391D01*
X224803742Y-92420077D01*
X225424088Y-91903137D01*
X226133030Y-91516534D01*
X226903557Y-91274995D01*
X227706332Y-91187718D01*
X228510761Y-91258029D01*
G36*
X127440000Y-68140000D02*
X31060000Y-68140000D01*
X31060000Y-29360000D01*
X127440000Y-29360000D01*
X127440000Y-68140000D01*
X127440000Y-68140000D01*
G37*
X127440000Y-68140000D02*
X31060000Y-68140000D01*
X31060000Y-29360000D01*
X127440000Y-29360000D01*
X127440000Y-68140000D01*
G36*
X162740000Y-24040000D02*
X138660000Y-24040000D01*
X138660000Y-21960000D01*
X162740000Y-21960000D01*
X162740000Y-24040000D01*
X162740000Y-24040000D01*
G37*
X162740000Y-24040000D02*
X138660000Y-24040000D01*
X138660000Y-21960000D01*
X162740000Y-21960000D01*
X162740000Y-24040000D01*
M02*
