%TF.GenerationSoftware,KiCad,Pcbnew,4.0.7-e2-6376~58~ubuntu16.04.1*%
%TF.CreationDate,2018-07-14T16:33:13-07:00*%
%TF.ProjectId,dcload,64636C6F61642E6B696361645F706362,rev?*%
%TF.FileFunction,Copper,L2,Bot,Signal*%
%FSLAX46Y46*%
G04 Gerber Fmt 4.6, Leading zero omitted, Abs format (unit mm)*
G04 Created by KiCad (PCBNEW 4.0.7-e2-6376~58~ubuntu16.04.1) date Sat Jul 14 16:33:13 2018*
%MOMM*%
%LPD*%
G01*
G04 APERTURE LIST*
%ADD10C,0.100000*%
%ADD11C,0.254000*%
G04 APERTURE END LIST*
D10*
D11*
G36*
X259712884Y-17275501D02*
X260857626Y-17520803D01*
X262032960Y-18108470D01*
X262813573Y-18693930D01*
X263278184Y-19216617D01*
X263430723Y-19401005D01*
X263885396Y-20241906D01*
X264168076Y-21155098D01*
X264273000Y-22153390D01*
X264273000Y-104150219D01*
X264243560Y-104450474D01*
X264077184Y-105365542D01*
X263587463Y-106638816D01*
X262896266Y-107589212D01*
X262845562Y-107651381D01*
X262108997Y-108260721D01*
X261268095Y-108715396D01*
X260354906Y-108998075D01*
X259337581Y-109105000D01*
X20710179Y-109105000D01*
X19688617Y-109004835D01*
X18773476Y-108728538D01*
X18024018Y-108330044D01*
X17843690Y-108209825D01*
X17549477Y-107969871D01*
X16869885Y-107290279D01*
X16601649Y-106966037D01*
X16550102Y-106885035D01*
X16124604Y-106098095D01*
X15916259Y-105425039D01*
X15783346Y-104627567D01*
X15735000Y-104167581D01*
X15735000Y-91150000D01*
X30490000Y-91150000D01*
X30490000Y-97350000D01*
X30509711Y-97551033D01*
X30568095Y-97744408D01*
X30662927Y-97922760D01*
X30672257Y-97934200D01*
X30748664Y-98073701D01*
X30756893Y-98085581D01*
X31426855Y-99038487D01*
X31485401Y-99106530D01*
X31542447Y-99175830D01*
X31552747Y-99185967D01*
X32461512Y-100067852D01*
X32534871Y-100126288D01*
X32607437Y-100185767D01*
X32619504Y-100193705D01*
X32619509Y-100193709D01*
X32619514Y-100193712D01*
X33682261Y-100882285D01*
X33765601Y-100925374D01*
X33848307Y-100969609D01*
X33861692Y-100975056D01*
X33861696Y-100975058D01*
X35037948Y-101444097D01*
X35128089Y-101470183D01*
X35217794Y-101497506D01*
X35231973Y-101500247D01*
X35231983Y-101500250D01*
X35231993Y-101500251D01*
X36476941Y-101731887D01*
X36570396Y-101739965D01*
X36663736Y-101749347D01*
X36678177Y-101749281D01*
X36678188Y-101749282D01*
X36678198Y-101749281D01*
X37944427Y-101734694D01*
X38037665Y-101724467D01*
X38131057Y-101715540D01*
X38145209Y-101712670D01*
X38145220Y-101712669D01*
X38145230Y-101712666D01*
X39384511Y-101452411D01*
X39473976Y-101424272D01*
X39563865Y-101397372D01*
X39577198Y-101391805D01*
X39577202Y-101391804D01*
X39577206Y-101391802D01*
X40742339Y-100895791D01*
X40824676Y-100850788D01*
X40907586Y-100806963D01*
X40919586Y-100798912D01*
X40919585Y-100798912D01*
X40919588Y-100798911D01*
X40919590Y-100798909D01*
X41966192Y-100086036D01*
X42038197Y-100025915D01*
X42111040Y-99966802D01*
X42121248Y-99956573D01*
X43009455Y-99053987D01*
X43068412Y-98981026D01*
X43128385Y-98908890D01*
X43136408Y-98896879D01*
X43136412Y-98896874D01*
X43136415Y-98896869D01*
X43832391Y-97838955D01*
X43876070Y-97755901D01*
X43920872Y-97673522D01*
X43926412Y-97660175D01*
X43926413Y-97660174D01*
X43926415Y-97660169D01*
X44403653Y-96487222D01*
X44430359Y-96397297D01*
X44458317Y-96307753D01*
X44461159Y-96293583D01*
X44701481Y-95050274D01*
X44710211Y-94956881D01*
X44720245Y-94863606D01*
X44720280Y-94849164D01*
X44720281Y-94849153D01*
X44720280Y-94849143D01*
X44714534Y-93582844D01*
X44704958Y-93489535D01*
X44696683Y-93396084D01*
X44693911Y-93381901D01*
X44442312Y-92140824D01*
X44414788Y-92051131D01*
X44388526Y-91961091D01*
X44383052Y-91947716D01*
X44050015Y-91150000D01*
X49540000Y-91150000D01*
X49540000Y-97350000D01*
X49559711Y-97551033D01*
X49618095Y-97744408D01*
X49712927Y-97922760D01*
X49722257Y-97934200D01*
X49798664Y-98073701D01*
X49806893Y-98085581D01*
X50476855Y-99038487D01*
X50535401Y-99106530D01*
X50592447Y-99175830D01*
X50602747Y-99185967D01*
X51511512Y-100067852D01*
X51584871Y-100126288D01*
X51657437Y-100185767D01*
X51669504Y-100193705D01*
X51669509Y-100193709D01*
X51669514Y-100193712D01*
X52732261Y-100882285D01*
X52815601Y-100925374D01*
X52898307Y-100969609D01*
X52911692Y-100975056D01*
X52911696Y-100975058D01*
X54087948Y-101444097D01*
X54178089Y-101470183D01*
X54267794Y-101497506D01*
X54281973Y-101500247D01*
X54281983Y-101500250D01*
X54281993Y-101500251D01*
X55526941Y-101731887D01*
X55620396Y-101739965D01*
X55713736Y-101749347D01*
X55728177Y-101749281D01*
X55728188Y-101749282D01*
X55728198Y-101749281D01*
X56994427Y-101734694D01*
X57087665Y-101724467D01*
X57181057Y-101715540D01*
X57195209Y-101712670D01*
X57195220Y-101712669D01*
X57195230Y-101712666D01*
X58434511Y-101452411D01*
X58523976Y-101424272D01*
X58613865Y-101397372D01*
X58627198Y-101391805D01*
X58627202Y-101391804D01*
X58627206Y-101391802D01*
X59792339Y-100895791D01*
X59874676Y-100850788D01*
X59957586Y-100806963D01*
X59969586Y-100798912D01*
X59969585Y-100798912D01*
X59969588Y-100798911D01*
X59969590Y-100798909D01*
X60547790Y-100405079D01*
X88166997Y-100405079D01*
X88173293Y-100453913D01*
X88172601Y-100503451D01*
X88196391Y-100633070D01*
X88212964Y-100761622D01*
X88228410Y-100807528D01*
X88237209Y-100855472D01*
X88286025Y-100978767D01*
X88327605Y-101102346D01*
X88355951Y-101155379D01*
X88368962Y-101188240D01*
X88395653Y-101229656D01*
X88445313Y-101322565D01*
X88459297Y-101328412D01*
X88562839Y-101489079D01*
X88811458Y-101746532D01*
X89022692Y-101893343D01*
X89027435Y-101904687D01*
X89067968Y-101924811D01*
X89105348Y-101950791D01*
X89229861Y-102005189D01*
X89349426Y-102064552D01*
X89392339Y-102076174D01*
X89433315Y-102094076D01*
X89566837Y-102123433D01*
X89696419Y-102158527D01*
X89739974Y-102161499D01*
X89782867Y-102170930D01*
X89920372Y-102173810D01*
X90055079Y-102183003D01*
X90097591Y-102177522D01*
X90140690Y-102178425D01*
X90276952Y-102154398D01*
X90411622Y-102137036D01*
X90451487Y-102123623D01*
X90493153Y-102116276D01*
X90622940Y-102065935D01*
X90752346Y-102022395D01*
X90797715Y-101998145D01*
X90826833Y-101986851D01*
X90869479Y-101959787D01*
X90972565Y-101904687D01*
X90978439Y-101890638D01*
X91129018Y-101795078D01*
X91388200Y-101548262D01*
X91544368Y-101326880D01*
X91554687Y-101322565D01*
X91571975Y-101287745D01*
X91594506Y-101255805D01*
X91652468Y-101125619D01*
X91714552Y-101000574D01*
X91724506Y-100963820D01*
X91740077Y-100928847D01*
X91771838Y-100789051D01*
X91808527Y-100653581D01*
X91811065Y-100616396D01*
X91819370Y-100579840D01*
X91820865Y-100472789D01*
X91833003Y-100294921D01*
X91824292Y-100227353D01*
X91825078Y-100171050D01*
X91802019Y-100054595D01*
X91787036Y-99938378D01*
X91767526Y-99880392D01*
X91755561Y-99819965D01*
X91710010Y-99709451D01*
X91672395Y-99597654D01*
X91635416Y-99528470D01*
X91619176Y-99489069D01*
X91594522Y-99451962D01*
X91554687Y-99377435D01*
X91541282Y-99371830D01*
X91421116Y-99190966D01*
X91168927Y-98937010D01*
X90977952Y-98808195D01*
X90972565Y-98795313D01*
X90920612Y-98769519D01*
X90872214Y-98736874D01*
X90759040Y-98689300D01*
X90650574Y-98635448D01*
X90595353Y-98620493D01*
X90542278Y-98598182D01*
X90421213Y-98573331D01*
X90303581Y-98541473D01*
X90247304Y-98537632D01*
X90191687Y-98526216D01*
X90067283Y-98525347D01*
X89944921Y-98516997D01*
X89889766Y-98524108D01*
X89833795Y-98523717D01*
X89710780Y-98547183D01*
X89588378Y-98562964D01*
X89536430Y-98580442D01*
X89482234Y-98590781D01*
X89365358Y-98638002D01*
X89247654Y-98677605D01*
X89186706Y-98710182D01*
X89150394Y-98724853D01*
X89110872Y-98750716D01*
X89027435Y-98795313D01*
X89021677Y-98809083D01*
X88850915Y-98920827D01*
X88595205Y-99171237D01*
X88457511Y-99372334D01*
X88445313Y-99377435D01*
X88422350Y-99423686D01*
X88393003Y-99466546D01*
X88342069Y-99585384D01*
X88285448Y-99699426D01*
X88272159Y-99748494D01*
X88252010Y-99795505D01*
X88224955Y-99922790D01*
X88191473Y-100046419D01*
X88188066Y-100096340D01*
X88177599Y-100145585D01*
X88175770Y-100276518D01*
X88166997Y-100405079D01*
X60547790Y-100405079D01*
X61016192Y-100086036D01*
X61088197Y-100025915D01*
X61161040Y-99966802D01*
X61171248Y-99956573D01*
X62059455Y-99053987D01*
X62118412Y-98981026D01*
X62178385Y-98908890D01*
X62186408Y-98896879D01*
X62186412Y-98896874D01*
X62186415Y-98896869D01*
X62882391Y-97838955D01*
X62926070Y-97755901D01*
X62970872Y-97673522D01*
X62976412Y-97660175D01*
X62976413Y-97660174D01*
X62976415Y-97660169D01*
X63453653Y-96487222D01*
X63480359Y-96397297D01*
X63508317Y-96307753D01*
X63511159Y-96293583D01*
X63751481Y-95050274D01*
X63760211Y-94956881D01*
X63770245Y-94863606D01*
X63770280Y-94849164D01*
X63770281Y-94849153D01*
X63770280Y-94849143D01*
X63767456Y-94226682D01*
X86171635Y-94226682D01*
X86187406Y-94397466D01*
X86184992Y-94570355D01*
X86221984Y-94771911D01*
X86240647Y-94974007D01*
X86288962Y-95136843D01*
X86319872Y-95305260D01*
X86395932Y-95497365D01*
X86454129Y-95693508D01*
X86532508Y-95842319D01*
X86594927Y-95999970D01*
X86707766Y-96175062D01*
X86803877Y-96357537D01*
X86829787Y-96396314D01*
X86868781Y-96424908D01*
X86999681Y-96628024D01*
X87518715Y-97165500D01*
X87820933Y-97375546D01*
X87853686Y-97420213D01*
X87997169Y-97498034D01*
X88132261Y-97591925D01*
X88327765Y-97677339D01*
X88513405Y-97778024D01*
X88667736Y-97825868D01*
X88816949Y-97891058D01*
X89026961Y-97937232D01*
X89230253Y-98000255D01*
X89389306Y-98016899D01*
X89546698Y-98051504D01*
X89763367Y-98056043D01*
X89976682Y-98078365D01*
X90134274Y-98063812D01*
X90293714Y-98067152D01*
X90508800Y-98029226D01*
X90724007Y-98009353D01*
X90874145Y-97964806D01*
X91029542Y-97937405D01*
X91234738Y-97857815D01*
X91443508Y-97795871D01*
X91580599Y-97723664D01*
X91726155Y-97667207D01*
X91913415Y-97548368D01*
X92107537Y-97446123D01*
X92146314Y-97420213D01*
X92173261Y-97383465D01*
X92357020Y-97266848D01*
X92898106Y-96751578D01*
X93125683Y-96428967D01*
X93170213Y-96396314D01*
X93241714Y-96264484D01*
X93328805Y-96141024D01*
X93421071Y-95933791D01*
X93528024Y-95736595D01*
X93571942Y-95594929D01*
X93632710Y-95458442D01*
X93683340Y-95235594D01*
X93750255Y-95019747D01*
X93765519Y-94873883D01*
X93798247Y-94729830D01*
X93800965Y-94535154D01*
X93828365Y-94273318D01*
X93807740Y-94049968D01*
X93810163Y-93876410D01*
X93775587Y-93701788D01*
X93759353Y-93525993D01*
X93703517Y-93337807D01*
X93665035Y-93143461D01*
X93596558Y-92977324D01*
X93545871Y-92806492D01*
X93455165Y-92634279D01*
X93380307Y-92452659D01*
X93279932Y-92301582D01*
X93196123Y-92142463D01*
X93170213Y-92103686D01*
X93127775Y-92072567D01*
X92966825Y-91830317D01*
X92440336Y-91300140D01*
X92217744Y-91150000D01*
X103740000Y-91150000D01*
X103740000Y-97350000D01*
X103759711Y-97551033D01*
X103818095Y-97744408D01*
X103912927Y-97922760D01*
X103922257Y-97934200D01*
X103998664Y-98073701D01*
X104006893Y-98085581D01*
X104676855Y-99038487D01*
X104735401Y-99106530D01*
X104792447Y-99175830D01*
X104802747Y-99185967D01*
X105711512Y-100067852D01*
X105784871Y-100126288D01*
X105857437Y-100185767D01*
X105869504Y-100193705D01*
X105869509Y-100193709D01*
X105869514Y-100193712D01*
X106932261Y-100882285D01*
X107015601Y-100925374D01*
X107098307Y-100969609D01*
X107111692Y-100975056D01*
X107111696Y-100975058D01*
X108287948Y-101444097D01*
X108378089Y-101470183D01*
X108467794Y-101497506D01*
X108481973Y-101500247D01*
X108481983Y-101500250D01*
X108481993Y-101500251D01*
X109726941Y-101731887D01*
X109820396Y-101739965D01*
X109913736Y-101749347D01*
X109928177Y-101749281D01*
X109928188Y-101749282D01*
X109928198Y-101749281D01*
X111194427Y-101734694D01*
X111287665Y-101724467D01*
X111381057Y-101715540D01*
X111395209Y-101712670D01*
X111395220Y-101712669D01*
X111395230Y-101712666D01*
X112634511Y-101452411D01*
X112723976Y-101424272D01*
X112813865Y-101397372D01*
X112827198Y-101391805D01*
X112827202Y-101391804D01*
X112827206Y-101391802D01*
X113992339Y-100895791D01*
X114074676Y-100850788D01*
X114157586Y-100806963D01*
X114169586Y-100798912D01*
X114169585Y-100798912D01*
X114169588Y-100798911D01*
X114169590Y-100798909D01*
X115216192Y-100086036D01*
X115288197Y-100025915D01*
X115361040Y-99966802D01*
X115371248Y-99956573D01*
X116259455Y-99053987D01*
X116318412Y-98981026D01*
X116378385Y-98908890D01*
X116386408Y-98896879D01*
X116386412Y-98896874D01*
X116386415Y-98896869D01*
X117082391Y-97838955D01*
X117126070Y-97755901D01*
X117170872Y-97673522D01*
X117176412Y-97660175D01*
X117176413Y-97660174D01*
X117176415Y-97660169D01*
X117653653Y-96487222D01*
X117680359Y-96397297D01*
X117708317Y-96307753D01*
X117711159Y-96293583D01*
X117951481Y-95050274D01*
X117960211Y-94956881D01*
X117970245Y-94863606D01*
X117970280Y-94849164D01*
X117970281Y-94849153D01*
X117970280Y-94849143D01*
X117964534Y-93582844D01*
X117954958Y-93489535D01*
X117946683Y-93396084D01*
X117943911Y-93381901D01*
X117692312Y-92140824D01*
X117664788Y-92051131D01*
X117638526Y-91961091D01*
X117633052Y-91947716D01*
X117300015Y-91150000D01*
X122790000Y-91150000D01*
X122790000Y-97350000D01*
X122809711Y-97551033D01*
X122868095Y-97744408D01*
X122962927Y-97922760D01*
X122972257Y-97934200D01*
X123048664Y-98073701D01*
X123056893Y-98085581D01*
X123726855Y-99038487D01*
X123785401Y-99106530D01*
X123842447Y-99175830D01*
X123852747Y-99185967D01*
X124761512Y-100067852D01*
X124834871Y-100126288D01*
X124907437Y-100185767D01*
X124919504Y-100193705D01*
X124919509Y-100193709D01*
X124919514Y-100193712D01*
X125982261Y-100882285D01*
X126065601Y-100925374D01*
X126148307Y-100969609D01*
X126161692Y-100975056D01*
X126161696Y-100975058D01*
X127337948Y-101444097D01*
X127428089Y-101470183D01*
X127517794Y-101497506D01*
X127531973Y-101500247D01*
X127531983Y-101500250D01*
X127531993Y-101500251D01*
X128776941Y-101731887D01*
X128870396Y-101739965D01*
X128963736Y-101749347D01*
X128978177Y-101749281D01*
X128978188Y-101749282D01*
X128978198Y-101749281D01*
X130244427Y-101734694D01*
X130337665Y-101724467D01*
X130431057Y-101715540D01*
X130445209Y-101712670D01*
X130445220Y-101712669D01*
X130445230Y-101712666D01*
X131684511Y-101452411D01*
X131773976Y-101424272D01*
X131863865Y-101397372D01*
X131877198Y-101391805D01*
X131877202Y-101391804D01*
X131877206Y-101391802D01*
X133042339Y-100895791D01*
X133124676Y-100850788D01*
X133207586Y-100806963D01*
X133219586Y-100798912D01*
X133219585Y-100798912D01*
X133219588Y-100798911D01*
X133219590Y-100798909D01*
X134266192Y-100086036D01*
X134338197Y-100025915D01*
X134411040Y-99966802D01*
X134421248Y-99956573D01*
X135309455Y-99053987D01*
X135368412Y-98981026D01*
X135428385Y-98908890D01*
X135436408Y-98896879D01*
X135436412Y-98896874D01*
X135436415Y-98896869D01*
X136132391Y-97838955D01*
X136176070Y-97755901D01*
X136220872Y-97673522D01*
X136226412Y-97660175D01*
X136226413Y-97660174D01*
X136226415Y-97660169D01*
X136703653Y-96487222D01*
X136730359Y-96397297D01*
X136758317Y-96307753D01*
X136761159Y-96293583D01*
X137001481Y-95050274D01*
X137010211Y-94956881D01*
X137020245Y-94863606D01*
X137020280Y-94849164D01*
X137020281Y-94849153D01*
X137020280Y-94849143D01*
X137016923Y-94109282D01*
X238933622Y-94109282D01*
X238961077Y-94462682D01*
X238956081Y-94820501D01*
X239012947Y-95130342D01*
X239037144Y-95441795D01*
X239132222Y-95780221D01*
X239196281Y-96129249D01*
X239313348Y-96424926D01*
X239398637Y-96728508D01*
X239556581Y-97039262D01*
X239686110Y-97366416D01*
X239860001Y-97636243D01*
X240004210Y-97919973D01*
X240160568Y-98153980D01*
X240239579Y-98225231D01*
X240406911Y-98484880D01*
X241331229Y-99442039D01*
X241750332Y-99733323D01*
X241846020Y-99839432D01*
X242142309Y-100005754D01*
X242423856Y-100201434D01*
X242726231Y-100333538D01*
X243011478Y-100493662D01*
X243331728Y-100598074D01*
X243643175Y-100734142D01*
X243968376Y-100805642D01*
X244282176Y-100907951D01*
X244613721Y-100947530D01*
X244942742Y-101019870D01*
X245278633Y-101026906D01*
X245609282Y-101066378D01*
X245939242Y-101040744D01*
X246273057Y-101047736D01*
X246606868Y-100988876D01*
X246941795Y-100962856D01*
X247257579Y-100874139D01*
X247583450Y-100816679D01*
X247902264Y-100693019D01*
X248228508Y-100601363D01*
X248518298Y-100454075D01*
X248824006Y-100335498D01*
X249115256Y-100150665D01*
X249419973Y-99995790D01*
X249653980Y-99839432D01*
X249718606Y-99767767D01*
X249947475Y-99622523D01*
X250911064Y-98704911D01*
X251230244Y-98252445D01*
X251339432Y-98153980D01*
X251494228Y-97878223D01*
X251678069Y-97617612D01*
X251822028Y-97294274D01*
X251993662Y-96988522D01*
X252090777Y-96690652D01*
X252219275Y-96402041D01*
X252298351Y-96053986D01*
X252407951Y-95717824D01*
X252444739Y-95409656D01*
X252514069Y-95104501D01*
X252518427Y-94792391D01*
X252566378Y-94390718D01*
X252530487Y-93928736D01*
X252535291Y-93584696D01*
X252483398Y-93322616D01*
X252462856Y-93058205D01*
X252355094Y-92674633D01*
X252276842Y-92279430D01*
X252173892Y-92029655D01*
X252101363Y-91771492D01*
X251922166Y-91418921D01*
X251769787Y-91049223D01*
X251618627Y-90821709D01*
X251495790Y-90580027D01*
X251339432Y-90346020D01*
X251247498Y-90263114D01*
X251033440Y-89940932D01*
X250095848Y-88996772D01*
X249741826Y-88757981D01*
X249653980Y-88660568D01*
X249316752Y-88471265D01*
X248992725Y-88252706D01*
X248732659Y-88143384D01*
X248488522Y-88006338D01*
X248123621Y-87887368D01*
X247766087Y-87737075D01*
X247486813Y-87679748D01*
X247217824Y-87592049D01*
X246839636Y-87546902D01*
X246462657Y-87469519D01*
X246174570Y-87467508D01*
X245890718Y-87433622D01*
X245513922Y-87462895D01*
X245132082Y-87460229D01*
X244846148Y-87514774D01*
X244558205Y-87537144D01*
X244197183Y-87638571D01*
X243825044Y-87709560D01*
X243552380Y-87819723D01*
X243271492Y-87898637D01*
X242939803Y-88067221D01*
X242591326Y-88208015D01*
X242342749Y-88370679D01*
X242080027Y-88504210D01*
X241846020Y-88660568D01*
X241768661Y-88746352D01*
X241477922Y-88936606D01*
X240527239Y-89867583D01*
X240262725Y-90253895D01*
X240160568Y-90346020D01*
X239982747Y-90662793D01*
X239775490Y-90965485D01*
X239654928Y-91246776D01*
X239506338Y-91511478D01*
X239394642Y-91854071D01*
X239251308Y-92188493D01*
X239187057Y-92490769D01*
X239092049Y-92782176D01*
X239049684Y-93137061D01*
X238974659Y-93490024D01*
X238970302Y-93802018D01*
X238933622Y-94109282D01*
X137016923Y-94109282D01*
X137014534Y-93582844D01*
X137004958Y-93489535D01*
X136996683Y-93396084D01*
X136993911Y-93381901D01*
X136742312Y-92140824D01*
X136714788Y-92051131D01*
X136688526Y-91961091D01*
X136683052Y-91947716D01*
X136195186Y-90779143D01*
X136150744Y-90696467D01*
X136107513Y-90613279D01*
X136099549Y-90601227D01*
X136099546Y-90601222D01*
X136099542Y-90601218D01*
X135393993Y-89549666D01*
X135334372Y-89477237D01*
X135275774Y-89403989D01*
X135265622Y-89393716D01*
X135265617Y-89393710D01*
X135265611Y-89393705D01*
X134369252Y-88499223D01*
X134296709Y-88439762D01*
X134224990Y-88379284D01*
X134213029Y-88371173D01*
X133159996Y-87667825D01*
X133077253Y-87623570D01*
X132995183Y-87578191D01*
X132981875Y-87572558D01*
X131812283Y-87087141D01*
X131722543Y-87059807D01*
X131633201Y-87031226D01*
X131619059Y-87028287D01*
X131619051Y-87028285D01*
X131619043Y-87028284D01*
X130377450Y-86779288D01*
X130284138Y-86769908D01*
X130190917Y-86759221D01*
X130176466Y-86759085D01*
X128910146Y-86755991D01*
X128816760Y-86764917D01*
X128723268Y-86772538D01*
X128709067Y-86775211D01*
X128709065Y-86775211D01*
X128709063Y-86775212D01*
X127466261Y-87018139D01*
X127376374Y-87045038D01*
X127286157Y-87070669D01*
X127272744Y-87076050D01*
X126100795Y-87555746D01*
X126017855Y-87599586D01*
X125934322Y-87642258D01*
X125922223Y-87650134D01*
X125922210Y-87650141D01*
X125922199Y-87650150D01*
X124865754Y-88348336D01*
X124792904Y-88407455D01*
X124719256Y-88465535D01*
X124708906Y-88475620D01*
X123808182Y-89365718D01*
X123748204Y-89437859D01*
X123687238Y-89509140D01*
X123679050Y-89521037D01*
X123679044Y-89521044D01*
X123679040Y-89521051D01*
X122968363Y-90569141D01*
X122921225Y-90655813D01*
X122873695Y-90742270D01*
X122872982Y-90744518D01*
X122871854Y-90746592D01*
X122842450Y-90840767D01*
X122812617Y-90934811D01*
X122812354Y-90937157D01*
X122811651Y-90939408D01*
X122801112Y-91037383D01*
X122790101Y-91135549D01*
X122790070Y-91140036D01*
X122790047Y-91140246D01*
X122790067Y-91140468D01*
X122790000Y-91150000D01*
X117300015Y-91150000D01*
X117145186Y-90779143D01*
X117100744Y-90696467D01*
X117057513Y-90613279D01*
X117049549Y-90601227D01*
X117049546Y-90601222D01*
X117049542Y-90601218D01*
X116343993Y-89549666D01*
X116284372Y-89477237D01*
X116225774Y-89403989D01*
X116215622Y-89393716D01*
X116215617Y-89393710D01*
X116215611Y-89393705D01*
X115319252Y-88499223D01*
X115246709Y-88439762D01*
X115174990Y-88379284D01*
X115163029Y-88371173D01*
X114109996Y-87667825D01*
X114027253Y-87623570D01*
X113945183Y-87578191D01*
X113931875Y-87572558D01*
X112762283Y-87087141D01*
X112672543Y-87059807D01*
X112583201Y-87031226D01*
X112569059Y-87028287D01*
X112569051Y-87028285D01*
X112569043Y-87028284D01*
X111327450Y-86779288D01*
X111234138Y-86769908D01*
X111140917Y-86759221D01*
X111126466Y-86759085D01*
X109860146Y-86755991D01*
X109766760Y-86764917D01*
X109673268Y-86772538D01*
X109659067Y-86775211D01*
X109659065Y-86775211D01*
X109659063Y-86775212D01*
X108416261Y-87018139D01*
X108326374Y-87045038D01*
X108236157Y-87070669D01*
X108222744Y-87076050D01*
X107050795Y-87555746D01*
X106967855Y-87599586D01*
X106884322Y-87642258D01*
X106872223Y-87650134D01*
X106872210Y-87650141D01*
X106872199Y-87650150D01*
X105815754Y-88348336D01*
X105742904Y-88407455D01*
X105669256Y-88465535D01*
X105658906Y-88475620D01*
X104758182Y-89365718D01*
X104698204Y-89437859D01*
X104637238Y-89509140D01*
X104629050Y-89521037D01*
X104629044Y-89521044D01*
X104629040Y-89521051D01*
X103918363Y-90569141D01*
X103871225Y-90655813D01*
X103823695Y-90742270D01*
X103822982Y-90744518D01*
X103821854Y-90746592D01*
X103792450Y-90840767D01*
X103762617Y-90934811D01*
X103762354Y-90937157D01*
X103761651Y-90939408D01*
X103751112Y-91037383D01*
X103740101Y-91135549D01*
X103740070Y-91140036D01*
X103740047Y-91140246D01*
X103740067Y-91140468D01*
X103740000Y-91150000D01*
X92217744Y-91150000D01*
X92178282Y-91123383D01*
X92146314Y-91079787D01*
X91979573Y-90989352D01*
X91820896Y-90882323D01*
X91649042Y-90810082D01*
X91486595Y-90721976D01*
X91306989Y-90666296D01*
X91132099Y-90592779D01*
X90947843Y-90554957D01*
X90769747Y-90499745D01*
X90584366Y-90480346D01*
X90400180Y-90442538D01*
X90210407Y-90441213D01*
X90023318Y-90421635D01*
X89839366Y-90438622D01*
X89653019Y-90437321D01*
X89464945Y-90473198D01*
X89275993Y-90490647D01*
X89100474Y-90542725D01*
X88919074Y-90577329D01*
X88739989Y-90649684D01*
X88556492Y-90704129D01*
X88395974Y-90788675D01*
X88226301Y-90857227D01*
X88063267Y-90963914D01*
X87892463Y-91053877D01*
X87853686Y-91079787D01*
X87823697Y-91120684D01*
X87601088Y-91266355D01*
X87067249Y-91789129D01*
X86874133Y-92071168D01*
X86829787Y-92103686D01*
X86745656Y-92258803D01*
X86645117Y-92405637D01*
X86566375Y-92589355D01*
X86471976Y-92763405D01*
X86420212Y-92930378D01*
X86350771Y-93092397D01*
X86308864Y-93289552D01*
X86249745Y-93480253D01*
X86231723Y-93652475D01*
X86195424Y-93823248D01*
X86192586Y-94026468D01*
X86171635Y-94226682D01*
X63767456Y-94226682D01*
X63764534Y-93582844D01*
X63754958Y-93489535D01*
X63746683Y-93396084D01*
X63743911Y-93381901D01*
X63492312Y-92140824D01*
X63464788Y-92051131D01*
X63438526Y-91961091D01*
X63433052Y-91947716D01*
X62945186Y-90779143D01*
X62900744Y-90696467D01*
X62857513Y-90613279D01*
X62849549Y-90601227D01*
X62849546Y-90601222D01*
X62849542Y-90601218D01*
X62143993Y-89549666D01*
X62084372Y-89477237D01*
X62025774Y-89403989D01*
X62015622Y-89393716D01*
X62015617Y-89393710D01*
X62015611Y-89393705D01*
X61119252Y-88499223D01*
X61046709Y-88439762D01*
X60974990Y-88379284D01*
X60963029Y-88371173D01*
X59909996Y-87667825D01*
X59827253Y-87623570D01*
X59745183Y-87578191D01*
X59731875Y-87572558D01*
X58562283Y-87087141D01*
X58472543Y-87059807D01*
X58383201Y-87031226D01*
X58369059Y-87028287D01*
X58369051Y-87028285D01*
X58369043Y-87028284D01*
X57127450Y-86779288D01*
X57034138Y-86769908D01*
X56940917Y-86759221D01*
X56926466Y-86759085D01*
X55660146Y-86755991D01*
X55566760Y-86764917D01*
X55473268Y-86772538D01*
X55459067Y-86775211D01*
X55459065Y-86775211D01*
X55459063Y-86775212D01*
X54216261Y-87018139D01*
X54126374Y-87045038D01*
X54036157Y-87070669D01*
X54022744Y-87076050D01*
X52850795Y-87555746D01*
X52767855Y-87599586D01*
X52684322Y-87642258D01*
X52672223Y-87650134D01*
X52672210Y-87650141D01*
X52672199Y-87650150D01*
X51615754Y-88348336D01*
X51542904Y-88407455D01*
X51469256Y-88465535D01*
X51458906Y-88475620D01*
X50558182Y-89365718D01*
X50498204Y-89437859D01*
X50437238Y-89509140D01*
X50429050Y-89521037D01*
X50429044Y-89521044D01*
X50429040Y-89521051D01*
X49718363Y-90569141D01*
X49671225Y-90655813D01*
X49623695Y-90742270D01*
X49622982Y-90744518D01*
X49621854Y-90746592D01*
X49592450Y-90840767D01*
X49562617Y-90934811D01*
X49562354Y-90937157D01*
X49561651Y-90939408D01*
X49551112Y-91037383D01*
X49540101Y-91135549D01*
X49540070Y-91140036D01*
X49540047Y-91140246D01*
X49540067Y-91140468D01*
X49540000Y-91150000D01*
X44050015Y-91150000D01*
X43895186Y-90779143D01*
X43850744Y-90696467D01*
X43807513Y-90613279D01*
X43799549Y-90601227D01*
X43799546Y-90601222D01*
X43799542Y-90601218D01*
X43093993Y-89549666D01*
X43034372Y-89477237D01*
X42975774Y-89403989D01*
X42965622Y-89393716D01*
X42965617Y-89393710D01*
X42965611Y-89393705D01*
X42069252Y-88499223D01*
X41996709Y-88439762D01*
X41924990Y-88379284D01*
X41913029Y-88371173D01*
X40859996Y-87667825D01*
X40777253Y-87623570D01*
X40695183Y-87578191D01*
X40681875Y-87572558D01*
X39512283Y-87087141D01*
X39422543Y-87059807D01*
X39333201Y-87031226D01*
X39319059Y-87028287D01*
X39319051Y-87028285D01*
X39319043Y-87028284D01*
X38077450Y-86779288D01*
X37984138Y-86769908D01*
X37890917Y-86759221D01*
X37876466Y-86759085D01*
X36610146Y-86755991D01*
X36516760Y-86764917D01*
X36423268Y-86772538D01*
X36409067Y-86775211D01*
X36409065Y-86775211D01*
X36409063Y-86775212D01*
X35166261Y-87018139D01*
X35076374Y-87045038D01*
X34986157Y-87070669D01*
X34972744Y-87076050D01*
X33800795Y-87555746D01*
X33717855Y-87599586D01*
X33634322Y-87642258D01*
X33622223Y-87650134D01*
X33622210Y-87650141D01*
X33622199Y-87650150D01*
X32565754Y-88348336D01*
X32492904Y-88407455D01*
X32419256Y-88465535D01*
X32408906Y-88475620D01*
X31508182Y-89365718D01*
X31448204Y-89437859D01*
X31387238Y-89509140D01*
X31379050Y-89521037D01*
X31379044Y-89521044D01*
X31379040Y-89521051D01*
X30668363Y-90569141D01*
X30621225Y-90655813D01*
X30573695Y-90742270D01*
X30572982Y-90744518D01*
X30571854Y-90746592D01*
X30542450Y-90840767D01*
X30512617Y-90934811D01*
X30512354Y-90937157D01*
X30511651Y-90939408D01*
X30501112Y-91037383D01*
X30490101Y-91135549D01*
X30490070Y-91140036D01*
X30490047Y-91140246D01*
X30490067Y-91140468D01*
X30490000Y-91150000D01*
X15735000Y-91150000D01*
X15735000Y-79072416D01*
X19927931Y-79072416D01*
X19937980Y-79164264D01*
X19936681Y-79257309D01*
X19965106Y-79412185D01*
X19982028Y-79566847D01*
X20009474Y-79653925D01*
X20026070Y-79744352D01*
X20084444Y-79891787D01*
X20131544Y-80041224D01*
X20178084Y-80128294D01*
X20208358Y-80204757D01*
X20270472Y-80301140D01*
X20340272Y-80431725D01*
X20362983Y-80444687D01*
X20476600Y-80620987D01*
X20820579Y-80977188D01*
X21065563Y-81147457D01*
X21078275Y-81169728D01*
X21155354Y-81209863D01*
X21227194Y-81259793D01*
X21376620Y-81325076D01*
X21519435Y-81399439D01*
X21601808Y-81423457D01*
X21680957Y-81458037D01*
X21841316Y-81493294D01*
X21996931Y-81538669D01*
X22081307Y-81546060D01*
X22164583Y-81564369D01*
X22329866Y-81567831D01*
X22492416Y-81582069D01*
X22575517Y-81572977D01*
X22659653Y-81574739D01*
X22823560Y-81545838D01*
X22986847Y-81527972D01*
X23065535Y-81503171D01*
X23147308Y-81488752D01*
X23303516Y-81428163D01*
X23461224Y-81378456D01*
X23539400Y-81336670D01*
X23608974Y-81309684D01*
X23710889Y-81245007D01*
X23851725Y-81169728D01*
X23864342Y-81147622D01*
X24027067Y-81044354D01*
X24385661Y-80702870D01*
X24568308Y-80443951D01*
X24589728Y-80431725D01*
X24625796Y-80362456D01*
X24671097Y-80298238D01*
X24741080Y-80141054D01*
X24819439Y-79990565D01*
X24840993Y-79916646D01*
X24872504Y-79845870D01*
X24910874Y-79676985D01*
X24958669Y-79513069D01*
X24965291Y-79437467D01*
X24982210Y-79362998D01*
X24984182Y-79221797D01*
X24997266Y-79072416D01*
X255007931Y-79072416D01*
X255017980Y-79164264D01*
X255016681Y-79257309D01*
X255045106Y-79412185D01*
X255062028Y-79566847D01*
X255089474Y-79653925D01*
X255106070Y-79744352D01*
X255164444Y-79891787D01*
X255211544Y-80041224D01*
X255258084Y-80128294D01*
X255288358Y-80204757D01*
X255350472Y-80301140D01*
X255420272Y-80431725D01*
X255442983Y-80444687D01*
X255556600Y-80620987D01*
X255900579Y-80977188D01*
X256145563Y-81147457D01*
X256158275Y-81169728D01*
X256235354Y-81209863D01*
X256307194Y-81259793D01*
X256456620Y-81325076D01*
X256599435Y-81399439D01*
X256681808Y-81423457D01*
X256760957Y-81458037D01*
X256921316Y-81493294D01*
X257076931Y-81538669D01*
X257161307Y-81546060D01*
X257244583Y-81564369D01*
X257409866Y-81567831D01*
X257572416Y-81582069D01*
X257655517Y-81572977D01*
X257739653Y-81574739D01*
X257903560Y-81545838D01*
X258066847Y-81527972D01*
X258145535Y-81503171D01*
X258227308Y-81488752D01*
X258383516Y-81428163D01*
X258541224Y-81378456D01*
X258619400Y-81336670D01*
X258688974Y-81309684D01*
X258790889Y-81245007D01*
X258931725Y-81169728D01*
X258944342Y-81147622D01*
X259107067Y-81044354D01*
X259465661Y-80702870D01*
X259648308Y-80443951D01*
X259669728Y-80431725D01*
X259705796Y-80362456D01*
X259751097Y-80298238D01*
X259821080Y-80141054D01*
X259899439Y-79990565D01*
X259920993Y-79916646D01*
X259952504Y-79845870D01*
X259990874Y-79676985D01*
X260038669Y-79513069D01*
X260045291Y-79437467D01*
X260062210Y-79362998D01*
X260064182Y-79221797D01*
X260082069Y-79017584D01*
X260068735Y-78895717D01*
X260070108Y-78797411D01*
X260043000Y-78660508D01*
X260027972Y-78523153D01*
X259995240Y-78419303D01*
X259973927Y-78311664D01*
X259920324Y-78181613D01*
X259878456Y-78048776D01*
X259822170Y-77943474D01*
X259785230Y-77853849D01*
X259729141Y-77769429D01*
X259669728Y-77658275D01*
X259646471Y-77645001D01*
X259511202Y-77441405D01*
X259162283Y-77090041D01*
X258944955Y-76943451D01*
X258931725Y-76920272D01*
X258839042Y-76872012D01*
X258751762Y-76813141D01*
X258617964Y-76756897D01*
X258490565Y-76690561D01*
X258391305Y-76661618D01*
X258295275Y-76621251D01*
X258152000Y-76591841D01*
X258013069Y-76551331D01*
X257911168Y-76542405D01*
X257810211Y-76521682D01*
X257662828Y-76520653D01*
X257517584Y-76507931D01*
X257416995Y-76518937D01*
X257315045Y-76518225D01*
X257169173Y-76546052D01*
X257023153Y-76562028D01*
X256927686Y-76592118D01*
X256828638Y-76611012D01*
X256689921Y-76667057D01*
X256548776Y-76711544D01*
X256452677Y-76762910D01*
X256369517Y-76796509D01*
X256278990Y-76855748D01*
X256158275Y-76920272D01*
X256145093Y-76943368D01*
X255955170Y-77067650D01*
X255601379Y-77414108D01*
X255443126Y-77645231D01*
X255420272Y-77658275D01*
X255376073Y-77743160D01*
X255321620Y-77822686D01*
X255260917Y-77964316D01*
X255190561Y-78099435D01*
X255164079Y-78190255D01*
X255126548Y-78277822D01*
X255094277Y-78429646D01*
X255051331Y-78576931D01*
X255043173Y-78670074D01*
X255023595Y-78762179D01*
X255021412Y-78918507D01*
X255007931Y-79072416D01*
X24997266Y-79072416D01*
X25002069Y-79017584D01*
X24988735Y-78895717D01*
X24990108Y-78797411D01*
X24963000Y-78660508D01*
X24947972Y-78523153D01*
X24915240Y-78419303D01*
X24893927Y-78311664D01*
X24840324Y-78181613D01*
X24798456Y-78048776D01*
X24742170Y-77943474D01*
X24705230Y-77853849D01*
X24649141Y-77769429D01*
X24589728Y-77658275D01*
X24566471Y-77645001D01*
X24431202Y-77441405D01*
X24082283Y-77090041D01*
X23864955Y-76943451D01*
X23851725Y-76920272D01*
X23759042Y-76872012D01*
X23671762Y-76813141D01*
X23537964Y-76756897D01*
X23410565Y-76690561D01*
X23311305Y-76661618D01*
X23215275Y-76621251D01*
X23072000Y-76591841D01*
X22933069Y-76551331D01*
X22831168Y-76542405D01*
X22730211Y-76521682D01*
X22582828Y-76520653D01*
X22437584Y-76507931D01*
X22336995Y-76518937D01*
X22235045Y-76518225D01*
X22089173Y-76546052D01*
X21943153Y-76562028D01*
X21847686Y-76592118D01*
X21748638Y-76611012D01*
X21609921Y-76667057D01*
X21468776Y-76711544D01*
X21372677Y-76762910D01*
X21289517Y-76796509D01*
X21198990Y-76855748D01*
X21078275Y-76920272D01*
X21065093Y-76943368D01*
X20875170Y-77067650D01*
X20521379Y-77414108D01*
X20363126Y-77645231D01*
X20340272Y-77658275D01*
X20296073Y-77743160D01*
X20241620Y-77822686D01*
X20180917Y-77964316D01*
X20110561Y-78099435D01*
X20084079Y-78190255D01*
X20046548Y-78277822D01*
X20014277Y-78429646D01*
X19971331Y-78576931D01*
X19963173Y-78670074D01*
X19943595Y-78762179D01*
X19941412Y-78918507D01*
X19927931Y-79072416D01*
X15735000Y-79072416D01*
X15735000Y-75282946D01*
X33353687Y-75282946D01*
X33363043Y-75366189D01*
X33361865Y-75450537D01*
X33389359Y-75600339D01*
X33406158Y-75749811D01*
X33431261Y-75828646D01*
X33446298Y-75910576D01*
X33502755Y-76053170D01*
X33548703Y-76197468D01*
X33591838Y-76278168D01*
X33618478Y-76345453D01*
X33673135Y-76430265D01*
X33739234Y-76553927D01*
X33760199Y-76565362D01*
X33871847Y-76738606D01*
X34196755Y-77075057D01*
X34435156Y-77240750D01*
X34446073Y-77260766D01*
X34515872Y-77296850D01*
X34580825Y-77341993D01*
X34725259Y-77405095D01*
X34863409Y-77476513D01*
X34937904Y-77497997D01*
X35009428Y-77529245D01*
X35164411Y-77563320D01*
X35314815Y-77606696D01*
X35391030Y-77613146D01*
X35466240Y-77629682D01*
X35625960Y-77633028D01*
X35782946Y-77646313D01*
X35857923Y-77637886D01*
X35933860Y-77639477D01*
X36092224Y-77611553D01*
X36249811Y-77593842D01*
X36320717Y-77571264D01*
X36394477Y-77558258D01*
X36545395Y-77499721D01*
X36697468Y-77451297D01*
X36769493Y-77412799D01*
X36830546Y-77389118D01*
X36919972Y-77332366D01*
X37053927Y-77260766D01*
X37065113Y-77240256D01*
X37225457Y-77138499D01*
X37564169Y-76815949D01*
X37741649Y-76564354D01*
X37760766Y-76553927D01*
X37793029Y-76491518D01*
X37833779Y-76433751D01*
X37901350Y-76281985D01*
X37976513Y-76136591D01*
X37995691Y-76070091D01*
X38024019Y-76006466D01*
X38061064Y-75843412D01*
X38106696Y-75685185D01*
X38112444Y-75617264D01*
X38127643Y-75550366D01*
X38129527Y-75415399D01*
X38140736Y-75282946D01*
X126353687Y-75282946D01*
X126363043Y-75366189D01*
X126361865Y-75450537D01*
X126389359Y-75600339D01*
X126406158Y-75749811D01*
X126431261Y-75828646D01*
X126446298Y-75910576D01*
X126502755Y-76053170D01*
X126548703Y-76197468D01*
X126591838Y-76278168D01*
X126618478Y-76345453D01*
X126673135Y-76430265D01*
X126739234Y-76553927D01*
X126760199Y-76565362D01*
X126871847Y-76738606D01*
X127196755Y-77075057D01*
X127435156Y-77240750D01*
X127446073Y-77260766D01*
X127515872Y-77296850D01*
X127580825Y-77341993D01*
X127725259Y-77405095D01*
X127863409Y-77476513D01*
X127937904Y-77497997D01*
X128009428Y-77529245D01*
X128164411Y-77563320D01*
X128314815Y-77606696D01*
X128391030Y-77613146D01*
X128466240Y-77629682D01*
X128625960Y-77633028D01*
X128782946Y-77646313D01*
X128857923Y-77637886D01*
X128933860Y-77639477D01*
X129092224Y-77611553D01*
X129249811Y-77593842D01*
X129320717Y-77571264D01*
X129394477Y-77558258D01*
X129545395Y-77499721D01*
X129697468Y-77451297D01*
X129769493Y-77412799D01*
X129830546Y-77389118D01*
X129919972Y-77332366D01*
X130053927Y-77260766D01*
X130065113Y-77240256D01*
X130225457Y-77138499D01*
X130564169Y-76815949D01*
X130741649Y-76564354D01*
X130760766Y-76553927D01*
X130793029Y-76491518D01*
X130833779Y-76433751D01*
X130901350Y-76281985D01*
X130976513Y-76136591D01*
X130995691Y-76070091D01*
X131024019Y-76006466D01*
X131061064Y-75843412D01*
X131106696Y-75685185D01*
X131112444Y-75617264D01*
X131127643Y-75550366D01*
X131129527Y-75415399D01*
X131146313Y-75217054D01*
X131133846Y-75106124D01*
X131135102Y-75016139D01*
X131108807Y-74883338D01*
X131093842Y-74750189D01*
X131063698Y-74655523D01*
X131044254Y-74557324D01*
X130992263Y-74431185D01*
X130951297Y-74302532D01*
X130898604Y-74203950D01*
X130866019Y-74124893D01*
X130816546Y-74050429D01*
X130760766Y-73946073D01*
X130739508Y-73934478D01*
X130607185Y-73735316D01*
X130277612Y-73403434D01*
X130065423Y-73260311D01*
X130053927Y-73239234D01*
X129969362Y-73195517D01*
X129889852Y-73141887D01*
X129760180Y-73087378D01*
X129636591Y-73023487D01*
X129546124Y-72997397D01*
X129458676Y-72960637D01*
X129319842Y-72932138D01*
X129185185Y-72893304D01*
X129092406Y-72885452D01*
X129000507Y-72866588D01*
X128857719Y-72865591D01*
X128717054Y-72853687D01*
X128625555Y-72863971D01*
X128532795Y-72863323D01*
X128391507Y-72890275D01*
X128250189Y-72906158D01*
X128163435Y-72933783D01*
X128073357Y-72950966D01*
X127939019Y-73005242D01*
X127802532Y-73048703D01*
X127712991Y-73096564D01*
X127639693Y-73126178D01*
X127559905Y-73178390D01*
X127446073Y-73239234D01*
X127434500Y-73260452D01*
X127248319Y-73382285D01*
X126914144Y-73709534D01*
X126759900Y-73934801D01*
X126739234Y-73946073D01*
X126699332Y-74023259D01*
X126649896Y-74095458D01*
X126591147Y-74232528D01*
X126523487Y-74363409D01*
X126499700Y-74445891D01*
X126465640Y-74525358D01*
X126434412Y-74672274D01*
X126393304Y-74814815D01*
X126386153Y-74899316D01*
X126368395Y-74982860D01*
X126366283Y-75134104D01*
X126353687Y-75282946D01*
X38140736Y-75282946D01*
X38146313Y-75217054D01*
X38133846Y-75106124D01*
X38135102Y-75016139D01*
X38108807Y-74883338D01*
X38093842Y-74750189D01*
X38063698Y-74655523D01*
X38044254Y-74557324D01*
X37992263Y-74431185D01*
X37951297Y-74302532D01*
X37898604Y-74203950D01*
X37866019Y-74124893D01*
X37816546Y-74050429D01*
X37760766Y-73946073D01*
X37739508Y-73934478D01*
X37607185Y-73735316D01*
X37277612Y-73403434D01*
X37065423Y-73260311D01*
X37053927Y-73239234D01*
X36969362Y-73195517D01*
X36889852Y-73141887D01*
X36760180Y-73087378D01*
X36636591Y-73023487D01*
X36546124Y-72997397D01*
X36458676Y-72960637D01*
X36319842Y-72932138D01*
X36185185Y-72893304D01*
X36092406Y-72885452D01*
X36000507Y-72866588D01*
X35857719Y-72865591D01*
X35717054Y-72853687D01*
X35625555Y-72863971D01*
X35532795Y-72863323D01*
X35391507Y-72890275D01*
X35250189Y-72906158D01*
X35163435Y-72933783D01*
X35073357Y-72950966D01*
X34939019Y-73005242D01*
X34802532Y-73048703D01*
X34712991Y-73096564D01*
X34639693Y-73126178D01*
X34559905Y-73178390D01*
X34446073Y-73239234D01*
X34434500Y-73260452D01*
X34248319Y-73382285D01*
X33914144Y-73709534D01*
X33759900Y-73934801D01*
X33739234Y-73946073D01*
X33699332Y-74023259D01*
X33649896Y-74095458D01*
X33591147Y-74232528D01*
X33523487Y-74363409D01*
X33499700Y-74445891D01*
X33465640Y-74525358D01*
X33434412Y-74672274D01*
X33393304Y-74814815D01*
X33386153Y-74899316D01*
X33368395Y-74982860D01*
X33366283Y-75134104D01*
X33353687Y-75282946D01*
X15735000Y-75282946D01*
X15735000Y-47322416D01*
X19927931Y-47322416D01*
X19937980Y-47414264D01*
X19936681Y-47507309D01*
X19965106Y-47662185D01*
X19982028Y-47816847D01*
X20009474Y-47903925D01*
X20026070Y-47994352D01*
X20084444Y-48141787D01*
X20131544Y-48291224D01*
X20178084Y-48378294D01*
X20208358Y-48454757D01*
X20270472Y-48551140D01*
X20340272Y-48681725D01*
X20362983Y-48694687D01*
X20476600Y-48870987D01*
X20820579Y-49227188D01*
X21065563Y-49397457D01*
X21078275Y-49419728D01*
X21155354Y-49459863D01*
X21227194Y-49509793D01*
X21376620Y-49575076D01*
X21519435Y-49649439D01*
X21601808Y-49673457D01*
X21680957Y-49708037D01*
X21841316Y-49743294D01*
X21996931Y-49788669D01*
X22081307Y-49796060D01*
X22164583Y-49814369D01*
X22329866Y-49817831D01*
X22492416Y-49832069D01*
X22575517Y-49822977D01*
X22659653Y-49824739D01*
X22823560Y-49795838D01*
X22986847Y-49777972D01*
X23065535Y-49753171D01*
X23147308Y-49738752D01*
X23303516Y-49678163D01*
X23461224Y-49628456D01*
X23539400Y-49586670D01*
X23608974Y-49559684D01*
X23710889Y-49495007D01*
X23851725Y-49419728D01*
X23864342Y-49397622D01*
X24027067Y-49294354D01*
X24385661Y-48952870D01*
X24568308Y-48693951D01*
X24589728Y-48681725D01*
X24625796Y-48612456D01*
X24671097Y-48548238D01*
X24741080Y-48391054D01*
X24819439Y-48240565D01*
X24840993Y-48166646D01*
X24872504Y-48095870D01*
X24910874Y-47926985D01*
X24958669Y-47763069D01*
X24965291Y-47687467D01*
X24982210Y-47612998D01*
X24984182Y-47471797D01*
X25002069Y-47267584D01*
X24988735Y-47145717D01*
X24990108Y-47047411D01*
X24963000Y-46910508D01*
X24947972Y-46773153D01*
X24915240Y-46669303D01*
X24893927Y-46561664D01*
X24840324Y-46431613D01*
X24798456Y-46298776D01*
X24742170Y-46193474D01*
X24705230Y-46103849D01*
X24649141Y-46019429D01*
X24589728Y-45908275D01*
X24566471Y-45895001D01*
X24431202Y-45691405D01*
X24082283Y-45340041D01*
X23864955Y-45193451D01*
X23851725Y-45170272D01*
X23759042Y-45122012D01*
X23671762Y-45063141D01*
X23537964Y-45006897D01*
X23410565Y-44940561D01*
X23311305Y-44911618D01*
X23215275Y-44871251D01*
X23072000Y-44841841D01*
X22933069Y-44801331D01*
X22831168Y-44792405D01*
X22730211Y-44771682D01*
X22582828Y-44770653D01*
X22437584Y-44757931D01*
X22336995Y-44768937D01*
X22235045Y-44768225D01*
X22089173Y-44796052D01*
X21943153Y-44812028D01*
X21847686Y-44842118D01*
X21748638Y-44861012D01*
X21609921Y-44917057D01*
X21468776Y-44961544D01*
X21372677Y-45012910D01*
X21289517Y-45046509D01*
X21198990Y-45105748D01*
X21078275Y-45170272D01*
X21065093Y-45193368D01*
X20875170Y-45317650D01*
X20521379Y-45664108D01*
X20363126Y-45895231D01*
X20340272Y-45908275D01*
X20296073Y-45993160D01*
X20241620Y-46072686D01*
X20180917Y-46214316D01*
X20110561Y-46349435D01*
X20084079Y-46440255D01*
X20046548Y-46527822D01*
X20014277Y-46679646D01*
X19971331Y-46826931D01*
X19963173Y-46920074D01*
X19943595Y-47012179D01*
X19941412Y-47168507D01*
X19927931Y-47322416D01*
X15735000Y-47322416D01*
X15735000Y-27650000D01*
X32315000Y-27650000D01*
X32315000Y-67850000D01*
X32324508Y-67946977D01*
X32333333Y-68043940D01*
X32334357Y-68047418D01*
X32334711Y-68051033D01*
X32362882Y-68144338D01*
X32390365Y-68237718D01*
X32392046Y-68240933D01*
X32393095Y-68244408D01*
X32438810Y-68330385D01*
X32483949Y-68416728D01*
X32486225Y-68419558D01*
X32487927Y-68422760D01*
X32549457Y-68498204D01*
X32610521Y-68574152D01*
X32613302Y-68576485D01*
X32615594Y-68579296D01*
X32690658Y-68641394D01*
X32765259Y-68703992D01*
X32768436Y-68705739D01*
X32771235Y-68708054D01*
X32856945Y-68754397D01*
X32942270Y-68801305D01*
X32945730Y-68802403D01*
X32948921Y-68804128D01*
X33041912Y-68832914D01*
X33134811Y-68862383D01*
X33138420Y-68862788D01*
X33141884Y-68863860D01*
X33238734Y-68874040D01*
X33335549Y-68884899D01*
X33342514Y-68884948D01*
X33342774Y-68884975D01*
X33343034Y-68884951D01*
X33350000Y-68885000D01*
X131150000Y-68885000D01*
X131246977Y-68875492D01*
X131343940Y-68866667D01*
X131347418Y-68865643D01*
X131351033Y-68865289D01*
X131444338Y-68837118D01*
X131537718Y-68809635D01*
X131540933Y-68807954D01*
X131544408Y-68806905D01*
X131630385Y-68761190D01*
X131716728Y-68716051D01*
X131719558Y-68713775D01*
X131722760Y-68712073D01*
X131798204Y-68650543D01*
X131874152Y-68589479D01*
X131876485Y-68586698D01*
X131879296Y-68584406D01*
X131941394Y-68509342D01*
X132003992Y-68434741D01*
X132005739Y-68431564D01*
X132008054Y-68428765D01*
X132054397Y-68343055D01*
X132101305Y-68257730D01*
X132102403Y-68254270D01*
X132104128Y-68251079D01*
X132132914Y-68158088D01*
X132162383Y-68065189D01*
X132162788Y-68061580D01*
X132163860Y-68058116D01*
X132174040Y-67961266D01*
X132184899Y-67864451D01*
X132184948Y-67857486D01*
X132184975Y-67857226D01*
X132184951Y-67856966D01*
X132185000Y-67850000D01*
X132185000Y-60350000D01*
X240465000Y-60350000D01*
X240465000Y-65650000D01*
X240484711Y-65851033D01*
X240495132Y-65885547D01*
X240495530Y-65889531D01*
X240554289Y-66082792D01*
X240649468Y-66260960D01*
X240657572Y-66272925D01*
X240870938Y-66583240D01*
X240911384Y-66631252D01*
X240948162Y-66682130D01*
X240957806Y-66692893D01*
X241616574Y-67417846D01*
X241686138Y-67480787D01*
X241754808Y-67544685D01*
X241766358Y-67553370D01*
X242553390Y-68136562D01*
X242633856Y-68184793D01*
X242713629Y-68234136D01*
X242726646Y-68240412D01*
X243611965Y-68659629D01*
X243700274Y-68691315D01*
X243788106Y-68724221D01*
X243802090Y-68727848D01*
X243802093Y-68727849D01*
X243802095Y-68727849D01*
X244751980Y-68967122D01*
X244844733Y-68981048D01*
X244937311Y-68996272D01*
X244951727Y-68997112D01*
X244951738Y-68997114D01*
X244951748Y-68997114D01*
X245930007Y-69047328D01*
X246023718Y-69042972D01*
X246117469Y-69039925D01*
X246131774Y-69037950D01*
X246131786Y-69037949D01*
X246131797Y-69037946D01*
X247101176Y-68897194D01*
X247192269Y-68874716D01*
X247283631Y-68853520D01*
X247297288Y-68848802D01*
X247297294Y-68848800D01*
X248220881Y-68522439D01*
X248305875Y-68482695D01*
X248391378Y-68444158D01*
X248403852Y-68436880D01*
X248403861Y-68436876D01*
X248403868Y-68436871D01*
X249246472Y-67937335D01*
X249322099Y-67881860D01*
X249398518Y-67827428D01*
X249409340Y-67817865D01*
X249409347Y-67817860D01*
X249409352Y-67817854D01*
X250138883Y-67164168D01*
X250202329Y-67095022D01*
X250266684Y-67026822D01*
X250275449Y-67015333D01*
X250864121Y-66232390D01*
X250912915Y-66152259D01*
X250962811Y-66072837D01*
X250969178Y-66059864D01*
X250969179Y-66059863D01*
X250969181Y-66059859D01*
X251394565Y-65177493D01*
X251426871Y-65089396D01*
X251460385Y-65001808D01*
X251464111Y-64987845D01*
X251710009Y-64039654D01*
X251724587Y-63946971D01*
X251740451Y-63854531D01*
X251741394Y-63840111D01*
X251798438Y-62862216D01*
X251794736Y-62768466D01*
X251792343Y-62674705D01*
X251790467Y-62660376D01*
X251656484Y-61690026D01*
X251634639Y-61598765D01*
X251614084Y-61507270D01*
X251609464Y-61493592D01*
X251609461Y-61493578D01*
X251609456Y-61493566D01*
X251289553Y-60567731D01*
X251250422Y-60482504D01*
X251212465Y-60396692D01*
X251205269Y-60384160D01*
X251205269Y-60384159D01*
X251205266Y-60384155D01*
X250711624Y-59538083D01*
X250656669Y-59462057D01*
X250602781Y-59385274D01*
X250593289Y-59374377D01*
X249944708Y-58640296D01*
X249876025Y-58576386D01*
X249808257Y-58511538D01*
X249796834Y-58502698D01*
X249796829Y-58502693D01*
X249796824Y-58502690D01*
X249018015Y-57908570D01*
X248938233Y-57859222D01*
X248859156Y-57808769D01*
X248846230Y-57802314D01*
X248846226Y-57802311D01*
X248846222Y-57802309D01*
X247966847Y-57370775D01*
X247879018Y-57337869D01*
X247791626Y-57303729D01*
X247777699Y-57299910D01*
X247777689Y-57299906D01*
X247777679Y-57299904D01*
X246831237Y-57047395D01*
X246738700Y-57032177D01*
X246646331Y-57015660D01*
X246631918Y-57014617D01*
X245654445Y-56950747D01*
X245560662Y-56953795D01*
X245466896Y-56955533D01*
X245452554Y-56957309D01*
X244481292Y-57084515D01*
X244389911Y-57105716D01*
X244298247Y-57125637D01*
X244284523Y-57130165D01*
X243356465Y-57443600D01*
X243270910Y-57482160D01*
X243184891Y-57519494D01*
X243172308Y-57526601D01*
X242322805Y-58014329D01*
X242246404Y-58068747D01*
X242169240Y-58122102D01*
X242158283Y-58131514D01*
X242158277Y-58131518D01*
X242158272Y-58131523D01*
X241419687Y-58774959D01*
X241355313Y-58843179D01*
X241289980Y-58910507D01*
X241281060Y-58921868D01*
X241281054Y-58921874D01*
X241281050Y-58921881D01*
X240681509Y-59696520D01*
X240574053Y-59867563D01*
X240501867Y-60056221D01*
X240489277Y-60129577D01*
X240487617Y-60134811D01*
X240486179Y-60147627D01*
X240467699Y-60255307D01*
X240468885Y-60301809D01*
X240465101Y-60335549D01*
X240465000Y-60350000D01*
X132185000Y-60350000D01*
X132185000Y-47322416D01*
X255007931Y-47322416D01*
X255017980Y-47414264D01*
X255016681Y-47507309D01*
X255045106Y-47662185D01*
X255062028Y-47816847D01*
X255089474Y-47903925D01*
X255106070Y-47994352D01*
X255164444Y-48141787D01*
X255211544Y-48291224D01*
X255258084Y-48378294D01*
X255288358Y-48454757D01*
X255350472Y-48551140D01*
X255420272Y-48681725D01*
X255442983Y-48694687D01*
X255556600Y-48870987D01*
X255900579Y-49227188D01*
X256145563Y-49397457D01*
X256158275Y-49419728D01*
X256235354Y-49459863D01*
X256307194Y-49509793D01*
X256456620Y-49575076D01*
X256599435Y-49649439D01*
X256681808Y-49673457D01*
X256760957Y-49708037D01*
X256921316Y-49743294D01*
X257076931Y-49788669D01*
X257161307Y-49796060D01*
X257244583Y-49814369D01*
X257409866Y-49817831D01*
X257572416Y-49832069D01*
X257655517Y-49822977D01*
X257739653Y-49824739D01*
X257903560Y-49795838D01*
X258066847Y-49777972D01*
X258145535Y-49753171D01*
X258227308Y-49738752D01*
X258383516Y-49678163D01*
X258541224Y-49628456D01*
X258619400Y-49586670D01*
X258688974Y-49559684D01*
X258790889Y-49495007D01*
X258931725Y-49419728D01*
X258944342Y-49397622D01*
X259107067Y-49294354D01*
X259465661Y-48952870D01*
X259648308Y-48693951D01*
X259669728Y-48681725D01*
X259705796Y-48612456D01*
X259751097Y-48548238D01*
X259821080Y-48391054D01*
X259899439Y-48240565D01*
X259920993Y-48166646D01*
X259952504Y-48095870D01*
X259990874Y-47926985D01*
X260038669Y-47763069D01*
X260045291Y-47687467D01*
X260062210Y-47612998D01*
X260064182Y-47471797D01*
X260082069Y-47267584D01*
X260068735Y-47145717D01*
X260070108Y-47047411D01*
X260043000Y-46910508D01*
X260027972Y-46773153D01*
X259995240Y-46669303D01*
X259973927Y-46561664D01*
X259920324Y-46431613D01*
X259878456Y-46298776D01*
X259822170Y-46193474D01*
X259785230Y-46103849D01*
X259729141Y-46019429D01*
X259669728Y-45908275D01*
X259646471Y-45895001D01*
X259511202Y-45691405D01*
X259162283Y-45340041D01*
X258944955Y-45193451D01*
X258931725Y-45170272D01*
X258839042Y-45122012D01*
X258751762Y-45063141D01*
X258617964Y-45006897D01*
X258490565Y-44940561D01*
X258391305Y-44911618D01*
X258295275Y-44871251D01*
X258152000Y-44841841D01*
X258013069Y-44801331D01*
X257911168Y-44792405D01*
X257810211Y-44771682D01*
X257662828Y-44770653D01*
X257517584Y-44757931D01*
X257416995Y-44768937D01*
X257315045Y-44768225D01*
X257169173Y-44796052D01*
X257023153Y-44812028D01*
X256927686Y-44842118D01*
X256828638Y-44861012D01*
X256689921Y-44917057D01*
X256548776Y-44961544D01*
X256452677Y-45012910D01*
X256369517Y-45046509D01*
X256278990Y-45105748D01*
X256158275Y-45170272D01*
X256145093Y-45193368D01*
X255955170Y-45317650D01*
X255601379Y-45664108D01*
X255443126Y-45895231D01*
X255420272Y-45908275D01*
X255376073Y-45993160D01*
X255321620Y-46072686D01*
X255260917Y-46214316D01*
X255190561Y-46349435D01*
X255164079Y-46440255D01*
X255126548Y-46527822D01*
X255094277Y-46679646D01*
X255051331Y-46826931D01*
X255043173Y-46920074D01*
X255023595Y-47012179D01*
X255021412Y-47168507D01*
X255007931Y-47322416D01*
X132185000Y-47322416D01*
X132185000Y-31953986D01*
X241344024Y-31953986D01*
X241362150Y-32160057D01*
X241359236Y-32368703D01*
X241400072Y-32591200D01*
X241419707Y-32814434D01*
X241477152Y-33011179D01*
X241514472Y-33214518D01*
X241598462Y-33426652D01*
X241661801Y-33643583D01*
X241755644Y-33823650D01*
X241831038Y-34014073D01*
X241955679Y-34207477D01*
X242061001Y-34409570D01*
X242112128Y-34486088D01*
X242158617Y-34522375D01*
X242296877Y-34736912D01*
X242894243Y-35355503D01*
X243220505Y-35582261D01*
X243263912Y-35637872D01*
X243436983Y-35732717D01*
X243600384Y-35846284D01*
X243816544Y-35940722D01*
X244021395Y-36052983D01*
X244207829Y-36111670D01*
X244388404Y-36190561D01*
X244620690Y-36241633D01*
X244845307Y-36312339D01*
X245037703Y-36333319D01*
X245228286Y-36375222D01*
X245468011Y-36380243D01*
X245498015Y-36383515D01*
X245484241Y-36386143D01*
X245368325Y-36402039D01*
X245328147Y-36415919D01*
X245286138Y-36423933D01*
X245175139Y-36468779D01*
X245063912Y-36507205D01*
X245014002Y-36533883D01*
X244988846Y-36544046D01*
X244961464Y-36561964D01*
X244889956Y-36600186D01*
X244885887Y-36611421D01*
X244720546Y-36719617D01*
X244491457Y-36943957D01*
X244359585Y-37136552D01*
X244350186Y-37139956D01*
X244332841Y-37175610D01*
X244310306Y-37208522D01*
X244261987Y-37321258D01*
X244209296Y-37429571D01*
X244199420Y-37467239D01*
X244183993Y-37503233D01*
X244158337Y-37623935D01*
X244127616Y-37741108D01*
X244125322Y-37779259D01*
X244117328Y-37816866D01*
X244115595Y-37941001D01*
X244108282Y-38062595D01*
X244113378Y-38099754D01*
X244112851Y-38137475D01*
X244135396Y-38260312D01*
X244152039Y-38381675D01*
X244164053Y-38416450D01*
X244170733Y-38452848D01*
X244216985Y-38569668D01*
X244257205Y-38686088D01*
X244279861Y-38728475D01*
X244288768Y-38750971D01*
X244307042Y-38779327D01*
X244350186Y-38860044D01*
X244361763Y-38864237D01*
X244462461Y-39020491D01*
X244685197Y-39251140D01*
X244886876Y-39391310D01*
X244889956Y-39399814D01*
X244920468Y-39414657D01*
X244948490Y-39434133D01*
X245066345Y-39485622D01*
X245179571Y-39540704D01*
X245211707Y-39549129D01*
X245242313Y-39562501D01*
X245368665Y-39590281D01*
X245491108Y-39622384D01*
X245523549Y-39624335D01*
X245555473Y-39631354D01*
X245685579Y-39634079D01*
X245812595Y-39641718D01*
X245844085Y-39637400D01*
X245876043Y-39638069D01*
X246004939Y-39615341D01*
X246131675Y-39597961D01*
X246161042Y-39587815D01*
X246191811Y-39582390D01*
X246314550Y-39534783D01*
X246436088Y-39492795D01*
X246471232Y-39474010D01*
X246490752Y-39466439D01*
X246519345Y-39448294D01*
X246610044Y-39399814D01*
X246614314Y-39388024D01*
X246761477Y-39294632D01*
X246993676Y-39073512D01*
X247142355Y-38862745D01*
X247149814Y-38860044D01*
X247162152Y-38834682D01*
X247178503Y-38811503D01*
X247233286Y-38688459D01*
X247290704Y-38570429D01*
X247297677Y-38543833D01*
X247308919Y-38518583D01*
X247338928Y-38386496D01*
X247372384Y-38258892D01*
X247373991Y-38232165D01*
X247379956Y-38205911D01*
X247381282Y-38110931D01*
X247391718Y-37937405D01*
X247384446Y-37884376D01*
X247385070Y-37839680D01*
X247363101Y-37728729D01*
X247347961Y-37618325D01*
X247332218Y-37572754D01*
X247322791Y-37525146D01*
X247279408Y-37419891D01*
X247242795Y-37313912D01*
X247211910Y-37256129D01*
X247200604Y-37228700D01*
X247183440Y-37202866D01*
X247149814Y-37139956D01*
X247139053Y-37136059D01*
X247023165Y-36961632D01*
X246797231Y-36734115D01*
X246613720Y-36610336D01*
X246610044Y-36600186D01*
X246569251Y-36580341D01*
X246531408Y-36554816D01*
X246423777Y-36509572D01*
X246320429Y-36459296D01*
X246277234Y-36447971D01*
X246235822Y-36430563D01*
X246120725Y-36406937D01*
X246066748Y-36392785D01*
X246088041Y-36393231D01*
X246326081Y-36351258D01*
X246564434Y-36330293D01*
X246746561Y-36277116D01*
X246934919Y-36243903D01*
X247162082Y-36155792D01*
X247393583Y-36088199D01*
X247560144Y-36001395D01*
X247736664Y-35932927D01*
X247944022Y-35801334D01*
X248159570Y-35688999D01*
X248236088Y-35637872D01*
X248269945Y-35594496D01*
X248462738Y-35472146D01*
X249085484Y-34879113D01*
X249331930Y-34529753D01*
X249387872Y-34486088D01*
X249475394Y-34326381D01*
X249581183Y-34176415D01*
X249683437Y-33946749D01*
X249802983Y-33728605D01*
X249857091Y-33556716D01*
X249930954Y-33390818D01*
X249987084Y-33143759D01*
X250062339Y-32904693D01*
X250081667Y-32727454D01*
X250121473Y-32552245D01*
X250124513Y-32334540D01*
X250155976Y-32046014D01*
X250132300Y-31776841D01*
X250135188Y-31570029D01*
X250097262Y-31378490D01*
X250080293Y-31185566D01*
X250014327Y-30959640D01*
X249968157Y-30726463D01*
X249893013Y-30544149D01*
X249838199Y-30356417D01*
X249730305Y-30149390D01*
X249640459Y-29931406D01*
X249530263Y-29765548D01*
X249438999Y-29590430D01*
X249387872Y-29513912D01*
X249336365Y-29473709D01*
X249164574Y-29215142D01*
X248558628Y-28604951D01*
X248277739Y-28415489D01*
X248236088Y-28362128D01*
X248036335Y-28252661D01*
X247845703Y-28124078D01*
X247656800Y-28044670D01*
X247478605Y-27947017D01*
X247263152Y-27879195D01*
X247052954Y-27790836D01*
X246850317Y-27749241D01*
X246654693Y-27687661D01*
X246432041Y-27663381D01*
X246210575Y-27617921D01*
X246001789Y-27616463D01*
X245796014Y-27594024D01*
X245574794Y-27613482D01*
X245350653Y-27611917D01*
X245143654Y-27651404D01*
X244935566Y-27669707D01*
X244724223Y-27731415D01*
X244505942Y-27773054D01*
X244308758Y-27852722D01*
X244106417Y-27911801D01*
X243912855Y-28012677D01*
X243708617Y-28095195D01*
X243529051Y-28212700D01*
X243340430Y-28311001D01*
X243263912Y-28362128D01*
X243225502Y-28411336D01*
X242989048Y-28566068D01*
X242374642Y-29167738D01*
X242166868Y-29471185D01*
X242112128Y-29513912D01*
X242009965Y-29700336D01*
X241888803Y-29877289D01*
X241801981Y-30079859D01*
X241697017Y-30271395D01*
X241633759Y-30472350D01*
X241550035Y-30667693D01*
X241503808Y-30885173D01*
X241437661Y-31095307D01*
X241415030Y-31302844D01*
X241371243Y-31508844D01*
X241368112Y-31733096D01*
X241344024Y-31953986D01*
X132185000Y-31953986D01*
X132185000Y-27650000D01*
X132175492Y-27553023D01*
X132166667Y-27456060D01*
X132165643Y-27452582D01*
X132165289Y-27448967D01*
X132137118Y-27355662D01*
X132109635Y-27262282D01*
X132107954Y-27259067D01*
X132106905Y-27255592D01*
X132061190Y-27169615D01*
X132016051Y-27083272D01*
X132013775Y-27080442D01*
X132012073Y-27077240D01*
X131950543Y-27001796D01*
X131889479Y-26925848D01*
X131886698Y-26923515D01*
X131884406Y-26920704D01*
X131809342Y-26858606D01*
X131734741Y-26796008D01*
X131731564Y-26794261D01*
X131728765Y-26791946D01*
X131643055Y-26745603D01*
X131557730Y-26698695D01*
X131554270Y-26697597D01*
X131551079Y-26695872D01*
X131458088Y-26667086D01*
X131365189Y-26637617D01*
X131361580Y-26637212D01*
X131358116Y-26636140D01*
X131261266Y-26625960D01*
X131164451Y-26615101D01*
X131157486Y-26615052D01*
X131157226Y-26615025D01*
X131156966Y-26615049D01*
X131150000Y-26615000D01*
X33350000Y-26615000D01*
X33253023Y-26624508D01*
X33156060Y-26633333D01*
X33152582Y-26634357D01*
X33148967Y-26634711D01*
X33055662Y-26662882D01*
X32962282Y-26690365D01*
X32959067Y-26692046D01*
X32955592Y-26693095D01*
X32869615Y-26738810D01*
X32783272Y-26783949D01*
X32780442Y-26786225D01*
X32777240Y-26787927D01*
X32701796Y-26849457D01*
X32625848Y-26910521D01*
X32623515Y-26913302D01*
X32620704Y-26915594D01*
X32558606Y-26990658D01*
X32496008Y-27065259D01*
X32494261Y-27068436D01*
X32491946Y-27071235D01*
X32445603Y-27156945D01*
X32398695Y-27242270D01*
X32397597Y-27245730D01*
X32395872Y-27248921D01*
X32367086Y-27341912D01*
X32337617Y-27434811D01*
X32337212Y-27438420D01*
X32336140Y-27441884D01*
X32325960Y-27538734D01*
X32315101Y-27635549D01*
X32315052Y-27642514D01*
X32315025Y-27642774D01*
X32315049Y-27643034D01*
X32315000Y-27650000D01*
X15735000Y-27650000D01*
X15735000Y-22210179D01*
X15835165Y-21188617D01*
X16108602Y-20282946D01*
X33353687Y-20282946D01*
X33363043Y-20366189D01*
X33361865Y-20450537D01*
X33389359Y-20600339D01*
X33406158Y-20749811D01*
X33431261Y-20828646D01*
X33446298Y-20910576D01*
X33502755Y-21053170D01*
X33548703Y-21197468D01*
X33591838Y-21278168D01*
X33618478Y-21345453D01*
X33673135Y-21430265D01*
X33739234Y-21553927D01*
X33760199Y-21565362D01*
X33871847Y-21738606D01*
X34196755Y-22075057D01*
X34435156Y-22240750D01*
X34446073Y-22260766D01*
X34515872Y-22296850D01*
X34580825Y-22341993D01*
X34725259Y-22405095D01*
X34863409Y-22476513D01*
X34937904Y-22497997D01*
X35009428Y-22529245D01*
X35164411Y-22563320D01*
X35314815Y-22606696D01*
X35391030Y-22613146D01*
X35466240Y-22629682D01*
X35625960Y-22633028D01*
X35782946Y-22646313D01*
X35857923Y-22637886D01*
X35933860Y-22639477D01*
X36092224Y-22611553D01*
X36249811Y-22593842D01*
X36320717Y-22571264D01*
X36394477Y-22558258D01*
X36545395Y-22499721D01*
X36697468Y-22451297D01*
X36769493Y-22412799D01*
X36830546Y-22389118D01*
X36919972Y-22332366D01*
X37053927Y-22260766D01*
X37065113Y-22240256D01*
X37225457Y-22138499D01*
X37564169Y-21815949D01*
X37741649Y-21564354D01*
X37760766Y-21553927D01*
X37793029Y-21491518D01*
X37833779Y-21433751D01*
X37901350Y-21281985D01*
X37976513Y-21136591D01*
X37995691Y-21070091D01*
X38024019Y-21006466D01*
X38061064Y-20843412D01*
X38106696Y-20685185D01*
X38112444Y-20617264D01*
X38127643Y-20550366D01*
X38129527Y-20415399D01*
X38140736Y-20282946D01*
X126353687Y-20282946D01*
X126363043Y-20366189D01*
X126361865Y-20450537D01*
X126389359Y-20600339D01*
X126406158Y-20749811D01*
X126431261Y-20828646D01*
X126446298Y-20910576D01*
X126502755Y-21053170D01*
X126548703Y-21197468D01*
X126591838Y-21278168D01*
X126618478Y-21345453D01*
X126673135Y-21430265D01*
X126739234Y-21553927D01*
X126760199Y-21565362D01*
X126871847Y-21738606D01*
X127196755Y-22075057D01*
X127435156Y-22240750D01*
X127446073Y-22260766D01*
X127515872Y-22296850D01*
X127580825Y-22341993D01*
X127725259Y-22405095D01*
X127863409Y-22476513D01*
X127937904Y-22497997D01*
X128009428Y-22529245D01*
X128164411Y-22563320D01*
X128314815Y-22606696D01*
X128391030Y-22613146D01*
X128466240Y-22629682D01*
X128625960Y-22633028D01*
X128782946Y-22646313D01*
X128857923Y-22637886D01*
X128933860Y-22639477D01*
X129092224Y-22611553D01*
X129249811Y-22593842D01*
X129320717Y-22571264D01*
X129394477Y-22558258D01*
X129545395Y-22499721D01*
X129697468Y-22451297D01*
X129769493Y-22412799D01*
X129830546Y-22389118D01*
X129919972Y-22332366D01*
X130053927Y-22260766D01*
X130065113Y-22240256D01*
X130225457Y-22138499D01*
X130564169Y-21815949D01*
X130741649Y-21564354D01*
X130760766Y-21553927D01*
X130793029Y-21491518D01*
X130833779Y-21433751D01*
X130901350Y-21281985D01*
X130917884Y-21250000D01*
X143415000Y-21250000D01*
X143415000Y-24750000D01*
X143424508Y-24846977D01*
X143433333Y-24943940D01*
X143434357Y-24947418D01*
X143434711Y-24951033D01*
X143462882Y-25044338D01*
X143490365Y-25137718D01*
X143492046Y-25140933D01*
X143493095Y-25144408D01*
X143538810Y-25230385D01*
X143583949Y-25316728D01*
X143586225Y-25319558D01*
X143587927Y-25322760D01*
X143649457Y-25398204D01*
X143710521Y-25474152D01*
X143713302Y-25476485D01*
X143715594Y-25479296D01*
X143790658Y-25541394D01*
X143865259Y-25603992D01*
X143868436Y-25605739D01*
X143871235Y-25608054D01*
X143956945Y-25654397D01*
X144042270Y-25701305D01*
X144045730Y-25702403D01*
X144048921Y-25704128D01*
X144141912Y-25732914D01*
X144234811Y-25762383D01*
X144238420Y-25762788D01*
X144241884Y-25763860D01*
X144338734Y-25774040D01*
X144435549Y-25784899D01*
X144442514Y-25784948D01*
X144442774Y-25784975D01*
X144443034Y-25784951D01*
X144450000Y-25785000D01*
X170950000Y-25785000D01*
X171046977Y-25775492D01*
X171143940Y-25766667D01*
X171147418Y-25765643D01*
X171151033Y-25765289D01*
X171244338Y-25737118D01*
X171337718Y-25709635D01*
X171340933Y-25707954D01*
X171344408Y-25706905D01*
X171430385Y-25661190D01*
X171516728Y-25616051D01*
X171519558Y-25613775D01*
X171522760Y-25612073D01*
X171598204Y-25550543D01*
X171674152Y-25489479D01*
X171676485Y-25486698D01*
X171679296Y-25484406D01*
X171741394Y-25409342D01*
X171803992Y-25334741D01*
X171805739Y-25331564D01*
X171808054Y-25328765D01*
X171854397Y-25243055D01*
X171901305Y-25157730D01*
X171902403Y-25154270D01*
X171904128Y-25151079D01*
X171932914Y-25058088D01*
X171962383Y-24965189D01*
X171962788Y-24961580D01*
X171963860Y-24958116D01*
X171974040Y-24861266D01*
X171984899Y-24764451D01*
X171984948Y-24757486D01*
X171984975Y-24757226D01*
X171984951Y-24756966D01*
X171985000Y-24750000D01*
X171985000Y-21250000D01*
X171975492Y-21153023D01*
X171966667Y-21056060D01*
X171965643Y-21052582D01*
X171965289Y-21048967D01*
X171937118Y-20955662D01*
X171909635Y-20862282D01*
X171907954Y-20859067D01*
X171906905Y-20855592D01*
X171861190Y-20769615D01*
X171816051Y-20683272D01*
X171813775Y-20680442D01*
X171812073Y-20677240D01*
X171750543Y-20601796D01*
X171689479Y-20525848D01*
X171686698Y-20523515D01*
X171684406Y-20520704D01*
X171609342Y-20458606D01*
X171534741Y-20396008D01*
X171531564Y-20394261D01*
X171528765Y-20391946D01*
X171443055Y-20345603D01*
X171357730Y-20298695D01*
X171354270Y-20297597D01*
X171351079Y-20295872D01*
X171258088Y-20267086D01*
X171165189Y-20237617D01*
X171161580Y-20237212D01*
X171158116Y-20236140D01*
X171061266Y-20225960D01*
X170964451Y-20215101D01*
X170957486Y-20215052D01*
X170957226Y-20215025D01*
X170956966Y-20215049D01*
X170950000Y-20215000D01*
X144450000Y-20215000D01*
X144353023Y-20224508D01*
X144256060Y-20233333D01*
X144252582Y-20234357D01*
X144248967Y-20234711D01*
X144155662Y-20262882D01*
X144062282Y-20290365D01*
X144059067Y-20292046D01*
X144055592Y-20293095D01*
X143969615Y-20338810D01*
X143883272Y-20383949D01*
X143880442Y-20386225D01*
X143877240Y-20387927D01*
X143801796Y-20449457D01*
X143725848Y-20510521D01*
X143723515Y-20513302D01*
X143720704Y-20515594D01*
X143658606Y-20590658D01*
X143596008Y-20665259D01*
X143594261Y-20668436D01*
X143591946Y-20671235D01*
X143545603Y-20756945D01*
X143498695Y-20842270D01*
X143497597Y-20845730D01*
X143495872Y-20848921D01*
X143467086Y-20941912D01*
X143437617Y-21034811D01*
X143437212Y-21038420D01*
X143436140Y-21041884D01*
X143425960Y-21138734D01*
X143415101Y-21235549D01*
X143415052Y-21242514D01*
X143415025Y-21242774D01*
X143415049Y-21243034D01*
X143415000Y-21250000D01*
X130917884Y-21250000D01*
X130976513Y-21136591D01*
X130995691Y-21070091D01*
X131024019Y-21006466D01*
X131061064Y-20843412D01*
X131106696Y-20685185D01*
X131112444Y-20617264D01*
X131127643Y-20550366D01*
X131129527Y-20415399D01*
X131146313Y-20217054D01*
X131133846Y-20106124D01*
X131135102Y-20016139D01*
X131108807Y-19883338D01*
X131093842Y-19750189D01*
X131063698Y-19655523D01*
X131044254Y-19557324D01*
X130992263Y-19431185D01*
X130951297Y-19302532D01*
X130898604Y-19203950D01*
X130866019Y-19124893D01*
X130816546Y-19050429D01*
X130760766Y-18946073D01*
X130739508Y-18934478D01*
X130607185Y-18735316D01*
X130277612Y-18403434D01*
X130065423Y-18260311D01*
X130053927Y-18239234D01*
X129969362Y-18195517D01*
X129889852Y-18141887D01*
X129760180Y-18087378D01*
X129636591Y-18023487D01*
X129546124Y-17997397D01*
X129458676Y-17960637D01*
X129319842Y-17932138D01*
X129185185Y-17893304D01*
X129092406Y-17885452D01*
X129000507Y-17866588D01*
X128857719Y-17865591D01*
X128717054Y-17853687D01*
X128625555Y-17863971D01*
X128532795Y-17863323D01*
X128391507Y-17890275D01*
X128250189Y-17906158D01*
X128163435Y-17933783D01*
X128073357Y-17950966D01*
X127939019Y-18005242D01*
X127802532Y-18048703D01*
X127712991Y-18096564D01*
X127639693Y-18126178D01*
X127559905Y-18178390D01*
X127446073Y-18239234D01*
X127434500Y-18260452D01*
X127248319Y-18382285D01*
X126914144Y-18709534D01*
X126759900Y-18934801D01*
X126739234Y-18946073D01*
X126699332Y-19023259D01*
X126649896Y-19095458D01*
X126591147Y-19232528D01*
X126523487Y-19363409D01*
X126499700Y-19445891D01*
X126465640Y-19525358D01*
X126434412Y-19672274D01*
X126393304Y-19814815D01*
X126386153Y-19899316D01*
X126368395Y-19982860D01*
X126366283Y-20134104D01*
X126353687Y-20282946D01*
X38140736Y-20282946D01*
X38146313Y-20217054D01*
X38133846Y-20106124D01*
X38135102Y-20016139D01*
X38108807Y-19883338D01*
X38093842Y-19750189D01*
X38063698Y-19655523D01*
X38044254Y-19557324D01*
X37992263Y-19431185D01*
X37951297Y-19302532D01*
X37898604Y-19203950D01*
X37866019Y-19124893D01*
X37816546Y-19050429D01*
X37760766Y-18946073D01*
X37739508Y-18934478D01*
X37607185Y-18735316D01*
X37277612Y-18403434D01*
X37065423Y-18260311D01*
X37053927Y-18239234D01*
X36969362Y-18195517D01*
X36889852Y-18141887D01*
X36760180Y-18087378D01*
X36636591Y-18023487D01*
X36546124Y-17997397D01*
X36458676Y-17960637D01*
X36319842Y-17932138D01*
X36185185Y-17893304D01*
X36092406Y-17885452D01*
X36000507Y-17866588D01*
X35857719Y-17865591D01*
X35717054Y-17853687D01*
X35625555Y-17863971D01*
X35532795Y-17863323D01*
X35391507Y-17890275D01*
X35250189Y-17906158D01*
X35163435Y-17933783D01*
X35073357Y-17950966D01*
X34939019Y-18005242D01*
X34802532Y-18048703D01*
X34712991Y-18096564D01*
X34639693Y-18126178D01*
X34559905Y-18178390D01*
X34446073Y-18239234D01*
X34434500Y-18260452D01*
X34248319Y-18382285D01*
X33914144Y-18709534D01*
X33759900Y-18934801D01*
X33739234Y-18946073D01*
X33699332Y-19023259D01*
X33649896Y-19095458D01*
X33591147Y-19232528D01*
X33523487Y-19363409D01*
X33499700Y-19445891D01*
X33465640Y-19525358D01*
X33434412Y-19672274D01*
X33393304Y-19814815D01*
X33386153Y-19899316D01*
X33368395Y-19982860D01*
X33366283Y-20134104D01*
X33353687Y-20282946D01*
X16108602Y-20282946D01*
X16111462Y-20273476D01*
X16560254Y-19429421D01*
X17164440Y-18688617D01*
X17901005Y-18079277D01*
X18741906Y-17624604D01*
X19655098Y-17341924D01*
X20672419Y-17235000D01*
X259299821Y-17235000D01*
X259712884Y-17275501D01*
X259712884Y-17275501D01*
G37*
X259712884Y-17275501D02*
X260857626Y-17520803D01*
X262032960Y-18108470D01*
X262813573Y-18693930D01*
X263278184Y-19216617D01*
X263430723Y-19401005D01*
X263885396Y-20241906D01*
X264168076Y-21155098D01*
X264273000Y-22153390D01*
X264273000Y-104150219D01*
X264243560Y-104450474D01*
X264077184Y-105365542D01*
X263587463Y-106638816D01*
X262896266Y-107589212D01*
X262845562Y-107651381D01*
X262108997Y-108260721D01*
X261268095Y-108715396D01*
X260354906Y-108998075D01*
X259337581Y-109105000D01*
X20710179Y-109105000D01*
X19688617Y-109004835D01*
X18773476Y-108728538D01*
X18024018Y-108330044D01*
X17843690Y-108209825D01*
X17549477Y-107969871D01*
X16869885Y-107290279D01*
X16601649Y-106966037D01*
X16550102Y-106885035D01*
X16124604Y-106098095D01*
X15916259Y-105425039D01*
X15783346Y-104627567D01*
X15735000Y-104167581D01*
X15735000Y-91150000D01*
X30490000Y-91150000D01*
X30490000Y-97350000D01*
X30509711Y-97551033D01*
X30568095Y-97744408D01*
X30662927Y-97922760D01*
X30672257Y-97934200D01*
X30748664Y-98073701D01*
X30756893Y-98085581D01*
X31426855Y-99038487D01*
X31485401Y-99106530D01*
X31542447Y-99175830D01*
X31552747Y-99185967D01*
X32461512Y-100067852D01*
X32534871Y-100126288D01*
X32607437Y-100185767D01*
X32619504Y-100193705D01*
X32619509Y-100193709D01*
X32619514Y-100193712D01*
X33682261Y-100882285D01*
X33765601Y-100925374D01*
X33848307Y-100969609D01*
X33861692Y-100975056D01*
X33861696Y-100975058D01*
X35037948Y-101444097D01*
X35128089Y-101470183D01*
X35217794Y-101497506D01*
X35231973Y-101500247D01*
X35231983Y-101500250D01*
X35231993Y-101500251D01*
X36476941Y-101731887D01*
X36570396Y-101739965D01*
X36663736Y-101749347D01*
X36678177Y-101749281D01*
X36678188Y-101749282D01*
X36678198Y-101749281D01*
X37944427Y-101734694D01*
X38037665Y-101724467D01*
X38131057Y-101715540D01*
X38145209Y-101712670D01*
X38145220Y-101712669D01*
X38145230Y-101712666D01*
X39384511Y-101452411D01*
X39473976Y-101424272D01*
X39563865Y-101397372D01*
X39577198Y-101391805D01*
X39577202Y-101391804D01*
X39577206Y-101391802D01*
X40742339Y-100895791D01*
X40824676Y-100850788D01*
X40907586Y-100806963D01*
X40919586Y-100798912D01*
X40919585Y-100798912D01*
X40919588Y-100798911D01*
X40919590Y-100798909D01*
X41966192Y-100086036D01*
X42038197Y-100025915D01*
X42111040Y-99966802D01*
X42121248Y-99956573D01*
X43009455Y-99053987D01*
X43068412Y-98981026D01*
X43128385Y-98908890D01*
X43136408Y-98896879D01*
X43136412Y-98896874D01*
X43136415Y-98896869D01*
X43832391Y-97838955D01*
X43876070Y-97755901D01*
X43920872Y-97673522D01*
X43926412Y-97660175D01*
X43926413Y-97660174D01*
X43926415Y-97660169D01*
X44403653Y-96487222D01*
X44430359Y-96397297D01*
X44458317Y-96307753D01*
X44461159Y-96293583D01*
X44701481Y-95050274D01*
X44710211Y-94956881D01*
X44720245Y-94863606D01*
X44720280Y-94849164D01*
X44720281Y-94849153D01*
X44720280Y-94849143D01*
X44714534Y-93582844D01*
X44704958Y-93489535D01*
X44696683Y-93396084D01*
X44693911Y-93381901D01*
X44442312Y-92140824D01*
X44414788Y-92051131D01*
X44388526Y-91961091D01*
X44383052Y-91947716D01*
X44050015Y-91150000D01*
X49540000Y-91150000D01*
X49540000Y-97350000D01*
X49559711Y-97551033D01*
X49618095Y-97744408D01*
X49712927Y-97922760D01*
X49722257Y-97934200D01*
X49798664Y-98073701D01*
X49806893Y-98085581D01*
X50476855Y-99038487D01*
X50535401Y-99106530D01*
X50592447Y-99175830D01*
X50602747Y-99185967D01*
X51511512Y-100067852D01*
X51584871Y-100126288D01*
X51657437Y-100185767D01*
X51669504Y-100193705D01*
X51669509Y-100193709D01*
X51669514Y-100193712D01*
X52732261Y-100882285D01*
X52815601Y-100925374D01*
X52898307Y-100969609D01*
X52911692Y-100975056D01*
X52911696Y-100975058D01*
X54087948Y-101444097D01*
X54178089Y-101470183D01*
X54267794Y-101497506D01*
X54281973Y-101500247D01*
X54281983Y-101500250D01*
X54281993Y-101500251D01*
X55526941Y-101731887D01*
X55620396Y-101739965D01*
X55713736Y-101749347D01*
X55728177Y-101749281D01*
X55728188Y-101749282D01*
X55728198Y-101749281D01*
X56994427Y-101734694D01*
X57087665Y-101724467D01*
X57181057Y-101715540D01*
X57195209Y-101712670D01*
X57195220Y-101712669D01*
X57195230Y-101712666D01*
X58434511Y-101452411D01*
X58523976Y-101424272D01*
X58613865Y-101397372D01*
X58627198Y-101391805D01*
X58627202Y-101391804D01*
X58627206Y-101391802D01*
X59792339Y-100895791D01*
X59874676Y-100850788D01*
X59957586Y-100806963D01*
X59969586Y-100798912D01*
X59969585Y-100798912D01*
X59969588Y-100798911D01*
X59969590Y-100798909D01*
X60547790Y-100405079D01*
X88166997Y-100405079D01*
X88173293Y-100453913D01*
X88172601Y-100503451D01*
X88196391Y-100633070D01*
X88212964Y-100761622D01*
X88228410Y-100807528D01*
X88237209Y-100855472D01*
X88286025Y-100978767D01*
X88327605Y-101102346D01*
X88355951Y-101155379D01*
X88368962Y-101188240D01*
X88395653Y-101229656D01*
X88445313Y-101322565D01*
X88459297Y-101328412D01*
X88562839Y-101489079D01*
X88811458Y-101746532D01*
X89022692Y-101893343D01*
X89027435Y-101904687D01*
X89067968Y-101924811D01*
X89105348Y-101950791D01*
X89229861Y-102005189D01*
X89349426Y-102064552D01*
X89392339Y-102076174D01*
X89433315Y-102094076D01*
X89566837Y-102123433D01*
X89696419Y-102158527D01*
X89739974Y-102161499D01*
X89782867Y-102170930D01*
X89920372Y-102173810D01*
X90055079Y-102183003D01*
X90097591Y-102177522D01*
X90140690Y-102178425D01*
X90276952Y-102154398D01*
X90411622Y-102137036D01*
X90451487Y-102123623D01*
X90493153Y-102116276D01*
X90622940Y-102065935D01*
X90752346Y-102022395D01*
X90797715Y-101998145D01*
X90826833Y-101986851D01*
X90869479Y-101959787D01*
X90972565Y-101904687D01*
X90978439Y-101890638D01*
X91129018Y-101795078D01*
X91388200Y-101548262D01*
X91544368Y-101326880D01*
X91554687Y-101322565D01*
X91571975Y-101287745D01*
X91594506Y-101255805D01*
X91652468Y-101125619D01*
X91714552Y-101000574D01*
X91724506Y-100963820D01*
X91740077Y-100928847D01*
X91771838Y-100789051D01*
X91808527Y-100653581D01*
X91811065Y-100616396D01*
X91819370Y-100579840D01*
X91820865Y-100472789D01*
X91833003Y-100294921D01*
X91824292Y-100227353D01*
X91825078Y-100171050D01*
X91802019Y-100054595D01*
X91787036Y-99938378D01*
X91767526Y-99880392D01*
X91755561Y-99819965D01*
X91710010Y-99709451D01*
X91672395Y-99597654D01*
X91635416Y-99528470D01*
X91619176Y-99489069D01*
X91594522Y-99451962D01*
X91554687Y-99377435D01*
X91541282Y-99371830D01*
X91421116Y-99190966D01*
X91168927Y-98937010D01*
X90977952Y-98808195D01*
X90972565Y-98795313D01*
X90920612Y-98769519D01*
X90872214Y-98736874D01*
X90759040Y-98689300D01*
X90650574Y-98635448D01*
X90595353Y-98620493D01*
X90542278Y-98598182D01*
X90421213Y-98573331D01*
X90303581Y-98541473D01*
X90247304Y-98537632D01*
X90191687Y-98526216D01*
X90067283Y-98525347D01*
X89944921Y-98516997D01*
X89889766Y-98524108D01*
X89833795Y-98523717D01*
X89710780Y-98547183D01*
X89588378Y-98562964D01*
X89536430Y-98580442D01*
X89482234Y-98590781D01*
X89365358Y-98638002D01*
X89247654Y-98677605D01*
X89186706Y-98710182D01*
X89150394Y-98724853D01*
X89110872Y-98750716D01*
X89027435Y-98795313D01*
X89021677Y-98809083D01*
X88850915Y-98920827D01*
X88595205Y-99171237D01*
X88457511Y-99372334D01*
X88445313Y-99377435D01*
X88422350Y-99423686D01*
X88393003Y-99466546D01*
X88342069Y-99585384D01*
X88285448Y-99699426D01*
X88272159Y-99748494D01*
X88252010Y-99795505D01*
X88224955Y-99922790D01*
X88191473Y-100046419D01*
X88188066Y-100096340D01*
X88177599Y-100145585D01*
X88175770Y-100276518D01*
X88166997Y-100405079D01*
X60547790Y-100405079D01*
X61016192Y-100086036D01*
X61088197Y-100025915D01*
X61161040Y-99966802D01*
X61171248Y-99956573D01*
X62059455Y-99053987D01*
X62118412Y-98981026D01*
X62178385Y-98908890D01*
X62186408Y-98896879D01*
X62186412Y-98896874D01*
X62186415Y-98896869D01*
X62882391Y-97838955D01*
X62926070Y-97755901D01*
X62970872Y-97673522D01*
X62976412Y-97660175D01*
X62976413Y-97660174D01*
X62976415Y-97660169D01*
X63453653Y-96487222D01*
X63480359Y-96397297D01*
X63508317Y-96307753D01*
X63511159Y-96293583D01*
X63751481Y-95050274D01*
X63760211Y-94956881D01*
X63770245Y-94863606D01*
X63770280Y-94849164D01*
X63770281Y-94849153D01*
X63770280Y-94849143D01*
X63767456Y-94226682D01*
X86171635Y-94226682D01*
X86187406Y-94397466D01*
X86184992Y-94570355D01*
X86221984Y-94771911D01*
X86240647Y-94974007D01*
X86288962Y-95136843D01*
X86319872Y-95305260D01*
X86395932Y-95497365D01*
X86454129Y-95693508D01*
X86532508Y-95842319D01*
X86594927Y-95999970D01*
X86707766Y-96175062D01*
X86803877Y-96357537D01*
X86829787Y-96396314D01*
X86868781Y-96424908D01*
X86999681Y-96628024D01*
X87518715Y-97165500D01*
X87820933Y-97375546D01*
X87853686Y-97420213D01*
X87997169Y-97498034D01*
X88132261Y-97591925D01*
X88327765Y-97677339D01*
X88513405Y-97778024D01*
X88667736Y-97825868D01*
X88816949Y-97891058D01*
X89026961Y-97937232D01*
X89230253Y-98000255D01*
X89389306Y-98016899D01*
X89546698Y-98051504D01*
X89763367Y-98056043D01*
X89976682Y-98078365D01*
X90134274Y-98063812D01*
X90293714Y-98067152D01*
X90508800Y-98029226D01*
X90724007Y-98009353D01*
X90874145Y-97964806D01*
X91029542Y-97937405D01*
X91234738Y-97857815D01*
X91443508Y-97795871D01*
X91580599Y-97723664D01*
X91726155Y-97667207D01*
X91913415Y-97548368D01*
X92107537Y-97446123D01*
X92146314Y-97420213D01*
X92173261Y-97383465D01*
X92357020Y-97266848D01*
X92898106Y-96751578D01*
X93125683Y-96428967D01*
X93170213Y-96396314D01*
X93241714Y-96264484D01*
X93328805Y-96141024D01*
X93421071Y-95933791D01*
X93528024Y-95736595D01*
X93571942Y-95594929D01*
X93632710Y-95458442D01*
X93683340Y-95235594D01*
X93750255Y-95019747D01*
X93765519Y-94873883D01*
X93798247Y-94729830D01*
X93800965Y-94535154D01*
X93828365Y-94273318D01*
X93807740Y-94049968D01*
X93810163Y-93876410D01*
X93775587Y-93701788D01*
X93759353Y-93525993D01*
X93703517Y-93337807D01*
X93665035Y-93143461D01*
X93596558Y-92977324D01*
X93545871Y-92806492D01*
X93455165Y-92634279D01*
X93380307Y-92452659D01*
X93279932Y-92301582D01*
X93196123Y-92142463D01*
X93170213Y-92103686D01*
X93127775Y-92072567D01*
X92966825Y-91830317D01*
X92440336Y-91300140D01*
X92217744Y-91150000D01*
X103740000Y-91150000D01*
X103740000Y-97350000D01*
X103759711Y-97551033D01*
X103818095Y-97744408D01*
X103912927Y-97922760D01*
X103922257Y-97934200D01*
X103998664Y-98073701D01*
X104006893Y-98085581D01*
X104676855Y-99038487D01*
X104735401Y-99106530D01*
X104792447Y-99175830D01*
X104802747Y-99185967D01*
X105711512Y-100067852D01*
X105784871Y-100126288D01*
X105857437Y-100185767D01*
X105869504Y-100193705D01*
X105869509Y-100193709D01*
X105869514Y-100193712D01*
X106932261Y-100882285D01*
X107015601Y-100925374D01*
X107098307Y-100969609D01*
X107111692Y-100975056D01*
X107111696Y-100975058D01*
X108287948Y-101444097D01*
X108378089Y-101470183D01*
X108467794Y-101497506D01*
X108481973Y-101500247D01*
X108481983Y-101500250D01*
X108481993Y-101500251D01*
X109726941Y-101731887D01*
X109820396Y-101739965D01*
X109913736Y-101749347D01*
X109928177Y-101749281D01*
X109928188Y-101749282D01*
X109928198Y-101749281D01*
X111194427Y-101734694D01*
X111287665Y-101724467D01*
X111381057Y-101715540D01*
X111395209Y-101712670D01*
X111395220Y-101712669D01*
X111395230Y-101712666D01*
X112634511Y-101452411D01*
X112723976Y-101424272D01*
X112813865Y-101397372D01*
X112827198Y-101391805D01*
X112827202Y-101391804D01*
X112827206Y-101391802D01*
X113992339Y-100895791D01*
X114074676Y-100850788D01*
X114157586Y-100806963D01*
X114169586Y-100798912D01*
X114169585Y-100798912D01*
X114169588Y-100798911D01*
X114169590Y-100798909D01*
X115216192Y-100086036D01*
X115288197Y-100025915D01*
X115361040Y-99966802D01*
X115371248Y-99956573D01*
X116259455Y-99053987D01*
X116318412Y-98981026D01*
X116378385Y-98908890D01*
X116386408Y-98896879D01*
X116386412Y-98896874D01*
X116386415Y-98896869D01*
X117082391Y-97838955D01*
X117126070Y-97755901D01*
X117170872Y-97673522D01*
X117176412Y-97660175D01*
X117176413Y-97660174D01*
X117176415Y-97660169D01*
X117653653Y-96487222D01*
X117680359Y-96397297D01*
X117708317Y-96307753D01*
X117711159Y-96293583D01*
X117951481Y-95050274D01*
X117960211Y-94956881D01*
X117970245Y-94863606D01*
X117970280Y-94849164D01*
X117970281Y-94849153D01*
X117970280Y-94849143D01*
X117964534Y-93582844D01*
X117954958Y-93489535D01*
X117946683Y-93396084D01*
X117943911Y-93381901D01*
X117692312Y-92140824D01*
X117664788Y-92051131D01*
X117638526Y-91961091D01*
X117633052Y-91947716D01*
X117300015Y-91150000D01*
X122790000Y-91150000D01*
X122790000Y-97350000D01*
X122809711Y-97551033D01*
X122868095Y-97744408D01*
X122962927Y-97922760D01*
X122972257Y-97934200D01*
X123048664Y-98073701D01*
X123056893Y-98085581D01*
X123726855Y-99038487D01*
X123785401Y-99106530D01*
X123842447Y-99175830D01*
X123852747Y-99185967D01*
X124761512Y-100067852D01*
X124834871Y-100126288D01*
X124907437Y-100185767D01*
X124919504Y-100193705D01*
X124919509Y-100193709D01*
X124919514Y-100193712D01*
X125982261Y-100882285D01*
X126065601Y-100925374D01*
X126148307Y-100969609D01*
X126161692Y-100975056D01*
X126161696Y-100975058D01*
X127337948Y-101444097D01*
X127428089Y-101470183D01*
X127517794Y-101497506D01*
X127531973Y-101500247D01*
X127531983Y-101500250D01*
X127531993Y-101500251D01*
X128776941Y-101731887D01*
X128870396Y-101739965D01*
X128963736Y-101749347D01*
X128978177Y-101749281D01*
X128978188Y-101749282D01*
X128978198Y-101749281D01*
X130244427Y-101734694D01*
X130337665Y-101724467D01*
X130431057Y-101715540D01*
X130445209Y-101712670D01*
X130445220Y-101712669D01*
X130445230Y-101712666D01*
X131684511Y-101452411D01*
X131773976Y-101424272D01*
X131863865Y-101397372D01*
X131877198Y-101391805D01*
X131877202Y-101391804D01*
X131877206Y-101391802D01*
X133042339Y-100895791D01*
X133124676Y-100850788D01*
X133207586Y-100806963D01*
X133219586Y-100798912D01*
X133219585Y-100798912D01*
X133219588Y-100798911D01*
X133219590Y-100798909D01*
X134266192Y-100086036D01*
X134338197Y-100025915D01*
X134411040Y-99966802D01*
X134421248Y-99956573D01*
X135309455Y-99053987D01*
X135368412Y-98981026D01*
X135428385Y-98908890D01*
X135436408Y-98896879D01*
X135436412Y-98896874D01*
X135436415Y-98896869D01*
X136132391Y-97838955D01*
X136176070Y-97755901D01*
X136220872Y-97673522D01*
X136226412Y-97660175D01*
X136226413Y-97660174D01*
X136226415Y-97660169D01*
X136703653Y-96487222D01*
X136730359Y-96397297D01*
X136758317Y-96307753D01*
X136761159Y-96293583D01*
X137001481Y-95050274D01*
X137010211Y-94956881D01*
X137020245Y-94863606D01*
X137020280Y-94849164D01*
X137020281Y-94849153D01*
X137020280Y-94849143D01*
X137016923Y-94109282D01*
X238933622Y-94109282D01*
X238961077Y-94462682D01*
X238956081Y-94820501D01*
X239012947Y-95130342D01*
X239037144Y-95441795D01*
X239132222Y-95780221D01*
X239196281Y-96129249D01*
X239313348Y-96424926D01*
X239398637Y-96728508D01*
X239556581Y-97039262D01*
X239686110Y-97366416D01*
X239860001Y-97636243D01*
X240004210Y-97919973D01*
X240160568Y-98153980D01*
X240239579Y-98225231D01*
X240406911Y-98484880D01*
X241331229Y-99442039D01*
X241750332Y-99733323D01*
X241846020Y-99839432D01*
X242142309Y-100005754D01*
X242423856Y-100201434D01*
X242726231Y-100333538D01*
X243011478Y-100493662D01*
X243331728Y-100598074D01*
X243643175Y-100734142D01*
X243968376Y-100805642D01*
X244282176Y-100907951D01*
X244613721Y-100947530D01*
X244942742Y-101019870D01*
X245278633Y-101026906D01*
X245609282Y-101066378D01*
X245939242Y-101040744D01*
X246273057Y-101047736D01*
X246606868Y-100988876D01*
X246941795Y-100962856D01*
X247257579Y-100874139D01*
X247583450Y-100816679D01*
X247902264Y-100693019D01*
X248228508Y-100601363D01*
X248518298Y-100454075D01*
X248824006Y-100335498D01*
X249115256Y-100150665D01*
X249419973Y-99995790D01*
X249653980Y-99839432D01*
X249718606Y-99767767D01*
X249947475Y-99622523D01*
X250911064Y-98704911D01*
X251230244Y-98252445D01*
X251339432Y-98153980D01*
X251494228Y-97878223D01*
X251678069Y-97617612D01*
X251822028Y-97294274D01*
X251993662Y-96988522D01*
X252090777Y-96690652D01*
X252219275Y-96402041D01*
X252298351Y-96053986D01*
X252407951Y-95717824D01*
X252444739Y-95409656D01*
X252514069Y-95104501D01*
X252518427Y-94792391D01*
X252566378Y-94390718D01*
X252530487Y-93928736D01*
X252535291Y-93584696D01*
X252483398Y-93322616D01*
X252462856Y-93058205D01*
X252355094Y-92674633D01*
X252276842Y-92279430D01*
X252173892Y-92029655D01*
X252101363Y-91771492D01*
X251922166Y-91418921D01*
X251769787Y-91049223D01*
X251618627Y-90821709D01*
X251495790Y-90580027D01*
X251339432Y-90346020D01*
X251247498Y-90263114D01*
X251033440Y-89940932D01*
X250095848Y-88996772D01*
X249741826Y-88757981D01*
X249653980Y-88660568D01*
X249316752Y-88471265D01*
X248992725Y-88252706D01*
X248732659Y-88143384D01*
X248488522Y-88006338D01*
X248123621Y-87887368D01*
X247766087Y-87737075D01*
X247486813Y-87679748D01*
X247217824Y-87592049D01*
X246839636Y-87546902D01*
X246462657Y-87469519D01*
X246174570Y-87467508D01*
X245890718Y-87433622D01*
X245513922Y-87462895D01*
X245132082Y-87460229D01*
X244846148Y-87514774D01*
X244558205Y-87537144D01*
X244197183Y-87638571D01*
X243825044Y-87709560D01*
X243552380Y-87819723D01*
X243271492Y-87898637D01*
X242939803Y-88067221D01*
X242591326Y-88208015D01*
X242342749Y-88370679D01*
X242080027Y-88504210D01*
X241846020Y-88660568D01*
X241768661Y-88746352D01*
X241477922Y-88936606D01*
X240527239Y-89867583D01*
X240262725Y-90253895D01*
X240160568Y-90346020D01*
X239982747Y-90662793D01*
X239775490Y-90965485D01*
X239654928Y-91246776D01*
X239506338Y-91511478D01*
X239394642Y-91854071D01*
X239251308Y-92188493D01*
X239187057Y-92490769D01*
X239092049Y-92782176D01*
X239049684Y-93137061D01*
X238974659Y-93490024D01*
X238970302Y-93802018D01*
X238933622Y-94109282D01*
X137016923Y-94109282D01*
X137014534Y-93582844D01*
X137004958Y-93489535D01*
X136996683Y-93396084D01*
X136993911Y-93381901D01*
X136742312Y-92140824D01*
X136714788Y-92051131D01*
X136688526Y-91961091D01*
X136683052Y-91947716D01*
X136195186Y-90779143D01*
X136150744Y-90696467D01*
X136107513Y-90613279D01*
X136099549Y-90601227D01*
X136099546Y-90601222D01*
X136099542Y-90601218D01*
X135393993Y-89549666D01*
X135334372Y-89477237D01*
X135275774Y-89403989D01*
X135265622Y-89393716D01*
X135265617Y-89393710D01*
X135265611Y-89393705D01*
X134369252Y-88499223D01*
X134296709Y-88439762D01*
X134224990Y-88379284D01*
X134213029Y-88371173D01*
X133159996Y-87667825D01*
X133077253Y-87623570D01*
X132995183Y-87578191D01*
X132981875Y-87572558D01*
X131812283Y-87087141D01*
X131722543Y-87059807D01*
X131633201Y-87031226D01*
X131619059Y-87028287D01*
X131619051Y-87028285D01*
X131619043Y-87028284D01*
X130377450Y-86779288D01*
X130284138Y-86769908D01*
X130190917Y-86759221D01*
X130176466Y-86759085D01*
X128910146Y-86755991D01*
X128816760Y-86764917D01*
X128723268Y-86772538D01*
X128709067Y-86775211D01*
X128709065Y-86775211D01*
X128709063Y-86775212D01*
X127466261Y-87018139D01*
X127376374Y-87045038D01*
X127286157Y-87070669D01*
X127272744Y-87076050D01*
X126100795Y-87555746D01*
X126017855Y-87599586D01*
X125934322Y-87642258D01*
X125922223Y-87650134D01*
X125922210Y-87650141D01*
X125922199Y-87650150D01*
X124865754Y-88348336D01*
X124792904Y-88407455D01*
X124719256Y-88465535D01*
X124708906Y-88475620D01*
X123808182Y-89365718D01*
X123748204Y-89437859D01*
X123687238Y-89509140D01*
X123679050Y-89521037D01*
X123679044Y-89521044D01*
X123679040Y-89521051D01*
X122968363Y-90569141D01*
X122921225Y-90655813D01*
X122873695Y-90742270D01*
X122872982Y-90744518D01*
X122871854Y-90746592D01*
X122842450Y-90840767D01*
X122812617Y-90934811D01*
X122812354Y-90937157D01*
X122811651Y-90939408D01*
X122801112Y-91037383D01*
X122790101Y-91135549D01*
X122790070Y-91140036D01*
X122790047Y-91140246D01*
X122790067Y-91140468D01*
X122790000Y-91150000D01*
X117300015Y-91150000D01*
X117145186Y-90779143D01*
X117100744Y-90696467D01*
X117057513Y-90613279D01*
X117049549Y-90601227D01*
X117049546Y-90601222D01*
X117049542Y-90601218D01*
X116343993Y-89549666D01*
X116284372Y-89477237D01*
X116225774Y-89403989D01*
X116215622Y-89393716D01*
X116215617Y-89393710D01*
X116215611Y-89393705D01*
X115319252Y-88499223D01*
X115246709Y-88439762D01*
X115174990Y-88379284D01*
X115163029Y-88371173D01*
X114109996Y-87667825D01*
X114027253Y-87623570D01*
X113945183Y-87578191D01*
X113931875Y-87572558D01*
X112762283Y-87087141D01*
X112672543Y-87059807D01*
X112583201Y-87031226D01*
X112569059Y-87028287D01*
X112569051Y-87028285D01*
X112569043Y-87028284D01*
X111327450Y-86779288D01*
X111234138Y-86769908D01*
X111140917Y-86759221D01*
X111126466Y-86759085D01*
X109860146Y-86755991D01*
X109766760Y-86764917D01*
X109673268Y-86772538D01*
X109659067Y-86775211D01*
X109659065Y-86775211D01*
X109659063Y-86775212D01*
X108416261Y-87018139D01*
X108326374Y-87045038D01*
X108236157Y-87070669D01*
X108222744Y-87076050D01*
X107050795Y-87555746D01*
X106967855Y-87599586D01*
X106884322Y-87642258D01*
X106872223Y-87650134D01*
X106872210Y-87650141D01*
X106872199Y-87650150D01*
X105815754Y-88348336D01*
X105742904Y-88407455D01*
X105669256Y-88465535D01*
X105658906Y-88475620D01*
X104758182Y-89365718D01*
X104698204Y-89437859D01*
X104637238Y-89509140D01*
X104629050Y-89521037D01*
X104629044Y-89521044D01*
X104629040Y-89521051D01*
X103918363Y-90569141D01*
X103871225Y-90655813D01*
X103823695Y-90742270D01*
X103822982Y-90744518D01*
X103821854Y-90746592D01*
X103792450Y-90840767D01*
X103762617Y-90934811D01*
X103762354Y-90937157D01*
X103761651Y-90939408D01*
X103751112Y-91037383D01*
X103740101Y-91135549D01*
X103740070Y-91140036D01*
X103740047Y-91140246D01*
X103740067Y-91140468D01*
X103740000Y-91150000D01*
X92217744Y-91150000D01*
X92178282Y-91123383D01*
X92146314Y-91079787D01*
X91979573Y-90989352D01*
X91820896Y-90882323D01*
X91649042Y-90810082D01*
X91486595Y-90721976D01*
X91306989Y-90666296D01*
X91132099Y-90592779D01*
X90947843Y-90554957D01*
X90769747Y-90499745D01*
X90584366Y-90480346D01*
X90400180Y-90442538D01*
X90210407Y-90441213D01*
X90023318Y-90421635D01*
X89839366Y-90438622D01*
X89653019Y-90437321D01*
X89464945Y-90473198D01*
X89275993Y-90490647D01*
X89100474Y-90542725D01*
X88919074Y-90577329D01*
X88739989Y-90649684D01*
X88556492Y-90704129D01*
X88395974Y-90788675D01*
X88226301Y-90857227D01*
X88063267Y-90963914D01*
X87892463Y-91053877D01*
X87853686Y-91079787D01*
X87823697Y-91120684D01*
X87601088Y-91266355D01*
X87067249Y-91789129D01*
X86874133Y-92071168D01*
X86829787Y-92103686D01*
X86745656Y-92258803D01*
X86645117Y-92405637D01*
X86566375Y-92589355D01*
X86471976Y-92763405D01*
X86420212Y-92930378D01*
X86350771Y-93092397D01*
X86308864Y-93289552D01*
X86249745Y-93480253D01*
X86231723Y-93652475D01*
X86195424Y-93823248D01*
X86192586Y-94026468D01*
X86171635Y-94226682D01*
X63767456Y-94226682D01*
X63764534Y-93582844D01*
X63754958Y-93489535D01*
X63746683Y-93396084D01*
X63743911Y-93381901D01*
X63492312Y-92140824D01*
X63464788Y-92051131D01*
X63438526Y-91961091D01*
X63433052Y-91947716D01*
X62945186Y-90779143D01*
X62900744Y-90696467D01*
X62857513Y-90613279D01*
X62849549Y-90601227D01*
X62849546Y-90601222D01*
X62849542Y-90601218D01*
X62143993Y-89549666D01*
X62084372Y-89477237D01*
X62025774Y-89403989D01*
X62015622Y-89393716D01*
X62015617Y-89393710D01*
X62015611Y-89393705D01*
X61119252Y-88499223D01*
X61046709Y-88439762D01*
X60974990Y-88379284D01*
X60963029Y-88371173D01*
X59909996Y-87667825D01*
X59827253Y-87623570D01*
X59745183Y-87578191D01*
X59731875Y-87572558D01*
X58562283Y-87087141D01*
X58472543Y-87059807D01*
X58383201Y-87031226D01*
X58369059Y-87028287D01*
X58369051Y-87028285D01*
X58369043Y-87028284D01*
X57127450Y-86779288D01*
X57034138Y-86769908D01*
X56940917Y-86759221D01*
X56926466Y-86759085D01*
X55660146Y-86755991D01*
X55566760Y-86764917D01*
X55473268Y-86772538D01*
X55459067Y-86775211D01*
X55459065Y-86775211D01*
X55459063Y-86775212D01*
X54216261Y-87018139D01*
X54126374Y-87045038D01*
X54036157Y-87070669D01*
X54022744Y-87076050D01*
X52850795Y-87555746D01*
X52767855Y-87599586D01*
X52684322Y-87642258D01*
X52672223Y-87650134D01*
X52672210Y-87650141D01*
X52672199Y-87650150D01*
X51615754Y-88348336D01*
X51542904Y-88407455D01*
X51469256Y-88465535D01*
X51458906Y-88475620D01*
X50558182Y-89365718D01*
X50498204Y-89437859D01*
X50437238Y-89509140D01*
X50429050Y-89521037D01*
X50429044Y-89521044D01*
X50429040Y-89521051D01*
X49718363Y-90569141D01*
X49671225Y-90655813D01*
X49623695Y-90742270D01*
X49622982Y-90744518D01*
X49621854Y-90746592D01*
X49592450Y-90840767D01*
X49562617Y-90934811D01*
X49562354Y-90937157D01*
X49561651Y-90939408D01*
X49551112Y-91037383D01*
X49540101Y-91135549D01*
X49540070Y-91140036D01*
X49540047Y-91140246D01*
X49540067Y-91140468D01*
X49540000Y-91150000D01*
X44050015Y-91150000D01*
X43895186Y-90779143D01*
X43850744Y-90696467D01*
X43807513Y-90613279D01*
X43799549Y-90601227D01*
X43799546Y-90601222D01*
X43799542Y-90601218D01*
X43093993Y-89549666D01*
X43034372Y-89477237D01*
X42975774Y-89403989D01*
X42965622Y-89393716D01*
X42965617Y-89393710D01*
X42965611Y-89393705D01*
X42069252Y-88499223D01*
X41996709Y-88439762D01*
X41924990Y-88379284D01*
X41913029Y-88371173D01*
X40859996Y-87667825D01*
X40777253Y-87623570D01*
X40695183Y-87578191D01*
X40681875Y-87572558D01*
X39512283Y-87087141D01*
X39422543Y-87059807D01*
X39333201Y-87031226D01*
X39319059Y-87028287D01*
X39319051Y-87028285D01*
X39319043Y-87028284D01*
X38077450Y-86779288D01*
X37984138Y-86769908D01*
X37890917Y-86759221D01*
X37876466Y-86759085D01*
X36610146Y-86755991D01*
X36516760Y-86764917D01*
X36423268Y-86772538D01*
X36409067Y-86775211D01*
X36409065Y-86775211D01*
X36409063Y-86775212D01*
X35166261Y-87018139D01*
X35076374Y-87045038D01*
X34986157Y-87070669D01*
X34972744Y-87076050D01*
X33800795Y-87555746D01*
X33717855Y-87599586D01*
X33634322Y-87642258D01*
X33622223Y-87650134D01*
X33622210Y-87650141D01*
X33622199Y-87650150D01*
X32565754Y-88348336D01*
X32492904Y-88407455D01*
X32419256Y-88465535D01*
X32408906Y-88475620D01*
X31508182Y-89365718D01*
X31448204Y-89437859D01*
X31387238Y-89509140D01*
X31379050Y-89521037D01*
X31379044Y-89521044D01*
X31379040Y-89521051D01*
X30668363Y-90569141D01*
X30621225Y-90655813D01*
X30573695Y-90742270D01*
X30572982Y-90744518D01*
X30571854Y-90746592D01*
X30542450Y-90840767D01*
X30512617Y-90934811D01*
X30512354Y-90937157D01*
X30511651Y-90939408D01*
X30501112Y-91037383D01*
X30490101Y-91135549D01*
X30490070Y-91140036D01*
X30490047Y-91140246D01*
X30490067Y-91140468D01*
X30490000Y-91150000D01*
X15735000Y-91150000D01*
X15735000Y-79072416D01*
X19927931Y-79072416D01*
X19937980Y-79164264D01*
X19936681Y-79257309D01*
X19965106Y-79412185D01*
X19982028Y-79566847D01*
X20009474Y-79653925D01*
X20026070Y-79744352D01*
X20084444Y-79891787D01*
X20131544Y-80041224D01*
X20178084Y-80128294D01*
X20208358Y-80204757D01*
X20270472Y-80301140D01*
X20340272Y-80431725D01*
X20362983Y-80444687D01*
X20476600Y-80620987D01*
X20820579Y-80977188D01*
X21065563Y-81147457D01*
X21078275Y-81169728D01*
X21155354Y-81209863D01*
X21227194Y-81259793D01*
X21376620Y-81325076D01*
X21519435Y-81399439D01*
X21601808Y-81423457D01*
X21680957Y-81458037D01*
X21841316Y-81493294D01*
X21996931Y-81538669D01*
X22081307Y-81546060D01*
X22164583Y-81564369D01*
X22329866Y-81567831D01*
X22492416Y-81582069D01*
X22575517Y-81572977D01*
X22659653Y-81574739D01*
X22823560Y-81545838D01*
X22986847Y-81527972D01*
X23065535Y-81503171D01*
X23147308Y-81488752D01*
X23303516Y-81428163D01*
X23461224Y-81378456D01*
X23539400Y-81336670D01*
X23608974Y-81309684D01*
X23710889Y-81245007D01*
X23851725Y-81169728D01*
X23864342Y-81147622D01*
X24027067Y-81044354D01*
X24385661Y-80702870D01*
X24568308Y-80443951D01*
X24589728Y-80431725D01*
X24625796Y-80362456D01*
X24671097Y-80298238D01*
X24741080Y-80141054D01*
X24819439Y-79990565D01*
X24840993Y-79916646D01*
X24872504Y-79845870D01*
X24910874Y-79676985D01*
X24958669Y-79513069D01*
X24965291Y-79437467D01*
X24982210Y-79362998D01*
X24984182Y-79221797D01*
X24997266Y-79072416D01*
X255007931Y-79072416D01*
X255017980Y-79164264D01*
X255016681Y-79257309D01*
X255045106Y-79412185D01*
X255062028Y-79566847D01*
X255089474Y-79653925D01*
X255106070Y-79744352D01*
X255164444Y-79891787D01*
X255211544Y-80041224D01*
X255258084Y-80128294D01*
X255288358Y-80204757D01*
X255350472Y-80301140D01*
X255420272Y-80431725D01*
X255442983Y-80444687D01*
X255556600Y-80620987D01*
X255900579Y-80977188D01*
X256145563Y-81147457D01*
X256158275Y-81169728D01*
X256235354Y-81209863D01*
X256307194Y-81259793D01*
X256456620Y-81325076D01*
X256599435Y-81399439D01*
X256681808Y-81423457D01*
X256760957Y-81458037D01*
X256921316Y-81493294D01*
X257076931Y-81538669D01*
X257161307Y-81546060D01*
X257244583Y-81564369D01*
X257409866Y-81567831D01*
X257572416Y-81582069D01*
X257655517Y-81572977D01*
X257739653Y-81574739D01*
X257903560Y-81545838D01*
X258066847Y-81527972D01*
X258145535Y-81503171D01*
X258227308Y-81488752D01*
X258383516Y-81428163D01*
X258541224Y-81378456D01*
X258619400Y-81336670D01*
X258688974Y-81309684D01*
X258790889Y-81245007D01*
X258931725Y-81169728D01*
X258944342Y-81147622D01*
X259107067Y-81044354D01*
X259465661Y-80702870D01*
X259648308Y-80443951D01*
X259669728Y-80431725D01*
X259705796Y-80362456D01*
X259751097Y-80298238D01*
X259821080Y-80141054D01*
X259899439Y-79990565D01*
X259920993Y-79916646D01*
X259952504Y-79845870D01*
X259990874Y-79676985D01*
X260038669Y-79513069D01*
X260045291Y-79437467D01*
X260062210Y-79362998D01*
X260064182Y-79221797D01*
X260082069Y-79017584D01*
X260068735Y-78895717D01*
X260070108Y-78797411D01*
X260043000Y-78660508D01*
X260027972Y-78523153D01*
X259995240Y-78419303D01*
X259973927Y-78311664D01*
X259920324Y-78181613D01*
X259878456Y-78048776D01*
X259822170Y-77943474D01*
X259785230Y-77853849D01*
X259729141Y-77769429D01*
X259669728Y-77658275D01*
X259646471Y-77645001D01*
X259511202Y-77441405D01*
X259162283Y-77090041D01*
X258944955Y-76943451D01*
X258931725Y-76920272D01*
X258839042Y-76872012D01*
X258751762Y-76813141D01*
X258617964Y-76756897D01*
X258490565Y-76690561D01*
X258391305Y-76661618D01*
X258295275Y-76621251D01*
X258152000Y-76591841D01*
X258013069Y-76551331D01*
X257911168Y-76542405D01*
X257810211Y-76521682D01*
X257662828Y-76520653D01*
X257517584Y-76507931D01*
X257416995Y-76518937D01*
X257315045Y-76518225D01*
X257169173Y-76546052D01*
X257023153Y-76562028D01*
X256927686Y-76592118D01*
X256828638Y-76611012D01*
X256689921Y-76667057D01*
X256548776Y-76711544D01*
X256452677Y-76762910D01*
X256369517Y-76796509D01*
X256278990Y-76855748D01*
X256158275Y-76920272D01*
X256145093Y-76943368D01*
X255955170Y-77067650D01*
X255601379Y-77414108D01*
X255443126Y-77645231D01*
X255420272Y-77658275D01*
X255376073Y-77743160D01*
X255321620Y-77822686D01*
X255260917Y-77964316D01*
X255190561Y-78099435D01*
X255164079Y-78190255D01*
X255126548Y-78277822D01*
X255094277Y-78429646D01*
X255051331Y-78576931D01*
X255043173Y-78670074D01*
X255023595Y-78762179D01*
X255021412Y-78918507D01*
X255007931Y-79072416D01*
X24997266Y-79072416D01*
X25002069Y-79017584D01*
X24988735Y-78895717D01*
X24990108Y-78797411D01*
X24963000Y-78660508D01*
X24947972Y-78523153D01*
X24915240Y-78419303D01*
X24893927Y-78311664D01*
X24840324Y-78181613D01*
X24798456Y-78048776D01*
X24742170Y-77943474D01*
X24705230Y-77853849D01*
X24649141Y-77769429D01*
X24589728Y-77658275D01*
X24566471Y-77645001D01*
X24431202Y-77441405D01*
X24082283Y-77090041D01*
X23864955Y-76943451D01*
X23851725Y-76920272D01*
X23759042Y-76872012D01*
X23671762Y-76813141D01*
X23537964Y-76756897D01*
X23410565Y-76690561D01*
X23311305Y-76661618D01*
X23215275Y-76621251D01*
X23072000Y-76591841D01*
X22933069Y-76551331D01*
X22831168Y-76542405D01*
X22730211Y-76521682D01*
X22582828Y-76520653D01*
X22437584Y-76507931D01*
X22336995Y-76518937D01*
X22235045Y-76518225D01*
X22089173Y-76546052D01*
X21943153Y-76562028D01*
X21847686Y-76592118D01*
X21748638Y-76611012D01*
X21609921Y-76667057D01*
X21468776Y-76711544D01*
X21372677Y-76762910D01*
X21289517Y-76796509D01*
X21198990Y-76855748D01*
X21078275Y-76920272D01*
X21065093Y-76943368D01*
X20875170Y-77067650D01*
X20521379Y-77414108D01*
X20363126Y-77645231D01*
X20340272Y-77658275D01*
X20296073Y-77743160D01*
X20241620Y-77822686D01*
X20180917Y-77964316D01*
X20110561Y-78099435D01*
X20084079Y-78190255D01*
X20046548Y-78277822D01*
X20014277Y-78429646D01*
X19971331Y-78576931D01*
X19963173Y-78670074D01*
X19943595Y-78762179D01*
X19941412Y-78918507D01*
X19927931Y-79072416D01*
X15735000Y-79072416D01*
X15735000Y-75282946D01*
X33353687Y-75282946D01*
X33363043Y-75366189D01*
X33361865Y-75450537D01*
X33389359Y-75600339D01*
X33406158Y-75749811D01*
X33431261Y-75828646D01*
X33446298Y-75910576D01*
X33502755Y-76053170D01*
X33548703Y-76197468D01*
X33591838Y-76278168D01*
X33618478Y-76345453D01*
X33673135Y-76430265D01*
X33739234Y-76553927D01*
X33760199Y-76565362D01*
X33871847Y-76738606D01*
X34196755Y-77075057D01*
X34435156Y-77240750D01*
X34446073Y-77260766D01*
X34515872Y-77296850D01*
X34580825Y-77341993D01*
X34725259Y-77405095D01*
X34863409Y-77476513D01*
X34937904Y-77497997D01*
X35009428Y-77529245D01*
X35164411Y-77563320D01*
X35314815Y-77606696D01*
X35391030Y-77613146D01*
X35466240Y-77629682D01*
X35625960Y-77633028D01*
X35782946Y-77646313D01*
X35857923Y-77637886D01*
X35933860Y-77639477D01*
X36092224Y-77611553D01*
X36249811Y-77593842D01*
X36320717Y-77571264D01*
X36394477Y-77558258D01*
X36545395Y-77499721D01*
X36697468Y-77451297D01*
X36769493Y-77412799D01*
X36830546Y-77389118D01*
X36919972Y-77332366D01*
X37053927Y-77260766D01*
X37065113Y-77240256D01*
X37225457Y-77138499D01*
X37564169Y-76815949D01*
X37741649Y-76564354D01*
X37760766Y-76553927D01*
X37793029Y-76491518D01*
X37833779Y-76433751D01*
X37901350Y-76281985D01*
X37976513Y-76136591D01*
X37995691Y-76070091D01*
X38024019Y-76006466D01*
X38061064Y-75843412D01*
X38106696Y-75685185D01*
X38112444Y-75617264D01*
X38127643Y-75550366D01*
X38129527Y-75415399D01*
X38140736Y-75282946D01*
X126353687Y-75282946D01*
X126363043Y-75366189D01*
X126361865Y-75450537D01*
X126389359Y-75600339D01*
X126406158Y-75749811D01*
X126431261Y-75828646D01*
X126446298Y-75910576D01*
X126502755Y-76053170D01*
X126548703Y-76197468D01*
X126591838Y-76278168D01*
X126618478Y-76345453D01*
X126673135Y-76430265D01*
X126739234Y-76553927D01*
X126760199Y-76565362D01*
X126871847Y-76738606D01*
X127196755Y-77075057D01*
X127435156Y-77240750D01*
X127446073Y-77260766D01*
X127515872Y-77296850D01*
X127580825Y-77341993D01*
X127725259Y-77405095D01*
X127863409Y-77476513D01*
X127937904Y-77497997D01*
X128009428Y-77529245D01*
X128164411Y-77563320D01*
X128314815Y-77606696D01*
X128391030Y-77613146D01*
X128466240Y-77629682D01*
X128625960Y-77633028D01*
X128782946Y-77646313D01*
X128857923Y-77637886D01*
X128933860Y-77639477D01*
X129092224Y-77611553D01*
X129249811Y-77593842D01*
X129320717Y-77571264D01*
X129394477Y-77558258D01*
X129545395Y-77499721D01*
X129697468Y-77451297D01*
X129769493Y-77412799D01*
X129830546Y-77389118D01*
X129919972Y-77332366D01*
X130053927Y-77260766D01*
X130065113Y-77240256D01*
X130225457Y-77138499D01*
X130564169Y-76815949D01*
X130741649Y-76564354D01*
X130760766Y-76553927D01*
X130793029Y-76491518D01*
X130833779Y-76433751D01*
X130901350Y-76281985D01*
X130976513Y-76136591D01*
X130995691Y-76070091D01*
X131024019Y-76006466D01*
X131061064Y-75843412D01*
X131106696Y-75685185D01*
X131112444Y-75617264D01*
X131127643Y-75550366D01*
X131129527Y-75415399D01*
X131146313Y-75217054D01*
X131133846Y-75106124D01*
X131135102Y-75016139D01*
X131108807Y-74883338D01*
X131093842Y-74750189D01*
X131063698Y-74655523D01*
X131044254Y-74557324D01*
X130992263Y-74431185D01*
X130951297Y-74302532D01*
X130898604Y-74203950D01*
X130866019Y-74124893D01*
X130816546Y-74050429D01*
X130760766Y-73946073D01*
X130739508Y-73934478D01*
X130607185Y-73735316D01*
X130277612Y-73403434D01*
X130065423Y-73260311D01*
X130053927Y-73239234D01*
X129969362Y-73195517D01*
X129889852Y-73141887D01*
X129760180Y-73087378D01*
X129636591Y-73023487D01*
X129546124Y-72997397D01*
X129458676Y-72960637D01*
X129319842Y-72932138D01*
X129185185Y-72893304D01*
X129092406Y-72885452D01*
X129000507Y-72866588D01*
X128857719Y-72865591D01*
X128717054Y-72853687D01*
X128625555Y-72863971D01*
X128532795Y-72863323D01*
X128391507Y-72890275D01*
X128250189Y-72906158D01*
X128163435Y-72933783D01*
X128073357Y-72950966D01*
X127939019Y-73005242D01*
X127802532Y-73048703D01*
X127712991Y-73096564D01*
X127639693Y-73126178D01*
X127559905Y-73178390D01*
X127446073Y-73239234D01*
X127434500Y-73260452D01*
X127248319Y-73382285D01*
X126914144Y-73709534D01*
X126759900Y-73934801D01*
X126739234Y-73946073D01*
X126699332Y-74023259D01*
X126649896Y-74095458D01*
X126591147Y-74232528D01*
X126523487Y-74363409D01*
X126499700Y-74445891D01*
X126465640Y-74525358D01*
X126434412Y-74672274D01*
X126393304Y-74814815D01*
X126386153Y-74899316D01*
X126368395Y-74982860D01*
X126366283Y-75134104D01*
X126353687Y-75282946D01*
X38140736Y-75282946D01*
X38146313Y-75217054D01*
X38133846Y-75106124D01*
X38135102Y-75016139D01*
X38108807Y-74883338D01*
X38093842Y-74750189D01*
X38063698Y-74655523D01*
X38044254Y-74557324D01*
X37992263Y-74431185D01*
X37951297Y-74302532D01*
X37898604Y-74203950D01*
X37866019Y-74124893D01*
X37816546Y-74050429D01*
X37760766Y-73946073D01*
X37739508Y-73934478D01*
X37607185Y-73735316D01*
X37277612Y-73403434D01*
X37065423Y-73260311D01*
X37053927Y-73239234D01*
X36969362Y-73195517D01*
X36889852Y-73141887D01*
X36760180Y-73087378D01*
X36636591Y-73023487D01*
X36546124Y-72997397D01*
X36458676Y-72960637D01*
X36319842Y-72932138D01*
X36185185Y-72893304D01*
X36092406Y-72885452D01*
X36000507Y-72866588D01*
X35857719Y-72865591D01*
X35717054Y-72853687D01*
X35625555Y-72863971D01*
X35532795Y-72863323D01*
X35391507Y-72890275D01*
X35250189Y-72906158D01*
X35163435Y-72933783D01*
X35073357Y-72950966D01*
X34939019Y-73005242D01*
X34802532Y-73048703D01*
X34712991Y-73096564D01*
X34639693Y-73126178D01*
X34559905Y-73178390D01*
X34446073Y-73239234D01*
X34434500Y-73260452D01*
X34248319Y-73382285D01*
X33914144Y-73709534D01*
X33759900Y-73934801D01*
X33739234Y-73946073D01*
X33699332Y-74023259D01*
X33649896Y-74095458D01*
X33591147Y-74232528D01*
X33523487Y-74363409D01*
X33499700Y-74445891D01*
X33465640Y-74525358D01*
X33434412Y-74672274D01*
X33393304Y-74814815D01*
X33386153Y-74899316D01*
X33368395Y-74982860D01*
X33366283Y-75134104D01*
X33353687Y-75282946D01*
X15735000Y-75282946D01*
X15735000Y-47322416D01*
X19927931Y-47322416D01*
X19937980Y-47414264D01*
X19936681Y-47507309D01*
X19965106Y-47662185D01*
X19982028Y-47816847D01*
X20009474Y-47903925D01*
X20026070Y-47994352D01*
X20084444Y-48141787D01*
X20131544Y-48291224D01*
X20178084Y-48378294D01*
X20208358Y-48454757D01*
X20270472Y-48551140D01*
X20340272Y-48681725D01*
X20362983Y-48694687D01*
X20476600Y-48870987D01*
X20820579Y-49227188D01*
X21065563Y-49397457D01*
X21078275Y-49419728D01*
X21155354Y-49459863D01*
X21227194Y-49509793D01*
X21376620Y-49575076D01*
X21519435Y-49649439D01*
X21601808Y-49673457D01*
X21680957Y-49708037D01*
X21841316Y-49743294D01*
X21996931Y-49788669D01*
X22081307Y-49796060D01*
X22164583Y-49814369D01*
X22329866Y-49817831D01*
X22492416Y-49832069D01*
X22575517Y-49822977D01*
X22659653Y-49824739D01*
X22823560Y-49795838D01*
X22986847Y-49777972D01*
X23065535Y-49753171D01*
X23147308Y-49738752D01*
X23303516Y-49678163D01*
X23461224Y-49628456D01*
X23539400Y-49586670D01*
X23608974Y-49559684D01*
X23710889Y-49495007D01*
X23851725Y-49419728D01*
X23864342Y-49397622D01*
X24027067Y-49294354D01*
X24385661Y-48952870D01*
X24568308Y-48693951D01*
X24589728Y-48681725D01*
X24625796Y-48612456D01*
X24671097Y-48548238D01*
X24741080Y-48391054D01*
X24819439Y-48240565D01*
X24840993Y-48166646D01*
X24872504Y-48095870D01*
X24910874Y-47926985D01*
X24958669Y-47763069D01*
X24965291Y-47687467D01*
X24982210Y-47612998D01*
X24984182Y-47471797D01*
X25002069Y-47267584D01*
X24988735Y-47145717D01*
X24990108Y-47047411D01*
X24963000Y-46910508D01*
X24947972Y-46773153D01*
X24915240Y-46669303D01*
X24893927Y-46561664D01*
X24840324Y-46431613D01*
X24798456Y-46298776D01*
X24742170Y-46193474D01*
X24705230Y-46103849D01*
X24649141Y-46019429D01*
X24589728Y-45908275D01*
X24566471Y-45895001D01*
X24431202Y-45691405D01*
X24082283Y-45340041D01*
X23864955Y-45193451D01*
X23851725Y-45170272D01*
X23759042Y-45122012D01*
X23671762Y-45063141D01*
X23537964Y-45006897D01*
X23410565Y-44940561D01*
X23311305Y-44911618D01*
X23215275Y-44871251D01*
X23072000Y-44841841D01*
X22933069Y-44801331D01*
X22831168Y-44792405D01*
X22730211Y-44771682D01*
X22582828Y-44770653D01*
X22437584Y-44757931D01*
X22336995Y-44768937D01*
X22235045Y-44768225D01*
X22089173Y-44796052D01*
X21943153Y-44812028D01*
X21847686Y-44842118D01*
X21748638Y-44861012D01*
X21609921Y-44917057D01*
X21468776Y-44961544D01*
X21372677Y-45012910D01*
X21289517Y-45046509D01*
X21198990Y-45105748D01*
X21078275Y-45170272D01*
X21065093Y-45193368D01*
X20875170Y-45317650D01*
X20521379Y-45664108D01*
X20363126Y-45895231D01*
X20340272Y-45908275D01*
X20296073Y-45993160D01*
X20241620Y-46072686D01*
X20180917Y-46214316D01*
X20110561Y-46349435D01*
X20084079Y-46440255D01*
X20046548Y-46527822D01*
X20014277Y-46679646D01*
X19971331Y-46826931D01*
X19963173Y-46920074D01*
X19943595Y-47012179D01*
X19941412Y-47168507D01*
X19927931Y-47322416D01*
X15735000Y-47322416D01*
X15735000Y-27650000D01*
X32315000Y-27650000D01*
X32315000Y-67850000D01*
X32324508Y-67946977D01*
X32333333Y-68043940D01*
X32334357Y-68047418D01*
X32334711Y-68051033D01*
X32362882Y-68144338D01*
X32390365Y-68237718D01*
X32392046Y-68240933D01*
X32393095Y-68244408D01*
X32438810Y-68330385D01*
X32483949Y-68416728D01*
X32486225Y-68419558D01*
X32487927Y-68422760D01*
X32549457Y-68498204D01*
X32610521Y-68574152D01*
X32613302Y-68576485D01*
X32615594Y-68579296D01*
X32690658Y-68641394D01*
X32765259Y-68703992D01*
X32768436Y-68705739D01*
X32771235Y-68708054D01*
X32856945Y-68754397D01*
X32942270Y-68801305D01*
X32945730Y-68802403D01*
X32948921Y-68804128D01*
X33041912Y-68832914D01*
X33134811Y-68862383D01*
X33138420Y-68862788D01*
X33141884Y-68863860D01*
X33238734Y-68874040D01*
X33335549Y-68884899D01*
X33342514Y-68884948D01*
X33342774Y-68884975D01*
X33343034Y-68884951D01*
X33350000Y-68885000D01*
X131150000Y-68885000D01*
X131246977Y-68875492D01*
X131343940Y-68866667D01*
X131347418Y-68865643D01*
X131351033Y-68865289D01*
X131444338Y-68837118D01*
X131537718Y-68809635D01*
X131540933Y-68807954D01*
X131544408Y-68806905D01*
X131630385Y-68761190D01*
X131716728Y-68716051D01*
X131719558Y-68713775D01*
X131722760Y-68712073D01*
X131798204Y-68650543D01*
X131874152Y-68589479D01*
X131876485Y-68586698D01*
X131879296Y-68584406D01*
X131941394Y-68509342D01*
X132003992Y-68434741D01*
X132005739Y-68431564D01*
X132008054Y-68428765D01*
X132054397Y-68343055D01*
X132101305Y-68257730D01*
X132102403Y-68254270D01*
X132104128Y-68251079D01*
X132132914Y-68158088D01*
X132162383Y-68065189D01*
X132162788Y-68061580D01*
X132163860Y-68058116D01*
X132174040Y-67961266D01*
X132184899Y-67864451D01*
X132184948Y-67857486D01*
X132184975Y-67857226D01*
X132184951Y-67856966D01*
X132185000Y-67850000D01*
X132185000Y-60350000D01*
X240465000Y-60350000D01*
X240465000Y-65650000D01*
X240484711Y-65851033D01*
X240495132Y-65885547D01*
X240495530Y-65889531D01*
X240554289Y-66082792D01*
X240649468Y-66260960D01*
X240657572Y-66272925D01*
X240870938Y-66583240D01*
X240911384Y-66631252D01*
X240948162Y-66682130D01*
X240957806Y-66692893D01*
X241616574Y-67417846D01*
X241686138Y-67480787D01*
X241754808Y-67544685D01*
X241766358Y-67553370D01*
X242553390Y-68136562D01*
X242633856Y-68184793D01*
X242713629Y-68234136D01*
X242726646Y-68240412D01*
X243611965Y-68659629D01*
X243700274Y-68691315D01*
X243788106Y-68724221D01*
X243802090Y-68727848D01*
X243802093Y-68727849D01*
X243802095Y-68727849D01*
X244751980Y-68967122D01*
X244844733Y-68981048D01*
X244937311Y-68996272D01*
X244951727Y-68997112D01*
X244951738Y-68997114D01*
X244951748Y-68997114D01*
X245930007Y-69047328D01*
X246023718Y-69042972D01*
X246117469Y-69039925D01*
X246131774Y-69037950D01*
X246131786Y-69037949D01*
X246131797Y-69037946D01*
X247101176Y-68897194D01*
X247192269Y-68874716D01*
X247283631Y-68853520D01*
X247297288Y-68848802D01*
X247297294Y-68848800D01*
X248220881Y-68522439D01*
X248305875Y-68482695D01*
X248391378Y-68444158D01*
X248403852Y-68436880D01*
X248403861Y-68436876D01*
X248403868Y-68436871D01*
X249246472Y-67937335D01*
X249322099Y-67881860D01*
X249398518Y-67827428D01*
X249409340Y-67817865D01*
X249409347Y-67817860D01*
X249409352Y-67817854D01*
X250138883Y-67164168D01*
X250202329Y-67095022D01*
X250266684Y-67026822D01*
X250275449Y-67015333D01*
X250864121Y-66232390D01*
X250912915Y-66152259D01*
X250962811Y-66072837D01*
X250969178Y-66059864D01*
X250969179Y-66059863D01*
X250969181Y-66059859D01*
X251394565Y-65177493D01*
X251426871Y-65089396D01*
X251460385Y-65001808D01*
X251464111Y-64987845D01*
X251710009Y-64039654D01*
X251724587Y-63946971D01*
X251740451Y-63854531D01*
X251741394Y-63840111D01*
X251798438Y-62862216D01*
X251794736Y-62768466D01*
X251792343Y-62674705D01*
X251790467Y-62660376D01*
X251656484Y-61690026D01*
X251634639Y-61598765D01*
X251614084Y-61507270D01*
X251609464Y-61493592D01*
X251609461Y-61493578D01*
X251609456Y-61493566D01*
X251289553Y-60567731D01*
X251250422Y-60482504D01*
X251212465Y-60396692D01*
X251205269Y-60384160D01*
X251205269Y-60384159D01*
X251205266Y-60384155D01*
X250711624Y-59538083D01*
X250656669Y-59462057D01*
X250602781Y-59385274D01*
X250593289Y-59374377D01*
X249944708Y-58640296D01*
X249876025Y-58576386D01*
X249808257Y-58511538D01*
X249796834Y-58502698D01*
X249796829Y-58502693D01*
X249796824Y-58502690D01*
X249018015Y-57908570D01*
X248938233Y-57859222D01*
X248859156Y-57808769D01*
X248846230Y-57802314D01*
X248846226Y-57802311D01*
X248846222Y-57802309D01*
X247966847Y-57370775D01*
X247879018Y-57337869D01*
X247791626Y-57303729D01*
X247777699Y-57299910D01*
X247777689Y-57299906D01*
X247777679Y-57299904D01*
X246831237Y-57047395D01*
X246738700Y-57032177D01*
X246646331Y-57015660D01*
X246631918Y-57014617D01*
X245654445Y-56950747D01*
X245560662Y-56953795D01*
X245466896Y-56955533D01*
X245452554Y-56957309D01*
X244481292Y-57084515D01*
X244389911Y-57105716D01*
X244298247Y-57125637D01*
X244284523Y-57130165D01*
X243356465Y-57443600D01*
X243270910Y-57482160D01*
X243184891Y-57519494D01*
X243172308Y-57526601D01*
X242322805Y-58014329D01*
X242246404Y-58068747D01*
X242169240Y-58122102D01*
X242158283Y-58131514D01*
X242158277Y-58131518D01*
X242158272Y-58131523D01*
X241419687Y-58774959D01*
X241355313Y-58843179D01*
X241289980Y-58910507D01*
X241281060Y-58921868D01*
X241281054Y-58921874D01*
X241281050Y-58921881D01*
X240681509Y-59696520D01*
X240574053Y-59867563D01*
X240501867Y-60056221D01*
X240489277Y-60129577D01*
X240487617Y-60134811D01*
X240486179Y-60147627D01*
X240467699Y-60255307D01*
X240468885Y-60301809D01*
X240465101Y-60335549D01*
X240465000Y-60350000D01*
X132185000Y-60350000D01*
X132185000Y-47322416D01*
X255007931Y-47322416D01*
X255017980Y-47414264D01*
X255016681Y-47507309D01*
X255045106Y-47662185D01*
X255062028Y-47816847D01*
X255089474Y-47903925D01*
X255106070Y-47994352D01*
X255164444Y-48141787D01*
X255211544Y-48291224D01*
X255258084Y-48378294D01*
X255288358Y-48454757D01*
X255350472Y-48551140D01*
X255420272Y-48681725D01*
X255442983Y-48694687D01*
X255556600Y-48870987D01*
X255900579Y-49227188D01*
X256145563Y-49397457D01*
X256158275Y-49419728D01*
X256235354Y-49459863D01*
X256307194Y-49509793D01*
X256456620Y-49575076D01*
X256599435Y-49649439D01*
X256681808Y-49673457D01*
X256760957Y-49708037D01*
X256921316Y-49743294D01*
X257076931Y-49788669D01*
X257161307Y-49796060D01*
X257244583Y-49814369D01*
X257409866Y-49817831D01*
X257572416Y-49832069D01*
X257655517Y-49822977D01*
X257739653Y-49824739D01*
X257903560Y-49795838D01*
X258066847Y-49777972D01*
X258145535Y-49753171D01*
X258227308Y-49738752D01*
X258383516Y-49678163D01*
X258541224Y-49628456D01*
X258619400Y-49586670D01*
X258688974Y-49559684D01*
X258790889Y-49495007D01*
X258931725Y-49419728D01*
X258944342Y-49397622D01*
X259107067Y-49294354D01*
X259465661Y-48952870D01*
X259648308Y-48693951D01*
X259669728Y-48681725D01*
X259705796Y-48612456D01*
X259751097Y-48548238D01*
X259821080Y-48391054D01*
X259899439Y-48240565D01*
X259920993Y-48166646D01*
X259952504Y-48095870D01*
X259990874Y-47926985D01*
X260038669Y-47763069D01*
X260045291Y-47687467D01*
X260062210Y-47612998D01*
X260064182Y-47471797D01*
X260082069Y-47267584D01*
X260068735Y-47145717D01*
X260070108Y-47047411D01*
X260043000Y-46910508D01*
X260027972Y-46773153D01*
X259995240Y-46669303D01*
X259973927Y-46561664D01*
X259920324Y-46431613D01*
X259878456Y-46298776D01*
X259822170Y-46193474D01*
X259785230Y-46103849D01*
X259729141Y-46019429D01*
X259669728Y-45908275D01*
X259646471Y-45895001D01*
X259511202Y-45691405D01*
X259162283Y-45340041D01*
X258944955Y-45193451D01*
X258931725Y-45170272D01*
X258839042Y-45122012D01*
X258751762Y-45063141D01*
X258617964Y-45006897D01*
X258490565Y-44940561D01*
X258391305Y-44911618D01*
X258295275Y-44871251D01*
X258152000Y-44841841D01*
X258013069Y-44801331D01*
X257911168Y-44792405D01*
X257810211Y-44771682D01*
X257662828Y-44770653D01*
X257517584Y-44757931D01*
X257416995Y-44768937D01*
X257315045Y-44768225D01*
X257169173Y-44796052D01*
X257023153Y-44812028D01*
X256927686Y-44842118D01*
X256828638Y-44861012D01*
X256689921Y-44917057D01*
X256548776Y-44961544D01*
X256452677Y-45012910D01*
X256369517Y-45046509D01*
X256278990Y-45105748D01*
X256158275Y-45170272D01*
X256145093Y-45193368D01*
X255955170Y-45317650D01*
X255601379Y-45664108D01*
X255443126Y-45895231D01*
X255420272Y-45908275D01*
X255376073Y-45993160D01*
X255321620Y-46072686D01*
X255260917Y-46214316D01*
X255190561Y-46349435D01*
X255164079Y-46440255D01*
X255126548Y-46527822D01*
X255094277Y-46679646D01*
X255051331Y-46826931D01*
X255043173Y-46920074D01*
X255023595Y-47012179D01*
X255021412Y-47168507D01*
X255007931Y-47322416D01*
X132185000Y-47322416D01*
X132185000Y-31953986D01*
X241344024Y-31953986D01*
X241362150Y-32160057D01*
X241359236Y-32368703D01*
X241400072Y-32591200D01*
X241419707Y-32814434D01*
X241477152Y-33011179D01*
X241514472Y-33214518D01*
X241598462Y-33426652D01*
X241661801Y-33643583D01*
X241755644Y-33823650D01*
X241831038Y-34014073D01*
X241955679Y-34207477D01*
X242061001Y-34409570D01*
X242112128Y-34486088D01*
X242158617Y-34522375D01*
X242296877Y-34736912D01*
X242894243Y-35355503D01*
X243220505Y-35582261D01*
X243263912Y-35637872D01*
X243436983Y-35732717D01*
X243600384Y-35846284D01*
X243816544Y-35940722D01*
X244021395Y-36052983D01*
X244207829Y-36111670D01*
X244388404Y-36190561D01*
X244620690Y-36241633D01*
X244845307Y-36312339D01*
X245037703Y-36333319D01*
X245228286Y-36375222D01*
X245468011Y-36380243D01*
X245498015Y-36383515D01*
X245484241Y-36386143D01*
X245368325Y-36402039D01*
X245328147Y-36415919D01*
X245286138Y-36423933D01*
X245175139Y-36468779D01*
X245063912Y-36507205D01*
X245014002Y-36533883D01*
X244988846Y-36544046D01*
X244961464Y-36561964D01*
X244889956Y-36600186D01*
X244885887Y-36611421D01*
X244720546Y-36719617D01*
X244491457Y-36943957D01*
X244359585Y-37136552D01*
X244350186Y-37139956D01*
X244332841Y-37175610D01*
X244310306Y-37208522D01*
X244261987Y-37321258D01*
X244209296Y-37429571D01*
X244199420Y-37467239D01*
X244183993Y-37503233D01*
X244158337Y-37623935D01*
X244127616Y-37741108D01*
X244125322Y-37779259D01*
X244117328Y-37816866D01*
X244115595Y-37941001D01*
X244108282Y-38062595D01*
X244113378Y-38099754D01*
X244112851Y-38137475D01*
X244135396Y-38260312D01*
X244152039Y-38381675D01*
X244164053Y-38416450D01*
X244170733Y-38452848D01*
X244216985Y-38569668D01*
X244257205Y-38686088D01*
X244279861Y-38728475D01*
X244288768Y-38750971D01*
X244307042Y-38779327D01*
X244350186Y-38860044D01*
X244361763Y-38864237D01*
X244462461Y-39020491D01*
X244685197Y-39251140D01*
X244886876Y-39391310D01*
X244889956Y-39399814D01*
X244920468Y-39414657D01*
X244948490Y-39434133D01*
X245066345Y-39485622D01*
X245179571Y-39540704D01*
X245211707Y-39549129D01*
X245242313Y-39562501D01*
X245368665Y-39590281D01*
X245491108Y-39622384D01*
X245523549Y-39624335D01*
X245555473Y-39631354D01*
X245685579Y-39634079D01*
X245812595Y-39641718D01*
X245844085Y-39637400D01*
X245876043Y-39638069D01*
X246004939Y-39615341D01*
X246131675Y-39597961D01*
X246161042Y-39587815D01*
X246191811Y-39582390D01*
X246314550Y-39534783D01*
X246436088Y-39492795D01*
X246471232Y-39474010D01*
X246490752Y-39466439D01*
X246519345Y-39448294D01*
X246610044Y-39399814D01*
X246614314Y-39388024D01*
X246761477Y-39294632D01*
X246993676Y-39073512D01*
X247142355Y-38862745D01*
X247149814Y-38860044D01*
X247162152Y-38834682D01*
X247178503Y-38811503D01*
X247233286Y-38688459D01*
X247290704Y-38570429D01*
X247297677Y-38543833D01*
X247308919Y-38518583D01*
X247338928Y-38386496D01*
X247372384Y-38258892D01*
X247373991Y-38232165D01*
X247379956Y-38205911D01*
X247381282Y-38110931D01*
X247391718Y-37937405D01*
X247384446Y-37884376D01*
X247385070Y-37839680D01*
X247363101Y-37728729D01*
X247347961Y-37618325D01*
X247332218Y-37572754D01*
X247322791Y-37525146D01*
X247279408Y-37419891D01*
X247242795Y-37313912D01*
X247211910Y-37256129D01*
X247200604Y-37228700D01*
X247183440Y-37202866D01*
X247149814Y-37139956D01*
X247139053Y-37136059D01*
X247023165Y-36961632D01*
X246797231Y-36734115D01*
X246613720Y-36610336D01*
X246610044Y-36600186D01*
X246569251Y-36580341D01*
X246531408Y-36554816D01*
X246423777Y-36509572D01*
X246320429Y-36459296D01*
X246277234Y-36447971D01*
X246235822Y-36430563D01*
X246120725Y-36406937D01*
X246066748Y-36392785D01*
X246088041Y-36393231D01*
X246326081Y-36351258D01*
X246564434Y-36330293D01*
X246746561Y-36277116D01*
X246934919Y-36243903D01*
X247162082Y-36155792D01*
X247393583Y-36088199D01*
X247560144Y-36001395D01*
X247736664Y-35932927D01*
X247944022Y-35801334D01*
X248159570Y-35688999D01*
X248236088Y-35637872D01*
X248269945Y-35594496D01*
X248462738Y-35472146D01*
X249085484Y-34879113D01*
X249331930Y-34529753D01*
X249387872Y-34486088D01*
X249475394Y-34326381D01*
X249581183Y-34176415D01*
X249683437Y-33946749D01*
X249802983Y-33728605D01*
X249857091Y-33556716D01*
X249930954Y-33390818D01*
X249987084Y-33143759D01*
X250062339Y-32904693D01*
X250081667Y-32727454D01*
X250121473Y-32552245D01*
X250124513Y-32334540D01*
X250155976Y-32046014D01*
X250132300Y-31776841D01*
X250135188Y-31570029D01*
X250097262Y-31378490D01*
X250080293Y-31185566D01*
X250014327Y-30959640D01*
X249968157Y-30726463D01*
X249893013Y-30544149D01*
X249838199Y-30356417D01*
X249730305Y-30149390D01*
X249640459Y-29931406D01*
X249530263Y-29765548D01*
X249438999Y-29590430D01*
X249387872Y-29513912D01*
X249336365Y-29473709D01*
X249164574Y-29215142D01*
X248558628Y-28604951D01*
X248277739Y-28415489D01*
X248236088Y-28362128D01*
X248036335Y-28252661D01*
X247845703Y-28124078D01*
X247656800Y-28044670D01*
X247478605Y-27947017D01*
X247263152Y-27879195D01*
X247052954Y-27790836D01*
X246850317Y-27749241D01*
X246654693Y-27687661D01*
X246432041Y-27663381D01*
X246210575Y-27617921D01*
X246001789Y-27616463D01*
X245796014Y-27594024D01*
X245574794Y-27613482D01*
X245350653Y-27611917D01*
X245143654Y-27651404D01*
X244935566Y-27669707D01*
X244724223Y-27731415D01*
X244505942Y-27773054D01*
X244308758Y-27852722D01*
X244106417Y-27911801D01*
X243912855Y-28012677D01*
X243708617Y-28095195D01*
X243529051Y-28212700D01*
X243340430Y-28311001D01*
X243263912Y-28362128D01*
X243225502Y-28411336D01*
X242989048Y-28566068D01*
X242374642Y-29167738D01*
X242166868Y-29471185D01*
X242112128Y-29513912D01*
X242009965Y-29700336D01*
X241888803Y-29877289D01*
X241801981Y-30079859D01*
X241697017Y-30271395D01*
X241633759Y-30472350D01*
X241550035Y-30667693D01*
X241503808Y-30885173D01*
X241437661Y-31095307D01*
X241415030Y-31302844D01*
X241371243Y-31508844D01*
X241368112Y-31733096D01*
X241344024Y-31953986D01*
X132185000Y-31953986D01*
X132185000Y-27650000D01*
X132175492Y-27553023D01*
X132166667Y-27456060D01*
X132165643Y-27452582D01*
X132165289Y-27448967D01*
X132137118Y-27355662D01*
X132109635Y-27262282D01*
X132107954Y-27259067D01*
X132106905Y-27255592D01*
X132061190Y-27169615D01*
X132016051Y-27083272D01*
X132013775Y-27080442D01*
X132012073Y-27077240D01*
X131950543Y-27001796D01*
X131889479Y-26925848D01*
X131886698Y-26923515D01*
X131884406Y-26920704D01*
X131809342Y-26858606D01*
X131734741Y-26796008D01*
X131731564Y-26794261D01*
X131728765Y-26791946D01*
X131643055Y-26745603D01*
X131557730Y-26698695D01*
X131554270Y-26697597D01*
X131551079Y-26695872D01*
X131458088Y-26667086D01*
X131365189Y-26637617D01*
X131361580Y-26637212D01*
X131358116Y-26636140D01*
X131261266Y-26625960D01*
X131164451Y-26615101D01*
X131157486Y-26615052D01*
X131157226Y-26615025D01*
X131156966Y-26615049D01*
X131150000Y-26615000D01*
X33350000Y-26615000D01*
X33253023Y-26624508D01*
X33156060Y-26633333D01*
X33152582Y-26634357D01*
X33148967Y-26634711D01*
X33055662Y-26662882D01*
X32962282Y-26690365D01*
X32959067Y-26692046D01*
X32955592Y-26693095D01*
X32869615Y-26738810D01*
X32783272Y-26783949D01*
X32780442Y-26786225D01*
X32777240Y-26787927D01*
X32701796Y-26849457D01*
X32625848Y-26910521D01*
X32623515Y-26913302D01*
X32620704Y-26915594D01*
X32558606Y-26990658D01*
X32496008Y-27065259D01*
X32494261Y-27068436D01*
X32491946Y-27071235D01*
X32445603Y-27156945D01*
X32398695Y-27242270D01*
X32397597Y-27245730D01*
X32395872Y-27248921D01*
X32367086Y-27341912D01*
X32337617Y-27434811D01*
X32337212Y-27438420D01*
X32336140Y-27441884D01*
X32325960Y-27538734D01*
X32315101Y-27635549D01*
X32315052Y-27642514D01*
X32315025Y-27642774D01*
X32315049Y-27643034D01*
X32315000Y-27650000D01*
X15735000Y-27650000D01*
X15735000Y-22210179D01*
X15835165Y-21188617D01*
X16108602Y-20282946D01*
X33353687Y-20282946D01*
X33363043Y-20366189D01*
X33361865Y-20450537D01*
X33389359Y-20600339D01*
X33406158Y-20749811D01*
X33431261Y-20828646D01*
X33446298Y-20910576D01*
X33502755Y-21053170D01*
X33548703Y-21197468D01*
X33591838Y-21278168D01*
X33618478Y-21345453D01*
X33673135Y-21430265D01*
X33739234Y-21553927D01*
X33760199Y-21565362D01*
X33871847Y-21738606D01*
X34196755Y-22075057D01*
X34435156Y-22240750D01*
X34446073Y-22260766D01*
X34515872Y-22296850D01*
X34580825Y-22341993D01*
X34725259Y-22405095D01*
X34863409Y-22476513D01*
X34937904Y-22497997D01*
X35009428Y-22529245D01*
X35164411Y-22563320D01*
X35314815Y-22606696D01*
X35391030Y-22613146D01*
X35466240Y-22629682D01*
X35625960Y-22633028D01*
X35782946Y-22646313D01*
X35857923Y-22637886D01*
X35933860Y-22639477D01*
X36092224Y-22611553D01*
X36249811Y-22593842D01*
X36320717Y-22571264D01*
X36394477Y-22558258D01*
X36545395Y-22499721D01*
X36697468Y-22451297D01*
X36769493Y-22412799D01*
X36830546Y-22389118D01*
X36919972Y-22332366D01*
X37053927Y-22260766D01*
X37065113Y-22240256D01*
X37225457Y-22138499D01*
X37564169Y-21815949D01*
X37741649Y-21564354D01*
X37760766Y-21553927D01*
X37793029Y-21491518D01*
X37833779Y-21433751D01*
X37901350Y-21281985D01*
X37976513Y-21136591D01*
X37995691Y-21070091D01*
X38024019Y-21006466D01*
X38061064Y-20843412D01*
X38106696Y-20685185D01*
X38112444Y-20617264D01*
X38127643Y-20550366D01*
X38129527Y-20415399D01*
X38140736Y-20282946D01*
X126353687Y-20282946D01*
X126363043Y-20366189D01*
X126361865Y-20450537D01*
X126389359Y-20600339D01*
X126406158Y-20749811D01*
X126431261Y-20828646D01*
X126446298Y-20910576D01*
X126502755Y-21053170D01*
X126548703Y-21197468D01*
X126591838Y-21278168D01*
X126618478Y-21345453D01*
X126673135Y-21430265D01*
X126739234Y-21553927D01*
X126760199Y-21565362D01*
X126871847Y-21738606D01*
X127196755Y-22075057D01*
X127435156Y-22240750D01*
X127446073Y-22260766D01*
X127515872Y-22296850D01*
X127580825Y-22341993D01*
X127725259Y-22405095D01*
X127863409Y-22476513D01*
X127937904Y-22497997D01*
X128009428Y-22529245D01*
X128164411Y-22563320D01*
X128314815Y-22606696D01*
X128391030Y-22613146D01*
X128466240Y-22629682D01*
X128625960Y-22633028D01*
X128782946Y-22646313D01*
X128857923Y-22637886D01*
X128933860Y-22639477D01*
X129092224Y-22611553D01*
X129249811Y-22593842D01*
X129320717Y-22571264D01*
X129394477Y-22558258D01*
X129545395Y-22499721D01*
X129697468Y-22451297D01*
X129769493Y-22412799D01*
X129830546Y-22389118D01*
X129919972Y-22332366D01*
X130053927Y-22260766D01*
X130065113Y-22240256D01*
X130225457Y-22138499D01*
X130564169Y-21815949D01*
X130741649Y-21564354D01*
X130760766Y-21553927D01*
X130793029Y-21491518D01*
X130833779Y-21433751D01*
X130901350Y-21281985D01*
X130917884Y-21250000D01*
X143415000Y-21250000D01*
X143415000Y-24750000D01*
X143424508Y-24846977D01*
X143433333Y-24943940D01*
X143434357Y-24947418D01*
X143434711Y-24951033D01*
X143462882Y-25044338D01*
X143490365Y-25137718D01*
X143492046Y-25140933D01*
X143493095Y-25144408D01*
X143538810Y-25230385D01*
X143583949Y-25316728D01*
X143586225Y-25319558D01*
X143587927Y-25322760D01*
X143649457Y-25398204D01*
X143710521Y-25474152D01*
X143713302Y-25476485D01*
X143715594Y-25479296D01*
X143790658Y-25541394D01*
X143865259Y-25603992D01*
X143868436Y-25605739D01*
X143871235Y-25608054D01*
X143956945Y-25654397D01*
X144042270Y-25701305D01*
X144045730Y-25702403D01*
X144048921Y-25704128D01*
X144141912Y-25732914D01*
X144234811Y-25762383D01*
X144238420Y-25762788D01*
X144241884Y-25763860D01*
X144338734Y-25774040D01*
X144435549Y-25784899D01*
X144442514Y-25784948D01*
X144442774Y-25784975D01*
X144443034Y-25784951D01*
X144450000Y-25785000D01*
X170950000Y-25785000D01*
X171046977Y-25775492D01*
X171143940Y-25766667D01*
X171147418Y-25765643D01*
X171151033Y-25765289D01*
X171244338Y-25737118D01*
X171337718Y-25709635D01*
X171340933Y-25707954D01*
X171344408Y-25706905D01*
X171430385Y-25661190D01*
X171516728Y-25616051D01*
X171519558Y-25613775D01*
X171522760Y-25612073D01*
X171598204Y-25550543D01*
X171674152Y-25489479D01*
X171676485Y-25486698D01*
X171679296Y-25484406D01*
X171741394Y-25409342D01*
X171803992Y-25334741D01*
X171805739Y-25331564D01*
X171808054Y-25328765D01*
X171854397Y-25243055D01*
X171901305Y-25157730D01*
X171902403Y-25154270D01*
X171904128Y-25151079D01*
X171932914Y-25058088D01*
X171962383Y-24965189D01*
X171962788Y-24961580D01*
X171963860Y-24958116D01*
X171974040Y-24861266D01*
X171984899Y-24764451D01*
X171984948Y-24757486D01*
X171984975Y-24757226D01*
X171984951Y-24756966D01*
X171985000Y-24750000D01*
X171985000Y-21250000D01*
X171975492Y-21153023D01*
X171966667Y-21056060D01*
X171965643Y-21052582D01*
X171965289Y-21048967D01*
X171937118Y-20955662D01*
X171909635Y-20862282D01*
X171907954Y-20859067D01*
X171906905Y-20855592D01*
X171861190Y-20769615D01*
X171816051Y-20683272D01*
X171813775Y-20680442D01*
X171812073Y-20677240D01*
X171750543Y-20601796D01*
X171689479Y-20525848D01*
X171686698Y-20523515D01*
X171684406Y-20520704D01*
X171609342Y-20458606D01*
X171534741Y-20396008D01*
X171531564Y-20394261D01*
X171528765Y-20391946D01*
X171443055Y-20345603D01*
X171357730Y-20298695D01*
X171354270Y-20297597D01*
X171351079Y-20295872D01*
X171258088Y-20267086D01*
X171165189Y-20237617D01*
X171161580Y-20237212D01*
X171158116Y-20236140D01*
X171061266Y-20225960D01*
X170964451Y-20215101D01*
X170957486Y-20215052D01*
X170957226Y-20215025D01*
X170956966Y-20215049D01*
X170950000Y-20215000D01*
X144450000Y-20215000D01*
X144353023Y-20224508D01*
X144256060Y-20233333D01*
X144252582Y-20234357D01*
X144248967Y-20234711D01*
X144155662Y-20262882D01*
X144062282Y-20290365D01*
X144059067Y-20292046D01*
X144055592Y-20293095D01*
X143969615Y-20338810D01*
X143883272Y-20383949D01*
X143880442Y-20386225D01*
X143877240Y-20387927D01*
X143801796Y-20449457D01*
X143725848Y-20510521D01*
X143723515Y-20513302D01*
X143720704Y-20515594D01*
X143658606Y-20590658D01*
X143596008Y-20665259D01*
X143594261Y-20668436D01*
X143591946Y-20671235D01*
X143545603Y-20756945D01*
X143498695Y-20842270D01*
X143497597Y-20845730D01*
X143495872Y-20848921D01*
X143467086Y-20941912D01*
X143437617Y-21034811D01*
X143437212Y-21038420D01*
X143436140Y-21041884D01*
X143425960Y-21138734D01*
X143415101Y-21235549D01*
X143415052Y-21242514D01*
X143415025Y-21242774D01*
X143415049Y-21243034D01*
X143415000Y-21250000D01*
X130917884Y-21250000D01*
X130976513Y-21136591D01*
X130995691Y-21070091D01*
X131024019Y-21006466D01*
X131061064Y-20843412D01*
X131106696Y-20685185D01*
X131112444Y-20617264D01*
X131127643Y-20550366D01*
X131129527Y-20415399D01*
X131146313Y-20217054D01*
X131133846Y-20106124D01*
X131135102Y-20016139D01*
X131108807Y-19883338D01*
X131093842Y-19750189D01*
X131063698Y-19655523D01*
X131044254Y-19557324D01*
X130992263Y-19431185D01*
X130951297Y-19302532D01*
X130898604Y-19203950D01*
X130866019Y-19124893D01*
X130816546Y-19050429D01*
X130760766Y-18946073D01*
X130739508Y-18934478D01*
X130607185Y-18735316D01*
X130277612Y-18403434D01*
X130065423Y-18260311D01*
X130053927Y-18239234D01*
X129969362Y-18195517D01*
X129889852Y-18141887D01*
X129760180Y-18087378D01*
X129636591Y-18023487D01*
X129546124Y-17997397D01*
X129458676Y-17960637D01*
X129319842Y-17932138D01*
X129185185Y-17893304D01*
X129092406Y-17885452D01*
X129000507Y-17866588D01*
X128857719Y-17865591D01*
X128717054Y-17853687D01*
X128625555Y-17863971D01*
X128532795Y-17863323D01*
X128391507Y-17890275D01*
X128250189Y-17906158D01*
X128163435Y-17933783D01*
X128073357Y-17950966D01*
X127939019Y-18005242D01*
X127802532Y-18048703D01*
X127712991Y-18096564D01*
X127639693Y-18126178D01*
X127559905Y-18178390D01*
X127446073Y-18239234D01*
X127434500Y-18260452D01*
X127248319Y-18382285D01*
X126914144Y-18709534D01*
X126759900Y-18934801D01*
X126739234Y-18946073D01*
X126699332Y-19023259D01*
X126649896Y-19095458D01*
X126591147Y-19232528D01*
X126523487Y-19363409D01*
X126499700Y-19445891D01*
X126465640Y-19525358D01*
X126434412Y-19672274D01*
X126393304Y-19814815D01*
X126386153Y-19899316D01*
X126368395Y-19982860D01*
X126366283Y-20134104D01*
X126353687Y-20282946D01*
X38140736Y-20282946D01*
X38146313Y-20217054D01*
X38133846Y-20106124D01*
X38135102Y-20016139D01*
X38108807Y-19883338D01*
X38093842Y-19750189D01*
X38063698Y-19655523D01*
X38044254Y-19557324D01*
X37992263Y-19431185D01*
X37951297Y-19302532D01*
X37898604Y-19203950D01*
X37866019Y-19124893D01*
X37816546Y-19050429D01*
X37760766Y-18946073D01*
X37739508Y-18934478D01*
X37607185Y-18735316D01*
X37277612Y-18403434D01*
X37065423Y-18260311D01*
X37053927Y-18239234D01*
X36969362Y-18195517D01*
X36889852Y-18141887D01*
X36760180Y-18087378D01*
X36636591Y-18023487D01*
X36546124Y-17997397D01*
X36458676Y-17960637D01*
X36319842Y-17932138D01*
X36185185Y-17893304D01*
X36092406Y-17885452D01*
X36000507Y-17866588D01*
X35857719Y-17865591D01*
X35717054Y-17853687D01*
X35625555Y-17863971D01*
X35532795Y-17863323D01*
X35391507Y-17890275D01*
X35250189Y-17906158D01*
X35163435Y-17933783D01*
X35073357Y-17950966D01*
X34939019Y-18005242D01*
X34802532Y-18048703D01*
X34712991Y-18096564D01*
X34639693Y-18126178D01*
X34559905Y-18178390D01*
X34446073Y-18239234D01*
X34434500Y-18260452D01*
X34248319Y-18382285D01*
X33914144Y-18709534D01*
X33759900Y-18934801D01*
X33739234Y-18946073D01*
X33699332Y-19023259D01*
X33649896Y-19095458D01*
X33591147Y-19232528D01*
X33523487Y-19363409D01*
X33499700Y-19445891D01*
X33465640Y-19525358D01*
X33434412Y-19672274D01*
X33393304Y-19814815D01*
X33386153Y-19899316D01*
X33368395Y-19982860D01*
X33366283Y-20134104D01*
X33353687Y-20282946D01*
X16108602Y-20282946D01*
X16111462Y-20273476D01*
X16560254Y-19429421D01*
X17164440Y-18688617D01*
X17901005Y-18079277D01*
X18741906Y-17624604D01*
X19655098Y-17341924D01*
X20672419Y-17235000D01*
X259299821Y-17235000D01*
X259712884Y-17275501D01*
G36*
X56819928Y-88828831D02*
X57862522Y-89037919D01*
X58844656Y-89445535D01*
X59728910Y-90036150D01*
X60481607Y-90787271D01*
X61074070Y-91670282D01*
X61483743Y-92651561D01*
X61695016Y-93693721D01*
X61699842Y-94757063D01*
X61498036Y-95801101D01*
X61097287Y-96786052D01*
X60512860Y-97674408D01*
X59767013Y-98432328D01*
X58888154Y-99030946D01*
X57909764Y-99447458D01*
X56869107Y-99666001D01*
X55805821Y-99678250D01*
X54760400Y-99483738D01*
X53772671Y-99089873D01*
X52880266Y-98511667D01*
X52114208Y-97768267D01*
X51610000Y-97051118D01*
X51610000Y-91467813D01*
X52085365Y-90766757D01*
X52841723Y-90019322D01*
X53728850Y-89433036D01*
X54712959Y-89030226D01*
X55756572Y-88826233D01*
X56819928Y-88828831D01*
X56819928Y-88828831D01*
G37*
X56819928Y-88828831D02*
X57862522Y-89037919D01*
X58844656Y-89445535D01*
X59728910Y-90036150D01*
X60481607Y-90787271D01*
X61074070Y-91670282D01*
X61483743Y-92651561D01*
X61695016Y-93693721D01*
X61699842Y-94757063D01*
X61498036Y-95801101D01*
X61097287Y-96786052D01*
X60512860Y-97674408D01*
X59767013Y-98432328D01*
X58888154Y-99030946D01*
X57909764Y-99447458D01*
X56869107Y-99666001D01*
X55805821Y-99678250D01*
X54760400Y-99483738D01*
X53772671Y-99089873D01*
X52880266Y-98511667D01*
X52114208Y-97768267D01*
X51610000Y-97051118D01*
X51610000Y-91467813D01*
X52085365Y-90766757D01*
X52841723Y-90019322D01*
X53728850Y-89433036D01*
X54712959Y-89030226D01*
X55756572Y-88826233D01*
X56819928Y-88828831D01*
G36*
X111019928Y-88828831D02*
X112062522Y-89037919D01*
X113044656Y-89445535D01*
X113928910Y-90036150D01*
X114681607Y-90787271D01*
X115274070Y-91670282D01*
X115683743Y-92651561D01*
X115895016Y-93693721D01*
X115899842Y-94757063D01*
X115698036Y-95801101D01*
X115297287Y-96786052D01*
X114712860Y-97674408D01*
X113967013Y-98432328D01*
X113088154Y-99030946D01*
X112109764Y-99447458D01*
X111069107Y-99666001D01*
X110005821Y-99678250D01*
X108960400Y-99483738D01*
X107972671Y-99089873D01*
X107080266Y-98511667D01*
X106314208Y-97768267D01*
X105810000Y-97051118D01*
X105810000Y-91467813D01*
X106285365Y-90766757D01*
X107041723Y-90019322D01*
X107928850Y-89433036D01*
X108912959Y-89030226D01*
X109956572Y-88826233D01*
X111019928Y-88828831D01*
X111019928Y-88828831D01*
G37*
X111019928Y-88828831D02*
X112062522Y-89037919D01*
X113044656Y-89445535D01*
X113928910Y-90036150D01*
X114681607Y-90787271D01*
X115274070Y-91670282D01*
X115683743Y-92651561D01*
X115895016Y-93693721D01*
X115899842Y-94757063D01*
X115698036Y-95801101D01*
X115297287Y-96786052D01*
X114712860Y-97674408D01*
X113967013Y-98432328D01*
X113088154Y-99030946D01*
X112109764Y-99447458D01*
X111069107Y-99666001D01*
X110005821Y-99678250D01*
X108960400Y-99483738D01*
X107972671Y-99089873D01*
X107080266Y-98511667D01*
X106314208Y-97768267D01*
X105810000Y-97051118D01*
X105810000Y-91467813D01*
X106285365Y-90766757D01*
X107041723Y-90019322D01*
X107928850Y-89433036D01*
X108912959Y-89030226D01*
X109956572Y-88826233D01*
X111019928Y-88828831D01*
G36*
X130069928Y-88828831D02*
X131112522Y-89037919D01*
X132094656Y-89445535D01*
X132978910Y-90036150D01*
X133731607Y-90787271D01*
X134324070Y-91670282D01*
X134733743Y-92651561D01*
X134945016Y-93693721D01*
X134949842Y-94757063D01*
X134748036Y-95801101D01*
X134347287Y-96786052D01*
X133762860Y-97674408D01*
X133017013Y-98432328D01*
X132138154Y-99030946D01*
X131159764Y-99447458D01*
X130119107Y-99666001D01*
X129055821Y-99678250D01*
X128010400Y-99483738D01*
X127022671Y-99089873D01*
X126130266Y-98511667D01*
X125364208Y-97768267D01*
X124860000Y-97051118D01*
X124860000Y-91467813D01*
X125335365Y-90766757D01*
X126091723Y-90019322D01*
X126978850Y-89433036D01*
X127962959Y-89030226D01*
X129006572Y-88826233D01*
X130069928Y-88828831D01*
X130069928Y-88828831D01*
G37*
X130069928Y-88828831D02*
X131112522Y-89037919D01*
X132094656Y-89445535D01*
X132978910Y-90036150D01*
X133731607Y-90787271D01*
X134324070Y-91670282D01*
X134733743Y-92651561D01*
X134945016Y-93693721D01*
X134949842Y-94757063D01*
X134748036Y-95801101D01*
X134347287Y-96786052D01*
X133762860Y-97674408D01*
X133017013Y-98432328D01*
X132138154Y-99030946D01*
X131159764Y-99447458D01*
X130119107Y-99666001D01*
X129055821Y-99678250D01*
X128010400Y-99483738D01*
X127022671Y-99089873D01*
X126130266Y-98511667D01*
X125364208Y-97768267D01*
X124860000Y-97051118D01*
X124860000Y-91467813D01*
X125335365Y-90766757D01*
X126091723Y-90019322D01*
X126978850Y-89433036D01*
X127962959Y-89030226D01*
X129006572Y-88826233D01*
X130069928Y-88828831D01*
G36*
X37769928Y-88828831D02*
X38812522Y-89037919D01*
X39794656Y-89445535D01*
X40678910Y-90036150D01*
X41431607Y-90787271D01*
X42024070Y-91670282D01*
X42433743Y-92651561D01*
X42645016Y-93693721D01*
X42649842Y-94757063D01*
X42448036Y-95801101D01*
X42047287Y-96786052D01*
X41462860Y-97674408D01*
X40717013Y-98432328D01*
X39838154Y-99030946D01*
X38859764Y-99447458D01*
X37819107Y-99666001D01*
X36755821Y-99678250D01*
X35710400Y-99483738D01*
X34722671Y-99089873D01*
X33830266Y-98511667D01*
X33064208Y-97768267D01*
X32560000Y-97051118D01*
X32560000Y-91467813D01*
X33035365Y-90766757D01*
X33791723Y-90019322D01*
X34678850Y-89433036D01*
X35662959Y-89030226D01*
X36706572Y-88826233D01*
X37769928Y-88828831D01*
X37769928Y-88828831D01*
G37*
X37769928Y-88828831D02*
X38812522Y-89037919D01*
X39794656Y-89445535D01*
X40678910Y-90036150D01*
X41431607Y-90787271D01*
X42024070Y-91670282D01*
X42433743Y-92651561D01*
X42645016Y-93693721D01*
X42649842Y-94757063D01*
X42448036Y-95801101D01*
X42047287Y-96786052D01*
X41462860Y-97674408D01*
X40717013Y-98432328D01*
X39838154Y-99030946D01*
X38859764Y-99447458D01*
X37819107Y-99666001D01*
X36755821Y-99678250D01*
X35710400Y-99483738D01*
X34722671Y-99089873D01*
X33830266Y-98511667D01*
X33064208Y-97768267D01*
X32560000Y-97051118D01*
X32560000Y-91467813D01*
X33035365Y-90766757D01*
X33791723Y-90019322D01*
X34678850Y-89433036D01*
X35662959Y-89030226D01*
X36706572Y-88826233D01*
X37769928Y-88828831D01*
G36*
X246395685Y-59073596D02*
X247146027Y-59273786D01*
X247843198Y-59615908D01*
X248460640Y-60086927D01*
X248974837Y-60668910D01*
X249366198Y-61339678D01*
X249619818Y-62073685D01*
X249726040Y-62842980D01*
X249680816Y-63618255D01*
X249485868Y-64369982D01*
X249148622Y-65069522D01*
X248681921Y-65690241D01*
X248103550Y-66208484D01*
X247435528Y-66604518D01*
X246703305Y-66863258D01*
X245934773Y-66974848D01*
X245159203Y-66935037D01*
X244406134Y-66745342D01*
X243704252Y-66412986D01*
X243080294Y-65950631D01*
X242536927Y-65352673D01*
X242535000Y-65349871D01*
X242535000Y-60683739D01*
X242855923Y-60269089D01*
X243441481Y-59758966D01*
X244114962Y-59372300D01*
X244850725Y-59123809D01*
X245620741Y-59022960D01*
X246395685Y-59073596D01*
X246395685Y-59073596D01*
G37*
X246395685Y-59073596D02*
X247146027Y-59273786D01*
X247843198Y-59615908D01*
X248460640Y-60086927D01*
X248974837Y-60668910D01*
X249366198Y-61339678D01*
X249619818Y-62073685D01*
X249726040Y-62842980D01*
X249680816Y-63618255D01*
X249485868Y-64369982D01*
X249148622Y-65069522D01*
X248681921Y-65690241D01*
X248103550Y-66208484D01*
X247435528Y-66604518D01*
X246703305Y-66863258D01*
X245934773Y-66974848D01*
X245159203Y-66935037D01*
X244406134Y-66745342D01*
X243704252Y-66412986D01*
X243080294Y-65950631D01*
X242536927Y-65352673D01*
X242535000Y-65349871D01*
X242535000Y-60683739D01*
X242855923Y-60269089D01*
X243441481Y-59758966D01*
X244114962Y-59372300D01*
X244850725Y-59123809D01*
X245620741Y-59022960D01*
X246395685Y-59073596D01*
G36*
X130115000Y-66815000D02*
X34385000Y-66815000D01*
X34385000Y-28685000D01*
X130115000Y-28685000D01*
X130115000Y-66815000D01*
X130115000Y-66815000D01*
G37*
X130115000Y-66815000D02*
X34385000Y-66815000D01*
X34385000Y-28685000D01*
X130115000Y-28685000D01*
X130115000Y-66815000D01*
G36*
X169915000Y-23715000D02*
X145485000Y-23715000D01*
X145485000Y-22285000D01*
X169915000Y-22285000D01*
X169915000Y-23715000D01*
X169915000Y-23715000D01*
G37*
X169915000Y-23715000D02*
X145485000Y-23715000D01*
X145485000Y-22285000D01*
X169915000Y-22285000D01*
X169915000Y-23715000D01*
M02*
