%TF.GenerationSoftware,KiCad,Pcbnew,4.0.7-e2-6376~58~ubuntu16.04.1*%
%TF.CreationDate,2018-07-01T15:12:05-07:00*%
%TF.ProjectId,dcload,64636C6F61642E6B696361645F706362,rev?*%
%TF.FileFunction,Profile,NP*%
%FSLAX46Y46*%
G04 Gerber Fmt 4.6, Leading zero omitted, Abs format (unit mm)*
G04 Created by KiCad (PCBNEW 4.0.7-e2-6376~58~ubuntu16.04.1) date Sun Jul  1 15:12:05 2018*
%MOMM*%
%LPD*%
G01*
G04 APERTURE LIST*
%ADD10C,0.100000*%
%ADD11C,1.600000*%
%ADD12C,0.800000*%
G04 APERTURE END LIST*
D10*
D11*
X265710000Y-22140000D02*
G75*
G03X259370000Y-15800000I-6340000J0D01*
G01*
X259370000Y-110540000D02*
G75*
G03X265710000Y-104200000I0J6340000D01*
G01*
X14300000Y-104200000D02*
G75*
G03X20640000Y-110540000I6340000J0D01*
G01*
X20640000Y-15800000D02*
G75*
G03X14300000Y-22140000I0J-6340000D01*
G01*
X14300000Y-104200000D02*
X14300000Y-22140000D01*
X259370000Y-110540000D02*
X20640000Y-110540000D01*
X265710000Y-22140000D02*
X265710000Y-104200000D01*
X20640000Y-15800000D02*
X259370000Y-15800000D01*
D12*
X104775000Y-91150000D02*
X104775000Y-97350000D01*
X104853574Y-97490303D02*
G75*
G03X104775000Y-91150000I5621426J3240303D01*
G01*
X123903574Y-97490303D02*
G75*
G03X123825000Y-91150000I5621426J3240303D01*
G01*
X123825000Y-91150000D02*
X123825000Y-97350000D01*
X33350000Y-27650000D02*
X131150000Y-27650000D01*
X131150000Y-27650000D02*
X131150000Y-67850000D01*
X131150000Y-67850000D02*
X33350000Y-67850000D01*
X33350000Y-67850000D02*
X33350000Y-27650000D01*
X31525000Y-91150000D02*
X31525000Y-97350000D01*
X31603574Y-97490303D02*
G75*
G03X31525000Y-91150000I5621426J3240303D01*
G01*
X50653574Y-97490303D02*
G75*
G03X50575000Y-91150000I5621426J3240303D01*
G01*
X50575000Y-91150000D02*
X50575000Y-97350000D01*
X241510425Y-65686523D02*
G75*
G03X241500000Y-60330000I4239575J2686523D01*
G01*
X241500000Y-60350000D02*
X241500000Y-65650000D01*
X144450000Y-21250000D02*
X170950000Y-21250000D01*
X170950000Y-21250000D02*
X170950000Y-24750000D01*
X170950000Y-24750000D02*
X144450000Y-24750000D01*
X144450000Y-24750000D02*
X144450000Y-21250000D01*
M02*
