%TF.GenerationSoftware,KiCad,Pcbnew,4.0.7-e2-6376~58~ubuntu16.04.1*%
%TF.CreationDate,2018-07-07T10:36:50-07:00*%
%TF.ProjectId,dcload,64636C6F61642E6B696361645F706362,rev?*%
%TF.FileFunction,Other,Comment*%
%FSLAX46Y46*%
G04 Gerber Fmt 4.6, Leading zero omitted, Abs format (unit mm)*
G04 Created by KiCad (PCBNEW 4.0.7-e2-6376~58~ubuntu16.04.1) date Sat Jul  7 10:36:50 2018*
%MOMM*%
%LPD*%
G01*
G04 APERTURE LIST*
%ADD10C,0.100000*%
%ADD11C,0.300000*%
G04 APERTURE END LIST*
D10*
D11*
X119497143Y-122702857D02*
X119997143Y-122702857D01*
X120211429Y-123488571D02*
X119497143Y-123488571D01*
X119497143Y-121988571D01*
X120211429Y-121988571D01*
X120711429Y-123488571D02*
X121497143Y-122488571D01*
X120711429Y-122488571D02*
X121497143Y-123488571D01*
X121854286Y-122488571D02*
X122425715Y-122488571D01*
X122068572Y-121988571D02*
X122068572Y-123274286D01*
X122140000Y-123417143D01*
X122282858Y-123488571D01*
X122425715Y-123488571D01*
X123497143Y-123417143D02*
X123354286Y-123488571D01*
X123068572Y-123488571D01*
X122925715Y-123417143D01*
X122854286Y-123274286D01*
X122854286Y-122702857D01*
X122925715Y-122560000D01*
X123068572Y-122488571D01*
X123354286Y-122488571D01*
X123497143Y-122560000D01*
X123568572Y-122702857D01*
X123568572Y-122845714D01*
X122854286Y-122988571D01*
X124211429Y-123488571D02*
X124211429Y-122488571D01*
X124211429Y-122774286D02*
X124282857Y-122631429D01*
X124354286Y-122560000D01*
X124497143Y-122488571D01*
X124640000Y-122488571D01*
X125140000Y-123488571D02*
X125140000Y-122488571D01*
X125140000Y-121988571D02*
X125068571Y-122060000D01*
X125140000Y-122131429D01*
X125211428Y-122060000D01*
X125140000Y-121988571D01*
X125140000Y-122131429D01*
X126068572Y-123488571D02*
X125925714Y-123417143D01*
X125854286Y-123345714D01*
X125782857Y-123202857D01*
X125782857Y-122774286D01*
X125854286Y-122631429D01*
X125925714Y-122560000D01*
X126068572Y-122488571D01*
X126282857Y-122488571D01*
X126425714Y-122560000D01*
X126497143Y-122631429D01*
X126568572Y-122774286D01*
X126568572Y-123202857D01*
X126497143Y-123345714D01*
X126425714Y-123417143D01*
X126282857Y-123488571D01*
X126068572Y-123488571D01*
X127211429Y-123488571D02*
X127211429Y-122488571D01*
X127211429Y-122774286D02*
X127282857Y-122631429D01*
X127354286Y-122560000D01*
X127497143Y-122488571D01*
X127640000Y-122488571D01*
X129282857Y-123488571D02*
X129282857Y-121988571D01*
X129640000Y-121988571D01*
X129854285Y-122060000D01*
X129997143Y-122202857D01*
X130068571Y-122345714D01*
X130140000Y-122631429D01*
X130140000Y-122845714D01*
X130068571Y-123131429D01*
X129997143Y-123274286D01*
X129854285Y-123417143D01*
X129640000Y-123488571D01*
X129282857Y-123488571D01*
X130782857Y-123488571D02*
X130782857Y-122488571D01*
X130782857Y-121988571D02*
X130711428Y-122060000D01*
X130782857Y-122131429D01*
X130854285Y-122060000D01*
X130782857Y-121988571D01*
X130782857Y-122131429D01*
X131497143Y-123488571D02*
X131497143Y-122488571D01*
X131497143Y-122631429D02*
X131568571Y-122560000D01*
X131711429Y-122488571D01*
X131925714Y-122488571D01*
X132068571Y-122560000D01*
X132140000Y-122702857D01*
X132140000Y-123488571D01*
X132140000Y-122702857D02*
X132211429Y-122560000D01*
X132354286Y-122488571D01*
X132568571Y-122488571D01*
X132711429Y-122560000D01*
X132782857Y-122702857D01*
X132782857Y-123488571D01*
X134068571Y-123417143D02*
X133925714Y-123488571D01*
X133640000Y-123488571D01*
X133497143Y-123417143D01*
X133425714Y-123274286D01*
X133425714Y-122702857D01*
X133497143Y-122560000D01*
X133640000Y-122488571D01*
X133925714Y-122488571D01*
X134068571Y-122560000D01*
X134140000Y-122702857D01*
X134140000Y-122845714D01*
X133425714Y-122988571D01*
X134782857Y-122488571D02*
X134782857Y-123488571D01*
X134782857Y-122631429D02*
X134854285Y-122560000D01*
X134997143Y-122488571D01*
X135211428Y-122488571D01*
X135354285Y-122560000D01*
X135425714Y-122702857D01*
X135425714Y-123488571D01*
X136068571Y-123417143D02*
X136211428Y-123488571D01*
X136497143Y-123488571D01*
X136640000Y-123417143D01*
X136711428Y-123274286D01*
X136711428Y-123202857D01*
X136640000Y-123060000D01*
X136497143Y-122988571D01*
X136282857Y-122988571D01*
X136140000Y-122917143D01*
X136068571Y-122774286D01*
X136068571Y-122702857D01*
X136140000Y-122560000D01*
X136282857Y-122488571D01*
X136497143Y-122488571D01*
X136640000Y-122560000D01*
X137354286Y-123488571D02*
X137354286Y-122488571D01*
X137354286Y-121988571D02*
X137282857Y-122060000D01*
X137354286Y-122131429D01*
X137425714Y-122060000D01*
X137354286Y-121988571D01*
X137354286Y-122131429D01*
X138282858Y-123488571D02*
X138140000Y-123417143D01*
X138068572Y-123345714D01*
X137997143Y-123202857D01*
X137997143Y-122774286D01*
X138068572Y-122631429D01*
X138140000Y-122560000D01*
X138282858Y-122488571D01*
X138497143Y-122488571D01*
X138640000Y-122560000D01*
X138711429Y-122631429D01*
X138782858Y-122774286D01*
X138782858Y-123202857D01*
X138711429Y-123345714D01*
X138640000Y-123417143D01*
X138497143Y-123488571D01*
X138282858Y-123488571D01*
X139425715Y-122488571D02*
X139425715Y-123488571D01*
X139425715Y-122631429D02*
X139497143Y-122560000D01*
X139640001Y-122488571D01*
X139854286Y-122488571D01*
X139997143Y-122560000D01*
X140068572Y-122702857D01*
X140068572Y-123488571D01*
X140711429Y-123417143D02*
X140854286Y-123488571D01*
X141140001Y-123488571D01*
X141282858Y-123417143D01*
X141354286Y-123274286D01*
X141354286Y-123202857D01*
X141282858Y-123060000D01*
X141140001Y-122988571D01*
X140925715Y-122988571D01*
X140782858Y-122917143D01*
X140711429Y-122774286D01*
X140711429Y-122702857D01*
X140782858Y-122560000D01*
X140925715Y-122488571D01*
X141140001Y-122488571D01*
X141282858Y-122560000D01*
X141997144Y-123345714D02*
X142068572Y-123417143D01*
X141997144Y-123488571D01*
X141925715Y-123417143D01*
X141997144Y-123345714D01*
X141997144Y-123488571D01*
X141997144Y-122560000D02*
X142068572Y-122631429D01*
X141997144Y-122702857D01*
X141925715Y-122631429D01*
X141997144Y-122560000D01*
X141997144Y-122702857D01*
X143782858Y-122131429D02*
X143854287Y-122060000D01*
X143997144Y-121988571D01*
X144354287Y-121988571D01*
X144497144Y-122060000D01*
X144568573Y-122131429D01*
X144640001Y-122274286D01*
X144640001Y-122417143D01*
X144568573Y-122631429D01*
X143711430Y-123488571D01*
X144640001Y-123488571D01*
X145925715Y-122488571D02*
X145925715Y-123488571D01*
X145568572Y-121917143D02*
X145211429Y-122988571D01*
X146140001Y-122988571D01*
X146782857Y-123488571D02*
X147068572Y-123488571D01*
X147211429Y-123417143D01*
X147282857Y-123345714D01*
X147425715Y-123131429D01*
X147497143Y-122845714D01*
X147497143Y-122274286D01*
X147425715Y-122131429D01*
X147354286Y-122060000D01*
X147211429Y-121988571D01*
X146925715Y-121988571D01*
X146782857Y-122060000D01*
X146711429Y-122131429D01*
X146640000Y-122274286D01*
X146640000Y-122631429D01*
X146711429Y-122774286D01*
X146782857Y-122845714D01*
X146925715Y-122917143D01*
X147211429Y-122917143D01*
X147354286Y-122845714D01*
X147425715Y-122774286D01*
X147497143Y-122631429D01*
X148140000Y-123345714D02*
X148211428Y-123417143D01*
X148140000Y-123488571D01*
X148068571Y-123417143D01*
X148140000Y-123345714D01*
X148140000Y-123488571D01*
X149068572Y-122631429D02*
X148925714Y-122560000D01*
X148854286Y-122488571D01*
X148782857Y-122345714D01*
X148782857Y-122274286D01*
X148854286Y-122131429D01*
X148925714Y-122060000D01*
X149068572Y-121988571D01*
X149354286Y-121988571D01*
X149497143Y-122060000D01*
X149568572Y-122131429D01*
X149640000Y-122274286D01*
X149640000Y-122345714D01*
X149568572Y-122488571D01*
X149497143Y-122560000D01*
X149354286Y-122631429D01*
X149068572Y-122631429D01*
X148925714Y-122702857D01*
X148854286Y-122774286D01*
X148782857Y-122917143D01*
X148782857Y-123202857D01*
X148854286Y-123345714D01*
X148925714Y-123417143D01*
X149068572Y-123488571D01*
X149354286Y-123488571D01*
X149497143Y-123417143D01*
X149568572Y-123345714D01*
X149640000Y-123202857D01*
X149640000Y-122917143D01*
X149568572Y-122774286D01*
X149497143Y-122702857D01*
X149354286Y-122631429D01*
X151068571Y-123488571D02*
X150211428Y-123488571D01*
X150640000Y-123488571D02*
X150640000Y-121988571D01*
X150497143Y-122202857D01*
X150354285Y-122345714D01*
X150211428Y-122417143D01*
X151711428Y-123488571D02*
X151711428Y-122488571D01*
X151711428Y-122631429D02*
X151782856Y-122560000D01*
X151925714Y-122488571D01*
X152139999Y-122488571D01*
X152282856Y-122560000D01*
X152354285Y-122702857D01*
X152354285Y-123488571D01*
X152354285Y-122702857D02*
X152425714Y-122560000D01*
X152568571Y-122488571D01*
X152782856Y-122488571D01*
X152925714Y-122560000D01*
X152997142Y-122702857D01*
X152997142Y-123488571D01*
X153711428Y-123488571D02*
X153711428Y-122488571D01*
X153711428Y-122631429D02*
X153782856Y-122560000D01*
X153925714Y-122488571D01*
X154139999Y-122488571D01*
X154282856Y-122560000D01*
X154354285Y-122702857D01*
X154354285Y-123488571D01*
X154354285Y-122702857D02*
X154425714Y-122560000D01*
X154568571Y-122488571D01*
X154782856Y-122488571D01*
X154925714Y-122560000D01*
X154997142Y-122702857D01*
X154997142Y-123488571D01*
X156711428Y-123488571D02*
X157497142Y-122488571D01*
X156711428Y-122488571D02*
X157497142Y-123488571D01*
X159282856Y-123488571D02*
X159568571Y-123488571D01*
X159711428Y-123417143D01*
X159782856Y-123345714D01*
X159925714Y-123131429D01*
X159997142Y-122845714D01*
X159997142Y-122274286D01*
X159925714Y-122131429D01*
X159854285Y-122060000D01*
X159711428Y-121988571D01*
X159425714Y-121988571D01*
X159282856Y-122060000D01*
X159211428Y-122131429D01*
X159139999Y-122274286D01*
X159139999Y-122631429D01*
X159211428Y-122774286D01*
X159282856Y-122845714D01*
X159425714Y-122917143D01*
X159711428Y-122917143D01*
X159854285Y-122845714D01*
X159925714Y-122774286D01*
X159997142Y-122631429D01*
X160497142Y-121988571D02*
X161425713Y-121988571D01*
X160925713Y-122560000D01*
X161139999Y-122560000D01*
X161282856Y-122631429D01*
X161354285Y-122702857D01*
X161425713Y-122845714D01*
X161425713Y-123202857D01*
X161354285Y-123345714D01*
X161282856Y-123417143D01*
X161139999Y-123488571D01*
X160711427Y-123488571D01*
X160568570Y-123417143D01*
X160497142Y-123345714D01*
X162068570Y-123345714D02*
X162139998Y-123417143D01*
X162068570Y-123488571D01*
X161997141Y-123417143D01*
X162068570Y-123345714D01*
X162068570Y-123488571D01*
X163568570Y-123488571D02*
X162711427Y-123488571D01*
X163139999Y-123488571D02*
X163139999Y-121988571D01*
X162997142Y-122202857D01*
X162854284Y-122345714D01*
X162711427Y-122417143D01*
X164854284Y-122488571D02*
X164854284Y-123488571D01*
X164497141Y-121917143D02*
X164139998Y-122988571D01*
X165068570Y-122988571D01*
X165639998Y-123488571D02*
X165639998Y-122488571D01*
X165639998Y-122631429D02*
X165711426Y-122560000D01*
X165854284Y-122488571D01*
X166068569Y-122488571D01*
X166211426Y-122560000D01*
X166282855Y-122702857D01*
X166282855Y-123488571D01*
X166282855Y-122702857D02*
X166354284Y-122560000D01*
X166497141Y-122488571D01*
X166711426Y-122488571D01*
X166854284Y-122560000D01*
X166925712Y-122702857D01*
X166925712Y-123488571D01*
X167639998Y-123488571D02*
X167639998Y-122488571D01*
X167639998Y-122631429D02*
X167711426Y-122560000D01*
X167854284Y-122488571D01*
X168068569Y-122488571D01*
X168211426Y-122560000D01*
X168282855Y-122702857D01*
X168282855Y-123488571D01*
X168282855Y-122702857D02*
X168354284Y-122560000D01*
X168497141Y-122488571D01*
X168711426Y-122488571D01*
X168854284Y-122560000D01*
X168925712Y-122702857D01*
X168925712Y-123488571D01*
M02*
