%TF.GenerationSoftware,KiCad,Pcbnew,4.0.7-e2-6376~58~ubuntu16.04.1*%
%TF.CreationDate,2018-07-14T16:33:13-07:00*%
%TF.ProjectId,dcload,64636C6F61642E6B696361645F706362,rev?*%
%TF.FileFunction,Legend,Top*%
%FSLAX46Y46*%
G04 Gerber Fmt 4.6, Leading zero omitted, Abs format (unit mm)*
G04 Created by KiCad (PCBNEW 4.0.7-e2-6376~58~ubuntu16.04.1) date Sat Jul 14 16:33:13 2018*
%MOMM*%
%LPD*%
G01*
G04 APERTURE LIST*
%ADD10C,0.100000*%
%ADD11C,0.450000*%
%ADD12C,0.600000*%
%ADD13C,0.150000*%
G04 APERTURE END LIST*
D10*
D11*
X156190474Y-101059524D02*
X156476189Y-101154762D01*
X156952379Y-101154762D01*
X157142855Y-101059524D01*
X157238093Y-100964286D01*
X157333332Y-100773810D01*
X157333332Y-100583333D01*
X157238093Y-100392857D01*
X157142855Y-100297619D01*
X156952379Y-100202381D01*
X156571427Y-100107143D01*
X156380951Y-100011905D01*
X156285712Y-99916667D01*
X156190474Y-99726190D01*
X156190474Y-99535714D01*
X156285712Y-99345238D01*
X156380951Y-99250000D01*
X156571427Y-99154762D01*
X157047617Y-99154762D01*
X157333332Y-99250000D01*
X159047617Y-101059524D02*
X158857141Y-101154762D01*
X158476189Y-101154762D01*
X158285713Y-101059524D01*
X158190474Y-100964286D01*
X158095236Y-100773810D01*
X158095236Y-100202381D01*
X158190474Y-100011905D01*
X158285713Y-99916667D01*
X158476189Y-99821429D01*
X158857141Y-99821429D01*
X159047617Y-99916667D01*
X160761903Y-99821429D02*
X160761903Y-101154762D01*
X159904760Y-99821429D02*
X159904760Y-100869048D01*
X159999999Y-101059524D01*
X160190475Y-101154762D01*
X160476189Y-101154762D01*
X160666665Y-101059524D01*
X160761903Y-100964286D01*
X161999999Y-101154762D02*
X161809523Y-101059524D01*
X161714284Y-100869048D01*
X161714284Y-99154762D01*
X163047618Y-101154762D02*
X162857142Y-101059524D01*
X162761903Y-100869048D01*
X162761903Y-99154762D01*
X164666665Y-101059524D02*
X164476189Y-101154762D01*
X164095237Y-101154762D01*
X163904761Y-101059524D01*
X163809522Y-100964286D01*
X163714284Y-100773810D01*
X163714284Y-100202381D01*
X163809522Y-100011905D01*
X163904761Y-99916667D01*
X164095237Y-99821429D01*
X164476189Y-99821429D01*
X164666665Y-99916667D01*
X165809523Y-101154762D02*
X165619047Y-101059524D01*
X165523808Y-100964286D01*
X165428570Y-100773810D01*
X165428570Y-100202381D01*
X165523808Y-100011905D01*
X165619047Y-99916667D01*
X165809523Y-99821429D01*
X166095237Y-99821429D01*
X166285713Y-99916667D01*
X166380951Y-100011905D01*
X166476189Y-100202381D01*
X166476189Y-100773810D01*
X166380951Y-100964286D01*
X166285713Y-101059524D01*
X166095237Y-101154762D01*
X165809523Y-101154762D01*
X167333332Y-101154762D02*
X167333332Y-99821429D01*
X167333332Y-100011905D02*
X167428571Y-99916667D01*
X167619047Y-99821429D01*
X167904761Y-99821429D01*
X168095237Y-99916667D01*
X168190475Y-100107143D01*
X168190475Y-101154762D01*
X168190475Y-100107143D02*
X168285713Y-99916667D01*
X168476190Y-99821429D01*
X168761904Y-99821429D01*
X168952380Y-99916667D01*
X169047618Y-100107143D01*
X169047618Y-101154762D01*
X171523809Y-101154762D02*
X171523809Y-99154762D01*
X171523809Y-100107143D02*
X172666667Y-100107143D01*
X172666667Y-101154762D02*
X172666667Y-99154762D01*
X173904762Y-101154762D02*
X173714286Y-101059524D01*
X173619047Y-100964286D01*
X173523809Y-100773810D01*
X173523809Y-100202381D01*
X173619047Y-100011905D01*
X173714286Y-99916667D01*
X173904762Y-99821429D01*
X174190476Y-99821429D01*
X174380952Y-99916667D01*
X174476190Y-100011905D01*
X174571428Y-100202381D01*
X174571428Y-100773810D01*
X174476190Y-100964286D01*
X174380952Y-101059524D01*
X174190476Y-101154762D01*
X173904762Y-101154762D01*
X175428571Y-101154762D02*
X175428571Y-99154762D01*
X175428571Y-99916667D02*
X175619048Y-99821429D01*
X176000000Y-99821429D01*
X176190476Y-99916667D01*
X176285714Y-100011905D01*
X176380952Y-100202381D01*
X176380952Y-100773810D01*
X176285714Y-100964286D01*
X176190476Y-101059524D01*
X176000000Y-101154762D01*
X175619048Y-101154762D01*
X175428571Y-101059524D01*
X177238095Y-101154762D02*
X177238095Y-99154762D01*
X177238095Y-99916667D02*
X177428572Y-99821429D01*
X177809524Y-99821429D01*
X178000000Y-99916667D01*
X178095238Y-100011905D01*
X178190476Y-100202381D01*
X178190476Y-100773810D01*
X178095238Y-100964286D01*
X178000000Y-101059524D01*
X177809524Y-101154762D01*
X177428572Y-101154762D01*
X177238095Y-101059524D01*
X178857143Y-99821429D02*
X179333334Y-101154762D01*
X179809524Y-99821429D02*
X179333334Y-101154762D01*
X179142858Y-101630952D01*
X179047619Y-101726190D01*
X178857143Y-101821429D01*
X182095239Y-100107143D02*
X182761906Y-100107143D01*
X183047620Y-101154762D02*
X182095239Y-101154762D01*
X182095239Y-99154762D01*
X183047620Y-99154762D01*
X184190478Y-101154762D02*
X184000002Y-101059524D01*
X183904763Y-100869048D01*
X183904763Y-99154762D01*
X185714287Y-101059524D02*
X185523811Y-101154762D01*
X185142859Y-101154762D01*
X184952382Y-101059524D01*
X184857144Y-100869048D01*
X184857144Y-100107143D01*
X184952382Y-99916667D01*
X185142859Y-99821429D01*
X185523811Y-99821429D01*
X185714287Y-99916667D01*
X185809525Y-100107143D01*
X185809525Y-100297619D01*
X184857144Y-100488095D01*
X187523811Y-101059524D02*
X187333335Y-101154762D01*
X186952383Y-101154762D01*
X186761907Y-101059524D01*
X186666668Y-100964286D01*
X186571430Y-100773810D01*
X186571430Y-100202381D01*
X186666668Y-100011905D01*
X186761907Y-99916667D01*
X186952383Y-99821429D01*
X187333335Y-99821429D01*
X187523811Y-99916667D01*
X188095240Y-99821429D02*
X188857145Y-99821429D01*
X188380954Y-99154762D02*
X188380954Y-100869048D01*
X188476193Y-101059524D01*
X188666669Y-101154762D01*
X188857145Y-101154762D01*
X189523811Y-101154762D02*
X189523811Y-99821429D01*
X189523811Y-100202381D02*
X189619050Y-100011905D01*
X189714288Y-99916667D01*
X189904764Y-99821429D01*
X190095240Y-99821429D01*
X191047621Y-101154762D02*
X190857145Y-101059524D01*
X190761906Y-100964286D01*
X190666668Y-100773810D01*
X190666668Y-100202381D01*
X190761906Y-100011905D01*
X190857145Y-99916667D01*
X191047621Y-99821429D01*
X191333335Y-99821429D01*
X191523811Y-99916667D01*
X191619049Y-100011905D01*
X191714287Y-100202381D01*
X191714287Y-100773810D01*
X191619049Y-100964286D01*
X191523811Y-101059524D01*
X191333335Y-101154762D01*
X191047621Y-101154762D01*
X192571430Y-99821429D02*
X192571430Y-101154762D01*
X192571430Y-100011905D02*
X192666669Y-99916667D01*
X192857145Y-99821429D01*
X193142859Y-99821429D01*
X193333335Y-99916667D01*
X193428573Y-100107143D01*
X193428573Y-101154762D01*
X194380954Y-101154762D02*
X194380954Y-99821429D01*
X194380954Y-99154762D02*
X194285716Y-99250000D01*
X194380954Y-99345238D01*
X194476193Y-99250000D01*
X194380954Y-99154762D01*
X194380954Y-99345238D01*
X196190478Y-101059524D02*
X196000002Y-101154762D01*
X195619050Y-101154762D01*
X195428574Y-101059524D01*
X195333335Y-100964286D01*
X195238097Y-100773810D01*
X195238097Y-100202381D01*
X195333335Y-100011905D01*
X195428574Y-99916667D01*
X195619050Y-99821429D01*
X196000002Y-99821429D01*
X196190478Y-99916667D01*
X196952383Y-101059524D02*
X197142860Y-101154762D01*
X197523812Y-101154762D01*
X197714288Y-101059524D01*
X197809526Y-100869048D01*
X197809526Y-100773810D01*
X197714288Y-100583333D01*
X197523812Y-100488095D01*
X197238098Y-100488095D01*
X197047621Y-100392857D01*
X196952383Y-100202381D01*
X196952383Y-100107143D01*
X197047621Y-99916667D01*
X197238098Y-99821429D01*
X197523812Y-99821429D01*
X197714288Y-99916667D01*
D12*
X58178571Y-24357143D02*
X58178571Y-21357143D01*
X58892856Y-21357143D01*
X59321428Y-21500000D01*
X59607142Y-21785714D01*
X59749999Y-22071429D01*
X59892856Y-22642857D01*
X59892856Y-23071429D01*
X59749999Y-23642857D01*
X59607142Y-23928571D01*
X59321428Y-24214286D01*
X58892856Y-24357143D01*
X58178571Y-24357143D01*
X62892856Y-24071429D02*
X62749999Y-24214286D01*
X62321428Y-24357143D01*
X62035714Y-24357143D01*
X61607142Y-24214286D01*
X61321428Y-23928571D01*
X61178571Y-23642857D01*
X61035714Y-23071429D01*
X61035714Y-22642857D01*
X61178571Y-22071429D01*
X61321428Y-21785714D01*
X61607142Y-21500000D01*
X62035714Y-21357143D01*
X62321428Y-21357143D01*
X62749999Y-21500000D01*
X62892856Y-21642857D01*
X66464285Y-22785714D02*
X67464285Y-22785714D01*
X67892856Y-24357143D02*
X66464285Y-24357143D01*
X66464285Y-21357143D01*
X67892856Y-21357143D01*
X69607142Y-24357143D02*
X69321428Y-24214286D01*
X69178571Y-23928571D01*
X69178571Y-21357143D01*
X71892857Y-24214286D02*
X71607143Y-24357143D01*
X71035714Y-24357143D01*
X70750000Y-24214286D01*
X70607143Y-23928571D01*
X70607143Y-22785714D01*
X70750000Y-22500000D01*
X71035714Y-22357143D01*
X71607143Y-22357143D01*
X71892857Y-22500000D01*
X72035714Y-22785714D01*
X72035714Y-23071429D01*
X70607143Y-23357143D01*
X74607143Y-24214286D02*
X74321429Y-24357143D01*
X73750000Y-24357143D01*
X73464286Y-24214286D01*
X73321429Y-24071429D01*
X73178572Y-23785714D01*
X73178572Y-22928571D01*
X73321429Y-22642857D01*
X73464286Y-22500000D01*
X73750000Y-22357143D01*
X74321429Y-22357143D01*
X74607143Y-22500000D01*
X75464286Y-22357143D02*
X76607143Y-22357143D01*
X75892858Y-21357143D02*
X75892858Y-23928571D01*
X76035715Y-24214286D01*
X76321429Y-24357143D01*
X76607143Y-24357143D01*
X77607144Y-24357143D02*
X77607144Y-22357143D01*
X77607144Y-22928571D02*
X77750001Y-22642857D01*
X77892858Y-22500000D01*
X78178572Y-22357143D01*
X78464287Y-22357143D01*
X79892858Y-24357143D02*
X79607144Y-24214286D01*
X79464287Y-24071429D01*
X79321430Y-23785714D01*
X79321430Y-22928571D01*
X79464287Y-22642857D01*
X79607144Y-22500000D01*
X79892858Y-22357143D01*
X80321430Y-22357143D01*
X80607144Y-22500000D01*
X80750001Y-22642857D01*
X80892858Y-22928571D01*
X80892858Y-23785714D01*
X80750001Y-24071429D01*
X80607144Y-24214286D01*
X80321430Y-24357143D01*
X79892858Y-24357143D01*
X82178573Y-22357143D02*
X82178573Y-24357143D01*
X82178573Y-22642857D02*
X82321430Y-22500000D01*
X82607144Y-22357143D01*
X83035716Y-22357143D01*
X83321430Y-22500000D01*
X83464287Y-22785714D01*
X83464287Y-24357143D01*
X84892859Y-24357143D02*
X84892859Y-22357143D01*
X84892859Y-21357143D02*
X84750002Y-21500000D01*
X84892859Y-21642857D01*
X85035716Y-21500000D01*
X84892859Y-21357143D01*
X84892859Y-21642857D01*
X87607144Y-24214286D02*
X87321430Y-24357143D01*
X86750001Y-24357143D01*
X86464287Y-24214286D01*
X86321430Y-24071429D01*
X86178573Y-23785714D01*
X86178573Y-22928571D01*
X86321430Y-22642857D01*
X86464287Y-22500000D01*
X86750001Y-22357143D01*
X87321430Y-22357143D01*
X87607144Y-22500000D01*
X92607144Y-24357143D02*
X91178573Y-24357143D01*
X91178573Y-21357143D01*
X94035715Y-24357143D02*
X93750001Y-24214286D01*
X93607144Y-24071429D01*
X93464287Y-23785714D01*
X93464287Y-22928571D01*
X93607144Y-22642857D01*
X93750001Y-22500000D01*
X94035715Y-22357143D01*
X94464287Y-22357143D01*
X94750001Y-22500000D01*
X94892858Y-22642857D01*
X95035715Y-22928571D01*
X95035715Y-23785714D01*
X94892858Y-24071429D01*
X94750001Y-24214286D01*
X94464287Y-24357143D01*
X94035715Y-24357143D01*
X97607144Y-24357143D02*
X97607144Y-22785714D01*
X97464287Y-22500000D01*
X97178573Y-22357143D01*
X96607144Y-22357143D01*
X96321430Y-22500000D01*
X97607144Y-24214286D02*
X97321430Y-24357143D01*
X96607144Y-24357143D01*
X96321430Y-24214286D01*
X96178573Y-23928571D01*
X96178573Y-23642857D01*
X96321430Y-23357143D01*
X96607144Y-23214286D01*
X97321430Y-23214286D01*
X97607144Y-23071429D01*
X100321430Y-24357143D02*
X100321430Y-21357143D01*
X100321430Y-24214286D02*
X100035716Y-24357143D01*
X99464287Y-24357143D01*
X99178573Y-24214286D01*
X99035716Y-24071429D01*
X98892859Y-23785714D01*
X98892859Y-22928571D01*
X99035716Y-22642857D01*
X99178573Y-22500000D01*
X99464287Y-22357143D01*
X100035716Y-22357143D01*
X100321430Y-22500000D01*
D11*
X80999999Y-82834524D02*
X81285714Y-82929762D01*
X81761904Y-82929762D01*
X81952380Y-82834524D01*
X82047618Y-82739286D01*
X82142857Y-82548810D01*
X82142857Y-82358333D01*
X82047618Y-82167857D01*
X81952380Y-82072619D01*
X81761904Y-81977381D01*
X81380952Y-81882143D01*
X81190476Y-81786905D01*
X81095237Y-81691667D01*
X80999999Y-81501190D01*
X80999999Y-81310714D01*
X81095237Y-81120238D01*
X81190476Y-81025000D01*
X81380952Y-80929762D01*
X81857142Y-80929762D01*
X82142857Y-81025000D01*
X83761904Y-82834524D02*
X83571428Y-82929762D01*
X83190476Y-82929762D01*
X82999999Y-82834524D01*
X82904761Y-82644048D01*
X82904761Y-81882143D01*
X82999999Y-81691667D01*
X83190476Y-81596429D01*
X83571428Y-81596429D01*
X83761904Y-81691667D01*
X83857142Y-81882143D01*
X83857142Y-82072619D01*
X82904761Y-82263095D01*
X84714285Y-81596429D02*
X84714285Y-82929762D01*
X84714285Y-81786905D02*
X84809524Y-81691667D01*
X85000000Y-81596429D01*
X85285714Y-81596429D01*
X85476190Y-81691667D01*
X85571428Y-81882143D01*
X85571428Y-82929762D01*
X86428571Y-82834524D02*
X86619048Y-82929762D01*
X87000000Y-82929762D01*
X87190476Y-82834524D01*
X87285714Y-82644048D01*
X87285714Y-82548810D01*
X87190476Y-82358333D01*
X87000000Y-82263095D01*
X86714286Y-82263095D01*
X86523809Y-82167857D01*
X86428571Y-81977381D01*
X86428571Y-81882143D01*
X86523809Y-81691667D01*
X86714286Y-81596429D01*
X87000000Y-81596429D01*
X87190476Y-81691667D01*
X88904762Y-82834524D02*
X88714286Y-82929762D01*
X88333334Y-82929762D01*
X88142857Y-82834524D01*
X88047619Y-82644048D01*
X88047619Y-81882143D01*
X88142857Y-81691667D01*
X88333334Y-81596429D01*
X88714286Y-81596429D01*
X88904762Y-81691667D01*
X89000000Y-81882143D01*
X89000000Y-82072619D01*
X88047619Y-82263095D01*
X79571428Y-85332143D02*
X80238095Y-85332143D01*
X80523809Y-86379762D02*
X79571428Y-86379762D01*
X79571428Y-84379762D01*
X80523809Y-84379762D01*
X81380952Y-85046429D02*
X81380952Y-86379762D01*
X81380952Y-85236905D02*
X81476191Y-85141667D01*
X81666667Y-85046429D01*
X81952381Y-85046429D01*
X82142857Y-85141667D01*
X82238095Y-85332143D01*
X82238095Y-86379762D01*
X84047619Y-86379762D02*
X84047619Y-85332143D01*
X83952381Y-85141667D01*
X83761905Y-85046429D01*
X83380953Y-85046429D01*
X83190476Y-85141667D01*
X84047619Y-86284524D02*
X83857143Y-86379762D01*
X83380953Y-86379762D01*
X83190476Y-86284524D01*
X83095238Y-86094048D01*
X83095238Y-85903571D01*
X83190476Y-85713095D01*
X83380953Y-85617857D01*
X83857143Y-85617857D01*
X84047619Y-85522619D01*
X85000000Y-86379762D02*
X85000000Y-84379762D01*
X85000000Y-85141667D02*
X85190477Y-85046429D01*
X85571429Y-85046429D01*
X85761905Y-85141667D01*
X85857143Y-85236905D01*
X85952381Y-85427381D01*
X85952381Y-85998810D01*
X85857143Y-86189286D01*
X85761905Y-86284524D01*
X85571429Y-86379762D01*
X85190477Y-86379762D01*
X85000000Y-86284524D01*
X87095239Y-86379762D02*
X86904763Y-86284524D01*
X86809524Y-86094048D01*
X86809524Y-84379762D01*
X88619048Y-86284524D02*
X88428572Y-86379762D01*
X88047620Y-86379762D01*
X87857143Y-86284524D01*
X87761905Y-86094048D01*
X87761905Y-85332143D01*
X87857143Y-85141667D01*
X88047620Y-85046429D01*
X88428572Y-85046429D01*
X88619048Y-85141667D01*
X88714286Y-85332143D01*
X88714286Y-85522619D01*
X87761905Y-85713095D01*
X90428572Y-86379762D02*
X90428572Y-84379762D01*
X90428572Y-86284524D02*
X90238096Y-86379762D01*
X89857144Y-86379762D01*
X89666668Y-86284524D01*
X89571429Y-86189286D01*
X89476191Y-85998810D01*
X89476191Y-85427381D01*
X89571429Y-85236905D01*
X89666668Y-85141667D01*
X89857144Y-85046429D01*
X90238096Y-85046429D01*
X90428572Y-85141667D01*
X44654761Y-82904762D02*
X43702380Y-82904762D01*
X43702380Y-80904762D01*
X45607143Y-82904762D02*
X45416667Y-82809524D01*
X45321428Y-82714286D01*
X45226190Y-82523810D01*
X45226190Y-81952381D01*
X45321428Y-81761905D01*
X45416667Y-81666667D01*
X45607143Y-81571429D01*
X45892857Y-81571429D01*
X46083333Y-81666667D01*
X46178571Y-81761905D01*
X46273809Y-81952381D01*
X46273809Y-82523810D01*
X46178571Y-82714286D01*
X46083333Y-82809524D01*
X45892857Y-82904762D01*
X45607143Y-82904762D01*
X47988095Y-82904762D02*
X47988095Y-81857143D01*
X47892857Y-81666667D01*
X47702381Y-81571429D01*
X47321429Y-81571429D01*
X47130952Y-81666667D01*
X47988095Y-82809524D02*
X47797619Y-82904762D01*
X47321429Y-82904762D01*
X47130952Y-82809524D01*
X47035714Y-82619048D01*
X47035714Y-82428571D01*
X47130952Y-82238095D01*
X47321429Y-82142857D01*
X47797619Y-82142857D01*
X47988095Y-82047619D01*
X49797619Y-82904762D02*
X49797619Y-80904762D01*
X49797619Y-82809524D02*
X49607143Y-82904762D01*
X49226191Y-82904762D01*
X49035715Y-82809524D01*
X48940476Y-82714286D01*
X48845238Y-82523810D01*
X48845238Y-81952381D01*
X48940476Y-81761905D01*
X49035715Y-81666667D01*
X49226191Y-81571429D01*
X49607143Y-81571429D01*
X49797619Y-81666667D01*
X108999999Y-82809524D02*
X109285714Y-82904762D01*
X109761904Y-82904762D01*
X109952380Y-82809524D01*
X110047618Y-82714286D01*
X110142857Y-82523810D01*
X110142857Y-82333333D01*
X110047618Y-82142857D01*
X109952380Y-82047619D01*
X109761904Y-81952381D01*
X109380952Y-81857143D01*
X109190476Y-81761905D01*
X109095237Y-81666667D01*
X108999999Y-81476190D01*
X108999999Y-81285714D01*
X109095237Y-81095238D01*
X109190476Y-81000000D01*
X109380952Y-80904762D01*
X109857142Y-80904762D01*
X110142857Y-81000000D01*
X111761904Y-82809524D02*
X111571428Y-82904762D01*
X111190476Y-82904762D01*
X110999999Y-82809524D01*
X110904761Y-82619048D01*
X110904761Y-81857143D01*
X110999999Y-81666667D01*
X111190476Y-81571429D01*
X111571428Y-81571429D01*
X111761904Y-81666667D01*
X111857142Y-81857143D01*
X111857142Y-82047619D01*
X110904761Y-82238095D01*
X112714285Y-81571429D02*
X112714285Y-82904762D01*
X112714285Y-81761905D02*
X112809524Y-81666667D01*
X113000000Y-81571429D01*
X113285714Y-81571429D01*
X113476190Y-81666667D01*
X113571428Y-81857143D01*
X113571428Y-82904762D01*
X114428571Y-82809524D02*
X114619048Y-82904762D01*
X115000000Y-82904762D01*
X115190476Y-82809524D01*
X115285714Y-82619048D01*
X115285714Y-82523810D01*
X115190476Y-82333333D01*
X115000000Y-82238095D01*
X114714286Y-82238095D01*
X114523809Y-82142857D01*
X114428571Y-81952381D01*
X114428571Y-81857143D01*
X114523809Y-81666667D01*
X114714286Y-81571429D01*
X115000000Y-81571429D01*
X115190476Y-81666667D01*
X116904762Y-82809524D02*
X116714286Y-82904762D01*
X116333334Y-82904762D01*
X116142857Y-82809524D01*
X116047619Y-82619048D01*
X116047619Y-81857143D01*
X116142857Y-81666667D01*
X116333334Y-81571429D01*
X116714286Y-81571429D01*
X116904762Y-81666667D01*
X117000000Y-81857143D01*
X117000000Y-82047619D01*
X116047619Y-82238095D01*
X222997619Y-81479762D02*
X224140476Y-81479762D01*
X223569048Y-83479762D02*
X223569048Y-81479762D01*
X224807143Y-83479762D02*
X224807143Y-82146429D01*
X224807143Y-82527381D02*
X224902382Y-82336905D01*
X224997620Y-82241667D01*
X225188096Y-82146429D01*
X225378572Y-82146429D01*
X226045238Y-83479762D02*
X226045238Y-82146429D01*
X226045238Y-81479762D02*
X225950000Y-81575000D01*
X226045238Y-81670238D01*
X226140477Y-81575000D01*
X226045238Y-81479762D01*
X226045238Y-81670238D01*
X227854762Y-82146429D02*
X227854762Y-83765476D01*
X227759524Y-83955952D01*
X227664286Y-84051190D01*
X227473810Y-84146429D01*
X227188096Y-84146429D01*
X226997619Y-84051190D01*
X227854762Y-83384524D02*
X227664286Y-83479762D01*
X227283334Y-83479762D01*
X227092858Y-83384524D01*
X226997619Y-83289286D01*
X226902381Y-83098810D01*
X226902381Y-82527381D01*
X226997619Y-82336905D01*
X227092858Y-82241667D01*
X227283334Y-82146429D01*
X227664286Y-82146429D01*
X227854762Y-82241667D01*
X229664286Y-82146429D02*
X229664286Y-83765476D01*
X229569048Y-83955952D01*
X229473810Y-84051190D01*
X229283334Y-84146429D01*
X228997620Y-84146429D01*
X228807143Y-84051190D01*
X229664286Y-83384524D02*
X229473810Y-83479762D01*
X229092858Y-83479762D01*
X228902382Y-83384524D01*
X228807143Y-83289286D01*
X228711905Y-83098810D01*
X228711905Y-82527381D01*
X228807143Y-82336905D01*
X228902382Y-82241667D01*
X229092858Y-82146429D01*
X229473810Y-82146429D01*
X229664286Y-82241667D01*
X231378572Y-83384524D02*
X231188096Y-83479762D01*
X230807144Y-83479762D01*
X230616667Y-83384524D01*
X230521429Y-83194048D01*
X230521429Y-82432143D01*
X230616667Y-82241667D01*
X230807144Y-82146429D01*
X231188096Y-82146429D01*
X231378572Y-82241667D01*
X231473810Y-82432143D01*
X231473810Y-82622619D01*
X230521429Y-82813095D01*
X232330953Y-83479762D02*
X232330953Y-82146429D01*
X232330953Y-82527381D02*
X232426192Y-82336905D01*
X232521430Y-82241667D01*
X232711906Y-82146429D01*
X232902382Y-82146429D01*
X242122619Y-83479762D02*
X242122619Y-81479762D01*
X242884524Y-81479762D01*
X243075000Y-81575000D01*
X243170239Y-81670238D01*
X243265477Y-81860714D01*
X243265477Y-82146429D01*
X243170239Y-82336905D01*
X243075000Y-82432143D01*
X242884524Y-82527381D01*
X242122619Y-82527381D01*
X244408334Y-83479762D02*
X244217858Y-83384524D01*
X244122619Y-83289286D01*
X244027381Y-83098810D01*
X244027381Y-82527381D01*
X244122619Y-82336905D01*
X244217858Y-82241667D01*
X244408334Y-82146429D01*
X244694048Y-82146429D01*
X244884524Y-82241667D01*
X244979762Y-82336905D01*
X245075000Y-82527381D01*
X245075000Y-83098810D01*
X244979762Y-83289286D01*
X244884524Y-83384524D01*
X244694048Y-83479762D01*
X244408334Y-83479762D01*
X245741667Y-82146429D02*
X246122620Y-83479762D01*
X246503572Y-82527381D01*
X246884524Y-83479762D01*
X247265477Y-82146429D01*
X248789286Y-83384524D02*
X248598810Y-83479762D01*
X248217858Y-83479762D01*
X248027381Y-83384524D01*
X247932143Y-83194048D01*
X247932143Y-82432143D01*
X248027381Y-82241667D01*
X248217858Y-82146429D01*
X248598810Y-82146429D01*
X248789286Y-82241667D01*
X248884524Y-82432143D01*
X248884524Y-82622619D01*
X247932143Y-82813095D01*
X249741667Y-83479762D02*
X249741667Y-82146429D01*
X249741667Y-82527381D02*
X249836906Y-82336905D01*
X249932144Y-82241667D01*
X250122620Y-82146429D01*
X250313096Y-82146429D01*
D13*
X219550000Y-57250000D02*
X219550000Y-55250000D01*
X176000000Y-92750000D02*
X178000000Y-92750000D01*
X134450000Y-55250000D02*
X134450000Y-57250000D01*
X77916667Y-49702381D02*
X77583333Y-49226190D01*
X77345238Y-49702381D02*
X77345238Y-48702381D01*
X77726191Y-48702381D01*
X77821429Y-48750000D01*
X77869048Y-48797619D01*
X77916667Y-48892857D01*
X77916667Y-49035714D01*
X77869048Y-49130952D01*
X77821429Y-49178571D01*
X77726191Y-49226190D01*
X77345238Y-49226190D01*
X78345238Y-49178571D02*
X78678572Y-49178571D01*
X78821429Y-49702381D02*
X78345238Y-49702381D01*
X78345238Y-48702381D01*
X78821429Y-48702381D01*
X79583334Y-49178571D02*
X79250000Y-49178571D01*
X79250000Y-49702381D02*
X79250000Y-48702381D01*
X79726191Y-48702381D01*
X80250000Y-48702381D02*
X80250000Y-48940476D01*
X80011905Y-48845238D02*
X80250000Y-48940476D01*
X80488096Y-48845238D01*
X80107143Y-49130952D02*
X80250000Y-48940476D01*
X80392858Y-49130952D01*
X81011905Y-48702381D02*
X81011905Y-48940476D01*
X80773810Y-48845238D02*
X81011905Y-48940476D01*
X81250001Y-48845238D01*
X80869048Y-49130952D02*
X81011905Y-48940476D01*
X81154763Y-49130952D01*
M02*
