%TF.GenerationSoftware,KiCad,Pcbnew,4.0.7-e2-6376~58~ubuntu16.04.1*%
%TF.CreationDate,2018-07-01T15:12:05-07:00*%
%TF.ProjectId,dcload,64636C6F61642E6B696361645F706362,rev?*%
%TF.FileFunction,Other,Comment*%
%FSLAX46Y46*%
G04 Gerber Fmt 4.6, Leading zero omitted, Abs format (unit mm)*
G04 Created by KiCad (PCBNEW 4.0.7-e2-6376~58~ubuntu16.04.1) date Sun Jul  1 15:12:05 2018*
%MOMM*%
%LPD*%
G01*
G04 APERTURE LIST*
%ADD10C,0.100000*%
%ADD11C,0.300000*%
G04 APERTURE END LIST*
D10*
D11*
X119497143Y-119663571D02*
X119497143Y-118163571D01*
X120354286Y-119663571D01*
X120354286Y-118163571D01*
X121282858Y-119663571D02*
X121140000Y-119592143D01*
X121068572Y-119520714D01*
X120997143Y-119377857D01*
X120997143Y-118949286D01*
X121068572Y-118806429D01*
X121140000Y-118735000D01*
X121282858Y-118663571D01*
X121497143Y-118663571D01*
X121640000Y-118735000D01*
X121711429Y-118806429D01*
X121782858Y-118949286D01*
X121782858Y-119377857D01*
X121711429Y-119520714D01*
X121640000Y-119592143D01*
X121497143Y-119663571D01*
X121282858Y-119663571D01*
X122211429Y-118663571D02*
X122782858Y-118663571D01*
X122425715Y-118163571D02*
X122425715Y-119449286D01*
X122497143Y-119592143D01*
X122640001Y-119663571D01*
X122782858Y-119663571D01*
X123854286Y-119592143D02*
X123711429Y-119663571D01*
X123425715Y-119663571D01*
X123282858Y-119592143D01*
X123211429Y-119449286D01*
X123211429Y-118877857D01*
X123282858Y-118735000D01*
X123425715Y-118663571D01*
X123711429Y-118663571D01*
X123854286Y-118735000D01*
X123925715Y-118877857D01*
X123925715Y-119020714D01*
X123211429Y-119163571D01*
X124497143Y-119592143D02*
X124640000Y-119663571D01*
X124925715Y-119663571D01*
X125068572Y-119592143D01*
X125140000Y-119449286D01*
X125140000Y-119377857D01*
X125068572Y-119235000D01*
X124925715Y-119163571D01*
X124711429Y-119163571D01*
X124568572Y-119092143D01*
X124497143Y-118949286D01*
X124497143Y-118877857D01*
X124568572Y-118735000D01*
X124711429Y-118663571D01*
X124925715Y-118663571D01*
X125068572Y-118735000D01*
X125782858Y-119520714D02*
X125854286Y-119592143D01*
X125782858Y-119663571D01*
X125711429Y-119592143D01*
X125782858Y-119520714D01*
X125782858Y-119663571D01*
X125782858Y-118735000D02*
X125854286Y-118806429D01*
X125782858Y-118877857D01*
X125711429Y-118806429D01*
X125782858Y-118735000D01*
X125782858Y-118877857D01*
X120640000Y-121642143D02*
X121782857Y-121642143D01*
X123640000Y-121427857D02*
X124140000Y-121427857D01*
X124354286Y-122213571D02*
X123640000Y-122213571D01*
X123640000Y-120713571D01*
X124354286Y-120713571D01*
X124854286Y-122213571D02*
X125640000Y-121213571D01*
X124854286Y-121213571D02*
X125640000Y-122213571D01*
X125997143Y-121213571D02*
X126568572Y-121213571D01*
X126211429Y-120713571D02*
X126211429Y-121999286D01*
X126282857Y-122142143D01*
X126425715Y-122213571D01*
X126568572Y-122213571D01*
X127640000Y-122142143D02*
X127497143Y-122213571D01*
X127211429Y-122213571D01*
X127068572Y-122142143D01*
X126997143Y-121999286D01*
X126997143Y-121427857D01*
X127068572Y-121285000D01*
X127211429Y-121213571D01*
X127497143Y-121213571D01*
X127640000Y-121285000D01*
X127711429Y-121427857D01*
X127711429Y-121570714D01*
X126997143Y-121713571D01*
X128354286Y-122213571D02*
X128354286Y-121213571D01*
X128354286Y-121499286D02*
X128425714Y-121356429D01*
X128497143Y-121285000D01*
X128640000Y-121213571D01*
X128782857Y-121213571D01*
X129282857Y-122213571D02*
X129282857Y-121213571D01*
X129282857Y-120713571D02*
X129211428Y-120785000D01*
X129282857Y-120856429D01*
X129354285Y-120785000D01*
X129282857Y-120713571D01*
X129282857Y-120856429D01*
X130211429Y-122213571D02*
X130068571Y-122142143D01*
X129997143Y-122070714D01*
X129925714Y-121927857D01*
X129925714Y-121499286D01*
X129997143Y-121356429D01*
X130068571Y-121285000D01*
X130211429Y-121213571D01*
X130425714Y-121213571D01*
X130568571Y-121285000D01*
X130640000Y-121356429D01*
X130711429Y-121499286D01*
X130711429Y-121927857D01*
X130640000Y-122070714D01*
X130568571Y-122142143D01*
X130425714Y-122213571D01*
X130211429Y-122213571D01*
X131354286Y-122213571D02*
X131354286Y-121213571D01*
X131354286Y-121499286D02*
X131425714Y-121356429D01*
X131497143Y-121285000D01*
X131640000Y-121213571D01*
X131782857Y-121213571D01*
X134282857Y-122213571D02*
X133782857Y-121499286D01*
X133425714Y-122213571D02*
X133425714Y-120713571D01*
X133997142Y-120713571D01*
X134140000Y-120785000D01*
X134211428Y-120856429D01*
X134282857Y-120999286D01*
X134282857Y-121213571D01*
X134211428Y-121356429D01*
X134140000Y-121427857D01*
X133997142Y-121499286D01*
X133425714Y-121499286D01*
X135140000Y-122213571D02*
X134997142Y-122142143D01*
X134925714Y-122070714D01*
X134854285Y-121927857D01*
X134854285Y-121499286D01*
X134925714Y-121356429D01*
X134997142Y-121285000D01*
X135140000Y-121213571D01*
X135354285Y-121213571D01*
X135497142Y-121285000D01*
X135568571Y-121356429D01*
X135640000Y-121499286D01*
X135640000Y-121927857D01*
X135568571Y-122070714D01*
X135497142Y-122142143D01*
X135354285Y-122213571D01*
X135140000Y-122213571D01*
X136925714Y-121213571D02*
X136925714Y-122213571D01*
X136282857Y-121213571D02*
X136282857Y-121999286D01*
X136354285Y-122142143D01*
X136497143Y-122213571D01*
X136711428Y-122213571D01*
X136854285Y-122142143D01*
X136925714Y-122070714D01*
X137425714Y-121213571D02*
X137997143Y-121213571D01*
X137640000Y-120713571D02*
X137640000Y-121999286D01*
X137711428Y-122142143D01*
X137854286Y-122213571D01*
X137997143Y-122213571D01*
X138497143Y-122213571D02*
X138497143Y-121213571D01*
X138497143Y-120713571D02*
X138425714Y-120785000D01*
X138497143Y-120856429D01*
X138568571Y-120785000D01*
X138497143Y-120713571D01*
X138497143Y-120856429D01*
X139211429Y-121213571D02*
X139211429Y-122213571D01*
X139211429Y-121356429D02*
X139282857Y-121285000D01*
X139425715Y-121213571D01*
X139640000Y-121213571D01*
X139782857Y-121285000D01*
X139854286Y-121427857D01*
X139854286Y-122213571D01*
X141211429Y-121213571D02*
X141211429Y-122427857D01*
X141140000Y-122570714D01*
X141068572Y-122642143D01*
X140925715Y-122713571D01*
X140711429Y-122713571D01*
X140568572Y-122642143D01*
X141211429Y-122142143D02*
X141068572Y-122213571D01*
X140782858Y-122213571D01*
X140640000Y-122142143D01*
X140568572Y-122070714D01*
X140497143Y-121927857D01*
X140497143Y-121499286D01*
X140568572Y-121356429D01*
X140640000Y-121285000D01*
X140782858Y-121213571D01*
X141068572Y-121213571D01*
X141211429Y-121285000D01*
X142925715Y-121213571D02*
X143211429Y-122213571D01*
X143497143Y-121499286D01*
X143782858Y-122213571D01*
X144068572Y-121213571D01*
X144640001Y-122213571D02*
X144640001Y-121213571D01*
X144640001Y-120713571D02*
X144568572Y-120785000D01*
X144640001Y-120856429D01*
X144711429Y-120785000D01*
X144640001Y-120713571D01*
X144640001Y-120856429D01*
X145140001Y-121213571D02*
X145711430Y-121213571D01*
X145354287Y-120713571D02*
X145354287Y-121999286D01*
X145425715Y-122142143D01*
X145568573Y-122213571D01*
X145711430Y-122213571D01*
X146211430Y-122213571D02*
X146211430Y-120713571D01*
X146854287Y-122213571D02*
X146854287Y-121427857D01*
X146782858Y-121285000D01*
X146640001Y-121213571D01*
X146425716Y-121213571D01*
X146282858Y-121285000D01*
X146211430Y-121356429D01*
X149497144Y-122213571D02*
X148640001Y-122213571D01*
X149068573Y-122213571D02*
X149068573Y-120713571D01*
X148925716Y-120927857D01*
X148782858Y-121070714D01*
X148640001Y-121142143D01*
X150140001Y-122070714D02*
X150211429Y-122142143D01*
X150140001Y-122213571D01*
X150068572Y-122142143D01*
X150140001Y-122070714D01*
X150140001Y-122213571D01*
X151497144Y-120713571D02*
X151211430Y-120713571D01*
X151068573Y-120785000D01*
X150997144Y-120856429D01*
X150854287Y-121070714D01*
X150782858Y-121356429D01*
X150782858Y-121927857D01*
X150854287Y-122070714D01*
X150925715Y-122142143D01*
X151068573Y-122213571D01*
X151354287Y-122213571D01*
X151497144Y-122142143D01*
X151568573Y-122070714D01*
X151640001Y-121927857D01*
X151640001Y-121570714D01*
X151568573Y-121427857D01*
X151497144Y-121356429D01*
X151354287Y-121285000D01*
X151068573Y-121285000D01*
X150925715Y-121356429D01*
X150854287Y-121427857D01*
X150782858Y-121570714D01*
X152282858Y-122213571D02*
X152282858Y-121213571D01*
X152282858Y-121356429D02*
X152354286Y-121285000D01*
X152497144Y-121213571D01*
X152711429Y-121213571D01*
X152854286Y-121285000D01*
X152925715Y-121427857D01*
X152925715Y-122213571D01*
X152925715Y-121427857D02*
X152997144Y-121285000D01*
X153140001Y-121213571D01*
X153354286Y-121213571D01*
X153497144Y-121285000D01*
X153568572Y-121427857D01*
X153568572Y-122213571D01*
X154282858Y-122213571D02*
X154282858Y-121213571D01*
X154282858Y-121356429D02*
X154354286Y-121285000D01*
X154497144Y-121213571D01*
X154711429Y-121213571D01*
X154854286Y-121285000D01*
X154925715Y-121427857D01*
X154925715Y-122213571D01*
X154925715Y-121427857D02*
X154997144Y-121285000D01*
X155140001Y-121213571D01*
X155354286Y-121213571D01*
X155497144Y-121285000D01*
X155568572Y-121427857D01*
X155568572Y-122213571D01*
X157425715Y-122213571D02*
X157425715Y-120713571D01*
X157425715Y-121285000D02*
X157568572Y-121213571D01*
X157854286Y-121213571D01*
X157997143Y-121285000D01*
X158068572Y-121356429D01*
X158140001Y-121499286D01*
X158140001Y-121927857D01*
X158068572Y-122070714D01*
X157997143Y-122142143D01*
X157854286Y-122213571D01*
X157568572Y-122213571D01*
X157425715Y-122142143D01*
X158782858Y-122213571D02*
X158782858Y-121213571D01*
X158782858Y-120713571D02*
X158711429Y-120785000D01*
X158782858Y-120856429D01*
X158854286Y-120785000D01*
X158782858Y-120713571D01*
X158782858Y-120856429D01*
X159282858Y-121213571D02*
X159854287Y-121213571D01*
X159497144Y-120713571D02*
X159497144Y-121999286D01*
X159568572Y-122142143D01*
X159711430Y-122213571D01*
X159854287Y-122213571D01*
X120640000Y-124192143D02*
X121782857Y-124192143D01*
X123640000Y-124763571D02*
X123640000Y-123263571D01*
X124354286Y-123763571D02*
X124354286Y-124763571D01*
X124354286Y-123906429D02*
X124425714Y-123835000D01*
X124568572Y-123763571D01*
X124782857Y-123763571D01*
X124925714Y-123835000D01*
X124997143Y-123977857D01*
X124997143Y-124763571D01*
X125497143Y-123763571D02*
X126068572Y-123763571D01*
X125711429Y-123263571D02*
X125711429Y-124549286D01*
X125782857Y-124692143D01*
X125925715Y-124763571D01*
X126068572Y-124763571D01*
X127140000Y-124692143D02*
X126997143Y-124763571D01*
X126711429Y-124763571D01*
X126568572Y-124692143D01*
X126497143Y-124549286D01*
X126497143Y-123977857D01*
X126568572Y-123835000D01*
X126711429Y-123763571D01*
X126997143Y-123763571D01*
X127140000Y-123835000D01*
X127211429Y-123977857D01*
X127211429Y-124120714D01*
X126497143Y-124263571D01*
X127854286Y-124763571D02*
X127854286Y-123763571D01*
X127854286Y-124049286D02*
X127925714Y-123906429D01*
X127997143Y-123835000D01*
X128140000Y-123763571D01*
X128282857Y-123763571D01*
X128782857Y-124763571D02*
X128782857Y-123763571D01*
X128782857Y-123263571D02*
X128711428Y-123335000D01*
X128782857Y-123406429D01*
X128854285Y-123335000D01*
X128782857Y-123263571D01*
X128782857Y-123406429D01*
X129711429Y-124763571D02*
X129568571Y-124692143D01*
X129497143Y-124620714D01*
X129425714Y-124477857D01*
X129425714Y-124049286D01*
X129497143Y-123906429D01*
X129568571Y-123835000D01*
X129711429Y-123763571D01*
X129925714Y-123763571D01*
X130068571Y-123835000D01*
X130140000Y-123906429D01*
X130211429Y-124049286D01*
X130211429Y-124477857D01*
X130140000Y-124620714D01*
X130068571Y-124692143D01*
X129925714Y-124763571D01*
X129711429Y-124763571D01*
X130854286Y-124763571D02*
X130854286Y-123763571D01*
X130854286Y-124049286D02*
X130925714Y-123906429D01*
X130997143Y-123835000D01*
X131140000Y-123763571D01*
X131282857Y-123763571D01*
X132925714Y-124763571D02*
X132925714Y-123263571D01*
X133782857Y-124763571D01*
X133782857Y-123263571D01*
X134711429Y-124763571D02*
X134568571Y-124692143D01*
X134497143Y-124620714D01*
X134425714Y-124477857D01*
X134425714Y-124049286D01*
X134497143Y-123906429D01*
X134568571Y-123835000D01*
X134711429Y-123763571D01*
X134925714Y-123763571D01*
X135068571Y-123835000D01*
X135140000Y-123906429D01*
X135211429Y-124049286D01*
X135211429Y-124477857D01*
X135140000Y-124620714D01*
X135068571Y-124692143D01*
X134925714Y-124763571D01*
X134711429Y-124763571D01*
X135854286Y-123763571D02*
X135854286Y-124763571D01*
X135854286Y-123906429D02*
X135925714Y-123835000D01*
X136068572Y-123763571D01*
X136282857Y-123763571D01*
X136425714Y-123835000D01*
X136497143Y-123977857D01*
X136497143Y-124763571D01*
X137211429Y-123763571D02*
X137211429Y-125263571D01*
X137211429Y-123835000D02*
X137354286Y-123763571D01*
X137640000Y-123763571D01*
X137782857Y-123835000D01*
X137854286Y-123906429D01*
X137925715Y-124049286D01*
X137925715Y-124477857D01*
X137854286Y-124620714D01*
X137782857Y-124692143D01*
X137640000Y-124763571D01*
X137354286Y-124763571D01*
X137211429Y-124692143D01*
X138782858Y-124763571D02*
X138640000Y-124692143D01*
X138568572Y-124549286D01*
X138568572Y-123263571D01*
X139997143Y-124763571D02*
X139997143Y-123977857D01*
X139925714Y-123835000D01*
X139782857Y-123763571D01*
X139497143Y-123763571D01*
X139354286Y-123835000D01*
X139997143Y-124692143D02*
X139854286Y-124763571D01*
X139497143Y-124763571D01*
X139354286Y-124692143D01*
X139282857Y-124549286D01*
X139282857Y-124406429D01*
X139354286Y-124263571D01*
X139497143Y-124192143D01*
X139854286Y-124192143D01*
X139997143Y-124120714D01*
X140497143Y-123763571D02*
X141068572Y-123763571D01*
X140711429Y-123263571D02*
X140711429Y-124549286D01*
X140782857Y-124692143D01*
X140925715Y-124763571D01*
X141068572Y-124763571D01*
X142140000Y-124692143D02*
X141997143Y-124763571D01*
X141711429Y-124763571D01*
X141568572Y-124692143D01*
X141497143Y-124549286D01*
X141497143Y-123977857D01*
X141568572Y-123835000D01*
X141711429Y-123763571D01*
X141997143Y-123763571D01*
X142140000Y-123835000D01*
X142211429Y-123977857D01*
X142211429Y-124120714D01*
X141497143Y-124263571D01*
X143497143Y-124763571D02*
X143497143Y-123263571D01*
X143497143Y-124692143D02*
X143354286Y-124763571D01*
X143068572Y-124763571D01*
X142925714Y-124692143D01*
X142854286Y-124620714D01*
X142782857Y-124477857D01*
X142782857Y-124049286D01*
X142854286Y-123906429D01*
X142925714Y-123835000D01*
X143068572Y-123763571D01*
X143354286Y-123763571D01*
X143497143Y-123835000D01*
X145282857Y-124692143D02*
X145497143Y-124763571D01*
X145854286Y-124763571D01*
X145997143Y-124692143D01*
X146068572Y-124620714D01*
X146140000Y-124477857D01*
X146140000Y-124335000D01*
X146068572Y-124192143D01*
X145997143Y-124120714D01*
X145854286Y-124049286D01*
X145568572Y-123977857D01*
X145425714Y-123906429D01*
X145354286Y-123835000D01*
X145282857Y-123692143D01*
X145282857Y-123549286D01*
X145354286Y-123406429D01*
X145425714Y-123335000D01*
X145568572Y-123263571D01*
X145925714Y-123263571D01*
X146140000Y-123335000D01*
X146997143Y-124763571D02*
X146854285Y-124692143D01*
X146782857Y-124549286D01*
X146782857Y-123263571D01*
X147782857Y-124763571D02*
X147639999Y-124692143D01*
X147568571Y-124620714D01*
X147497142Y-124477857D01*
X147497142Y-124049286D01*
X147568571Y-123906429D01*
X147639999Y-123835000D01*
X147782857Y-123763571D01*
X147997142Y-123763571D01*
X148139999Y-123835000D01*
X148211428Y-123906429D01*
X148282857Y-124049286D01*
X148282857Y-124477857D01*
X148211428Y-124620714D01*
X148139999Y-124692143D01*
X147997142Y-124763571D01*
X147782857Y-124763571D01*
X148711428Y-123763571D02*
X149282857Y-123763571D01*
X148925714Y-123263571D02*
X148925714Y-124549286D01*
X148997142Y-124692143D01*
X149140000Y-124763571D01*
X149282857Y-124763571D01*
X149711428Y-124692143D02*
X149854285Y-124763571D01*
X150140000Y-124763571D01*
X150282857Y-124692143D01*
X150354285Y-124549286D01*
X150354285Y-124477857D01*
X150282857Y-124335000D01*
X150140000Y-124263571D01*
X149925714Y-124263571D01*
X149782857Y-124192143D01*
X149711428Y-124049286D01*
X149711428Y-123977857D01*
X149782857Y-123835000D01*
X149925714Y-123763571D01*
X150140000Y-123763571D01*
X150282857Y-123835000D01*
X151997143Y-123763571D02*
X152282857Y-124763571D01*
X152568571Y-124049286D01*
X152854286Y-124763571D01*
X153140000Y-123763571D01*
X153711429Y-124763571D02*
X153711429Y-123763571D01*
X153711429Y-123263571D02*
X153640000Y-123335000D01*
X153711429Y-123406429D01*
X153782857Y-123335000D01*
X153711429Y-123263571D01*
X153711429Y-123406429D01*
X154211429Y-123763571D02*
X154782858Y-123763571D01*
X154425715Y-123263571D02*
X154425715Y-124549286D01*
X154497143Y-124692143D01*
X154640001Y-124763571D01*
X154782858Y-124763571D01*
X155282858Y-124763571D02*
X155282858Y-123263571D01*
X155925715Y-124763571D02*
X155925715Y-123977857D01*
X155854286Y-123835000D01*
X155711429Y-123763571D01*
X155497144Y-123763571D01*
X155354286Y-123835000D01*
X155282858Y-123906429D01*
X158068572Y-123263571D02*
X158211429Y-123263571D01*
X158354286Y-123335000D01*
X158425715Y-123406429D01*
X158497144Y-123549286D01*
X158568572Y-123835000D01*
X158568572Y-124192143D01*
X158497144Y-124477857D01*
X158425715Y-124620714D01*
X158354286Y-124692143D01*
X158211429Y-124763571D01*
X158068572Y-124763571D01*
X157925715Y-124692143D01*
X157854286Y-124620714D01*
X157782858Y-124477857D01*
X157711429Y-124192143D01*
X157711429Y-123835000D01*
X157782858Y-123549286D01*
X157854286Y-123406429D01*
X157925715Y-123335000D01*
X158068572Y-123263571D01*
X159211429Y-124620714D02*
X159282857Y-124692143D01*
X159211429Y-124763571D01*
X159140000Y-124692143D01*
X159211429Y-124620714D01*
X159211429Y-124763571D01*
X160140001Y-123906429D02*
X159997143Y-123835000D01*
X159925715Y-123763571D01*
X159854286Y-123620714D01*
X159854286Y-123549286D01*
X159925715Y-123406429D01*
X159997143Y-123335000D01*
X160140001Y-123263571D01*
X160425715Y-123263571D01*
X160568572Y-123335000D01*
X160640001Y-123406429D01*
X160711429Y-123549286D01*
X160711429Y-123620714D01*
X160640001Y-123763571D01*
X160568572Y-123835000D01*
X160425715Y-123906429D01*
X160140001Y-123906429D01*
X159997143Y-123977857D01*
X159925715Y-124049286D01*
X159854286Y-124192143D01*
X159854286Y-124477857D01*
X159925715Y-124620714D01*
X159997143Y-124692143D01*
X160140001Y-124763571D01*
X160425715Y-124763571D01*
X160568572Y-124692143D01*
X160640001Y-124620714D01*
X160711429Y-124477857D01*
X160711429Y-124192143D01*
X160640001Y-124049286D01*
X160568572Y-123977857D01*
X160425715Y-123906429D01*
X161354286Y-124763571D02*
X161354286Y-123763571D01*
X161354286Y-123906429D02*
X161425714Y-123835000D01*
X161568572Y-123763571D01*
X161782857Y-123763571D01*
X161925714Y-123835000D01*
X161997143Y-123977857D01*
X161997143Y-124763571D01*
X161997143Y-123977857D02*
X162068572Y-123835000D01*
X162211429Y-123763571D01*
X162425714Y-123763571D01*
X162568572Y-123835000D01*
X162640000Y-123977857D01*
X162640000Y-124763571D01*
X163354286Y-124763571D02*
X163354286Y-123763571D01*
X163354286Y-123906429D02*
X163425714Y-123835000D01*
X163568572Y-123763571D01*
X163782857Y-123763571D01*
X163925714Y-123835000D01*
X163997143Y-123977857D01*
X163997143Y-124763571D01*
X163997143Y-123977857D02*
X164068572Y-123835000D01*
X164211429Y-123763571D01*
X164425714Y-123763571D01*
X164568572Y-123835000D01*
X164640000Y-123977857D01*
X164640000Y-124763571D01*
X166497143Y-124763571D02*
X166497143Y-123263571D01*
X166497143Y-123835000D02*
X166640000Y-123763571D01*
X166925714Y-123763571D01*
X167068571Y-123835000D01*
X167140000Y-123906429D01*
X167211429Y-124049286D01*
X167211429Y-124477857D01*
X167140000Y-124620714D01*
X167068571Y-124692143D01*
X166925714Y-124763571D01*
X166640000Y-124763571D01*
X166497143Y-124692143D01*
X167854286Y-124763571D02*
X167854286Y-123763571D01*
X167854286Y-123263571D02*
X167782857Y-123335000D01*
X167854286Y-123406429D01*
X167925714Y-123335000D01*
X167854286Y-123263571D01*
X167854286Y-123406429D01*
X168354286Y-123763571D02*
X168925715Y-123763571D01*
X168568572Y-123263571D02*
X168568572Y-124549286D01*
X168640000Y-124692143D01*
X168782858Y-124763571D01*
X168925715Y-124763571D01*
X120640000Y-126742143D02*
X121782857Y-126742143D01*
X123640000Y-126527857D02*
X124140000Y-126527857D01*
X124354286Y-127313571D02*
X123640000Y-127313571D01*
X123640000Y-125813571D01*
X124354286Y-125813571D01*
X124854286Y-127313571D02*
X125640000Y-126313571D01*
X124854286Y-126313571D02*
X125640000Y-127313571D01*
X125997143Y-126313571D02*
X126568572Y-126313571D01*
X126211429Y-125813571D02*
X126211429Y-127099286D01*
X126282857Y-127242143D01*
X126425715Y-127313571D01*
X126568572Y-127313571D01*
X127640000Y-127242143D02*
X127497143Y-127313571D01*
X127211429Y-127313571D01*
X127068572Y-127242143D01*
X126997143Y-127099286D01*
X126997143Y-126527857D01*
X127068572Y-126385000D01*
X127211429Y-126313571D01*
X127497143Y-126313571D01*
X127640000Y-126385000D01*
X127711429Y-126527857D01*
X127711429Y-126670714D01*
X126997143Y-126813571D01*
X128354286Y-127313571D02*
X128354286Y-126313571D01*
X128354286Y-126599286D02*
X128425714Y-126456429D01*
X128497143Y-126385000D01*
X128640000Y-126313571D01*
X128782857Y-126313571D01*
X129282857Y-127313571D02*
X129282857Y-126313571D01*
X129282857Y-125813571D02*
X129211428Y-125885000D01*
X129282857Y-125956429D01*
X129354285Y-125885000D01*
X129282857Y-125813571D01*
X129282857Y-125956429D01*
X130211429Y-127313571D02*
X130068571Y-127242143D01*
X129997143Y-127170714D01*
X129925714Y-127027857D01*
X129925714Y-126599286D01*
X129997143Y-126456429D01*
X130068571Y-126385000D01*
X130211429Y-126313571D01*
X130425714Y-126313571D01*
X130568571Y-126385000D01*
X130640000Y-126456429D01*
X130711429Y-126599286D01*
X130711429Y-127027857D01*
X130640000Y-127170714D01*
X130568571Y-127242143D01*
X130425714Y-127313571D01*
X130211429Y-127313571D01*
X131354286Y-127313571D02*
X131354286Y-126313571D01*
X131354286Y-126599286D02*
X131425714Y-126456429D01*
X131497143Y-126385000D01*
X131640000Y-126313571D01*
X131782857Y-126313571D01*
X133425714Y-127313571D02*
X133425714Y-125813571D01*
X133782857Y-125813571D01*
X133997142Y-125885000D01*
X134140000Y-126027857D01*
X134211428Y-126170714D01*
X134282857Y-126456429D01*
X134282857Y-126670714D01*
X134211428Y-126956429D01*
X134140000Y-127099286D01*
X133997142Y-127242143D01*
X133782857Y-127313571D01*
X133425714Y-127313571D01*
X134925714Y-127313571D02*
X134925714Y-126313571D01*
X134925714Y-125813571D02*
X134854285Y-125885000D01*
X134925714Y-125956429D01*
X134997142Y-125885000D01*
X134925714Y-125813571D01*
X134925714Y-125956429D01*
X135640000Y-127313571D02*
X135640000Y-126313571D01*
X135640000Y-126456429D02*
X135711428Y-126385000D01*
X135854286Y-126313571D01*
X136068571Y-126313571D01*
X136211428Y-126385000D01*
X136282857Y-126527857D01*
X136282857Y-127313571D01*
X136282857Y-126527857D02*
X136354286Y-126385000D01*
X136497143Y-126313571D01*
X136711428Y-126313571D01*
X136854286Y-126385000D01*
X136925714Y-126527857D01*
X136925714Y-127313571D01*
X138211428Y-127242143D02*
X138068571Y-127313571D01*
X137782857Y-127313571D01*
X137640000Y-127242143D01*
X137568571Y-127099286D01*
X137568571Y-126527857D01*
X137640000Y-126385000D01*
X137782857Y-126313571D01*
X138068571Y-126313571D01*
X138211428Y-126385000D01*
X138282857Y-126527857D01*
X138282857Y-126670714D01*
X137568571Y-126813571D01*
X138925714Y-126313571D02*
X138925714Y-127313571D01*
X138925714Y-126456429D02*
X138997142Y-126385000D01*
X139140000Y-126313571D01*
X139354285Y-126313571D01*
X139497142Y-126385000D01*
X139568571Y-126527857D01*
X139568571Y-127313571D01*
X140211428Y-127242143D02*
X140354285Y-127313571D01*
X140640000Y-127313571D01*
X140782857Y-127242143D01*
X140854285Y-127099286D01*
X140854285Y-127027857D01*
X140782857Y-126885000D01*
X140640000Y-126813571D01*
X140425714Y-126813571D01*
X140282857Y-126742143D01*
X140211428Y-126599286D01*
X140211428Y-126527857D01*
X140282857Y-126385000D01*
X140425714Y-126313571D01*
X140640000Y-126313571D01*
X140782857Y-126385000D01*
X141497143Y-127313571D02*
X141497143Y-126313571D01*
X141497143Y-125813571D02*
X141425714Y-125885000D01*
X141497143Y-125956429D01*
X141568571Y-125885000D01*
X141497143Y-125813571D01*
X141497143Y-125956429D01*
X142425715Y-127313571D02*
X142282857Y-127242143D01*
X142211429Y-127170714D01*
X142140000Y-127027857D01*
X142140000Y-126599286D01*
X142211429Y-126456429D01*
X142282857Y-126385000D01*
X142425715Y-126313571D01*
X142640000Y-126313571D01*
X142782857Y-126385000D01*
X142854286Y-126456429D01*
X142925715Y-126599286D01*
X142925715Y-127027857D01*
X142854286Y-127170714D01*
X142782857Y-127242143D01*
X142640000Y-127313571D01*
X142425715Y-127313571D01*
X143568572Y-126313571D02*
X143568572Y-127313571D01*
X143568572Y-126456429D02*
X143640000Y-126385000D01*
X143782858Y-126313571D01*
X143997143Y-126313571D01*
X144140000Y-126385000D01*
X144211429Y-126527857D01*
X144211429Y-127313571D01*
X144854286Y-127242143D02*
X144997143Y-127313571D01*
X145282858Y-127313571D01*
X145425715Y-127242143D01*
X145497143Y-127099286D01*
X145497143Y-127027857D01*
X145425715Y-126885000D01*
X145282858Y-126813571D01*
X145068572Y-126813571D01*
X144925715Y-126742143D01*
X144854286Y-126599286D01*
X144854286Y-126527857D01*
X144925715Y-126385000D01*
X145068572Y-126313571D01*
X145282858Y-126313571D01*
X145425715Y-126385000D01*
X146140001Y-127170714D02*
X146211429Y-127242143D01*
X146140001Y-127313571D01*
X146068572Y-127242143D01*
X146140001Y-127170714D01*
X146140001Y-127313571D01*
X146140001Y-126385000D02*
X146211429Y-126456429D01*
X146140001Y-126527857D01*
X146068572Y-126456429D01*
X146140001Y-126385000D01*
X146140001Y-126527857D01*
X147925715Y-125956429D02*
X147997144Y-125885000D01*
X148140001Y-125813571D01*
X148497144Y-125813571D01*
X148640001Y-125885000D01*
X148711430Y-125956429D01*
X148782858Y-126099286D01*
X148782858Y-126242143D01*
X148711430Y-126456429D01*
X147854287Y-127313571D01*
X148782858Y-127313571D01*
X150068572Y-126313571D02*
X150068572Y-127313571D01*
X149711429Y-125742143D02*
X149354286Y-126813571D01*
X150282858Y-126813571D01*
X150925714Y-127313571D02*
X151211429Y-127313571D01*
X151354286Y-127242143D01*
X151425714Y-127170714D01*
X151568572Y-126956429D01*
X151640000Y-126670714D01*
X151640000Y-126099286D01*
X151568572Y-125956429D01*
X151497143Y-125885000D01*
X151354286Y-125813571D01*
X151068572Y-125813571D01*
X150925714Y-125885000D01*
X150854286Y-125956429D01*
X150782857Y-126099286D01*
X150782857Y-126456429D01*
X150854286Y-126599286D01*
X150925714Y-126670714D01*
X151068572Y-126742143D01*
X151354286Y-126742143D01*
X151497143Y-126670714D01*
X151568572Y-126599286D01*
X151640000Y-126456429D01*
X152282857Y-127170714D02*
X152354285Y-127242143D01*
X152282857Y-127313571D01*
X152211428Y-127242143D01*
X152282857Y-127170714D01*
X152282857Y-127313571D01*
X153211429Y-126456429D02*
X153068571Y-126385000D01*
X152997143Y-126313571D01*
X152925714Y-126170714D01*
X152925714Y-126099286D01*
X152997143Y-125956429D01*
X153068571Y-125885000D01*
X153211429Y-125813571D01*
X153497143Y-125813571D01*
X153640000Y-125885000D01*
X153711429Y-125956429D01*
X153782857Y-126099286D01*
X153782857Y-126170714D01*
X153711429Y-126313571D01*
X153640000Y-126385000D01*
X153497143Y-126456429D01*
X153211429Y-126456429D01*
X153068571Y-126527857D01*
X152997143Y-126599286D01*
X152925714Y-126742143D01*
X152925714Y-127027857D01*
X152997143Y-127170714D01*
X153068571Y-127242143D01*
X153211429Y-127313571D01*
X153497143Y-127313571D01*
X153640000Y-127242143D01*
X153711429Y-127170714D01*
X153782857Y-127027857D01*
X153782857Y-126742143D01*
X153711429Y-126599286D01*
X153640000Y-126527857D01*
X153497143Y-126456429D01*
X155211428Y-127313571D02*
X154354285Y-127313571D01*
X154782857Y-127313571D02*
X154782857Y-125813571D01*
X154640000Y-126027857D01*
X154497142Y-126170714D01*
X154354285Y-126242143D01*
X155854285Y-127313571D02*
X155854285Y-126313571D01*
X155854285Y-126456429D02*
X155925713Y-126385000D01*
X156068571Y-126313571D01*
X156282856Y-126313571D01*
X156425713Y-126385000D01*
X156497142Y-126527857D01*
X156497142Y-127313571D01*
X156497142Y-126527857D02*
X156568571Y-126385000D01*
X156711428Y-126313571D01*
X156925713Y-126313571D01*
X157068571Y-126385000D01*
X157139999Y-126527857D01*
X157139999Y-127313571D01*
X157854285Y-127313571D02*
X157854285Y-126313571D01*
X157854285Y-126456429D02*
X157925713Y-126385000D01*
X158068571Y-126313571D01*
X158282856Y-126313571D01*
X158425713Y-126385000D01*
X158497142Y-126527857D01*
X158497142Y-127313571D01*
X158497142Y-126527857D02*
X158568571Y-126385000D01*
X158711428Y-126313571D01*
X158925713Y-126313571D01*
X159068571Y-126385000D01*
X159139999Y-126527857D01*
X159139999Y-127313571D01*
X160854285Y-127313571D02*
X161639999Y-126313571D01*
X160854285Y-126313571D02*
X161639999Y-127313571D01*
X163425713Y-127313571D02*
X163711428Y-127313571D01*
X163854285Y-127242143D01*
X163925713Y-127170714D01*
X164068571Y-126956429D01*
X164139999Y-126670714D01*
X164139999Y-126099286D01*
X164068571Y-125956429D01*
X163997142Y-125885000D01*
X163854285Y-125813571D01*
X163568571Y-125813571D01*
X163425713Y-125885000D01*
X163354285Y-125956429D01*
X163282856Y-126099286D01*
X163282856Y-126456429D01*
X163354285Y-126599286D01*
X163425713Y-126670714D01*
X163568571Y-126742143D01*
X163854285Y-126742143D01*
X163997142Y-126670714D01*
X164068571Y-126599286D01*
X164139999Y-126456429D01*
X164639999Y-125813571D02*
X165568570Y-125813571D01*
X165068570Y-126385000D01*
X165282856Y-126385000D01*
X165425713Y-126456429D01*
X165497142Y-126527857D01*
X165568570Y-126670714D01*
X165568570Y-127027857D01*
X165497142Y-127170714D01*
X165425713Y-127242143D01*
X165282856Y-127313571D01*
X164854284Y-127313571D01*
X164711427Y-127242143D01*
X164639999Y-127170714D01*
X166211427Y-127170714D02*
X166282855Y-127242143D01*
X166211427Y-127313571D01*
X166139998Y-127242143D01*
X166211427Y-127170714D01*
X166211427Y-127313571D01*
X167711427Y-127313571D02*
X166854284Y-127313571D01*
X167282856Y-127313571D02*
X167282856Y-125813571D01*
X167139999Y-126027857D01*
X166997141Y-126170714D01*
X166854284Y-126242143D01*
X168997141Y-126313571D02*
X168997141Y-127313571D01*
X168639998Y-125742143D02*
X168282855Y-126813571D01*
X169211427Y-126813571D01*
X169782855Y-127313571D02*
X169782855Y-126313571D01*
X169782855Y-126456429D02*
X169854283Y-126385000D01*
X169997141Y-126313571D01*
X170211426Y-126313571D01*
X170354283Y-126385000D01*
X170425712Y-126527857D01*
X170425712Y-127313571D01*
X170425712Y-126527857D02*
X170497141Y-126385000D01*
X170639998Y-126313571D01*
X170854283Y-126313571D01*
X170997141Y-126385000D01*
X171068569Y-126527857D01*
X171068569Y-127313571D01*
X171782855Y-127313571D02*
X171782855Y-126313571D01*
X171782855Y-126456429D02*
X171854283Y-126385000D01*
X171997141Y-126313571D01*
X172211426Y-126313571D01*
X172354283Y-126385000D01*
X172425712Y-126527857D01*
X172425712Y-127313571D01*
X172425712Y-126527857D02*
X172497141Y-126385000D01*
X172639998Y-126313571D01*
X172854283Y-126313571D01*
X172997141Y-126385000D01*
X173068569Y-126527857D01*
X173068569Y-127313571D01*
M02*
