%TF.GenerationSoftware,KiCad,Pcbnew,4.0.7-e2-6376~58~ubuntu16.04.1*%
%TF.CreationDate,2018-07-01T15:12:05-07:00*%
%TF.ProjectId,dcload,64636C6F61642E6B696361645F706362,rev?*%
%TF.FileFunction,Legend,Top*%
%FSLAX46Y46*%
G04 Gerber Fmt 4.6, Leading zero omitted, Abs format (unit mm)*
G04 Created by KiCad (PCBNEW 4.0.7-e2-6376~58~ubuntu16.04.1) date Sun Jul  1 15:12:05 2018*
%MOMM*%
%LPD*%
G01*
G04 APERTURE LIST*
%ADD10C,0.100000*%
%ADD11C,0.450000*%
%ADD12C,0.600000*%
%ADD13C,0.150000*%
G04 APERTURE END LIST*
D10*
D11*
X163190474Y-101059524D02*
X163476189Y-101154762D01*
X163952379Y-101154762D01*
X164142855Y-101059524D01*
X164238093Y-100964286D01*
X164333332Y-100773810D01*
X164333332Y-100583333D01*
X164238093Y-100392857D01*
X164142855Y-100297619D01*
X163952379Y-100202381D01*
X163571427Y-100107143D01*
X163380951Y-100011905D01*
X163285712Y-99916667D01*
X163190474Y-99726190D01*
X163190474Y-99535714D01*
X163285712Y-99345238D01*
X163380951Y-99250000D01*
X163571427Y-99154762D01*
X164047617Y-99154762D01*
X164333332Y-99250000D01*
X166047617Y-101059524D02*
X165857141Y-101154762D01*
X165476189Y-101154762D01*
X165285713Y-101059524D01*
X165190474Y-100964286D01*
X165095236Y-100773810D01*
X165095236Y-100202381D01*
X165190474Y-100011905D01*
X165285713Y-99916667D01*
X165476189Y-99821429D01*
X165857141Y-99821429D01*
X166047617Y-99916667D01*
X167761903Y-99821429D02*
X167761903Y-101154762D01*
X166904760Y-99821429D02*
X166904760Y-100869048D01*
X166999999Y-101059524D01*
X167190475Y-101154762D01*
X167476189Y-101154762D01*
X167666665Y-101059524D01*
X167761903Y-100964286D01*
X168999999Y-101154762D02*
X168809523Y-101059524D01*
X168714284Y-100869048D01*
X168714284Y-99154762D01*
X170047618Y-101154762D02*
X169857142Y-101059524D01*
X169761903Y-100869048D01*
X169761903Y-99154762D01*
X171666665Y-101059524D02*
X171476189Y-101154762D01*
X171095237Y-101154762D01*
X170904761Y-101059524D01*
X170809522Y-100964286D01*
X170714284Y-100773810D01*
X170714284Y-100202381D01*
X170809522Y-100011905D01*
X170904761Y-99916667D01*
X171095237Y-99821429D01*
X171476189Y-99821429D01*
X171666665Y-99916667D01*
X172809523Y-101154762D02*
X172619047Y-101059524D01*
X172523808Y-100964286D01*
X172428570Y-100773810D01*
X172428570Y-100202381D01*
X172523808Y-100011905D01*
X172619047Y-99916667D01*
X172809523Y-99821429D01*
X173095237Y-99821429D01*
X173285713Y-99916667D01*
X173380951Y-100011905D01*
X173476189Y-100202381D01*
X173476189Y-100773810D01*
X173380951Y-100964286D01*
X173285713Y-101059524D01*
X173095237Y-101154762D01*
X172809523Y-101154762D01*
X174333332Y-101154762D02*
X174333332Y-99821429D01*
X174333332Y-100011905D02*
X174428571Y-99916667D01*
X174619047Y-99821429D01*
X174904761Y-99821429D01*
X175095237Y-99916667D01*
X175190475Y-100107143D01*
X175190475Y-101154762D01*
X175190475Y-100107143D02*
X175285713Y-99916667D01*
X175476190Y-99821429D01*
X175761904Y-99821429D01*
X175952380Y-99916667D01*
X176047618Y-100107143D01*
X176047618Y-101154762D01*
X178523809Y-101154762D02*
X178523809Y-99154762D01*
X178523809Y-100107143D02*
X179666667Y-100107143D01*
X179666667Y-101154762D02*
X179666667Y-99154762D01*
X180904762Y-101154762D02*
X180714286Y-101059524D01*
X180619047Y-100964286D01*
X180523809Y-100773810D01*
X180523809Y-100202381D01*
X180619047Y-100011905D01*
X180714286Y-99916667D01*
X180904762Y-99821429D01*
X181190476Y-99821429D01*
X181380952Y-99916667D01*
X181476190Y-100011905D01*
X181571428Y-100202381D01*
X181571428Y-100773810D01*
X181476190Y-100964286D01*
X181380952Y-101059524D01*
X181190476Y-101154762D01*
X180904762Y-101154762D01*
X182428571Y-101154762D02*
X182428571Y-99154762D01*
X182428571Y-99916667D02*
X182619048Y-99821429D01*
X183000000Y-99821429D01*
X183190476Y-99916667D01*
X183285714Y-100011905D01*
X183380952Y-100202381D01*
X183380952Y-100773810D01*
X183285714Y-100964286D01*
X183190476Y-101059524D01*
X183000000Y-101154762D01*
X182619048Y-101154762D01*
X182428571Y-101059524D01*
X184238095Y-101154762D02*
X184238095Y-99154762D01*
X184238095Y-99916667D02*
X184428572Y-99821429D01*
X184809524Y-99821429D01*
X185000000Y-99916667D01*
X185095238Y-100011905D01*
X185190476Y-100202381D01*
X185190476Y-100773810D01*
X185095238Y-100964286D01*
X185000000Y-101059524D01*
X184809524Y-101154762D01*
X184428572Y-101154762D01*
X184238095Y-101059524D01*
X185857143Y-99821429D02*
X186333334Y-101154762D01*
X186809524Y-99821429D02*
X186333334Y-101154762D01*
X186142858Y-101630952D01*
X186047619Y-101726190D01*
X185857143Y-101821429D01*
X189095239Y-100107143D02*
X189761906Y-100107143D01*
X190047620Y-101154762D02*
X189095239Y-101154762D01*
X189095239Y-99154762D01*
X190047620Y-99154762D01*
X191190478Y-101154762D02*
X191000002Y-101059524D01*
X190904763Y-100869048D01*
X190904763Y-99154762D01*
X192714287Y-101059524D02*
X192523811Y-101154762D01*
X192142859Y-101154762D01*
X191952382Y-101059524D01*
X191857144Y-100869048D01*
X191857144Y-100107143D01*
X191952382Y-99916667D01*
X192142859Y-99821429D01*
X192523811Y-99821429D01*
X192714287Y-99916667D01*
X192809525Y-100107143D01*
X192809525Y-100297619D01*
X191857144Y-100488095D01*
X194523811Y-101059524D02*
X194333335Y-101154762D01*
X193952383Y-101154762D01*
X193761907Y-101059524D01*
X193666668Y-100964286D01*
X193571430Y-100773810D01*
X193571430Y-100202381D01*
X193666668Y-100011905D01*
X193761907Y-99916667D01*
X193952383Y-99821429D01*
X194333335Y-99821429D01*
X194523811Y-99916667D01*
X195095240Y-99821429D02*
X195857145Y-99821429D01*
X195380954Y-99154762D02*
X195380954Y-100869048D01*
X195476193Y-101059524D01*
X195666669Y-101154762D01*
X195857145Y-101154762D01*
X196523811Y-101154762D02*
X196523811Y-99821429D01*
X196523811Y-100202381D02*
X196619050Y-100011905D01*
X196714288Y-99916667D01*
X196904764Y-99821429D01*
X197095240Y-99821429D01*
X198047621Y-101154762D02*
X197857145Y-101059524D01*
X197761906Y-100964286D01*
X197666668Y-100773810D01*
X197666668Y-100202381D01*
X197761906Y-100011905D01*
X197857145Y-99916667D01*
X198047621Y-99821429D01*
X198333335Y-99821429D01*
X198523811Y-99916667D01*
X198619049Y-100011905D01*
X198714287Y-100202381D01*
X198714287Y-100773810D01*
X198619049Y-100964286D01*
X198523811Y-101059524D01*
X198333335Y-101154762D01*
X198047621Y-101154762D01*
X199571430Y-99821429D02*
X199571430Y-101154762D01*
X199571430Y-100011905D02*
X199666669Y-99916667D01*
X199857145Y-99821429D01*
X200142859Y-99821429D01*
X200333335Y-99916667D01*
X200428573Y-100107143D01*
X200428573Y-101154762D01*
X201380954Y-101154762D02*
X201380954Y-99821429D01*
X201380954Y-99154762D02*
X201285716Y-99250000D01*
X201380954Y-99345238D01*
X201476193Y-99250000D01*
X201380954Y-99154762D01*
X201380954Y-99345238D01*
X203190478Y-101059524D02*
X203000002Y-101154762D01*
X202619050Y-101154762D01*
X202428574Y-101059524D01*
X202333335Y-100964286D01*
X202238097Y-100773810D01*
X202238097Y-100202381D01*
X202333335Y-100011905D01*
X202428574Y-99916667D01*
X202619050Y-99821429D01*
X203000002Y-99821429D01*
X203190478Y-99916667D01*
X203952383Y-101059524D02*
X204142860Y-101154762D01*
X204523812Y-101154762D01*
X204714288Y-101059524D01*
X204809526Y-100869048D01*
X204809526Y-100773810D01*
X204714288Y-100583333D01*
X204523812Y-100488095D01*
X204238098Y-100488095D01*
X204047621Y-100392857D01*
X203952383Y-100202381D01*
X203952383Y-100107143D01*
X204047621Y-99916667D01*
X204238098Y-99821429D01*
X204523812Y-99821429D01*
X204714288Y-99916667D01*
D12*
X61178571Y-23857143D02*
X61178571Y-20857143D01*
X61892856Y-20857143D01*
X62321428Y-21000000D01*
X62607142Y-21285714D01*
X62749999Y-21571429D01*
X62892856Y-22142857D01*
X62892856Y-22571429D01*
X62749999Y-23142857D01*
X62607142Y-23428571D01*
X62321428Y-23714286D01*
X61892856Y-23857143D01*
X61178571Y-23857143D01*
X65892856Y-23571429D02*
X65749999Y-23714286D01*
X65321428Y-23857143D01*
X65035714Y-23857143D01*
X64607142Y-23714286D01*
X64321428Y-23428571D01*
X64178571Y-23142857D01*
X64035714Y-22571429D01*
X64035714Y-22142857D01*
X64178571Y-21571429D01*
X64321428Y-21285714D01*
X64607142Y-21000000D01*
X65035714Y-20857143D01*
X65321428Y-20857143D01*
X65749999Y-21000000D01*
X65892856Y-21142857D01*
X69464285Y-22285714D02*
X70464285Y-22285714D01*
X70892856Y-23857143D02*
X69464285Y-23857143D01*
X69464285Y-20857143D01*
X70892856Y-20857143D01*
X72607142Y-23857143D02*
X72321428Y-23714286D01*
X72178571Y-23428571D01*
X72178571Y-20857143D01*
X74892857Y-23714286D02*
X74607143Y-23857143D01*
X74035714Y-23857143D01*
X73750000Y-23714286D01*
X73607143Y-23428571D01*
X73607143Y-22285714D01*
X73750000Y-22000000D01*
X74035714Y-21857143D01*
X74607143Y-21857143D01*
X74892857Y-22000000D01*
X75035714Y-22285714D01*
X75035714Y-22571429D01*
X73607143Y-22857143D01*
X77607143Y-23714286D02*
X77321429Y-23857143D01*
X76750000Y-23857143D01*
X76464286Y-23714286D01*
X76321429Y-23571429D01*
X76178572Y-23285714D01*
X76178572Y-22428571D01*
X76321429Y-22142857D01*
X76464286Y-22000000D01*
X76750000Y-21857143D01*
X77321429Y-21857143D01*
X77607143Y-22000000D01*
X78464286Y-21857143D02*
X79607143Y-21857143D01*
X78892858Y-20857143D02*
X78892858Y-23428571D01*
X79035715Y-23714286D01*
X79321429Y-23857143D01*
X79607143Y-23857143D01*
X80607144Y-23857143D02*
X80607144Y-21857143D01*
X80607144Y-22428571D02*
X80750001Y-22142857D01*
X80892858Y-22000000D01*
X81178572Y-21857143D01*
X81464287Y-21857143D01*
X82892858Y-23857143D02*
X82607144Y-23714286D01*
X82464287Y-23571429D01*
X82321430Y-23285714D01*
X82321430Y-22428571D01*
X82464287Y-22142857D01*
X82607144Y-22000000D01*
X82892858Y-21857143D01*
X83321430Y-21857143D01*
X83607144Y-22000000D01*
X83750001Y-22142857D01*
X83892858Y-22428571D01*
X83892858Y-23285714D01*
X83750001Y-23571429D01*
X83607144Y-23714286D01*
X83321430Y-23857143D01*
X82892858Y-23857143D01*
X85178573Y-21857143D02*
X85178573Y-23857143D01*
X85178573Y-22142857D02*
X85321430Y-22000000D01*
X85607144Y-21857143D01*
X86035716Y-21857143D01*
X86321430Y-22000000D01*
X86464287Y-22285714D01*
X86464287Y-23857143D01*
X87892859Y-23857143D02*
X87892859Y-21857143D01*
X87892859Y-20857143D02*
X87750002Y-21000000D01*
X87892859Y-21142857D01*
X88035716Y-21000000D01*
X87892859Y-20857143D01*
X87892859Y-21142857D01*
X90607144Y-23714286D02*
X90321430Y-23857143D01*
X89750001Y-23857143D01*
X89464287Y-23714286D01*
X89321430Y-23571429D01*
X89178573Y-23285714D01*
X89178573Y-22428571D01*
X89321430Y-22142857D01*
X89464287Y-22000000D01*
X89750001Y-21857143D01*
X90321430Y-21857143D01*
X90607144Y-22000000D01*
X95607144Y-23857143D02*
X94178573Y-23857143D01*
X94178573Y-20857143D01*
X97035715Y-23857143D02*
X96750001Y-23714286D01*
X96607144Y-23571429D01*
X96464287Y-23285714D01*
X96464287Y-22428571D01*
X96607144Y-22142857D01*
X96750001Y-22000000D01*
X97035715Y-21857143D01*
X97464287Y-21857143D01*
X97750001Y-22000000D01*
X97892858Y-22142857D01*
X98035715Y-22428571D01*
X98035715Y-23285714D01*
X97892858Y-23571429D01*
X97750001Y-23714286D01*
X97464287Y-23857143D01*
X97035715Y-23857143D01*
X100607144Y-23857143D02*
X100607144Y-22285714D01*
X100464287Y-22000000D01*
X100178573Y-21857143D01*
X99607144Y-21857143D01*
X99321430Y-22000000D01*
X100607144Y-23714286D02*
X100321430Y-23857143D01*
X99607144Y-23857143D01*
X99321430Y-23714286D01*
X99178573Y-23428571D01*
X99178573Y-23142857D01*
X99321430Y-22857143D01*
X99607144Y-22714286D01*
X100321430Y-22714286D01*
X100607144Y-22571429D01*
X103321430Y-23857143D02*
X103321430Y-20857143D01*
X103321430Y-23714286D02*
X103035716Y-23857143D01*
X102464287Y-23857143D01*
X102178573Y-23714286D01*
X102035716Y-23571429D01*
X101892859Y-23285714D01*
X101892859Y-22428571D01*
X102035716Y-22142857D01*
X102178573Y-22000000D01*
X102464287Y-21857143D01*
X103035716Y-21857143D01*
X103321430Y-22000000D01*
D11*
X85999999Y-82834524D02*
X86285714Y-82929762D01*
X86761904Y-82929762D01*
X86952380Y-82834524D01*
X87047618Y-82739286D01*
X87142857Y-82548810D01*
X87142857Y-82358333D01*
X87047618Y-82167857D01*
X86952380Y-82072619D01*
X86761904Y-81977381D01*
X86380952Y-81882143D01*
X86190476Y-81786905D01*
X86095237Y-81691667D01*
X85999999Y-81501190D01*
X85999999Y-81310714D01*
X86095237Y-81120238D01*
X86190476Y-81025000D01*
X86380952Y-80929762D01*
X86857142Y-80929762D01*
X87142857Y-81025000D01*
X88761904Y-82834524D02*
X88571428Y-82929762D01*
X88190476Y-82929762D01*
X87999999Y-82834524D01*
X87904761Y-82644048D01*
X87904761Y-81882143D01*
X87999999Y-81691667D01*
X88190476Y-81596429D01*
X88571428Y-81596429D01*
X88761904Y-81691667D01*
X88857142Y-81882143D01*
X88857142Y-82072619D01*
X87904761Y-82263095D01*
X89714285Y-81596429D02*
X89714285Y-82929762D01*
X89714285Y-81786905D02*
X89809524Y-81691667D01*
X90000000Y-81596429D01*
X90285714Y-81596429D01*
X90476190Y-81691667D01*
X90571428Y-81882143D01*
X90571428Y-82929762D01*
X91428571Y-82834524D02*
X91619048Y-82929762D01*
X92000000Y-82929762D01*
X92190476Y-82834524D01*
X92285714Y-82644048D01*
X92285714Y-82548810D01*
X92190476Y-82358333D01*
X92000000Y-82263095D01*
X91714286Y-82263095D01*
X91523809Y-82167857D01*
X91428571Y-81977381D01*
X91428571Y-81882143D01*
X91523809Y-81691667D01*
X91714286Y-81596429D01*
X92000000Y-81596429D01*
X92190476Y-81691667D01*
X93904762Y-82834524D02*
X93714286Y-82929762D01*
X93333334Y-82929762D01*
X93142857Y-82834524D01*
X93047619Y-82644048D01*
X93047619Y-81882143D01*
X93142857Y-81691667D01*
X93333334Y-81596429D01*
X93714286Y-81596429D01*
X93904762Y-81691667D01*
X94000000Y-81882143D01*
X94000000Y-82072619D01*
X93047619Y-82263095D01*
X84571428Y-85332143D02*
X85238095Y-85332143D01*
X85523809Y-86379762D02*
X84571428Y-86379762D01*
X84571428Y-84379762D01*
X85523809Y-84379762D01*
X86380952Y-85046429D02*
X86380952Y-86379762D01*
X86380952Y-85236905D02*
X86476191Y-85141667D01*
X86666667Y-85046429D01*
X86952381Y-85046429D01*
X87142857Y-85141667D01*
X87238095Y-85332143D01*
X87238095Y-86379762D01*
X89047619Y-86379762D02*
X89047619Y-85332143D01*
X88952381Y-85141667D01*
X88761905Y-85046429D01*
X88380953Y-85046429D01*
X88190476Y-85141667D01*
X89047619Y-86284524D02*
X88857143Y-86379762D01*
X88380953Y-86379762D01*
X88190476Y-86284524D01*
X88095238Y-86094048D01*
X88095238Y-85903571D01*
X88190476Y-85713095D01*
X88380953Y-85617857D01*
X88857143Y-85617857D01*
X89047619Y-85522619D01*
X90000000Y-86379762D02*
X90000000Y-84379762D01*
X90000000Y-85141667D02*
X90190477Y-85046429D01*
X90571429Y-85046429D01*
X90761905Y-85141667D01*
X90857143Y-85236905D01*
X90952381Y-85427381D01*
X90952381Y-85998810D01*
X90857143Y-86189286D01*
X90761905Y-86284524D01*
X90571429Y-86379762D01*
X90190477Y-86379762D01*
X90000000Y-86284524D01*
X92095239Y-86379762D02*
X91904763Y-86284524D01*
X91809524Y-86094048D01*
X91809524Y-84379762D01*
X93619048Y-86284524D02*
X93428572Y-86379762D01*
X93047620Y-86379762D01*
X92857143Y-86284524D01*
X92761905Y-86094048D01*
X92761905Y-85332143D01*
X92857143Y-85141667D01*
X93047620Y-85046429D01*
X93428572Y-85046429D01*
X93619048Y-85141667D01*
X93714286Y-85332143D01*
X93714286Y-85522619D01*
X92761905Y-85713095D01*
X95428572Y-86379762D02*
X95428572Y-84379762D01*
X95428572Y-86284524D02*
X95238096Y-86379762D01*
X94857144Y-86379762D01*
X94666668Y-86284524D01*
X94571429Y-86189286D01*
X94476191Y-85998810D01*
X94476191Y-85427381D01*
X94571429Y-85236905D01*
X94666668Y-85141667D01*
X94857144Y-85046429D01*
X95238096Y-85046429D01*
X95428572Y-85141667D01*
X44654761Y-82904762D02*
X43702380Y-82904762D01*
X43702380Y-80904762D01*
X45607143Y-82904762D02*
X45416667Y-82809524D01*
X45321428Y-82714286D01*
X45226190Y-82523810D01*
X45226190Y-81952381D01*
X45321428Y-81761905D01*
X45416667Y-81666667D01*
X45607143Y-81571429D01*
X45892857Y-81571429D01*
X46083333Y-81666667D01*
X46178571Y-81761905D01*
X46273809Y-81952381D01*
X46273809Y-82523810D01*
X46178571Y-82714286D01*
X46083333Y-82809524D01*
X45892857Y-82904762D01*
X45607143Y-82904762D01*
X47988095Y-82904762D02*
X47988095Y-81857143D01*
X47892857Y-81666667D01*
X47702381Y-81571429D01*
X47321429Y-81571429D01*
X47130952Y-81666667D01*
X47988095Y-82809524D02*
X47797619Y-82904762D01*
X47321429Y-82904762D01*
X47130952Y-82809524D01*
X47035714Y-82619048D01*
X47035714Y-82428571D01*
X47130952Y-82238095D01*
X47321429Y-82142857D01*
X47797619Y-82142857D01*
X47988095Y-82047619D01*
X49797619Y-82904762D02*
X49797619Y-80904762D01*
X49797619Y-82809524D02*
X49607143Y-82904762D01*
X49226191Y-82904762D01*
X49035715Y-82809524D01*
X48940476Y-82714286D01*
X48845238Y-82523810D01*
X48845238Y-81952381D01*
X48940476Y-81761905D01*
X49035715Y-81666667D01*
X49226191Y-81571429D01*
X49607143Y-81571429D01*
X49797619Y-81666667D01*
X115999999Y-82809524D02*
X116285714Y-82904762D01*
X116761904Y-82904762D01*
X116952380Y-82809524D01*
X117047618Y-82714286D01*
X117142857Y-82523810D01*
X117142857Y-82333333D01*
X117047618Y-82142857D01*
X116952380Y-82047619D01*
X116761904Y-81952381D01*
X116380952Y-81857143D01*
X116190476Y-81761905D01*
X116095237Y-81666667D01*
X115999999Y-81476190D01*
X115999999Y-81285714D01*
X116095237Y-81095238D01*
X116190476Y-81000000D01*
X116380952Y-80904762D01*
X116857142Y-80904762D01*
X117142857Y-81000000D01*
X118761904Y-82809524D02*
X118571428Y-82904762D01*
X118190476Y-82904762D01*
X117999999Y-82809524D01*
X117904761Y-82619048D01*
X117904761Y-81857143D01*
X117999999Y-81666667D01*
X118190476Y-81571429D01*
X118571428Y-81571429D01*
X118761904Y-81666667D01*
X118857142Y-81857143D01*
X118857142Y-82047619D01*
X117904761Y-82238095D01*
X119714285Y-81571429D02*
X119714285Y-82904762D01*
X119714285Y-81761905D02*
X119809524Y-81666667D01*
X120000000Y-81571429D01*
X120285714Y-81571429D01*
X120476190Y-81666667D01*
X120571428Y-81857143D01*
X120571428Y-82904762D01*
X121428571Y-82809524D02*
X121619048Y-82904762D01*
X122000000Y-82904762D01*
X122190476Y-82809524D01*
X122285714Y-82619048D01*
X122285714Y-82523810D01*
X122190476Y-82333333D01*
X122000000Y-82238095D01*
X121714286Y-82238095D01*
X121523809Y-82142857D01*
X121428571Y-81952381D01*
X121428571Y-81857143D01*
X121523809Y-81666667D01*
X121714286Y-81571429D01*
X122000000Y-81571429D01*
X122190476Y-81666667D01*
X123904762Y-82809524D02*
X123714286Y-82904762D01*
X123333334Y-82904762D01*
X123142857Y-82809524D01*
X123047619Y-82619048D01*
X123047619Y-81857143D01*
X123142857Y-81666667D01*
X123333334Y-81571429D01*
X123714286Y-81571429D01*
X123904762Y-81666667D01*
X124000000Y-81857143D01*
X124000000Y-82047619D01*
X123047619Y-82238095D01*
X240797619Y-52404762D02*
X241940476Y-52404762D01*
X241369048Y-54404762D02*
X241369048Y-52404762D01*
X242607143Y-54404762D02*
X242607143Y-53071429D01*
X242607143Y-53452381D02*
X242702382Y-53261905D01*
X242797620Y-53166667D01*
X242988096Y-53071429D01*
X243178572Y-53071429D01*
X243845238Y-54404762D02*
X243845238Y-53071429D01*
X243845238Y-52404762D02*
X243750000Y-52500000D01*
X243845238Y-52595238D01*
X243940477Y-52500000D01*
X243845238Y-52404762D01*
X243845238Y-52595238D01*
X245654762Y-53071429D02*
X245654762Y-54690476D01*
X245559524Y-54880952D01*
X245464286Y-54976190D01*
X245273810Y-55071429D01*
X244988096Y-55071429D01*
X244797619Y-54976190D01*
X245654762Y-54309524D02*
X245464286Y-54404762D01*
X245083334Y-54404762D01*
X244892858Y-54309524D01*
X244797619Y-54214286D01*
X244702381Y-54023810D01*
X244702381Y-53452381D01*
X244797619Y-53261905D01*
X244892858Y-53166667D01*
X245083334Y-53071429D01*
X245464286Y-53071429D01*
X245654762Y-53166667D01*
X247464286Y-53071429D02*
X247464286Y-54690476D01*
X247369048Y-54880952D01*
X247273810Y-54976190D01*
X247083334Y-55071429D01*
X246797620Y-55071429D01*
X246607143Y-54976190D01*
X247464286Y-54309524D02*
X247273810Y-54404762D01*
X246892858Y-54404762D01*
X246702382Y-54309524D01*
X246607143Y-54214286D01*
X246511905Y-54023810D01*
X246511905Y-53452381D01*
X246607143Y-53261905D01*
X246702382Y-53166667D01*
X246892858Y-53071429D01*
X247273810Y-53071429D01*
X247464286Y-53166667D01*
X249178572Y-54309524D02*
X248988096Y-54404762D01*
X248607144Y-54404762D01*
X248416667Y-54309524D01*
X248321429Y-54119048D01*
X248321429Y-53357143D01*
X248416667Y-53166667D01*
X248607144Y-53071429D01*
X248988096Y-53071429D01*
X249178572Y-53166667D01*
X249273810Y-53357143D01*
X249273810Y-53547619D01*
X248321429Y-53738095D01*
X250130953Y-54404762D02*
X250130953Y-53071429D01*
X250130953Y-53452381D02*
X250226192Y-53261905D01*
X250321430Y-53166667D01*
X250511906Y-53071429D01*
X250702382Y-53071429D01*
X241797619Y-82404762D02*
X241797619Y-80404762D01*
X242559524Y-80404762D01*
X242750000Y-80500000D01*
X242845239Y-80595238D01*
X242940477Y-80785714D01*
X242940477Y-81071429D01*
X242845239Y-81261905D01*
X242750000Y-81357143D01*
X242559524Y-81452381D01*
X241797619Y-81452381D01*
X244083334Y-82404762D02*
X243892858Y-82309524D01*
X243797619Y-82214286D01*
X243702381Y-82023810D01*
X243702381Y-81452381D01*
X243797619Y-81261905D01*
X243892858Y-81166667D01*
X244083334Y-81071429D01*
X244369048Y-81071429D01*
X244559524Y-81166667D01*
X244654762Y-81261905D01*
X244750000Y-81452381D01*
X244750000Y-82023810D01*
X244654762Y-82214286D01*
X244559524Y-82309524D01*
X244369048Y-82404762D01*
X244083334Y-82404762D01*
X245416667Y-81071429D02*
X245797620Y-82404762D01*
X246178572Y-81452381D01*
X246559524Y-82404762D01*
X246940477Y-81071429D01*
X248464286Y-82309524D02*
X248273810Y-82404762D01*
X247892858Y-82404762D01*
X247702381Y-82309524D01*
X247607143Y-82119048D01*
X247607143Y-81357143D01*
X247702381Y-81166667D01*
X247892858Y-81071429D01*
X248273810Y-81071429D01*
X248464286Y-81166667D01*
X248559524Y-81357143D01*
X248559524Y-81547619D01*
X247607143Y-81738095D01*
X249416667Y-82404762D02*
X249416667Y-81071429D01*
X249416667Y-81452381D02*
X249511906Y-81261905D01*
X249607144Y-81166667D01*
X249797620Y-81071429D01*
X249988096Y-81071429D01*
D13*
X226550000Y-57250000D02*
X226550000Y-55250000D01*
X183000000Y-92750000D02*
X185000000Y-92750000D01*
X141450000Y-55250000D02*
X141450000Y-57250000D01*
M02*
